G75*
%MOIN*%
%OFA0B0*%
%FSLAX25Y25*%
%IPPOS*%
%LPD*%
%AMOC8*
5,1,8,0,0,1.08239X$1,22.5*
%
%ADD10C,0.00000*%
D10*
X0018503Y0060455D02*
X0083522Y0060455D01*
X0083926Y0060460D01*
X0084329Y0060475D01*
X0084732Y0060499D01*
X0085134Y0060533D01*
X0085535Y0060577D01*
X0085935Y0060630D01*
X0086334Y0060693D01*
X0086731Y0060766D01*
X0087126Y0060849D01*
X0087519Y0060940D01*
X0087910Y0061042D01*
X0088298Y0061152D01*
X0088684Y0061273D01*
X0089066Y0061402D01*
X0089445Y0061540D01*
X0089821Y0061688D01*
X0090193Y0061845D01*
X0090561Y0062010D01*
X0090925Y0062185D01*
X0091284Y0062368D01*
X0091639Y0062560D01*
X0091990Y0062761D01*
X0092335Y0062969D01*
X0092675Y0063186D01*
X0093010Y0063412D01*
X0093340Y0063645D01*
X0093663Y0063886D01*
X0093981Y0064135D01*
X0094293Y0064392D01*
X0094598Y0064656D01*
X0094897Y0064927D01*
X0095189Y0065205D01*
X0095475Y0065491D01*
X0095753Y0065783D01*
X0096024Y0066082D01*
X0096288Y0066387D01*
X0096545Y0066699D01*
X0096794Y0067017D01*
X0097035Y0067340D01*
X0097268Y0067670D01*
X0097494Y0068005D01*
X0097711Y0068345D01*
X0097919Y0068690D01*
X0098120Y0069041D01*
X0098312Y0069396D01*
X0098495Y0069755D01*
X0098670Y0070119D01*
X0098835Y0070487D01*
X0098992Y0070859D01*
X0099140Y0071235D01*
X0099278Y0071614D01*
X0099407Y0071996D01*
X0099528Y0072382D01*
X0099638Y0072770D01*
X0099740Y0073161D01*
X0099831Y0073554D01*
X0099914Y0073949D01*
X0099987Y0074346D01*
X0100050Y0074745D01*
X0100103Y0075145D01*
X0100147Y0075546D01*
X0100181Y0075948D01*
X0100205Y0076351D01*
X0100220Y0076754D01*
X0100225Y0077158D01*
X0100225Y0240602D01*
X0100225Y0077158D01*
X0100226Y0077158D02*
X0100231Y0076754D01*
X0100246Y0076351D01*
X0100270Y0075948D01*
X0100304Y0075546D01*
X0100348Y0075145D01*
X0100401Y0074745D01*
X0100464Y0074346D01*
X0100537Y0073949D01*
X0100620Y0073554D01*
X0100711Y0073161D01*
X0100813Y0072770D01*
X0100923Y0072382D01*
X0101044Y0071996D01*
X0101173Y0071614D01*
X0101311Y0071235D01*
X0101459Y0070859D01*
X0101616Y0070487D01*
X0101781Y0070119D01*
X0101956Y0069755D01*
X0102139Y0069396D01*
X0102331Y0069041D01*
X0102532Y0068690D01*
X0102740Y0068345D01*
X0102957Y0068005D01*
X0103183Y0067670D01*
X0103416Y0067340D01*
X0103657Y0067017D01*
X0103906Y0066699D01*
X0104163Y0066387D01*
X0104427Y0066082D01*
X0104698Y0065783D01*
X0104976Y0065491D01*
X0105262Y0065205D01*
X0105554Y0064927D01*
X0105853Y0064656D01*
X0106158Y0064392D01*
X0106470Y0064135D01*
X0106788Y0063886D01*
X0107111Y0063645D01*
X0107441Y0063412D01*
X0107776Y0063186D01*
X0108116Y0062969D01*
X0108461Y0062761D01*
X0108812Y0062560D01*
X0109167Y0062368D01*
X0109526Y0062185D01*
X0109890Y0062010D01*
X0110258Y0061845D01*
X0110630Y0061688D01*
X0111006Y0061540D01*
X0111385Y0061402D01*
X0111767Y0061273D01*
X0112153Y0061152D01*
X0112541Y0061042D01*
X0112932Y0060940D01*
X0113325Y0060849D01*
X0113720Y0060766D01*
X0114117Y0060693D01*
X0114516Y0060630D01*
X0114916Y0060577D01*
X0115317Y0060533D01*
X0115719Y0060499D01*
X0116122Y0060475D01*
X0116525Y0060460D01*
X0116929Y0060455D01*
X0181947Y0060455D01*
X0182351Y0060460D01*
X0182754Y0060475D01*
X0183157Y0060499D01*
X0183559Y0060533D01*
X0183960Y0060577D01*
X0184360Y0060630D01*
X0184759Y0060693D01*
X0185156Y0060766D01*
X0185551Y0060849D01*
X0185944Y0060940D01*
X0186335Y0061042D01*
X0186723Y0061152D01*
X0187109Y0061273D01*
X0187491Y0061402D01*
X0187870Y0061540D01*
X0188246Y0061688D01*
X0188618Y0061845D01*
X0188986Y0062010D01*
X0189350Y0062185D01*
X0189709Y0062368D01*
X0190064Y0062560D01*
X0190415Y0062761D01*
X0190760Y0062969D01*
X0191100Y0063186D01*
X0191435Y0063412D01*
X0191765Y0063645D01*
X0192088Y0063886D01*
X0192406Y0064135D01*
X0192718Y0064392D01*
X0193023Y0064656D01*
X0193322Y0064927D01*
X0193614Y0065205D01*
X0193900Y0065491D01*
X0194178Y0065783D01*
X0194449Y0066082D01*
X0194713Y0066387D01*
X0194970Y0066699D01*
X0195219Y0067017D01*
X0195460Y0067340D01*
X0195693Y0067670D01*
X0195919Y0068005D01*
X0196136Y0068345D01*
X0196344Y0068690D01*
X0196545Y0069041D01*
X0196737Y0069396D01*
X0196920Y0069755D01*
X0197095Y0070119D01*
X0197260Y0070487D01*
X0197417Y0070859D01*
X0197565Y0071235D01*
X0197703Y0071614D01*
X0197832Y0071996D01*
X0197953Y0072382D01*
X0198063Y0072770D01*
X0198165Y0073161D01*
X0198256Y0073554D01*
X0198339Y0073949D01*
X0198412Y0074346D01*
X0198475Y0074745D01*
X0198528Y0075145D01*
X0198572Y0075546D01*
X0198606Y0075948D01*
X0198630Y0076351D01*
X0198645Y0076754D01*
X0198650Y0077158D01*
X0198650Y0240602D01*
X0198645Y0241006D01*
X0198630Y0241409D01*
X0198606Y0241812D01*
X0198572Y0242214D01*
X0198528Y0242615D01*
X0198475Y0243015D01*
X0198412Y0243414D01*
X0198339Y0243811D01*
X0198256Y0244206D01*
X0198165Y0244599D01*
X0198063Y0244990D01*
X0197953Y0245378D01*
X0197832Y0245764D01*
X0197703Y0246146D01*
X0197565Y0246525D01*
X0197417Y0246901D01*
X0197260Y0247273D01*
X0197095Y0247641D01*
X0196920Y0248005D01*
X0196737Y0248364D01*
X0196545Y0248719D01*
X0196344Y0249070D01*
X0196136Y0249415D01*
X0195919Y0249755D01*
X0195693Y0250090D01*
X0195460Y0250420D01*
X0195219Y0250743D01*
X0194970Y0251061D01*
X0194713Y0251373D01*
X0194449Y0251678D01*
X0194178Y0251977D01*
X0193900Y0252269D01*
X0193614Y0252555D01*
X0193322Y0252833D01*
X0193023Y0253104D01*
X0192718Y0253368D01*
X0192406Y0253625D01*
X0192088Y0253874D01*
X0191765Y0254115D01*
X0191435Y0254348D01*
X0191100Y0254574D01*
X0190760Y0254791D01*
X0190415Y0254999D01*
X0190064Y0255200D01*
X0189709Y0255392D01*
X0189350Y0255575D01*
X0188986Y0255750D01*
X0188618Y0255915D01*
X0188246Y0256072D01*
X0187870Y0256220D01*
X0187491Y0256358D01*
X0187109Y0256487D01*
X0186723Y0256608D01*
X0186335Y0256718D01*
X0185944Y0256820D01*
X0185551Y0256911D01*
X0185156Y0256994D01*
X0184759Y0257067D01*
X0184360Y0257130D01*
X0183960Y0257183D01*
X0183559Y0257227D01*
X0183157Y0257261D01*
X0182754Y0257285D01*
X0182351Y0257300D01*
X0181947Y0257305D01*
X0181947Y0257306D02*
X0116929Y0257306D01*
X0116929Y0257305D02*
X0116525Y0257300D01*
X0116122Y0257285D01*
X0115719Y0257261D01*
X0115317Y0257227D01*
X0114916Y0257183D01*
X0114516Y0257130D01*
X0114117Y0257067D01*
X0113720Y0256994D01*
X0113325Y0256911D01*
X0112932Y0256820D01*
X0112541Y0256718D01*
X0112153Y0256608D01*
X0111767Y0256487D01*
X0111385Y0256358D01*
X0111006Y0256220D01*
X0110630Y0256072D01*
X0110258Y0255915D01*
X0109890Y0255750D01*
X0109526Y0255575D01*
X0109167Y0255392D01*
X0108812Y0255200D01*
X0108461Y0254999D01*
X0108116Y0254791D01*
X0107776Y0254574D01*
X0107441Y0254348D01*
X0107111Y0254115D01*
X0106788Y0253874D01*
X0106470Y0253625D01*
X0106158Y0253368D01*
X0105853Y0253104D01*
X0105554Y0252833D01*
X0105262Y0252555D01*
X0104976Y0252269D01*
X0104698Y0251977D01*
X0104427Y0251678D01*
X0104163Y0251373D01*
X0103906Y0251061D01*
X0103657Y0250743D01*
X0103416Y0250420D01*
X0103183Y0250090D01*
X0102957Y0249755D01*
X0102740Y0249415D01*
X0102532Y0249070D01*
X0102331Y0248719D01*
X0102139Y0248364D01*
X0101956Y0248005D01*
X0101781Y0247641D01*
X0101616Y0247273D01*
X0101459Y0246901D01*
X0101311Y0246525D01*
X0101173Y0246146D01*
X0101044Y0245764D01*
X0100923Y0245378D01*
X0100813Y0244990D01*
X0100711Y0244599D01*
X0100620Y0244206D01*
X0100537Y0243811D01*
X0100464Y0243414D01*
X0100401Y0243015D01*
X0100348Y0242615D01*
X0100304Y0242214D01*
X0100270Y0241812D01*
X0100246Y0241409D01*
X0100231Y0241006D01*
X0100226Y0240602D01*
X0100225Y0240602D02*
X0100220Y0241006D01*
X0100205Y0241409D01*
X0100181Y0241812D01*
X0100147Y0242214D01*
X0100103Y0242615D01*
X0100050Y0243015D01*
X0099987Y0243414D01*
X0099914Y0243811D01*
X0099831Y0244206D01*
X0099740Y0244599D01*
X0099638Y0244990D01*
X0099528Y0245378D01*
X0099407Y0245764D01*
X0099278Y0246146D01*
X0099140Y0246525D01*
X0098992Y0246901D01*
X0098835Y0247273D01*
X0098670Y0247641D01*
X0098495Y0248005D01*
X0098312Y0248364D01*
X0098120Y0248719D01*
X0097919Y0249070D01*
X0097711Y0249415D01*
X0097494Y0249755D01*
X0097268Y0250090D01*
X0097035Y0250420D01*
X0096794Y0250743D01*
X0096545Y0251061D01*
X0096288Y0251373D01*
X0096024Y0251678D01*
X0095753Y0251977D01*
X0095475Y0252269D01*
X0095189Y0252555D01*
X0094897Y0252833D01*
X0094598Y0253104D01*
X0094293Y0253368D01*
X0093981Y0253625D01*
X0093663Y0253874D01*
X0093340Y0254115D01*
X0093010Y0254348D01*
X0092675Y0254574D01*
X0092335Y0254791D01*
X0091990Y0254999D01*
X0091639Y0255200D01*
X0091284Y0255392D01*
X0090925Y0255575D01*
X0090561Y0255750D01*
X0090193Y0255915D01*
X0089821Y0256072D01*
X0089445Y0256220D01*
X0089066Y0256358D01*
X0088684Y0256487D01*
X0088298Y0256608D01*
X0087910Y0256718D01*
X0087519Y0256820D01*
X0087126Y0256911D01*
X0086731Y0256994D01*
X0086334Y0257067D01*
X0085935Y0257130D01*
X0085535Y0257183D01*
X0085134Y0257227D01*
X0084732Y0257261D01*
X0084329Y0257285D01*
X0083926Y0257300D01*
X0083522Y0257305D01*
X0083522Y0257306D02*
X0018503Y0257306D01*
X0018503Y0257305D02*
X0018099Y0257300D01*
X0017696Y0257285D01*
X0017293Y0257261D01*
X0016891Y0257227D01*
X0016490Y0257183D01*
X0016090Y0257130D01*
X0015691Y0257067D01*
X0015294Y0256994D01*
X0014899Y0256911D01*
X0014506Y0256820D01*
X0014115Y0256718D01*
X0013727Y0256608D01*
X0013341Y0256487D01*
X0012959Y0256358D01*
X0012580Y0256220D01*
X0012204Y0256072D01*
X0011832Y0255915D01*
X0011464Y0255750D01*
X0011100Y0255575D01*
X0010741Y0255392D01*
X0010386Y0255200D01*
X0010035Y0254999D01*
X0009690Y0254791D01*
X0009350Y0254574D01*
X0009015Y0254348D01*
X0008685Y0254115D01*
X0008362Y0253874D01*
X0008044Y0253625D01*
X0007732Y0253368D01*
X0007427Y0253104D01*
X0007128Y0252833D01*
X0006836Y0252555D01*
X0006550Y0252269D01*
X0006272Y0251977D01*
X0006001Y0251678D01*
X0005737Y0251373D01*
X0005480Y0251061D01*
X0005231Y0250743D01*
X0004990Y0250420D01*
X0004757Y0250090D01*
X0004531Y0249755D01*
X0004314Y0249415D01*
X0004106Y0249070D01*
X0003905Y0248719D01*
X0003713Y0248364D01*
X0003530Y0248005D01*
X0003355Y0247641D01*
X0003190Y0247273D01*
X0003033Y0246901D01*
X0002885Y0246525D01*
X0002747Y0246146D01*
X0002618Y0245764D01*
X0002497Y0245378D01*
X0002387Y0244990D01*
X0002285Y0244599D01*
X0002194Y0244206D01*
X0002111Y0243811D01*
X0002038Y0243414D01*
X0001975Y0243015D01*
X0001922Y0242615D01*
X0001878Y0242214D01*
X0001844Y0241812D01*
X0001820Y0241409D01*
X0001805Y0241006D01*
X0001800Y0240602D01*
X0001800Y0077158D01*
X0001805Y0076754D01*
X0001820Y0076351D01*
X0001844Y0075948D01*
X0001878Y0075546D01*
X0001922Y0075145D01*
X0001975Y0074745D01*
X0002038Y0074346D01*
X0002111Y0073949D01*
X0002194Y0073554D01*
X0002285Y0073161D01*
X0002387Y0072770D01*
X0002497Y0072382D01*
X0002618Y0071996D01*
X0002747Y0071614D01*
X0002885Y0071235D01*
X0003033Y0070859D01*
X0003190Y0070487D01*
X0003355Y0070119D01*
X0003530Y0069755D01*
X0003713Y0069396D01*
X0003905Y0069041D01*
X0004106Y0068690D01*
X0004314Y0068345D01*
X0004531Y0068005D01*
X0004757Y0067670D01*
X0004990Y0067340D01*
X0005231Y0067017D01*
X0005480Y0066699D01*
X0005737Y0066387D01*
X0006001Y0066082D01*
X0006272Y0065783D01*
X0006550Y0065491D01*
X0006836Y0065205D01*
X0007128Y0064927D01*
X0007427Y0064656D01*
X0007732Y0064392D01*
X0008044Y0064135D01*
X0008362Y0063886D01*
X0008685Y0063645D01*
X0009015Y0063412D01*
X0009350Y0063186D01*
X0009690Y0062969D01*
X0010035Y0062761D01*
X0010386Y0062560D01*
X0010741Y0062368D01*
X0011100Y0062185D01*
X0011464Y0062010D01*
X0011832Y0061845D01*
X0012204Y0061688D01*
X0012580Y0061540D01*
X0012959Y0061402D01*
X0013341Y0061273D01*
X0013727Y0061152D01*
X0014115Y0061042D01*
X0014506Y0060940D01*
X0014899Y0060849D01*
X0015294Y0060766D01*
X0015691Y0060693D01*
X0016090Y0060630D01*
X0016490Y0060577D01*
X0016891Y0060533D01*
X0017293Y0060499D01*
X0017696Y0060475D01*
X0018099Y0060460D01*
X0018503Y0060455D01*
X0029359Y0071479D02*
X0029361Y0071580D01*
X0029367Y0071681D01*
X0029377Y0071782D01*
X0029391Y0071882D01*
X0029409Y0071981D01*
X0029431Y0072080D01*
X0029456Y0072178D01*
X0029486Y0072275D01*
X0029519Y0072370D01*
X0029556Y0072464D01*
X0029597Y0072557D01*
X0029641Y0072648D01*
X0029689Y0072737D01*
X0029741Y0072824D01*
X0029796Y0072909D01*
X0029854Y0072991D01*
X0029915Y0073072D01*
X0029980Y0073150D01*
X0030047Y0073225D01*
X0030117Y0073297D01*
X0030191Y0073367D01*
X0030267Y0073434D01*
X0030345Y0073498D01*
X0030426Y0073558D01*
X0030509Y0073615D01*
X0030595Y0073669D01*
X0030683Y0073720D01*
X0030772Y0073767D01*
X0030863Y0073811D01*
X0030956Y0073850D01*
X0031051Y0073887D01*
X0031146Y0073919D01*
X0031243Y0073948D01*
X0031342Y0073972D01*
X0031440Y0073993D01*
X0031540Y0074010D01*
X0031640Y0074023D01*
X0031741Y0074032D01*
X0031842Y0074037D01*
X0031943Y0074038D01*
X0032044Y0074035D01*
X0032145Y0074028D01*
X0032246Y0074017D01*
X0032346Y0074002D01*
X0032445Y0073983D01*
X0032544Y0073960D01*
X0032641Y0073934D01*
X0032738Y0073903D01*
X0032833Y0073869D01*
X0032926Y0073831D01*
X0033019Y0073789D01*
X0033109Y0073744D01*
X0033198Y0073695D01*
X0033284Y0073643D01*
X0033368Y0073587D01*
X0033451Y0073528D01*
X0033530Y0073466D01*
X0033608Y0073401D01*
X0033682Y0073333D01*
X0033754Y0073261D01*
X0033823Y0073188D01*
X0033889Y0073111D01*
X0033952Y0073032D01*
X0034012Y0072950D01*
X0034068Y0072866D01*
X0034121Y0072780D01*
X0034171Y0072692D01*
X0034217Y0072602D01*
X0034260Y0072511D01*
X0034299Y0072417D01*
X0034334Y0072322D01*
X0034365Y0072226D01*
X0034393Y0072129D01*
X0034417Y0072031D01*
X0034437Y0071932D01*
X0034453Y0071832D01*
X0034465Y0071731D01*
X0034473Y0071631D01*
X0034477Y0071530D01*
X0034477Y0071428D01*
X0034473Y0071327D01*
X0034465Y0071227D01*
X0034453Y0071126D01*
X0034437Y0071026D01*
X0034417Y0070927D01*
X0034393Y0070829D01*
X0034365Y0070732D01*
X0034334Y0070636D01*
X0034299Y0070541D01*
X0034260Y0070447D01*
X0034217Y0070356D01*
X0034171Y0070266D01*
X0034121Y0070178D01*
X0034068Y0070092D01*
X0034012Y0070008D01*
X0033952Y0069926D01*
X0033889Y0069847D01*
X0033823Y0069770D01*
X0033754Y0069697D01*
X0033682Y0069625D01*
X0033608Y0069557D01*
X0033530Y0069492D01*
X0033451Y0069430D01*
X0033368Y0069371D01*
X0033284Y0069315D01*
X0033197Y0069263D01*
X0033109Y0069214D01*
X0033019Y0069169D01*
X0032926Y0069127D01*
X0032833Y0069089D01*
X0032738Y0069055D01*
X0032641Y0069024D01*
X0032544Y0068998D01*
X0032445Y0068975D01*
X0032346Y0068956D01*
X0032246Y0068941D01*
X0032145Y0068930D01*
X0032044Y0068923D01*
X0031943Y0068920D01*
X0031842Y0068921D01*
X0031741Y0068926D01*
X0031640Y0068935D01*
X0031540Y0068948D01*
X0031440Y0068965D01*
X0031342Y0068986D01*
X0031243Y0069010D01*
X0031146Y0069039D01*
X0031051Y0069071D01*
X0030956Y0069108D01*
X0030863Y0069147D01*
X0030772Y0069191D01*
X0030683Y0069238D01*
X0030595Y0069289D01*
X0030509Y0069343D01*
X0030426Y0069400D01*
X0030345Y0069460D01*
X0030267Y0069524D01*
X0030191Y0069591D01*
X0030117Y0069661D01*
X0030047Y0069733D01*
X0029980Y0069808D01*
X0029915Y0069886D01*
X0029854Y0069967D01*
X0029796Y0070049D01*
X0029741Y0070134D01*
X0029689Y0070221D01*
X0029641Y0070310D01*
X0029597Y0070401D01*
X0029556Y0070494D01*
X0029519Y0070588D01*
X0029486Y0070683D01*
X0029456Y0070780D01*
X0029431Y0070878D01*
X0029409Y0070977D01*
X0029391Y0071076D01*
X0029377Y0071176D01*
X0029367Y0071277D01*
X0029361Y0071378D01*
X0029359Y0071479D01*
X0047469Y0071479D02*
X0047471Y0071580D01*
X0047477Y0071681D01*
X0047487Y0071782D01*
X0047501Y0071882D01*
X0047519Y0071981D01*
X0047541Y0072080D01*
X0047566Y0072178D01*
X0047596Y0072275D01*
X0047629Y0072370D01*
X0047666Y0072464D01*
X0047707Y0072557D01*
X0047751Y0072648D01*
X0047799Y0072737D01*
X0047851Y0072824D01*
X0047906Y0072909D01*
X0047964Y0072991D01*
X0048025Y0073072D01*
X0048090Y0073150D01*
X0048157Y0073225D01*
X0048227Y0073297D01*
X0048301Y0073367D01*
X0048377Y0073434D01*
X0048455Y0073498D01*
X0048536Y0073558D01*
X0048619Y0073615D01*
X0048705Y0073669D01*
X0048793Y0073720D01*
X0048882Y0073767D01*
X0048973Y0073811D01*
X0049066Y0073850D01*
X0049161Y0073887D01*
X0049256Y0073919D01*
X0049353Y0073948D01*
X0049452Y0073972D01*
X0049550Y0073993D01*
X0049650Y0074010D01*
X0049750Y0074023D01*
X0049851Y0074032D01*
X0049952Y0074037D01*
X0050053Y0074038D01*
X0050154Y0074035D01*
X0050255Y0074028D01*
X0050356Y0074017D01*
X0050456Y0074002D01*
X0050555Y0073983D01*
X0050654Y0073960D01*
X0050751Y0073934D01*
X0050848Y0073903D01*
X0050943Y0073869D01*
X0051036Y0073831D01*
X0051129Y0073789D01*
X0051219Y0073744D01*
X0051308Y0073695D01*
X0051394Y0073643D01*
X0051478Y0073587D01*
X0051561Y0073528D01*
X0051640Y0073466D01*
X0051718Y0073401D01*
X0051792Y0073333D01*
X0051864Y0073261D01*
X0051933Y0073188D01*
X0051999Y0073111D01*
X0052062Y0073032D01*
X0052122Y0072950D01*
X0052178Y0072866D01*
X0052231Y0072780D01*
X0052281Y0072692D01*
X0052327Y0072602D01*
X0052370Y0072511D01*
X0052409Y0072417D01*
X0052444Y0072322D01*
X0052475Y0072226D01*
X0052503Y0072129D01*
X0052527Y0072031D01*
X0052547Y0071932D01*
X0052563Y0071832D01*
X0052575Y0071731D01*
X0052583Y0071631D01*
X0052587Y0071530D01*
X0052587Y0071428D01*
X0052583Y0071327D01*
X0052575Y0071227D01*
X0052563Y0071126D01*
X0052547Y0071026D01*
X0052527Y0070927D01*
X0052503Y0070829D01*
X0052475Y0070732D01*
X0052444Y0070636D01*
X0052409Y0070541D01*
X0052370Y0070447D01*
X0052327Y0070356D01*
X0052281Y0070266D01*
X0052231Y0070178D01*
X0052178Y0070092D01*
X0052122Y0070008D01*
X0052062Y0069926D01*
X0051999Y0069847D01*
X0051933Y0069770D01*
X0051864Y0069697D01*
X0051792Y0069625D01*
X0051718Y0069557D01*
X0051640Y0069492D01*
X0051561Y0069430D01*
X0051478Y0069371D01*
X0051394Y0069315D01*
X0051307Y0069263D01*
X0051219Y0069214D01*
X0051129Y0069169D01*
X0051036Y0069127D01*
X0050943Y0069089D01*
X0050848Y0069055D01*
X0050751Y0069024D01*
X0050654Y0068998D01*
X0050555Y0068975D01*
X0050456Y0068956D01*
X0050356Y0068941D01*
X0050255Y0068930D01*
X0050154Y0068923D01*
X0050053Y0068920D01*
X0049952Y0068921D01*
X0049851Y0068926D01*
X0049750Y0068935D01*
X0049650Y0068948D01*
X0049550Y0068965D01*
X0049452Y0068986D01*
X0049353Y0069010D01*
X0049256Y0069039D01*
X0049161Y0069071D01*
X0049066Y0069108D01*
X0048973Y0069147D01*
X0048882Y0069191D01*
X0048793Y0069238D01*
X0048705Y0069289D01*
X0048619Y0069343D01*
X0048536Y0069400D01*
X0048455Y0069460D01*
X0048377Y0069524D01*
X0048301Y0069591D01*
X0048227Y0069661D01*
X0048157Y0069733D01*
X0048090Y0069808D01*
X0048025Y0069886D01*
X0047964Y0069967D01*
X0047906Y0070049D01*
X0047851Y0070134D01*
X0047799Y0070221D01*
X0047751Y0070310D01*
X0047707Y0070401D01*
X0047666Y0070494D01*
X0047629Y0070588D01*
X0047596Y0070683D01*
X0047566Y0070780D01*
X0047541Y0070878D01*
X0047519Y0070977D01*
X0047501Y0071076D01*
X0047487Y0071176D01*
X0047477Y0071277D01*
X0047471Y0071378D01*
X0047469Y0071479D01*
X0127784Y0071479D02*
X0127786Y0071580D01*
X0127792Y0071681D01*
X0127802Y0071782D01*
X0127816Y0071882D01*
X0127834Y0071981D01*
X0127856Y0072080D01*
X0127881Y0072178D01*
X0127911Y0072275D01*
X0127944Y0072370D01*
X0127981Y0072464D01*
X0128022Y0072557D01*
X0128066Y0072648D01*
X0128114Y0072737D01*
X0128166Y0072824D01*
X0128221Y0072909D01*
X0128279Y0072991D01*
X0128340Y0073072D01*
X0128405Y0073150D01*
X0128472Y0073225D01*
X0128542Y0073297D01*
X0128616Y0073367D01*
X0128692Y0073434D01*
X0128770Y0073498D01*
X0128851Y0073558D01*
X0128934Y0073615D01*
X0129020Y0073669D01*
X0129108Y0073720D01*
X0129197Y0073767D01*
X0129288Y0073811D01*
X0129381Y0073850D01*
X0129476Y0073887D01*
X0129571Y0073919D01*
X0129668Y0073948D01*
X0129767Y0073972D01*
X0129865Y0073993D01*
X0129965Y0074010D01*
X0130065Y0074023D01*
X0130166Y0074032D01*
X0130267Y0074037D01*
X0130368Y0074038D01*
X0130469Y0074035D01*
X0130570Y0074028D01*
X0130671Y0074017D01*
X0130771Y0074002D01*
X0130870Y0073983D01*
X0130969Y0073960D01*
X0131066Y0073934D01*
X0131163Y0073903D01*
X0131258Y0073869D01*
X0131351Y0073831D01*
X0131444Y0073789D01*
X0131534Y0073744D01*
X0131623Y0073695D01*
X0131709Y0073643D01*
X0131793Y0073587D01*
X0131876Y0073528D01*
X0131955Y0073466D01*
X0132033Y0073401D01*
X0132107Y0073333D01*
X0132179Y0073261D01*
X0132248Y0073188D01*
X0132314Y0073111D01*
X0132377Y0073032D01*
X0132437Y0072950D01*
X0132493Y0072866D01*
X0132546Y0072780D01*
X0132596Y0072692D01*
X0132642Y0072602D01*
X0132685Y0072511D01*
X0132724Y0072417D01*
X0132759Y0072322D01*
X0132790Y0072226D01*
X0132818Y0072129D01*
X0132842Y0072031D01*
X0132862Y0071932D01*
X0132878Y0071832D01*
X0132890Y0071731D01*
X0132898Y0071631D01*
X0132902Y0071530D01*
X0132902Y0071428D01*
X0132898Y0071327D01*
X0132890Y0071227D01*
X0132878Y0071126D01*
X0132862Y0071026D01*
X0132842Y0070927D01*
X0132818Y0070829D01*
X0132790Y0070732D01*
X0132759Y0070636D01*
X0132724Y0070541D01*
X0132685Y0070447D01*
X0132642Y0070356D01*
X0132596Y0070266D01*
X0132546Y0070178D01*
X0132493Y0070092D01*
X0132437Y0070008D01*
X0132377Y0069926D01*
X0132314Y0069847D01*
X0132248Y0069770D01*
X0132179Y0069697D01*
X0132107Y0069625D01*
X0132033Y0069557D01*
X0131955Y0069492D01*
X0131876Y0069430D01*
X0131793Y0069371D01*
X0131709Y0069315D01*
X0131622Y0069263D01*
X0131534Y0069214D01*
X0131444Y0069169D01*
X0131351Y0069127D01*
X0131258Y0069089D01*
X0131163Y0069055D01*
X0131066Y0069024D01*
X0130969Y0068998D01*
X0130870Y0068975D01*
X0130771Y0068956D01*
X0130671Y0068941D01*
X0130570Y0068930D01*
X0130469Y0068923D01*
X0130368Y0068920D01*
X0130267Y0068921D01*
X0130166Y0068926D01*
X0130065Y0068935D01*
X0129965Y0068948D01*
X0129865Y0068965D01*
X0129767Y0068986D01*
X0129668Y0069010D01*
X0129571Y0069039D01*
X0129476Y0069071D01*
X0129381Y0069108D01*
X0129288Y0069147D01*
X0129197Y0069191D01*
X0129108Y0069238D01*
X0129020Y0069289D01*
X0128934Y0069343D01*
X0128851Y0069400D01*
X0128770Y0069460D01*
X0128692Y0069524D01*
X0128616Y0069591D01*
X0128542Y0069661D01*
X0128472Y0069733D01*
X0128405Y0069808D01*
X0128340Y0069886D01*
X0128279Y0069967D01*
X0128221Y0070049D01*
X0128166Y0070134D01*
X0128114Y0070221D01*
X0128066Y0070310D01*
X0128022Y0070401D01*
X0127981Y0070494D01*
X0127944Y0070588D01*
X0127911Y0070683D01*
X0127881Y0070780D01*
X0127856Y0070878D01*
X0127834Y0070977D01*
X0127816Y0071076D01*
X0127802Y0071176D01*
X0127792Y0071277D01*
X0127786Y0071378D01*
X0127784Y0071479D01*
X0145895Y0071479D02*
X0145897Y0071580D01*
X0145903Y0071681D01*
X0145913Y0071782D01*
X0145927Y0071882D01*
X0145945Y0071981D01*
X0145967Y0072080D01*
X0145992Y0072178D01*
X0146022Y0072275D01*
X0146055Y0072370D01*
X0146092Y0072464D01*
X0146133Y0072557D01*
X0146177Y0072648D01*
X0146225Y0072737D01*
X0146277Y0072824D01*
X0146332Y0072909D01*
X0146390Y0072991D01*
X0146451Y0073072D01*
X0146516Y0073150D01*
X0146583Y0073225D01*
X0146653Y0073297D01*
X0146727Y0073367D01*
X0146803Y0073434D01*
X0146881Y0073498D01*
X0146962Y0073558D01*
X0147045Y0073615D01*
X0147131Y0073669D01*
X0147219Y0073720D01*
X0147308Y0073767D01*
X0147399Y0073811D01*
X0147492Y0073850D01*
X0147587Y0073887D01*
X0147682Y0073919D01*
X0147779Y0073948D01*
X0147878Y0073972D01*
X0147976Y0073993D01*
X0148076Y0074010D01*
X0148176Y0074023D01*
X0148277Y0074032D01*
X0148378Y0074037D01*
X0148479Y0074038D01*
X0148580Y0074035D01*
X0148681Y0074028D01*
X0148782Y0074017D01*
X0148882Y0074002D01*
X0148981Y0073983D01*
X0149080Y0073960D01*
X0149177Y0073934D01*
X0149274Y0073903D01*
X0149369Y0073869D01*
X0149462Y0073831D01*
X0149555Y0073789D01*
X0149645Y0073744D01*
X0149734Y0073695D01*
X0149820Y0073643D01*
X0149904Y0073587D01*
X0149987Y0073528D01*
X0150066Y0073466D01*
X0150144Y0073401D01*
X0150218Y0073333D01*
X0150290Y0073261D01*
X0150359Y0073188D01*
X0150425Y0073111D01*
X0150488Y0073032D01*
X0150548Y0072950D01*
X0150604Y0072866D01*
X0150657Y0072780D01*
X0150707Y0072692D01*
X0150753Y0072602D01*
X0150796Y0072511D01*
X0150835Y0072417D01*
X0150870Y0072322D01*
X0150901Y0072226D01*
X0150929Y0072129D01*
X0150953Y0072031D01*
X0150973Y0071932D01*
X0150989Y0071832D01*
X0151001Y0071731D01*
X0151009Y0071631D01*
X0151013Y0071530D01*
X0151013Y0071428D01*
X0151009Y0071327D01*
X0151001Y0071227D01*
X0150989Y0071126D01*
X0150973Y0071026D01*
X0150953Y0070927D01*
X0150929Y0070829D01*
X0150901Y0070732D01*
X0150870Y0070636D01*
X0150835Y0070541D01*
X0150796Y0070447D01*
X0150753Y0070356D01*
X0150707Y0070266D01*
X0150657Y0070178D01*
X0150604Y0070092D01*
X0150548Y0070008D01*
X0150488Y0069926D01*
X0150425Y0069847D01*
X0150359Y0069770D01*
X0150290Y0069697D01*
X0150218Y0069625D01*
X0150144Y0069557D01*
X0150066Y0069492D01*
X0149987Y0069430D01*
X0149904Y0069371D01*
X0149820Y0069315D01*
X0149733Y0069263D01*
X0149645Y0069214D01*
X0149555Y0069169D01*
X0149462Y0069127D01*
X0149369Y0069089D01*
X0149274Y0069055D01*
X0149177Y0069024D01*
X0149080Y0068998D01*
X0148981Y0068975D01*
X0148882Y0068956D01*
X0148782Y0068941D01*
X0148681Y0068930D01*
X0148580Y0068923D01*
X0148479Y0068920D01*
X0148378Y0068921D01*
X0148277Y0068926D01*
X0148176Y0068935D01*
X0148076Y0068948D01*
X0147976Y0068965D01*
X0147878Y0068986D01*
X0147779Y0069010D01*
X0147682Y0069039D01*
X0147587Y0069071D01*
X0147492Y0069108D01*
X0147399Y0069147D01*
X0147308Y0069191D01*
X0147219Y0069238D01*
X0147131Y0069289D01*
X0147045Y0069343D01*
X0146962Y0069400D01*
X0146881Y0069460D01*
X0146803Y0069524D01*
X0146727Y0069591D01*
X0146653Y0069661D01*
X0146583Y0069733D01*
X0146516Y0069808D01*
X0146451Y0069886D01*
X0146390Y0069967D01*
X0146332Y0070049D01*
X0146277Y0070134D01*
X0146225Y0070221D01*
X0146177Y0070310D01*
X0146133Y0070401D01*
X0146092Y0070494D01*
X0146055Y0070588D01*
X0146022Y0070683D01*
X0145992Y0070780D01*
X0145967Y0070878D01*
X0145945Y0070977D01*
X0145927Y0071076D01*
X0145913Y0071176D01*
X0145903Y0071277D01*
X0145897Y0071378D01*
X0145895Y0071479D01*
M02*
