G75*
%MOIN*%
%OFA0B0*%
%FSLAX25Y25*%
%IPPOS*%
%LPD*%
%AMOC8*
5,1,8,0,0,1.08239X$1,22.5*
%
%ADD10C,0.00000*%
%ADD11C,0.00200*%
%ADD12C,0.00800*%
%ADD13C,0.00400*%
%ADD14C,0.01000*%
%ADD15C,0.00600*%
%ADD16C,0.00500*%
D10*
X0018503Y0060455D02*
X0083522Y0060455D01*
X0083926Y0060460D01*
X0084329Y0060475D01*
X0084732Y0060499D01*
X0085134Y0060533D01*
X0085535Y0060577D01*
X0085935Y0060630D01*
X0086334Y0060693D01*
X0086731Y0060766D01*
X0087126Y0060849D01*
X0087519Y0060940D01*
X0087910Y0061042D01*
X0088298Y0061152D01*
X0088684Y0061273D01*
X0089066Y0061402D01*
X0089445Y0061540D01*
X0089821Y0061688D01*
X0090193Y0061845D01*
X0090561Y0062010D01*
X0090925Y0062185D01*
X0091284Y0062368D01*
X0091639Y0062560D01*
X0091990Y0062761D01*
X0092335Y0062969D01*
X0092675Y0063186D01*
X0093010Y0063412D01*
X0093340Y0063645D01*
X0093663Y0063886D01*
X0093981Y0064135D01*
X0094293Y0064392D01*
X0094598Y0064656D01*
X0094897Y0064927D01*
X0095189Y0065205D01*
X0095475Y0065491D01*
X0095753Y0065783D01*
X0096024Y0066082D01*
X0096288Y0066387D01*
X0096545Y0066699D01*
X0096794Y0067017D01*
X0097035Y0067340D01*
X0097268Y0067670D01*
X0097494Y0068005D01*
X0097711Y0068345D01*
X0097919Y0068690D01*
X0098120Y0069041D01*
X0098312Y0069396D01*
X0098495Y0069755D01*
X0098670Y0070119D01*
X0098835Y0070487D01*
X0098992Y0070859D01*
X0099140Y0071235D01*
X0099278Y0071614D01*
X0099407Y0071996D01*
X0099528Y0072382D01*
X0099638Y0072770D01*
X0099740Y0073161D01*
X0099831Y0073554D01*
X0099914Y0073949D01*
X0099987Y0074346D01*
X0100050Y0074745D01*
X0100103Y0075145D01*
X0100147Y0075546D01*
X0100181Y0075948D01*
X0100205Y0076351D01*
X0100220Y0076754D01*
X0100225Y0077158D01*
X0100225Y0240602D01*
X0100220Y0241006D01*
X0100205Y0241409D01*
X0100181Y0241812D01*
X0100147Y0242214D01*
X0100103Y0242615D01*
X0100050Y0243015D01*
X0099987Y0243414D01*
X0099914Y0243811D01*
X0099831Y0244206D01*
X0099740Y0244599D01*
X0099638Y0244990D01*
X0099528Y0245378D01*
X0099407Y0245764D01*
X0099278Y0246146D01*
X0099140Y0246525D01*
X0098992Y0246901D01*
X0098835Y0247273D01*
X0098670Y0247641D01*
X0098495Y0248005D01*
X0098312Y0248364D01*
X0098120Y0248719D01*
X0097919Y0249070D01*
X0097711Y0249415D01*
X0097494Y0249755D01*
X0097268Y0250090D01*
X0097035Y0250420D01*
X0096794Y0250743D01*
X0096545Y0251061D01*
X0096288Y0251373D01*
X0096024Y0251678D01*
X0095753Y0251977D01*
X0095475Y0252269D01*
X0095189Y0252555D01*
X0094897Y0252833D01*
X0094598Y0253104D01*
X0094293Y0253368D01*
X0093981Y0253625D01*
X0093663Y0253874D01*
X0093340Y0254115D01*
X0093010Y0254348D01*
X0092675Y0254574D01*
X0092335Y0254791D01*
X0091990Y0254999D01*
X0091639Y0255200D01*
X0091284Y0255392D01*
X0090925Y0255575D01*
X0090561Y0255750D01*
X0090193Y0255915D01*
X0089821Y0256072D01*
X0089445Y0256220D01*
X0089066Y0256358D01*
X0088684Y0256487D01*
X0088298Y0256608D01*
X0087910Y0256718D01*
X0087519Y0256820D01*
X0087126Y0256911D01*
X0086731Y0256994D01*
X0086334Y0257067D01*
X0085935Y0257130D01*
X0085535Y0257183D01*
X0085134Y0257227D01*
X0084732Y0257261D01*
X0084329Y0257285D01*
X0083926Y0257300D01*
X0083522Y0257305D01*
X0083522Y0257306D02*
X0018503Y0257306D01*
X0018503Y0257305D02*
X0018099Y0257300D01*
X0017696Y0257285D01*
X0017293Y0257261D01*
X0016891Y0257227D01*
X0016490Y0257183D01*
X0016090Y0257130D01*
X0015691Y0257067D01*
X0015294Y0256994D01*
X0014899Y0256911D01*
X0014506Y0256820D01*
X0014115Y0256718D01*
X0013727Y0256608D01*
X0013341Y0256487D01*
X0012959Y0256358D01*
X0012580Y0256220D01*
X0012204Y0256072D01*
X0011832Y0255915D01*
X0011464Y0255750D01*
X0011100Y0255575D01*
X0010741Y0255392D01*
X0010386Y0255200D01*
X0010035Y0254999D01*
X0009690Y0254791D01*
X0009350Y0254574D01*
X0009015Y0254348D01*
X0008685Y0254115D01*
X0008362Y0253874D01*
X0008044Y0253625D01*
X0007732Y0253368D01*
X0007427Y0253104D01*
X0007128Y0252833D01*
X0006836Y0252555D01*
X0006550Y0252269D01*
X0006272Y0251977D01*
X0006001Y0251678D01*
X0005737Y0251373D01*
X0005480Y0251061D01*
X0005231Y0250743D01*
X0004990Y0250420D01*
X0004757Y0250090D01*
X0004531Y0249755D01*
X0004314Y0249415D01*
X0004106Y0249070D01*
X0003905Y0248719D01*
X0003713Y0248364D01*
X0003530Y0248005D01*
X0003355Y0247641D01*
X0003190Y0247273D01*
X0003033Y0246901D01*
X0002885Y0246525D01*
X0002747Y0246146D01*
X0002618Y0245764D01*
X0002497Y0245378D01*
X0002387Y0244990D01*
X0002285Y0244599D01*
X0002194Y0244206D01*
X0002111Y0243811D01*
X0002038Y0243414D01*
X0001975Y0243015D01*
X0001922Y0242615D01*
X0001878Y0242214D01*
X0001844Y0241812D01*
X0001820Y0241409D01*
X0001805Y0241006D01*
X0001800Y0240602D01*
X0001800Y0077158D01*
X0001805Y0076754D01*
X0001820Y0076351D01*
X0001844Y0075948D01*
X0001878Y0075546D01*
X0001922Y0075145D01*
X0001975Y0074745D01*
X0002038Y0074346D01*
X0002111Y0073949D01*
X0002194Y0073554D01*
X0002285Y0073161D01*
X0002387Y0072770D01*
X0002497Y0072382D01*
X0002618Y0071996D01*
X0002747Y0071614D01*
X0002885Y0071235D01*
X0003033Y0070859D01*
X0003190Y0070487D01*
X0003355Y0070119D01*
X0003530Y0069755D01*
X0003713Y0069396D01*
X0003905Y0069041D01*
X0004106Y0068690D01*
X0004314Y0068345D01*
X0004531Y0068005D01*
X0004757Y0067670D01*
X0004990Y0067340D01*
X0005231Y0067017D01*
X0005480Y0066699D01*
X0005737Y0066387D01*
X0006001Y0066082D01*
X0006272Y0065783D01*
X0006550Y0065491D01*
X0006836Y0065205D01*
X0007128Y0064927D01*
X0007427Y0064656D01*
X0007732Y0064392D01*
X0008044Y0064135D01*
X0008362Y0063886D01*
X0008685Y0063645D01*
X0009015Y0063412D01*
X0009350Y0063186D01*
X0009690Y0062969D01*
X0010035Y0062761D01*
X0010386Y0062560D01*
X0010741Y0062368D01*
X0011100Y0062185D01*
X0011464Y0062010D01*
X0011832Y0061845D01*
X0012204Y0061688D01*
X0012580Y0061540D01*
X0012959Y0061402D01*
X0013341Y0061273D01*
X0013727Y0061152D01*
X0014115Y0061042D01*
X0014506Y0060940D01*
X0014899Y0060849D01*
X0015294Y0060766D01*
X0015691Y0060693D01*
X0016090Y0060630D01*
X0016490Y0060577D01*
X0016891Y0060533D01*
X0017293Y0060499D01*
X0017696Y0060475D01*
X0018099Y0060460D01*
X0018503Y0060455D01*
X0029359Y0071479D02*
X0029361Y0071580D01*
X0029367Y0071681D01*
X0029377Y0071782D01*
X0029391Y0071882D01*
X0029409Y0071981D01*
X0029431Y0072080D01*
X0029456Y0072178D01*
X0029486Y0072275D01*
X0029519Y0072370D01*
X0029556Y0072464D01*
X0029597Y0072557D01*
X0029641Y0072648D01*
X0029689Y0072737D01*
X0029741Y0072824D01*
X0029796Y0072909D01*
X0029854Y0072991D01*
X0029915Y0073072D01*
X0029980Y0073150D01*
X0030047Y0073225D01*
X0030117Y0073297D01*
X0030191Y0073367D01*
X0030267Y0073434D01*
X0030345Y0073498D01*
X0030426Y0073558D01*
X0030509Y0073615D01*
X0030595Y0073669D01*
X0030683Y0073720D01*
X0030772Y0073767D01*
X0030863Y0073811D01*
X0030956Y0073850D01*
X0031051Y0073887D01*
X0031146Y0073919D01*
X0031243Y0073948D01*
X0031342Y0073972D01*
X0031440Y0073993D01*
X0031540Y0074010D01*
X0031640Y0074023D01*
X0031741Y0074032D01*
X0031842Y0074037D01*
X0031943Y0074038D01*
X0032044Y0074035D01*
X0032145Y0074028D01*
X0032246Y0074017D01*
X0032346Y0074002D01*
X0032445Y0073983D01*
X0032544Y0073960D01*
X0032641Y0073934D01*
X0032738Y0073903D01*
X0032833Y0073869D01*
X0032926Y0073831D01*
X0033019Y0073789D01*
X0033109Y0073744D01*
X0033198Y0073695D01*
X0033284Y0073643D01*
X0033368Y0073587D01*
X0033451Y0073528D01*
X0033530Y0073466D01*
X0033608Y0073401D01*
X0033682Y0073333D01*
X0033754Y0073261D01*
X0033823Y0073188D01*
X0033889Y0073111D01*
X0033952Y0073032D01*
X0034012Y0072950D01*
X0034068Y0072866D01*
X0034121Y0072780D01*
X0034171Y0072692D01*
X0034217Y0072602D01*
X0034260Y0072511D01*
X0034299Y0072417D01*
X0034334Y0072322D01*
X0034365Y0072226D01*
X0034393Y0072129D01*
X0034417Y0072031D01*
X0034437Y0071932D01*
X0034453Y0071832D01*
X0034465Y0071731D01*
X0034473Y0071631D01*
X0034477Y0071530D01*
X0034477Y0071428D01*
X0034473Y0071327D01*
X0034465Y0071227D01*
X0034453Y0071126D01*
X0034437Y0071026D01*
X0034417Y0070927D01*
X0034393Y0070829D01*
X0034365Y0070732D01*
X0034334Y0070636D01*
X0034299Y0070541D01*
X0034260Y0070447D01*
X0034217Y0070356D01*
X0034171Y0070266D01*
X0034121Y0070178D01*
X0034068Y0070092D01*
X0034012Y0070008D01*
X0033952Y0069926D01*
X0033889Y0069847D01*
X0033823Y0069770D01*
X0033754Y0069697D01*
X0033682Y0069625D01*
X0033608Y0069557D01*
X0033530Y0069492D01*
X0033451Y0069430D01*
X0033368Y0069371D01*
X0033284Y0069315D01*
X0033197Y0069263D01*
X0033109Y0069214D01*
X0033019Y0069169D01*
X0032926Y0069127D01*
X0032833Y0069089D01*
X0032738Y0069055D01*
X0032641Y0069024D01*
X0032544Y0068998D01*
X0032445Y0068975D01*
X0032346Y0068956D01*
X0032246Y0068941D01*
X0032145Y0068930D01*
X0032044Y0068923D01*
X0031943Y0068920D01*
X0031842Y0068921D01*
X0031741Y0068926D01*
X0031640Y0068935D01*
X0031540Y0068948D01*
X0031440Y0068965D01*
X0031342Y0068986D01*
X0031243Y0069010D01*
X0031146Y0069039D01*
X0031051Y0069071D01*
X0030956Y0069108D01*
X0030863Y0069147D01*
X0030772Y0069191D01*
X0030683Y0069238D01*
X0030595Y0069289D01*
X0030509Y0069343D01*
X0030426Y0069400D01*
X0030345Y0069460D01*
X0030267Y0069524D01*
X0030191Y0069591D01*
X0030117Y0069661D01*
X0030047Y0069733D01*
X0029980Y0069808D01*
X0029915Y0069886D01*
X0029854Y0069967D01*
X0029796Y0070049D01*
X0029741Y0070134D01*
X0029689Y0070221D01*
X0029641Y0070310D01*
X0029597Y0070401D01*
X0029556Y0070494D01*
X0029519Y0070588D01*
X0029486Y0070683D01*
X0029456Y0070780D01*
X0029431Y0070878D01*
X0029409Y0070977D01*
X0029391Y0071076D01*
X0029377Y0071176D01*
X0029367Y0071277D01*
X0029361Y0071378D01*
X0029359Y0071479D01*
X0047469Y0071479D02*
X0047471Y0071580D01*
X0047477Y0071681D01*
X0047487Y0071782D01*
X0047501Y0071882D01*
X0047519Y0071981D01*
X0047541Y0072080D01*
X0047566Y0072178D01*
X0047596Y0072275D01*
X0047629Y0072370D01*
X0047666Y0072464D01*
X0047707Y0072557D01*
X0047751Y0072648D01*
X0047799Y0072737D01*
X0047851Y0072824D01*
X0047906Y0072909D01*
X0047964Y0072991D01*
X0048025Y0073072D01*
X0048090Y0073150D01*
X0048157Y0073225D01*
X0048227Y0073297D01*
X0048301Y0073367D01*
X0048377Y0073434D01*
X0048455Y0073498D01*
X0048536Y0073558D01*
X0048619Y0073615D01*
X0048705Y0073669D01*
X0048793Y0073720D01*
X0048882Y0073767D01*
X0048973Y0073811D01*
X0049066Y0073850D01*
X0049161Y0073887D01*
X0049256Y0073919D01*
X0049353Y0073948D01*
X0049452Y0073972D01*
X0049550Y0073993D01*
X0049650Y0074010D01*
X0049750Y0074023D01*
X0049851Y0074032D01*
X0049952Y0074037D01*
X0050053Y0074038D01*
X0050154Y0074035D01*
X0050255Y0074028D01*
X0050356Y0074017D01*
X0050456Y0074002D01*
X0050555Y0073983D01*
X0050654Y0073960D01*
X0050751Y0073934D01*
X0050848Y0073903D01*
X0050943Y0073869D01*
X0051036Y0073831D01*
X0051129Y0073789D01*
X0051219Y0073744D01*
X0051308Y0073695D01*
X0051394Y0073643D01*
X0051478Y0073587D01*
X0051561Y0073528D01*
X0051640Y0073466D01*
X0051718Y0073401D01*
X0051792Y0073333D01*
X0051864Y0073261D01*
X0051933Y0073188D01*
X0051999Y0073111D01*
X0052062Y0073032D01*
X0052122Y0072950D01*
X0052178Y0072866D01*
X0052231Y0072780D01*
X0052281Y0072692D01*
X0052327Y0072602D01*
X0052370Y0072511D01*
X0052409Y0072417D01*
X0052444Y0072322D01*
X0052475Y0072226D01*
X0052503Y0072129D01*
X0052527Y0072031D01*
X0052547Y0071932D01*
X0052563Y0071832D01*
X0052575Y0071731D01*
X0052583Y0071631D01*
X0052587Y0071530D01*
X0052587Y0071428D01*
X0052583Y0071327D01*
X0052575Y0071227D01*
X0052563Y0071126D01*
X0052547Y0071026D01*
X0052527Y0070927D01*
X0052503Y0070829D01*
X0052475Y0070732D01*
X0052444Y0070636D01*
X0052409Y0070541D01*
X0052370Y0070447D01*
X0052327Y0070356D01*
X0052281Y0070266D01*
X0052231Y0070178D01*
X0052178Y0070092D01*
X0052122Y0070008D01*
X0052062Y0069926D01*
X0051999Y0069847D01*
X0051933Y0069770D01*
X0051864Y0069697D01*
X0051792Y0069625D01*
X0051718Y0069557D01*
X0051640Y0069492D01*
X0051561Y0069430D01*
X0051478Y0069371D01*
X0051394Y0069315D01*
X0051307Y0069263D01*
X0051219Y0069214D01*
X0051129Y0069169D01*
X0051036Y0069127D01*
X0050943Y0069089D01*
X0050848Y0069055D01*
X0050751Y0069024D01*
X0050654Y0068998D01*
X0050555Y0068975D01*
X0050456Y0068956D01*
X0050356Y0068941D01*
X0050255Y0068930D01*
X0050154Y0068923D01*
X0050053Y0068920D01*
X0049952Y0068921D01*
X0049851Y0068926D01*
X0049750Y0068935D01*
X0049650Y0068948D01*
X0049550Y0068965D01*
X0049452Y0068986D01*
X0049353Y0069010D01*
X0049256Y0069039D01*
X0049161Y0069071D01*
X0049066Y0069108D01*
X0048973Y0069147D01*
X0048882Y0069191D01*
X0048793Y0069238D01*
X0048705Y0069289D01*
X0048619Y0069343D01*
X0048536Y0069400D01*
X0048455Y0069460D01*
X0048377Y0069524D01*
X0048301Y0069591D01*
X0048227Y0069661D01*
X0048157Y0069733D01*
X0048090Y0069808D01*
X0048025Y0069886D01*
X0047964Y0069967D01*
X0047906Y0070049D01*
X0047851Y0070134D01*
X0047799Y0070221D01*
X0047751Y0070310D01*
X0047707Y0070401D01*
X0047666Y0070494D01*
X0047629Y0070588D01*
X0047596Y0070683D01*
X0047566Y0070780D01*
X0047541Y0070878D01*
X0047519Y0070977D01*
X0047501Y0071076D01*
X0047487Y0071176D01*
X0047477Y0071277D01*
X0047471Y0071378D01*
X0047469Y0071479D01*
D11*
X0048872Y0082171D02*
X0048872Y0084373D01*
X0049973Y0083272D01*
X0048505Y0083272D01*
X0050715Y0084006D02*
X0051082Y0084373D01*
X0051816Y0084373D01*
X0052183Y0084006D01*
X0052183Y0082538D01*
X0051816Y0082171D01*
X0051082Y0082171D01*
X0050715Y0082538D01*
X0051154Y0094769D02*
X0051154Y0095136D01*
X0049686Y0096604D01*
X0049686Y0096971D01*
X0051154Y0096971D01*
X0050787Y0097525D02*
X0051154Y0097892D01*
X0050787Y0097525D02*
X0050053Y0097525D01*
X0049686Y0097892D01*
X0049686Y0098259D01*
X0050053Y0098626D01*
X0050420Y0098626D01*
X0050053Y0098626D02*
X0049686Y0098993D01*
X0049686Y0099360D01*
X0050053Y0099727D01*
X0050787Y0099727D01*
X0051154Y0099360D01*
X0051896Y0099360D02*
X0051896Y0098626D01*
X0052263Y0098259D01*
X0053364Y0098259D01*
X0053364Y0097525D02*
X0053364Y0099727D01*
X0052263Y0099727D01*
X0051896Y0099360D01*
X0052630Y0098259D02*
X0051896Y0097525D01*
X0052263Y0096971D02*
X0051896Y0096604D01*
X0051896Y0096237D01*
X0053364Y0094769D01*
X0051896Y0094769D01*
X0052263Y0096971D02*
X0052997Y0096971D01*
X0053364Y0096604D01*
X0055592Y0096604D02*
X0057059Y0095136D01*
X0057059Y0094769D01*
X0057801Y0094769D02*
X0059269Y0094769D01*
X0057801Y0096237D01*
X0057801Y0096604D01*
X0058168Y0096971D01*
X0058902Y0096971D01*
X0059269Y0096604D01*
X0059269Y0097525D02*
X0059269Y0099727D01*
X0058168Y0099727D01*
X0057801Y0099360D01*
X0057801Y0098626D01*
X0058168Y0098259D01*
X0059269Y0098259D01*
X0058535Y0098259D02*
X0057801Y0097525D01*
X0057059Y0096971D02*
X0055592Y0096971D01*
X0055592Y0096604D01*
X0055959Y0097525D02*
X0055959Y0099727D01*
X0057059Y0098626D01*
X0055592Y0098626D01*
X0058788Y0091309D02*
X0058788Y0089841D01*
X0056587Y0089841D01*
X0056954Y0089099D02*
X0056587Y0088732D01*
X0056587Y0087631D01*
X0055853Y0087631D02*
X0058055Y0087631D01*
X0058055Y0088732D01*
X0057688Y0089099D01*
X0056954Y0089099D01*
X0057688Y0089841D02*
X0057688Y0090575D01*
X0058422Y0086889D02*
X0056954Y0085422D01*
X0056587Y0085422D01*
X0056587Y0084313D02*
X0058788Y0084313D01*
X0057688Y0083212D01*
X0057688Y0084680D01*
X0058788Y0085422D02*
X0058788Y0086889D01*
X0058422Y0086889D01*
X0068829Y0099925D02*
X0071031Y0099925D01*
X0071031Y0101026D01*
X0070664Y0101393D01*
X0069930Y0101393D01*
X0069563Y0101026D01*
X0069563Y0099925D01*
X0069563Y0100659D02*
X0068829Y0101393D01*
X0068829Y0102135D02*
X0068829Y0103603D01*
X0068829Y0102869D02*
X0071031Y0102869D01*
X0070297Y0102135D01*
X0070297Y0104345D02*
X0071031Y0105079D01*
X0068829Y0105079D01*
X0068829Y0104345D02*
X0068829Y0105813D01*
X0068829Y0107799D02*
X0068829Y0109267D01*
X0068829Y0108533D02*
X0071031Y0108533D01*
X0070297Y0107799D01*
X0070664Y0110009D02*
X0069196Y0110009D01*
X0070664Y0111477D01*
X0069196Y0111477D01*
X0068829Y0111110D01*
X0068829Y0110376D01*
X0069196Y0110009D01*
X0069196Y0112219D02*
X0070664Y0113687D01*
X0069196Y0113687D01*
X0068829Y0113320D01*
X0068829Y0112586D01*
X0069196Y0112219D01*
X0070664Y0112219D01*
X0071031Y0112586D01*
X0071031Y0113320D01*
X0070664Y0113687D01*
X0070664Y0111477D02*
X0071031Y0111110D01*
X0071031Y0110376D01*
X0070664Y0110009D01*
X0071031Y0127484D02*
X0068829Y0127484D01*
X0069563Y0127484D02*
X0069563Y0128585D01*
X0069930Y0128952D01*
X0070664Y0128952D01*
X0071031Y0128585D01*
X0071031Y0127484D01*
X0069563Y0128218D02*
X0068829Y0128952D01*
X0069196Y0129694D02*
X0068829Y0130061D01*
X0068829Y0130795D01*
X0069196Y0131162D01*
X0069930Y0131162D01*
X0070297Y0130795D01*
X0070297Y0130428D01*
X0069930Y0129694D01*
X0071031Y0129694D01*
X0071031Y0131162D01*
X0070297Y0135358D02*
X0071031Y0136092D01*
X0068829Y0136092D01*
X0068829Y0135358D02*
X0068829Y0136826D01*
X0069196Y0137568D02*
X0070664Y0139036D01*
X0069196Y0139036D01*
X0068829Y0138669D01*
X0068829Y0137935D01*
X0069196Y0137568D01*
X0070664Y0137568D01*
X0071031Y0137935D01*
X0071031Y0138669D01*
X0070664Y0139036D01*
X0070664Y0139778D02*
X0071031Y0140145D01*
X0071031Y0140879D01*
X0070664Y0141246D01*
X0069196Y0139778D01*
X0068829Y0140145D01*
X0068829Y0140879D01*
X0069196Y0141246D01*
X0070664Y0141246D01*
X0070664Y0139778D02*
X0069196Y0139778D01*
X0065678Y0140791D02*
X0063476Y0140791D01*
X0063476Y0140057D02*
X0063476Y0141525D01*
X0063843Y0142267D02*
X0065311Y0143735D01*
X0063843Y0143735D01*
X0063476Y0143368D01*
X0063476Y0142634D01*
X0063843Y0142267D01*
X0065311Y0142267D01*
X0065678Y0142634D01*
X0065678Y0143368D01*
X0065311Y0143735D01*
X0065311Y0144477D02*
X0065678Y0144844D01*
X0065678Y0145578D01*
X0065311Y0145945D01*
X0063843Y0144477D01*
X0063476Y0144844D01*
X0063476Y0145578D01*
X0063843Y0145945D01*
X0065311Y0145945D01*
X0064944Y0146687D02*
X0064944Y0147787D01*
X0064577Y0148154D01*
X0063476Y0148154D01*
X0063476Y0148896D02*
X0065678Y0148896D01*
X0065678Y0150364D01*
X0064577Y0149630D02*
X0064577Y0148896D01*
X0064944Y0146687D02*
X0063476Y0146687D01*
X0063843Y0144477D02*
X0065311Y0144477D01*
X0065678Y0140791D02*
X0064944Y0140057D01*
X0065311Y0152592D02*
X0063843Y0152592D01*
X0063476Y0152959D01*
X0063476Y0153693D01*
X0063843Y0154060D01*
X0063843Y0154802D02*
X0063476Y0154802D01*
X0063843Y0154802D02*
X0065311Y0156270D01*
X0065678Y0156270D01*
X0065678Y0154802D01*
X0065311Y0154060D02*
X0065678Y0153693D01*
X0065678Y0152959D01*
X0065311Y0152592D01*
X0068829Y0158980D02*
X0071031Y0158980D01*
X0071031Y0160081D01*
X0070664Y0160448D01*
X0069930Y0160448D01*
X0069563Y0160081D01*
X0069563Y0158980D01*
X0069563Y0159714D02*
X0068829Y0160448D01*
X0069196Y0161190D02*
X0068829Y0161557D01*
X0068829Y0162291D01*
X0069196Y0162658D01*
X0069563Y0162658D01*
X0069930Y0162291D01*
X0069930Y0161190D01*
X0069196Y0161190D01*
X0069930Y0161190D02*
X0070664Y0161924D01*
X0071031Y0162658D01*
X0070297Y0166854D02*
X0071031Y0167588D01*
X0068829Y0167588D01*
X0068829Y0166854D02*
X0068829Y0168322D01*
X0069196Y0169064D02*
X0070664Y0170532D01*
X0069196Y0170532D01*
X0068829Y0170165D01*
X0068829Y0169431D01*
X0069196Y0169064D01*
X0070664Y0169064D01*
X0071031Y0169431D01*
X0071031Y0170165D01*
X0070664Y0170532D01*
X0070664Y0171274D02*
X0071031Y0171641D01*
X0071031Y0172375D01*
X0070664Y0172742D01*
X0069196Y0171274D01*
X0068829Y0171641D01*
X0068829Y0172375D01*
X0069196Y0172742D01*
X0070664Y0172742D01*
X0070664Y0171274D02*
X0069196Y0171274D01*
X0068829Y0190476D02*
X0071031Y0190476D01*
X0071031Y0191577D01*
X0070664Y0191944D01*
X0069930Y0191944D01*
X0069563Y0191577D01*
X0069563Y0190476D01*
X0069563Y0191210D02*
X0068829Y0191944D01*
X0068829Y0192686D02*
X0069196Y0192686D01*
X0070664Y0194154D01*
X0071031Y0194154D01*
X0071031Y0192686D01*
X0070297Y0198350D02*
X0071031Y0199084D01*
X0068829Y0199084D01*
X0068829Y0198350D02*
X0068829Y0199818D01*
X0069196Y0200560D02*
X0070664Y0202028D01*
X0069196Y0202028D01*
X0068829Y0201661D01*
X0068829Y0200927D01*
X0069196Y0200560D01*
X0070664Y0200560D01*
X0071031Y0200927D01*
X0071031Y0201661D01*
X0070664Y0202028D01*
X0070664Y0202770D02*
X0071031Y0203137D01*
X0071031Y0203871D01*
X0070664Y0204238D01*
X0069196Y0202770D01*
X0068829Y0203137D01*
X0068829Y0203871D01*
X0069196Y0204238D01*
X0070664Y0204238D01*
X0070664Y0202770D02*
X0069196Y0202770D01*
X0068829Y0221972D02*
X0071031Y0221972D01*
X0071031Y0223073D01*
X0070664Y0223440D01*
X0069930Y0223440D01*
X0069563Y0223073D01*
X0069563Y0221972D01*
X0069563Y0222706D02*
X0068829Y0223440D01*
X0069196Y0224182D02*
X0069563Y0224182D01*
X0069930Y0224549D01*
X0069930Y0225283D01*
X0069563Y0225650D01*
X0069196Y0225650D01*
X0068829Y0225283D01*
X0068829Y0224549D01*
X0069196Y0224182D01*
X0069930Y0224549D02*
X0070297Y0224182D01*
X0070664Y0224182D01*
X0071031Y0224549D01*
X0071031Y0225283D01*
X0070664Y0225650D01*
X0070297Y0225650D01*
X0069930Y0225283D01*
X0070297Y0229846D02*
X0071031Y0230580D01*
X0068829Y0230580D01*
X0068829Y0229846D02*
X0068829Y0231314D01*
X0069196Y0232056D02*
X0070664Y0233524D01*
X0069196Y0233524D01*
X0068829Y0233157D01*
X0068829Y0232423D01*
X0069196Y0232056D01*
X0070664Y0232056D01*
X0071031Y0232423D01*
X0071031Y0233157D01*
X0070664Y0233524D01*
X0070664Y0234266D02*
X0071031Y0234633D01*
X0071031Y0235367D01*
X0070664Y0235734D01*
X0069196Y0234266D01*
X0068829Y0234633D01*
X0068829Y0235367D01*
X0069196Y0235734D01*
X0070664Y0235734D01*
X0070664Y0234266D02*
X0069196Y0234266D01*
X0053364Y0229648D02*
X0052263Y0229648D01*
X0051896Y0229281D01*
X0051896Y0228547D01*
X0052263Y0228180D01*
X0053364Y0228180D01*
X0053364Y0227446D02*
X0053364Y0229648D01*
X0052630Y0228180D02*
X0051896Y0227446D01*
X0052263Y0226892D02*
X0051896Y0226525D01*
X0051896Y0226158D01*
X0053364Y0224691D01*
X0051896Y0224691D01*
X0051154Y0224691D02*
X0051154Y0225058D01*
X0049686Y0226525D01*
X0049686Y0226892D01*
X0051154Y0226892D01*
X0051154Y0227446D02*
X0049686Y0228914D01*
X0049686Y0229281D01*
X0050053Y0229648D01*
X0050787Y0229648D01*
X0051154Y0229281D01*
X0051154Y0227446D02*
X0049686Y0227446D01*
X0052263Y0226892D02*
X0052997Y0226892D01*
X0053364Y0226525D01*
X0047737Y0248022D02*
X0047737Y0250224D01*
X0046636Y0250224D01*
X0046269Y0249857D01*
X0046269Y0249123D01*
X0046636Y0248756D01*
X0047737Y0248756D01*
X0048479Y0250591D02*
X0049947Y0249123D01*
X0049947Y0248756D01*
X0050689Y0249857D02*
X0052157Y0249857D01*
X0051056Y0250958D01*
X0051056Y0248756D01*
X0050002Y0252781D02*
X0049268Y0252781D01*
X0048901Y0253148D01*
X0048159Y0252781D02*
X0046691Y0254249D01*
X0046691Y0254616D01*
X0047058Y0254983D01*
X0047792Y0254983D01*
X0048159Y0254616D01*
X0048901Y0254616D02*
X0049268Y0254983D01*
X0050002Y0254983D01*
X0050369Y0254616D01*
X0050369Y0253148D01*
X0050002Y0252781D01*
X0049947Y0250958D02*
X0048479Y0250958D01*
X0048479Y0250591D01*
X0048159Y0252781D02*
X0046691Y0252781D01*
X0045527Y0250958D02*
X0045527Y0248756D01*
X0045527Y0249857D02*
X0044793Y0249857D01*
X0045527Y0250958D02*
X0044059Y0250958D01*
X0037196Y0249660D02*
X0035728Y0249660D01*
X0034986Y0248926D02*
X0034986Y0248559D01*
X0034986Y0248926D02*
X0033518Y0250394D01*
X0033518Y0250761D01*
X0034986Y0250761D01*
X0036095Y0250761D02*
X0036095Y0248559D01*
X0037196Y0249660D02*
X0036095Y0250761D01*
X0032776Y0250027D02*
X0031675Y0250027D01*
X0031308Y0249660D01*
X0031308Y0248926D01*
X0031675Y0248559D01*
X0032776Y0248559D01*
X0032776Y0247825D02*
X0032776Y0250027D01*
X0032876Y0253175D02*
X0032142Y0253175D01*
X0031775Y0253542D01*
X0031033Y0253175D02*
X0029566Y0253175D01*
X0030299Y0253175D02*
X0030299Y0255377D01*
X0031033Y0254643D01*
X0031775Y0255010D02*
X0032142Y0255377D01*
X0032876Y0255377D01*
X0033243Y0255010D01*
X0033243Y0253542D01*
X0032876Y0253175D01*
X0030566Y0250761D02*
X0030566Y0248559D01*
X0030566Y0249660D02*
X0029832Y0249660D01*
X0029099Y0250761D02*
X0030566Y0250761D01*
X0030252Y0229686D02*
X0030252Y0227484D01*
X0030986Y0227484D02*
X0029518Y0227484D01*
X0029518Y0226930D02*
X0029518Y0226563D01*
X0030986Y0225095D01*
X0030986Y0224728D01*
X0031728Y0224728D02*
X0033196Y0224728D01*
X0031728Y0226196D01*
X0031728Y0226563D01*
X0032095Y0226930D01*
X0032829Y0226930D01*
X0033196Y0226563D01*
X0033196Y0227484D02*
X0033196Y0229686D01*
X0032095Y0229686D01*
X0031728Y0229319D01*
X0031728Y0228585D01*
X0032095Y0228218D01*
X0033196Y0228218D01*
X0032462Y0228218D02*
X0031728Y0227484D01*
X0030986Y0226930D02*
X0029518Y0226930D01*
X0030986Y0228952D02*
X0030252Y0229686D01*
X0027291Y0212363D02*
X0026190Y0212363D01*
X0025823Y0211996D01*
X0025823Y0211262D01*
X0026190Y0210895D01*
X0027291Y0210895D01*
X0027291Y0210161D02*
X0027291Y0212363D01*
X0026557Y0210895D02*
X0025823Y0210161D01*
X0026190Y0209607D02*
X0027291Y0208506D01*
X0025823Y0208506D01*
X0025081Y0207772D02*
X0025081Y0207406D01*
X0025081Y0207772D02*
X0023613Y0209240D01*
X0023613Y0209607D01*
X0025081Y0209607D01*
X0024714Y0210161D02*
X0023980Y0210161D01*
X0023613Y0210528D01*
X0023613Y0211996D01*
X0023980Y0212363D01*
X0024714Y0212363D01*
X0025081Y0211996D01*
X0025081Y0211629D01*
X0024714Y0211262D01*
X0023613Y0211262D01*
X0024714Y0210161D02*
X0025081Y0210528D01*
X0026190Y0209607D02*
X0026190Y0207406D01*
X0022871Y0207406D02*
X0022871Y0209607D01*
X0021770Y0208873D02*
X0022871Y0208139D01*
X0021770Y0207406D01*
X0037875Y0200541D02*
X0039343Y0199073D01*
X0038976Y0198706D01*
X0038242Y0198706D01*
X0037875Y0199073D01*
X0037875Y0200541D01*
X0038242Y0200908D01*
X0038976Y0200908D01*
X0039343Y0200541D01*
X0039343Y0199073D01*
X0040085Y0198706D02*
X0041553Y0198706D01*
X0041185Y0198152D02*
X0039717Y0198152D01*
X0039717Y0197785D01*
X0041185Y0196317D01*
X0041185Y0195950D01*
X0042293Y0195950D02*
X0042293Y0198152D01*
X0043394Y0197051D01*
X0041927Y0197051D01*
X0042295Y0198706D02*
X0043029Y0199440D01*
X0042662Y0199440D02*
X0043763Y0199440D01*
X0043763Y0198706D02*
X0043763Y0200908D01*
X0042662Y0200908D01*
X0042295Y0200541D01*
X0042295Y0199807D01*
X0042662Y0199440D01*
X0041553Y0200174D02*
X0040819Y0200908D01*
X0040819Y0198706D01*
X0038975Y0198152D02*
X0038975Y0195950D01*
X0038975Y0196684D02*
X0037874Y0197418D01*
X0038975Y0196684D02*
X0037874Y0195950D01*
X0045266Y0174962D02*
X0046000Y0174595D01*
X0046734Y0173861D01*
X0045633Y0173861D01*
X0045266Y0173494D01*
X0045266Y0173127D01*
X0045633Y0172760D01*
X0046367Y0172760D01*
X0046734Y0173127D01*
X0046734Y0173861D01*
X0047476Y0174595D02*
X0047843Y0174962D01*
X0048577Y0174962D01*
X0048944Y0174595D01*
X0048944Y0173127D01*
X0048577Y0172760D01*
X0047843Y0172760D01*
X0047476Y0173127D01*
X0048210Y0172206D02*
X0048210Y0170004D01*
X0048944Y0170004D02*
X0047476Y0170004D01*
X0046734Y0170371D02*
X0045266Y0171839D01*
X0045266Y0170371D01*
X0045633Y0170004D01*
X0046367Y0170004D01*
X0046734Y0170371D01*
X0046734Y0171839D01*
X0046367Y0172206D01*
X0045633Y0172206D01*
X0045266Y0171839D01*
X0044524Y0171839D02*
X0044157Y0172206D01*
X0043423Y0172206D01*
X0043056Y0171839D01*
X0044524Y0170371D01*
X0044157Y0170004D01*
X0043423Y0170004D01*
X0043056Y0170371D01*
X0043056Y0171839D01*
X0042314Y0171472D02*
X0041214Y0171472D01*
X0040847Y0171105D01*
X0040847Y0170004D01*
X0040105Y0170004D02*
X0040105Y0172206D01*
X0038637Y0172206D01*
X0039371Y0171105D02*
X0040105Y0171105D01*
X0042314Y0171472D02*
X0042314Y0170004D01*
X0044524Y0170371D02*
X0044524Y0171839D01*
X0045266Y0167088D02*
X0046734Y0167088D01*
X0046734Y0165987D01*
X0046000Y0166354D01*
X0045633Y0166354D01*
X0045266Y0165987D01*
X0045266Y0165253D01*
X0045633Y0164886D01*
X0046367Y0164886D01*
X0046734Y0165253D01*
X0047476Y0165253D02*
X0047843Y0164886D01*
X0048577Y0164886D01*
X0048944Y0165253D01*
X0048944Y0166721D01*
X0048577Y0167088D01*
X0047843Y0167088D01*
X0047476Y0166721D01*
X0047843Y0164332D02*
X0048944Y0163231D01*
X0047476Y0163231D01*
X0046734Y0162497D02*
X0046367Y0162497D01*
X0046367Y0162130D01*
X0046734Y0162130D01*
X0046734Y0162497D01*
X0045629Y0162497D02*
X0045629Y0162130D01*
X0045629Y0162497D02*
X0044161Y0163965D01*
X0044161Y0164332D01*
X0045629Y0164332D01*
X0047843Y0164332D02*
X0047843Y0162130D01*
X0048944Y0159214D02*
X0048944Y0157012D01*
X0047476Y0157012D01*
X0047476Y0156458D02*
X0048210Y0156091D01*
X0048944Y0155357D01*
X0047843Y0155357D01*
X0047476Y0154990D01*
X0047476Y0154623D01*
X0047843Y0154256D01*
X0048577Y0154256D01*
X0048944Y0154623D01*
X0048944Y0155357D01*
X0046734Y0154623D02*
X0046734Y0156091D01*
X0046367Y0156458D01*
X0045633Y0156458D01*
X0045266Y0156091D01*
X0046734Y0154623D01*
X0046367Y0154256D01*
X0045633Y0154256D01*
X0045266Y0154623D01*
X0045266Y0156091D01*
X0044524Y0156091D02*
X0044524Y0154623D01*
X0043056Y0156091D01*
X0043056Y0154623D01*
X0043423Y0154256D01*
X0044157Y0154256D01*
X0044524Y0154623D01*
X0044524Y0156091D02*
X0044157Y0156458D01*
X0043423Y0156458D01*
X0043056Y0156091D01*
X0042314Y0156458D02*
X0042314Y0154256D01*
X0042314Y0154990D02*
X0041214Y0154990D01*
X0040847Y0155357D01*
X0040847Y0156091D01*
X0041214Y0156458D01*
X0042314Y0156458D01*
X0041580Y0154990D02*
X0040847Y0154256D01*
X0041210Y0162130D02*
X0041210Y0164332D01*
X0039742Y0164332D01*
X0040476Y0163231D02*
X0041210Y0163231D01*
X0041951Y0163598D02*
X0041951Y0162130D01*
X0043052Y0162130D01*
X0043419Y0162497D01*
X0043419Y0163598D01*
X0045266Y0157012D02*
X0046734Y0157012D01*
X0046000Y0157012D02*
X0046000Y0159214D01*
X0046734Y0158480D01*
X0048944Y0171472D02*
X0048210Y0172206D01*
X0047843Y0138348D02*
X0048577Y0138348D01*
X0048944Y0137981D01*
X0048944Y0136513D01*
X0048577Y0136146D01*
X0047843Y0136146D01*
X0047476Y0136513D01*
X0046734Y0136513D02*
X0046734Y0136880D01*
X0046367Y0137247D01*
X0045633Y0137247D01*
X0045266Y0136880D01*
X0045266Y0136513D01*
X0045633Y0136146D01*
X0046367Y0136146D01*
X0046734Y0136513D01*
X0046367Y0137247D02*
X0046734Y0137614D01*
X0046734Y0137981D01*
X0046367Y0138348D01*
X0045633Y0138348D01*
X0045266Y0137981D01*
X0045266Y0137614D01*
X0045633Y0137247D01*
X0045633Y0135592D02*
X0045266Y0135225D01*
X0046734Y0133757D01*
X0046367Y0133390D01*
X0045633Y0133390D01*
X0045266Y0133757D01*
X0045266Y0135225D01*
X0045633Y0135592D02*
X0046367Y0135592D01*
X0046734Y0135225D01*
X0046734Y0133757D01*
X0047476Y0133390D02*
X0048944Y0133390D01*
X0048210Y0133390D02*
X0048210Y0135592D01*
X0048944Y0134858D01*
X0047476Y0137981D02*
X0047843Y0138348D01*
X0044524Y0134858D02*
X0044524Y0133757D01*
X0044157Y0133390D01*
X0043056Y0133390D01*
X0043056Y0134858D01*
X0042314Y0134491D02*
X0041580Y0134491D01*
X0040847Y0135592D02*
X0042314Y0135592D01*
X0042314Y0133390D01*
X0045633Y0120631D02*
X0046367Y0120631D01*
X0046734Y0120264D01*
X0046734Y0119897D01*
X0046367Y0119530D01*
X0045266Y0119530D01*
X0045266Y0118796D02*
X0045266Y0120264D01*
X0045633Y0120631D01*
X0045266Y0118796D02*
X0045633Y0118429D01*
X0046367Y0118429D01*
X0046734Y0118796D01*
X0047476Y0118796D02*
X0047843Y0118429D01*
X0048577Y0118429D01*
X0048944Y0118796D01*
X0048944Y0120264D01*
X0048577Y0120631D01*
X0047843Y0120631D01*
X0047476Y0120264D01*
X0047843Y0117875D02*
X0048577Y0117875D01*
X0048944Y0117508D01*
X0047843Y0117875D02*
X0047476Y0117508D01*
X0047476Y0117141D01*
X0048944Y0115673D01*
X0047476Y0115673D01*
X0046734Y0115673D02*
X0045266Y0117141D01*
X0045266Y0117508D01*
X0045633Y0117875D01*
X0046367Y0117875D01*
X0046734Y0117508D01*
X0046734Y0115673D02*
X0045266Y0115673D01*
X0044524Y0116040D02*
X0044157Y0115673D01*
X0043056Y0115673D01*
X0043056Y0117141D01*
X0042314Y0116774D02*
X0041580Y0116774D01*
X0040847Y0117875D02*
X0042314Y0117875D01*
X0042314Y0115673D01*
X0044524Y0116040D02*
X0044524Y0117141D01*
X0034064Y0094253D02*
X0035165Y0093152D01*
X0033697Y0093152D01*
X0032955Y0092418D02*
X0032955Y0092051D01*
X0032955Y0092418D02*
X0031487Y0093886D01*
X0031487Y0094253D01*
X0032955Y0094253D01*
X0034064Y0094253D02*
X0034064Y0092051D01*
X0032903Y0098787D02*
X0032903Y0100066D01*
X0032477Y0100492D01*
X0030771Y0100492D01*
X0030345Y0100066D01*
X0030345Y0098787D01*
X0032903Y0098787D01*
X0032477Y0101325D02*
X0030771Y0101325D01*
X0030345Y0101751D01*
X0030345Y0102604D01*
X0030771Y0103030D01*
X0032477Y0103030D01*
X0032903Y0102604D01*
X0032903Y0101751D01*
X0032477Y0101325D01*
X0028769Y0101325D02*
X0028769Y0103030D01*
X0028769Y0102177D02*
X0026211Y0102177D01*
X0026637Y0100492D02*
X0026211Y0100066D01*
X0026211Y0099213D01*
X0026637Y0098787D01*
X0028343Y0098787D01*
X0028769Y0099213D01*
X0028769Y0100066D01*
X0028343Y0100492D01*
X0026637Y0100492D01*
X0026211Y0097955D02*
X0028769Y0097955D01*
X0028769Y0096249D02*
X0026211Y0097955D01*
X0026211Y0096249D02*
X0028769Y0096249D01*
X0028535Y0094253D02*
X0027067Y0094253D01*
X0027801Y0093152D02*
X0028535Y0093152D01*
X0029277Y0093152D02*
X0029277Y0092418D01*
X0029644Y0092051D01*
X0030745Y0092051D01*
X0030745Y0091317D02*
X0030745Y0093519D01*
X0029644Y0093519D01*
X0029277Y0093152D01*
X0028535Y0092051D02*
X0028535Y0094253D01*
X0024635Y0093712D02*
X0022077Y0093712D01*
X0022077Y0095417D01*
X0022077Y0096249D02*
X0023783Y0096249D01*
X0024635Y0097102D01*
X0023783Y0097955D01*
X0022077Y0097955D01*
X0023356Y0097955D02*
X0023356Y0096249D01*
X0022504Y0092880D02*
X0022077Y0092453D01*
X0022077Y0091601D01*
X0022504Y0091174D01*
X0024635Y0091174D01*
X0024209Y0090342D02*
X0024635Y0089916D01*
X0024635Y0088637D01*
X0022077Y0088637D01*
X0022930Y0088637D02*
X0022930Y0089916D01*
X0023356Y0090342D01*
X0024209Y0090342D01*
X0024209Y0087804D02*
X0022504Y0087804D01*
X0022077Y0087378D01*
X0022077Y0086525D01*
X0022504Y0086099D01*
X0024209Y0086099D01*
X0024635Y0086525D01*
X0024635Y0087378D01*
X0024209Y0087804D01*
X0024209Y0085267D02*
X0023356Y0085267D01*
X0022930Y0084840D01*
X0022930Y0083561D01*
X0022077Y0083561D02*
X0024635Y0083561D01*
X0024635Y0084840D01*
X0024209Y0085267D01*
X0024635Y0092880D02*
X0022504Y0092880D01*
X0024635Y0098787D02*
X0024635Y0100492D01*
X0024635Y0101325D02*
X0022077Y0101325D01*
X0022077Y0103030D01*
X0023356Y0102177D02*
X0023356Y0101325D01*
X0022077Y0099640D02*
X0024635Y0099640D01*
X0024635Y0101325D02*
X0024635Y0103030D01*
X0031502Y0084469D02*
X0031135Y0084102D01*
X0031135Y0083735D01*
X0031502Y0083368D01*
X0031135Y0083001D01*
X0031135Y0082634D01*
X0031502Y0082267D01*
X0032236Y0082267D01*
X0032603Y0082634D01*
X0033345Y0082634D02*
X0033712Y0082267D01*
X0034446Y0082267D01*
X0034813Y0082634D01*
X0034813Y0084102D01*
X0034446Y0084469D01*
X0033712Y0084469D01*
X0033345Y0084102D01*
X0032603Y0084102D02*
X0032236Y0084469D01*
X0031502Y0084469D01*
X0031502Y0083368D02*
X0031869Y0083368D01*
D12*
X0087767Y0172232D02*
X0087767Y0173149D01*
X0088684Y0174067D01*
X0093271Y0174067D01*
X0093271Y0170397D02*
X0090519Y0170397D01*
X0089602Y0171315D01*
X0089602Y0174067D01*
X0090519Y0168266D02*
X0089602Y0167349D01*
X0089602Y0164597D01*
X0095105Y0164597D01*
X0093271Y0164597D02*
X0093271Y0167349D01*
X0092354Y0168266D01*
X0090519Y0168266D01*
X0090519Y0156666D02*
X0089602Y0155749D01*
X0089602Y0153914D01*
X0090519Y0152997D01*
X0094188Y0156666D01*
X0090519Y0156666D01*
X0090519Y0152997D02*
X0094188Y0152997D01*
X0095105Y0153914D01*
X0095105Y0155749D01*
X0094188Y0156666D01*
X0090519Y0151014D02*
X0089602Y0151014D01*
X0089602Y0150096D01*
X0090519Y0150096D01*
X0090519Y0151014D01*
X0089602Y0147966D02*
X0089602Y0144296D01*
X0089602Y0146131D02*
X0095105Y0146131D01*
X0093271Y0144296D01*
X0095105Y0142165D02*
X0091436Y0142165D01*
X0089602Y0140331D01*
X0091436Y0138496D01*
X0095105Y0138496D01*
X0093271Y0130614D02*
X0093271Y0129697D01*
X0091436Y0127862D01*
X0091436Y0125731D02*
X0091436Y0122062D01*
X0090519Y0122062D02*
X0092354Y0122062D01*
X0093271Y0122979D01*
X0093271Y0124814D01*
X0092354Y0125731D01*
X0091436Y0125731D01*
X0089602Y0122979D02*
X0090519Y0122062D01*
X0089602Y0122979D02*
X0089602Y0124814D01*
X0089602Y0127862D02*
X0093271Y0127862D01*
X0093271Y0119931D02*
X0089602Y0116262D01*
X0089602Y0119931D01*
X0089602Y0114230D02*
X0089602Y0112395D01*
X0089602Y0113312D02*
X0093271Y0113312D01*
X0093271Y0112395D01*
X0093271Y0110363D02*
X0093271Y0108528D01*
X0094188Y0109446D02*
X0090519Y0109446D01*
X0089602Y0110363D01*
X0089602Y0106496D02*
X0089602Y0104661D01*
X0089602Y0105579D02*
X0093271Y0105579D01*
X0093271Y0104661D01*
X0092354Y0102530D02*
X0089602Y0102530D01*
X0089602Y0098861D02*
X0093271Y0098861D01*
X0093271Y0101613D01*
X0092354Y0102530D01*
X0092354Y0096730D02*
X0089602Y0096730D01*
X0089602Y0093978D01*
X0090519Y0093061D01*
X0091436Y0093978D01*
X0091436Y0096730D01*
X0092354Y0096730D02*
X0093271Y0095813D01*
X0093271Y0093978D01*
X0094188Y0090930D02*
X0095105Y0090013D01*
X0095105Y0088178D01*
X0094188Y0087261D01*
X0093271Y0087261D01*
X0092354Y0088178D01*
X0092354Y0090013D01*
X0091436Y0090930D01*
X0090519Y0090930D01*
X0089602Y0090013D01*
X0089602Y0088178D01*
X0090519Y0087261D01*
X0090519Y0085130D02*
X0089602Y0084212D01*
X0089602Y0081460D01*
X0095105Y0081460D01*
X0095105Y0084212D01*
X0094188Y0085130D01*
X0093271Y0085130D01*
X0092354Y0084212D01*
X0092354Y0081460D01*
X0091436Y0079330D02*
X0090519Y0079330D01*
X0089602Y0078412D01*
X0089602Y0076578D01*
X0090519Y0075660D01*
X0090519Y0073529D02*
X0089602Y0072612D01*
X0089602Y0070777D01*
X0090519Y0069860D01*
X0095105Y0069860D01*
X0095105Y0073529D02*
X0090519Y0073529D01*
X0093271Y0075660D02*
X0092354Y0076578D01*
X0092354Y0078412D01*
X0091436Y0079330D01*
X0093271Y0075660D02*
X0094188Y0075660D01*
X0095105Y0076578D01*
X0095105Y0078412D01*
X0094188Y0079330D01*
X0092354Y0084212D02*
X0091436Y0085130D01*
X0090519Y0085130D01*
X0095105Y0105579D02*
X0096023Y0105579D01*
X0096023Y0113312D02*
X0095105Y0113312D01*
X0093271Y0116262D02*
X0093271Y0119931D01*
X0094188Y0181998D02*
X0090519Y0181998D01*
X0089602Y0182915D01*
X0089602Y0184750D01*
X0090519Y0185667D01*
X0091436Y0184750D02*
X0091436Y0182915D01*
X0093271Y0182915D01*
X0093271Y0184750D01*
X0091436Y0184750D01*
X0092354Y0185667D01*
X0094188Y0185667D01*
X0095105Y0184750D01*
X0095105Y0182915D01*
X0094188Y0181998D01*
X0092354Y0187798D02*
X0093271Y0188715D01*
X0093271Y0191467D01*
X0092354Y0193598D02*
X0093271Y0194515D01*
X0093271Y0196350D01*
X0092354Y0197267D01*
X0091436Y0197267D01*
X0091436Y0193598D01*
X0090519Y0193598D02*
X0092354Y0193598D01*
X0090519Y0191467D02*
X0091436Y0190550D01*
X0091436Y0188715D01*
X0092354Y0187798D01*
X0089602Y0190550D02*
X0090519Y0191467D01*
X0089602Y0190550D02*
X0089602Y0187798D01*
X0090519Y0193598D02*
X0089602Y0194515D01*
X0089602Y0196350D01*
X0090519Y0199398D02*
X0089602Y0200316D01*
X0089602Y0203068D01*
X0090519Y0205199D02*
X0089602Y0206116D01*
X0089602Y0208868D01*
X0093271Y0208868D01*
X0093271Y0210999D02*
X0089602Y0210999D01*
X0091436Y0210999D02*
X0093271Y0212833D01*
X0093271Y0213751D01*
X0092354Y0215832D02*
X0093271Y0216750D01*
X0093271Y0218584D01*
X0092354Y0219502D01*
X0091436Y0219502D01*
X0091436Y0215832D01*
X0090519Y0215832D02*
X0092354Y0215832D01*
X0090519Y0215832D02*
X0089602Y0216750D01*
X0089602Y0218584D01*
X0089602Y0221633D02*
X0089602Y0223467D01*
X0089602Y0222550D02*
X0095105Y0222550D01*
X0095105Y0221633D01*
X0093271Y0225499D02*
X0090519Y0225499D01*
X0089602Y0226417D01*
X0089602Y0229169D01*
X0088684Y0229169D02*
X0087767Y0228251D01*
X0087767Y0227334D01*
X0088684Y0229169D02*
X0093271Y0229169D01*
X0092354Y0231300D02*
X0092354Y0233134D01*
X0093271Y0235166D02*
X0093271Y0236084D01*
X0089602Y0236084D01*
X0089602Y0237001D02*
X0089602Y0235166D01*
X0089602Y0232217D02*
X0094188Y0232217D01*
X0095105Y0233134D01*
X0095105Y0236084D02*
X0096023Y0236084D01*
X0094188Y0239951D02*
X0090519Y0239951D01*
X0089602Y0240868D01*
X0089602Y0242900D02*
X0089602Y0246569D01*
X0093271Y0246569D02*
X0089602Y0242900D01*
X0093271Y0242900D02*
X0093271Y0246569D01*
X0093271Y0240868D02*
X0093271Y0239033D01*
X0093271Y0205199D02*
X0090519Y0205199D01*
X0093271Y0200316D02*
X0092354Y0199398D01*
X0090519Y0199398D01*
X0093271Y0200316D02*
X0093271Y0203068D01*
D13*
X0082844Y0197482D02*
X0082844Y0195180D01*
X0078240Y0195180D01*
X0078240Y0197482D01*
X0079007Y0198250D01*
X0082077Y0198250D01*
X0082844Y0197482D01*
X0082077Y0193646D02*
X0082844Y0192878D01*
X0082844Y0191344D01*
X0082077Y0190576D01*
X0079007Y0190576D01*
X0078240Y0191344D01*
X0078240Y0192878D01*
X0079007Y0193646D01*
X0082077Y0193646D01*
X0082077Y0189042D02*
X0082844Y0188274D01*
X0082844Y0186740D01*
X0082077Y0185972D01*
X0079007Y0185972D01*
X0078240Y0186740D01*
X0078240Y0188274D01*
X0079007Y0189042D01*
X0082077Y0189042D01*
X0082077Y0184438D02*
X0082844Y0183670D01*
X0082844Y0182136D01*
X0082077Y0181369D01*
X0079007Y0181369D01*
X0078240Y0182136D01*
X0078240Y0183670D01*
X0079007Y0184438D01*
X0080542Y0184438D01*
X0080542Y0182903D01*
X0078240Y0169055D02*
X0078240Y0165986D01*
X0082844Y0165986D01*
X0082844Y0169055D01*
X0082077Y0164452D02*
X0082844Y0163684D01*
X0082844Y0162150D01*
X0082077Y0161382D01*
X0081309Y0161382D01*
X0080542Y0162150D01*
X0080542Y0163684D01*
X0079775Y0164452D01*
X0079007Y0164452D01*
X0078240Y0163684D01*
X0078240Y0162150D01*
X0079007Y0161382D01*
X0078240Y0159848D02*
X0081309Y0159848D01*
X0082844Y0158313D01*
X0081309Y0156778D01*
X0078240Y0156778D01*
X0078240Y0155244D02*
X0079775Y0153709D01*
X0079775Y0154476D02*
X0079775Y0152174D01*
X0079775Y0154476D02*
X0080542Y0155244D01*
X0082077Y0155244D01*
X0082844Y0154476D01*
X0082844Y0152174D01*
X0078240Y0152174D01*
X0078240Y0150640D02*
X0078240Y0147570D01*
X0082844Y0147570D01*
X0082844Y0150640D01*
X0080542Y0149105D02*
X0080542Y0147570D01*
X0080542Y0156778D02*
X0080542Y0159848D01*
X0080542Y0165986D02*
X0080542Y0167521D01*
X0082077Y0137559D02*
X0080542Y0136025D01*
X0078240Y0136025D01*
X0079007Y0132955D02*
X0082077Y0132955D01*
X0082844Y0132188D01*
X0082844Y0129886D01*
X0078240Y0129886D01*
X0078240Y0132188D01*
X0079007Y0132955D01*
X0082077Y0134490D02*
X0080542Y0136025D01*
X0082077Y0137559D02*
X0082844Y0137559D01*
X0082844Y0134490D02*
X0082077Y0134490D01*
X0081309Y0128352D02*
X0078240Y0128352D01*
X0078240Y0125282D02*
X0081309Y0125282D01*
X0082844Y0126817D01*
X0081309Y0128352D01*
X0080542Y0128352D02*
X0080542Y0125282D01*
X0080542Y0122213D02*
X0080542Y0120678D01*
X0080542Y0119144D02*
X0079775Y0118376D01*
X0079775Y0116074D01*
X0079775Y0117609D02*
X0078240Y0119144D01*
X0078240Y0120678D02*
X0078240Y0123748D01*
X0078240Y0120678D02*
X0082844Y0120678D01*
X0082844Y0123748D01*
X0082077Y0119144D02*
X0080542Y0119144D01*
X0082077Y0119144D02*
X0082844Y0118376D01*
X0082844Y0116074D01*
X0078240Y0116074D01*
X0078240Y0106063D02*
X0079775Y0104529D01*
X0079775Y0105296D02*
X0079775Y0102994D01*
X0079775Y0105296D02*
X0080542Y0106063D01*
X0082077Y0106063D01*
X0082844Y0105296D01*
X0082844Y0102994D01*
X0078240Y0102994D01*
X0078240Y0101459D02*
X0078240Y0098390D01*
X0082844Y0098390D01*
X0082844Y0101459D01*
X0082844Y0096855D02*
X0078240Y0096855D01*
X0079775Y0095321D01*
X0078240Y0093786D01*
X0082844Y0093786D01*
X0082077Y0092252D02*
X0082844Y0091484D01*
X0082844Y0089950D01*
X0082077Y0089182D01*
X0079007Y0089182D01*
X0078240Y0089950D01*
X0078240Y0091484D01*
X0079007Y0092252D01*
X0082077Y0092252D01*
X0082077Y0087648D02*
X0080542Y0087648D01*
X0079775Y0086880D01*
X0079775Y0084578D01*
X0078240Y0084578D02*
X0082844Y0084578D01*
X0082844Y0086880D01*
X0082077Y0087648D01*
X0080542Y0098390D02*
X0080542Y0099925D01*
X0080542Y0215167D02*
X0080542Y0217468D01*
X0079775Y0218236D01*
X0079007Y0218236D01*
X0078240Y0217468D01*
X0078240Y0215167D01*
X0082844Y0215167D01*
X0082844Y0217468D01*
X0082077Y0218236D01*
X0081309Y0218236D01*
X0080542Y0217468D01*
X0080542Y0219770D02*
X0080542Y0222840D01*
X0081309Y0222840D02*
X0078240Y0222840D01*
X0078240Y0224374D02*
X0078240Y0226676D01*
X0079007Y0227444D01*
X0082077Y0227444D01*
X0082844Y0226676D01*
X0082844Y0224374D01*
X0078240Y0224374D01*
X0078240Y0219770D02*
X0081309Y0219770D01*
X0082844Y0221305D01*
X0081309Y0222840D01*
X0036881Y0179680D02*
X0036280Y0179680D01*
X0035079Y0179680D02*
X0032677Y0179680D01*
X0032677Y0179080D02*
X0032677Y0180281D01*
X0032677Y0181535D02*
X0032677Y0183937D01*
X0033278Y0185218D02*
X0034479Y0185218D01*
X0035079Y0185819D01*
X0035079Y0187020D01*
X0034479Y0187620D01*
X0033878Y0187620D01*
X0033878Y0185218D01*
X0033278Y0185218D02*
X0032677Y0185819D01*
X0032677Y0187020D01*
X0032677Y0188901D02*
X0035079Y0188901D01*
X0033878Y0188901D02*
X0035079Y0190102D01*
X0035079Y0190703D01*
X0035079Y0183937D02*
X0032677Y0181535D01*
X0035079Y0181535D02*
X0035079Y0183937D01*
X0035079Y0179680D02*
X0035079Y0179080D01*
X0035079Y0177825D02*
X0035079Y0176624D01*
X0035680Y0177225D02*
X0033278Y0177225D01*
X0032677Y0177825D01*
X0032677Y0175370D02*
X0032677Y0174169D01*
X0032677Y0174769D02*
X0035079Y0174769D01*
X0035079Y0174169D01*
X0036280Y0174769D02*
X0036881Y0174769D01*
X0034479Y0172888D02*
X0035079Y0172287D01*
X0035079Y0170486D01*
X0032677Y0170486D01*
X0032677Y0169205D02*
X0032677Y0167403D01*
X0033278Y0166803D01*
X0033878Y0167403D01*
X0033878Y0169205D01*
X0034479Y0169205D02*
X0032677Y0169205D01*
X0034479Y0169205D02*
X0035079Y0168604D01*
X0035079Y0167403D01*
X0035680Y0165521D02*
X0036280Y0164921D01*
X0036280Y0163720D01*
X0035680Y0163119D01*
X0035079Y0163119D01*
X0034479Y0163720D01*
X0034479Y0164921D01*
X0033878Y0165521D01*
X0033278Y0165521D01*
X0032677Y0164921D01*
X0032677Y0163720D01*
X0033278Y0163119D01*
X0033278Y0161838D02*
X0032677Y0161238D01*
X0032677Y0159436D01*
X0036280Y0159436D01*
X0036280Y0161238D01*
X0035680Y0161838D01*
X0035079Y0161838D01*
X0034479Y0161238D01*
X0034479Y0159436D01*
X0033878Y0158155D02*
X0033278Y0158155D01*
X0032677Y0157555D01*
X0032677Y0156354D01*
X0033278Y0155753D01*
X0033278Y0154472D02*
X0036280Y0154472D01*
X0035680Y0155753D02*
X0035079Y0155753D01*
X0034479Y0156354D01*
X0034479Y0157555D01*
X0033878Y0158155D01*
X0035680Y0158155D02*
X0036280Y0157555D01*
X0036280Y0156354D01*
X0035680Y0155753D01*
X0033278Y0154472D02*
X0032677Y0153872D01*
X0032677Y0152671D01*
X0033278Y0152070D01*
X0036280Y0152070D01*
X0036280Y0150789D02*
X0032677Y0148387D01*
X0033278Y0147106D02*
X0034479Y0147106D01*
X0035079Y0146505D01*
X0035079Y0145304D01*
X0034479Y0144704D01*
X0033278Y0144704D01*
X0032677Y0145304D01*
X0032677Y0146505D01*
X0033278Y0147106D01*
X0032677Y0143449D02*
X0032677Y0142248D01*
X0032677Y0142849D02*
X0035079Y0142849D01*
X0035079Y0142248D01*
X0036280Y0142849D02*
X0036881Y0142849D01*
X0035079Y0139152D02*
X0035079Y0137951D01*
X0035680Y0138552D02*
X0033278Y0138552D01*
X0032677Y0139152D01*
X0032677Y0140407D02*
X0032677Y0141007D01*
X0033278Y0141007D01*
X0033278Y0140407D01*
X0032677Y0140407D01*
X0032677Y0136697D02*
X0032677Y0135496D01*
X0032677Y0136096D02*
X0035079Y0136096D01*
X0035079Y0135496D01*
X0035079Y0134215D02*
X0035079Y0132413D01*
X0034479Y0131813D01*
X0033278Y0131813D01*
X0032677Y0132413D01*
X0032677Y0134215D01*
X0032077Y0134215D02*
X0035079Y0134215D01*
X0036280Y0136096D02*
X0036881Y0136096D01*
X0036280Y0130532D02*
X0032677Y0128130D01*
X0032677Y0124446D02*
X0036280Y0126848D01*
X0035079Y0123205D02*
X0034479Y0123205D01*
X0034479Y0122605D01*
X0035079Y0122605D01*
X0035079Y0123205D01*
X0035079Y0121324D02*
X0035079Y0119522D01*
X0034479Y0118922D01*
X0033878Y0119522D01*
X0033878Y0120723D01*
X0033278Y0121324D01*
X0032677Y0120723D01*
X0032677Y0118922D01*
X0033278Y0117641D02*
X0032677Y0117040D01*
X0032677Y0115239D01*
X0032677Y0113984D02*
X0033278Y0113384D01*
X0035680Y0113384D01*
X0035079Y0112783D02*
X0035079Y0113984D01*
X0035079Y0115239D02*
X0035079Y0117040D01*
X0034479Y0117641D01*
X0033278Y0117641D01*
X0031476Y0115239D02*
X0035079Y0115239D01*
X0035079Y0111529D02*
X0035079Y0110328D01*
X0035680Y0110928D02*
X0033278Y0110928D01*
X0032677Y0111529D01*
X0032677Y0109047D02*
X0034479Y0109047D01*
X0035079Y0108446D01*
X0035079Y0107245D01*
X0034479Y0106645D01*
X0036280Y0106645D02*
X0032677Y0106645D01*
X0032677Y0122605D02*
X0033278Y0122605D01*
X0033278Y0123205D01*
X0032677Y0123205D01*
X0032677Y0122605D01*
X0031476Y0133014D02*
X0031476Y0133614D01*
X0032077Y0134215D01*
X0034479Y0161238D02*
X0033878Y0161838D01*
X0033278Y0161838D01*
X0032677Y0172888D02*
X0034479Y0172888D01*
X0017939Y0231423D02*
X0017153Y0231423D01*
X0016760Y0231816D01*
X0016760Y0232209D01*
X0017153Y0232602D01*
X0017939Y0232602D01*
X0018332Y0232995D01*
X0018332Y0233388D01*
X0017939Y0233781D01*
X0017153Y0233781D01*
X0016760Y0233388D01*
X0015795Y0233781D02*
X0015795Y0231423D01*
X0015009Y0232209D01*
X0014223Y0231423D01*
X0014223Y0233781D01*
X0013257Y0233781D02*
X0012471Y0233781D01*
X0012864Y0233781D02*
X0012864Y0231423D01*
X0013257Y0231423D02*
X0012471Y0231423D01*
X0011565Y0233781D02*
X0009993Y0233781D01*
X0010779Y0233781D02*
X0010779Y0231423D01*
X0010719Y0235557D02*
X0009148Y0235557D01*
X0009934Y0236736D02*
X0010719Y0236736D01*
X0011685Y0236343D02*
X0011685Y0235950D01*
X0012078Y0235557D01*
X0012864Y0235557D01*
X0013257Y0235950D01*
X0012864Y0236736D02*
X0012078Y0236736D01*
X0011685Y0236343D01*
X0011685Y0237522D02*
X0012078Y0237915D01*
X0012864Y0237915D01*
X0013257Y0237522D01*
X0013257Y0237129D01*
X0012864Y0236736D01*
X0014223Y0237915D02*
X0015795Y0237915D01*
X0015795Y0235557D01*
X0014223Y0235557D01*
X0015009Y0236736D02*
X0015795Y0236736D01*
X0016760Y0236736D02*
X0017153Y0236343D01*
X0018332Y0236343D01*
X0017546Y0236343D02*
X0016760Y0235557D01*
X0016760Y0236736D02*
X0016760Y0237522D01*
X0017153Y0237915D01*
X0018332Y0237915D01*
X0018332Y0235557D01*
X0018332Y0231816D02*
X0017939Y0231423D01*
X0010719Y0235557D02*
X0010719Y0237915D01*
X0009148Y0237915D01*
X0008182Y0237915D02*
X0006610Y0237915D01*
X0007396Y0237915D02*
X0007396Y0235557D01*
X0007849Y0233781D02*
X0008635Y0233781D01*
X0009028Y0233388D01*
X0009028Y0231816D01*
X0008635Y0231423D01*
X0007849Y0231423D01*
X0007456Y0231816D01*
X0006490Y0231423D02*
X0006490Y0233781D01*
X0007456Y0233388D02*
X0007849Y0233781D01*
X0006490Y0232602D02*
X0004918Y0232602D01*
X0004918Y0233781D02*
X0004918Y0231423D01*
X0004558Y0178784D02*
X0006130Y0178784D01*
X0006523Y0178391D01*
X0006523Y0177212D01*
X0004165Y0177212D01*
X0004165Y0178391D01*
X0004558Y0178784D01*
X0004165Y0176246D02*
X0006523Y0176246D01*
X0006523Y0174674D02*
X0004165Y0176246D01*
X0004165Y0174674D02*
X0006523Y0174674D01*
X0006130Y0173709D02*
X0006523Y0173316D01*
X0006523Y0172530D01*
X0006130Y0172137D01*
X0004558Y0172137D01*
X0004165Y0172530D01*
X0004165Y0173316D01*
X0004558Y0173709D01*
X0005344Y0173709D01*
X0005344Y0172923D01*
X0005344Y0168633D02*
X0004558Y0168633D01*
X0004165Y0168240D01*
X0004165Y0167454D01*
X0004558Y0167061D01*
X0006130Y0167061D01*
X0006523Y0167454D01*
X0006523Y0168240D01*
X0006130Y0168633D01*
X0005344Y0168633D02*
X0005344Y0167847D01*
X0005344Y0166096D02*
X0004951Y0165703D01*
X0004951Y0164524D01*
X0004165Y0164524D02*
X0006523Y0164524D01*
X0006523Y0165703D01*
X0006130Y0166096D01*
X0005344Y0166096D01*
X0004951Y0165310D02*
X0004165Y0166096D01*
X0005344Y0163558D02*
X0004951Y0163165D01*
X0004951Y0161986D01*
X0004165Y0161986D02*
X0006523Y0161986D01*
X0006523Y0163165D01*
X0006130Y0163558D01*
X0005344Y0163558D01*
X0006523Y0158483D02*
X0006523Y0156911D01*
X0006523Y0157697D02*
X0004165Y0157697D01*
X0004558Y0155945D02*
X0004165Y0155552D01*
X0004165Y0154766D01*
X0004558Y0154373D01*
X0005344Y0154766D02*
X0005344Y0155552D01*
X0004951Y0155945D01*
X0004558Y0155945D01*
X0005344Y0154766D02*
X0005737Y0154373D01*
X0006130Y0154373D01*
X0006523Y0154766D01*
X0006523Y0155552D01*
X0006130Y0155945D01*
X0006130Y0153408D02*
X0005344Y0153408D01*
X0004951Y0153015D01*
X0004951Y0151836D01*
X0004165Y0151836D02*
X0006523Y0151836D01*
X0006523Y0153015D01*
X0006130Y0153408D01*
X0004951Y0152622D02*
X0004165Y0153408D01*
X0004558Y0148333D02*
X0004165Y0147940D01*
X0004165Y0147154D01*
X0004558Y0146761D01*
X0005344Y0147154D02*
X0005344Y0147940D01*
X0004951Y0148333D01*
X0004558Y0148333D01*
X0005344Y0147154D02*
X0005737Y0146761D01*
X0006130Y0146761D01*
X0006523Y0147154D01*
X0006523Y0147940D01*
X0006130Y0148333D01*
X0006523Y0145795D02*
X0006523Y0144223D01*
X0006523Y0145009D02*
X0004165Y0145009D01*
X0004558Y0143257D02*
X0004165Y0142864D01*
X0004165Y0142078D01*
X0004558Y0141686D01*
X0006130Y0141686D01*
X0006523Y0142078D01*
X0006523Y0142864D01*
X0006130Y0143257D01*
X0006130Y0138182D02*
X0006523Y0137789D01*
X0006523Y0136610D01*
X0004165Y0136610D01*
X0004165Y0137789D01*
X0004558Y0138182D01*
X0006130Y0138182D01*
X0006523Y0135645D02*
X0004165Y0134073D01*
X0004165Y0135645D02*
X0006523Y0134073D01*
X0006523Y0133107D02*
X0006523Y0131535D01*
X0006523Y0132321D02*
X0004165Y0132321D01*
X0004558Y0128032D02*
X0006130Y0128032D01*
X0006523Y0127639D01*
X0006523Y0126460D01*
X0004165Y0126460D01*
X0004165Y0127639D01*
X0004558Y0128032D01*
X0004165Y0125494D02*
X0006523Y0123922D01*
X0006130Y0122957D02*
X0005344Y0122957D01*
X0004951Y0122564D01*
X0004951Y0121385D01*
X0004165Y0121385D02*
X0006523Y0121385D01*
X0006523Y0122564D01*
X0006130Y0122957D01*
X0004165Y0123922D02*
X0006523Y0125494D01*
X0004165Y0122957D02*
X0004951Y0122171D01*
X0004558Y0117881D02*
X0004165Y0117488D01*
X0004165Y0116702D01*
X0004558Y0116310D01*
X0006130Y0117881D01*
X0004558Y0117881D01*
X0004558Y0116310D02*
X0006130Y0116310D01*
X0006523Y0116702D01*
X0006523Y0117488D01*
X0006130Y0117881D01*
X0006523Y0115344D02*
X0004951Y0115344D01*
X0004165Y0114558D01*
X0004951Y0113772D01*
X0006523Y0113772D01*
X0006523Y0112806D02*
X0006523Y0111234D01*
X0005344Y0111234D01*
X0005737Y0112020D01*
X0005737Y0112413D01*
X0005344Y0112806D01*
X0004558Y0112806D01*
X0004165Y0112413D01*
X0004165Y0111627D01*
X0004558Y0111234D01*
X0004558Y0107731D02*
X0004165Y0107338D01*
X0004165Y0106552D01*
X0004558Y0106159D01*
X0005344Y0106552D02*
X0005344Y0107338D01*
X0004951Y0107731D01*
X0004558Y0107731D01*
X0005344Y0106552D02*
X0005737Y0106159D01*
X0006130Y0106159D01*
X0006523Y0106552D01*
X0006523Y0107338D01*
X0006130Y0107731D01*
X0006523Y0105193D02*
X0006523Y0103622D01*
X0006523Y0104407D02*
X0004165Y0104407D01*
X0004165Y0102656D02*
X0004951Y0101870D01*
X0004951Y0102263D02*
X0004951Y0101084D01*
X0004165Y0101084D02*
X0006523Y0101084D01*
X0006523Y0102263D01*
X0006130Y0102656D01*
X0005344Y0102656D01*
X0004951Y0102263D01*
X0004558Y0097581D02*
X0006130Y0097581D01*
X0006523Y0097188D01*
X0006523Y0096009D01*
X0004165Y0096009D01*
X0004165Y0097188D01*
X0004558Y0097581D01*
X0004165Y0095043D02*
X0006523Y0095043D01*
X0006523Y0093471D02*
X0004165Y0095043D01*
X0004165Y0093471D02*
X0006523Y0093471D01*
X0006130Y0092505D02*
X0006523Y0092112D01*
X0006523Y0091327D01*
X0006130Y0090934D01*
X0004558Y0090934D01*
X0004165Y0091327D01*
X0004165Y0092112D01*
X0004558Y0092505D01*
X0005344Y0092505D01*
X0005344Y0091720D01*
D14*
X0001800Y0089983D02*
X0019517Y0089983D01*
X0020698Y0089983D02*
X0020698Y0150022D01*
X0001800Y0150022D01*
X0020894Y0104746D02*
X0060855Y0104746D01*
X0060855Y0082109D01*
X0020894Y0082109D01*
X0020894Y0104746D01*
X0066761Y0111636D02*
X0066761Y0080140D01*
X0084477Y0080140D01*
X0084477Y0111636D01*
X0084477Y0143132D01*
X0084477Y0174628D01*
X0084477Y0206124D01*
X0084477Y0237620D01*
X0066761Y0237620D01*
X0066761Y0206124D01*
X0066761Y0174628D01*
X0066761Y0143132D01*
X0066761Y0111636D01*
X0084477Y0111636D01*
X0084477Y0143132D02*
X0066761Y0143132D01*
X0066761Y0174628D02*
X0084477Y0174628D01*
X0084477Y0206124D02*
X0066761Y0206124D01*
D15*
X0072272Y0203369D02*
X0072272Y0201006D01*
X0076997Y0201006D02*
X0076997Y0203369D01*
X0076997Y0232502D02*
X0076997Y0234865D01*
X0072272Y0234865D02*
X0072272Y0232502D01*
X0060068Y0175022D02*
X0057706Y0175022D01*
X0057706Y0170298D02*
X0060068Y0170298D01*
X0060068Y0167148D02*
X0057706Y0167148D01*
X0057706Y0162424D02*
X0060068Y0162424D01*
X0058099Y0159274D02*
X0055737Y0159274D01*
X0055737Y0154550D02*
X0058099Y0154550D01*
X0058099Y0151400D02*
X0055737Y0151400D01*
X0055737Y0146676D02*
X0058099Y0146676D01*
X0056131Y0143526D02*
X0053769Y0143526D01*
X0053769Y0138802D02*
X0056131Y0138802D01*
X0055737Y0119904D02*
X0058099Y0119904D01*
X0058099Y0115180D02*
X0055737Y0115180D01*
X0047469Y0097069D02*
X0047469Y0094707D01*
X0047863Y0090376D02*
X0050225Y0090376D01*
X0050225Y0085652D02*
X0047863Y0085652D01*
X0042745Y0094707D02*
X0042745Y0097069D01*
X0041564Y0097069D02*
X0041564Y0094707D01*
X0036839Y0094707D02*
X0036839Y0097069D01*
X0034477Y0090376D02*
X0032115Y0090376D01*
X0032115Y0085652D02*
X0034477Y0085652D01*
X0072272Y0106518D02*
X0072272Y0108880D01*
X0076997Y0108880D02*
X0076997Y0106518D01*
X0076997Y0138014D02*
X0076997Y0140376D01*
X0072272Y0140376D02*
X0072272Y0138014D01*
X0072272Y0169510D02*
X0072272Y0171872D01*
X0076997Y0171872D02*
X0076997Y0169510D01*
X0049831Y0241164D02*
X0047469Y0241164D01*
X0047469Y0245888D02*
X0049831Y0245888D01*
X0047469Y0226991D02*
X0047469Y0224628D01*
X0042745Y0224628D02*
X0042745Y0226991D01*
X0039595Y0226991D02*
X0039595Y0224628D01*
X0034871Y0224628D02*
X0034871Y0226991D01*
X0034871Y0241164D02*
X0032509Y0241164D01*
X0032509Y0245888D02*
X0034871Y0245888D01*
X0035658Y0201400D02*
X0035658Y0199038D01*
X0030934Y0199038D02*
X0030934Y0201400D01*
X0027784Y0201400D02*
X0027784Y0199038D01*
X0023060Y0199038D02*
X0023060Y0201400D01*
D16*
X0021485Y0190376D02*
X0005737Y0190376D01*
X0005737Y0217935D01*
X0021485Y0217935D01*
X0021485Y0190376D01*
X0017548Y0194313D02*
X0009674Y0194313D01*
X0009674Y0213998D01*
X0017548Y0213998D01*
X0017548Y0194313D01*
X0073135Y0191126D02*
X0074635Y0191126D01*
X0074635Y0192126D01*
X0074635Y0191126D02*
X0076135Y0191126D01*
X0076135Y0189626D02*
X0074635Y0189626D01*
X0074635Y0188626D01*
X0074635Y0189626D02*
X0073135Y0189626D01*
X0074635Y0191126D01*
X0076135Y0189626D01*
X0074635Y0160630D02*
X0074635Y0159630D01*
X0073135Y0159630D01*
X0073135Y0158130D02*
X0074635Y0159630D01*
X0076135Y0159630D01*
X0076135Y0158130D02*
X0074635Y0158130D01*
X0074635Y0157130D01*
X0074635Y0158130D02*
X0073135Y0158130D01*
X0074635Y0159630D02*
X0076135Y0158130D01*
X0074635Y0129134D02*
X0074635Y0128134D01*
X0073135Y0128134D01*
X0073135Y0126634D02*
X0074635Y0128134D01*
X0076135Y0128134D01*
X0076135Y0126634D02*
X0074635Y0126634D01*
X0074635Y0125634D01*
X0074635Y0126634D02*
X0073135Y0126634D01*
X0074635Y0128134D02*
X0076135Y0126634D01*
X0074635Y0097638D02*
X0074635Y0096638D01*
X0073135Y0096638D01*
X0073135Y0095138D02*
X0074635Y0096638D01*
X0076135Y0096638D01*
X0076135Y0095138D02*
X0074635Y0095138D01*
X0074635Y0094138D01*
X0074635Y0095138D02*
X0073135Y0095138D01*
X0074635Y0096638D02*
X0076135Y0095138D01*
X0074635Y0220122D02*
X0074635Y0221122D01*
X0073135Y0221122D01*
X0074635Y0222622D01*
X0074635Y0223622D01*
X0074635Y0222622D02*
X0073135Y0222622D01*
X0074635Y0222622D02*
X0076135Y0222622D01*
X0076135Y0221122D02*
X0074635Y0221122D01*
X0074635Y0222622D02*
X0076135Y0221122D01*
M02*
