G75*
%MOIN*%
%OFA0B0*%
%FSLAX25Y25*%
%IPPOS*%
%LPD*%
%AMOC8*
5,1,8,0,0,1.08239X$1,22.5*
%
%ADD10C,0.00000*%
%ADD11C,0.00400*%
%ADD12C,0.00300*%
%ADD13C,0.00200*%
%ADD14C,0.01600*%
%ADD15C,0.00100*%
%ADD16C,0.01000*%
%ADD17C,0.00500*%
%ADD18C,0.00800*%
%ADD19R,0.00600X0.01800*%
%ADD20R,0.00600X0.00600*%
%ADD21R,0.00600X0.09000*%
%ADD22R,0.00600X0.09600*%
%ADD23R,0.00600X0.01200*%
%ADD24R,0.00600X0.02400*%
%ADD25R,0.00600X0.06000*%
%ADD26R,0.00600X0.05400*%
%ADD27R,0.00600X0.04800*%
%ADD28R,0.00600X0.08400*%
%ADD29R,0.00600X0.12000*%
%ADD30R,0.00600X0.07800*%
%ADD31R,0.00600X0.03600*%
%ADD32R,0.00600X0.03000*%
%ADD33R,0.00600X0.07200*%
%ADD34R,0.00600X0.17400*%
%ADD35R,0.00600X0.14400*%
D10*
X0018503Y0060455D02*
X0083522Y0060455D01*
X0083926Y0060460D01*
X0084329Y0060475D01*
X0084732Y0060499D01*
X0085134Y0060533D01*
X0085535Y0060577D01*
X0085935Y0060630D01*
X0086334Y0060693D01*
X0086731Y0060766D01*
X0087126Y0060849D01*
X0087519Y0060940D01*
X0087910Y0061042D01*
X0088298Y0061152D01*
X0088684Y0061273D01*
X0089066Y0061402D01*
X0089445Y0061540D01*
X0089821Y0061688D01*
X0090193Y0061845D01*
X0090561Y0062010D01*
X0090925Y0062185D01*
X0091284Y0062368D01*
X0091639Y0062560D01*
X0091990Y0062761D01*
X0092335Y0062969D01*
X0092675Y0063186D01*
X0093010Y0063412D01*
X0093340Y0063645D01*
X0093663Y0063886D01*
X0093981Y0064135D01*
X0094293Y0064392D01*
X0094598Y0064656D01*
X0094897Y0064927D01*
X0095189Y0065205D01*
X0095475Y0065491D01*
X0095753Y0065783D01*
X0096024Y0066082D01*
X0096288Y0066387D01*
X0096545Y0066699D01*
X0096794Y0067017D01*
X0097035Y0067340D01*
X0097268Y0067670D01*
X0097494Y0068005D01*
X0097711Y0068345D01*
X0097919Y0068690D01*
X0098120Y0069041D01*
X0098312Y0069396D01*
X0098495Y0069755D01*
X0098670Y0070119D01*
X0098835Y0070487D01*
X0098992Y0070859D01*
X0099140Y0071235D01*
X0099278Y0071614D01*
X0099407Y0071996D01*
X0099528Y0072382D01*
X0099638Y0072770D01*
X0099740Y0073161D01*
X0099831Y0073554D01*
X0099914Y0073949D01*
X0099987Y0074346D01*
X0100050Y0074745D01*
X0100103Y0075145D01*
X0100147Y0075546D01*
X0100181Y0075948D01*
X0100205Y0076351D01*
X0100220Y0076754D01*
X0100225Y0077158D01*
X0100225Y0240602D01*
X0100225Y0077158D01*
X0100226Y0077158D02*
X0100231Y0076754D01*
X0100246Y0076351D01*
X0100270Y0075948D01*
X0100304Y0075546D01*
X0100348Y0075145D01*
X0100401Y0074745D01*
X0100464Y0074346D01*
X0100537Y0073949D01*
X0100620Y0073554D01*
X0100711Y0073161D01*
X0100813Y0072770D01*
X0100923Y0072382D01*
X0101044Y0071996D01*
X0101173Y0071614D01*
X0101311Y0071235D01*
X0101459Y0070859D01*
X0101616Y0070487D01*
X0101781Y0070119D01*
X0101956Y0069755D01*
X0102139Y0069396D01*
X0102331Y0069041D01*
X0102532Y0068690D01*
X0102740Y0068345D01*
X0102957Y0068005D01*
X0103183Y0067670D01*
X0103416Y0067340D01*
X0103657Y0067017D01*
X0103906Y0066699D01*
X0104163Y0066387D01*
X0104427Y0066082D01*
X0104698Y0065783D01*
X0104976Y0065491D01*
X0105262Y0065205D01*
X0105554Y0064927D01*
X0105853Y0064656D01*
X0106158Y0064392D01*
X0106470Y0064135D01*
X0106788Y0063886D01*
X0107111Y0063645D01*
X0107441Y0063412D01*
X0107776Y0063186D01*
X0108116Y0062969D01*
X0108461Y0062761D01*
X0108812Y0062560D01*
X0109167Y0062368D01*
X0109526Y0062185D01*
X0109890Y0062010D01*
X0110258Y0061845D01*
X0110630Y0061688D01*
X0111006Y0061540D01*
X0111385Y0061402D01*
X0111767Y0061273D01*
X0112153Y0061152D01*
X0112541Y0061042D01*
X0112932Y0060940D01*
X0113325Y0060849D01*
X0113720Y0060766D01*
X0114117Y0060693D01*
X0114516Y0060630D01*
X0114916Y0060577D01*
X0115317Y0060533D01*
X0115719Y0060499D01*
X0116122Y0060475D01*
X0116525Y0060460D01*
X0116929Y0060455D01*
X0181947Y0060455D01*
X0182351Y0060460D01*
X0182754Y0060475D01*
X0183157Y0060499D01*
X0183559Y0060533D01*
X0183960Y0060577D01*
X0184360Y0060630D01*
X0184759Y0060693D01*
X0185156Y0060766D01*
X0185551Y0060849D01*
X0185944Y0060940D01*
X0186335Y0061042D01*
X0186723Y0061152D01*
X0187109Y0061273D01*
X0187491Y0061402D01*
X0187870Y0061540D01*
X0188246Y0061688D01*
X0188618Y0061845D01*
X0188986Y0062010D01*
X0189350Y0062185D01*
X0189709Y0062368D01*
X0190064Y0062560D01*
X0190415Y0062761D01*
X0190760Y0062969D01*
X0191100Y0063186D01*
X0191435Y0063412D01*
X0191765Y0063645D01*
X0192088Y0063886D01*
X0192406Y0064135D01*
X0192718Y0064392D01*
X0193023Y0064656D01*
X0193322Y0064927D01*
X0193614Y0065205D01*
X0193900Y0065491D01*
X0194178Y0065783D01*
X0194449Y0066082D01*
X0194713Y0066387D01*
X0194970Y0066699D01*
X0195219Y0067017D01*
X0195460Y0067340D01*
X0195693Y0067670D01*
X0195919Y0068005D01*
X0196136Y0068345D01*
X0196344Y0068690D01*
X0196545Y0069041D01*
X0196737Y0069396D01*
X0196920Y0069755D01*
X0197095Y0070119D01*
X0197260Y0070487D01*
X0197417Y0070859D01*
X0197565Y0071235D01*
X0197703Y0071614D01*
X0197832Y0071996D01*
X0197953Y0072382D01*
X0198063Y0072770D01*
X0198165Y0073161D01*
X0198256Y0073554D01*
X0198339Y0073949D01*
X0198412Y0074346D01*
X0198475Y0074745D01*
X0198528Y0075145D01*
X0198572Y0075546D01*
X0198606Y0075948D01*
X0198630Y0076351D01*
X0198645Y0076754D01*
X0198650Y0077158D01*
X0198650Y0240602D01*
X0198645Y0241006D01*
X0198630Y0241409D01*
X0198606Y0241812D01*
X0198572Y0242214D01*
X0198528Y0242615D01*
X0198475Y0243015D01*
X0198412Y0243414D01*
X0198339Y0243811D01*
X0198256Y0244206D01*
X0198165Y0244599D01*
X0198063Y0244990D01*
X0197953Y0245378D01*
X0197832Y0245764D01*
X0197703Y0246146D01*
X0197565Y0246525D01*
X0197417Y0246901D01*
X0197260Y0247273D01*
X0197095Y0247641D01*
X0196920Y0248005D01*
X0196737Y0248364D01*
X0196545Y0248719D01*
X0196344Y0249070D01*
X0196136Y0249415D01*
X0195919Y0249755D01*
X0195693Y0250090D01*
X0195460Y0250420D01*
X0195219Y0250743D01*
X0194970Y0251061D01*
X0194713Y0251373D01*
X0194449Y0251678D01*
X0194178Y0251977D01*
X0193900Y0252269D01*
X0193614Y0252555D01*
X0193322Y0252833D01*
X0193023Y0253104D01*
X0192718Y0253368D01*
X0192406Y0253625D01*
X0192088Y0253874D01*
X0191765Y0254115D01*
X0191435Y0254348D01*
X0191100Y0254574D01*
X0190760Y0254791D01*
X0190415Y0254999D01*
X0190064Y0255200D01*
X0189709Y0255392D01*
X0189350Y0255575D01*
X0188986Y0255750D01*
X0188618Y0255915D01*
X0188246Y0256072D01*
X0187870Y0256220D01*
X0187491Y0256358D01*
X0187109Y0256487D01*
X0186723Y0256608D01*
X0186335Y0256718D01*
X0185944Y0256820D01*
X0185551Y0256911D01*
X0185156Y0256994D01*
X0184759Y0257067D01*
X0184360Y0257130D01*
X0183960Y0257183D01*
X0183559Y0257227D01*
X0183157Y0257261D01*
X0182754Y0257285D01*
X0182351Y0257300D01*
X0181947Y0257305D01*
X0181947Y0257306D02*
X0116929Y0257306D01*
X0116929Y0257305D02*
X0116525Y0257300D01*
X0116122Y0257285D01*
X0115719Y0257261D01*
X0115317Y0257227D01*
X0114916Y0257183D01*
X0114516Y0257130D01*
X0114117Y0257067D01*
X0113720Y0256994D01*
X0113325Y0256911D01*
X0112932Y0256820D01*
X0112541Y0256718D01*
X0112153Y0256608D01*
X0111767Y0256487D01*
X0111385Y0256358D01*
X0111006Y0256220D01*
X0110630Y0256072D01*
X0110258Y0255915D01*
X0109890Y0255750D01*
X0109526Y0255575D01*
X0109167Y0255392D01*
X0108812Y0255200D01*
X0108461Y0254999D01*
X0108116Y0254791D01*
X0107776Y0254574D01*
X0107441Y0254348D01*
X0107111Y0254115D01*
X0106788Y0253874D01*
X0106470Y0253625D01*
X0106158Y0253368D01*
X0105853Y0253104D01*
X0105554Y0252833D01*
X0105262Y0252555D01*
X0104976Y0252269D01*
X0104698Y0251977D01*
X0104427Y0251678D01*
X0104163Y0251373D01*
X0103906Y0251061D01*
X0103657Y0250743D01*
X0103416Y0250420D01*
X0103183Y0250090D01*
X0102957Y0249755D01*
X0102740Y0249415D01*
X0102532Y0249070D01*
X0102331Y0248719D01*
X0102139Y0248364D01*
X0101956Y0248005D01*
X0101781Y0247641D01*
X0101616Y0247273D01*
X0101459Y0246901D01*
X0101311Y0246525D01*
X0101173Y0246146D01*
X0101044Y0245764D01*
X0100923Y0245378D01*
X0100813Y0244990D01*
X0100711Y0244599D01*
X0100620Y0244206D01*
X0100537Y0243811D01*
X0100464Y0243414D01*
X0100401Y0243015D01*
X0100348Y0242615D01*
X0100304Y0242214D01*
X0100270Y0241812D01*
X0100246Y0241409D01*
X0100231Y0241006D01*
X0100226Y0240602D01*
X0100225Y0240602D02*
X0100220Y0241006D01*
X0100205Y0241409D01*
X0100181Y0241812D01*
X0100147Y0242214D01*
X0100103Y0242615D01*
X0100050Y0243015D01*
X0099987Y0243414D01*
X0099914Y0243811D01*
X0099831Y0244206D01*
X0099740Y0244599D01*
X0099638Y0244990D01*
X0099528Y0245378D01*
X0099407Y0245764D01*
X0099278Y0246146D01*
X0099140Y0246525D01*
X0098992Y0246901D01*
X0098835Y0247273D01*
X0098670Y0247641D01*
X0098495Y0248005D01*
X0098312Y0248364D01*
X0098120Y0248719D01*
X0097919Y0249070D01*
X0097711Y0249415D01*
X0097494Y0249755D01*
X0097268Y0250090D01*
X0097035Y0250420D01*
X0096794Y0250743D01*
X0096545Y0251061D01*
X0096288Y0251373D01*
X0096024Y0251678D01*
X0095753Y0251977D01*
X0095475Y0252269D01*
X0095189Y0252555D01*
X0094897Y0252833D01*
X0094598Y0253104D01*
X0094293Y0253368D01*
X0093981Y0253625D01*
X0093663Y0253874D01*
X0093340Y0254115D01*
X0093010Y0254348D01*
X0092675Y0254574D01*
X0092335Y0254791D01*
X0091990Y0254999D01*
X0091639Y0255200D01*
X0091284Y0255392D01*
X0090925Y0255575D01*
X0090561Y0255750D01*
X0090193Y0255915D01*
X0089821Y0256072D01*
X0089445Y0256220D01*
X0089066Y0256358D01*
X0088684Y0256487D01*
X0088298Y0256608D01*
X0087910Y0256718D01*
X0087519Y0256820D01*
X0087126Y0256911D01*
X0086731Y0256994D01*
X0086334Y0257067D01*
X0085935Y0257130D01*
X0085535Y0257183D01*
X0085134Y0257227D01*
X0084732Y0257261D01*
X0084329Y0257285D01*
X0083926Y0257300D01*
X0083522Y0257305D01*
X0083522Y0257306D02*
X0018503Y0257306D01*
X0018503Y0257305D02*
X0018099Y0257300D01*
X0017696Y0257285D01*
X0017293Y0257261D01*
X0016891Y0257227D01*
X0016490Y0257183D01*
X0016090Y0257130D01*
X0015691Y0257067D01*
X0015294Y0256994D01*
X0014899Y0256911D01*
X0014506Y0256820D01*
X0014115Y0256718D01*
X0013727Y0256608D01*
X0013341Y0256487D01*
X0012959Y0256358D01*
X0012580Y0256220D01*
X0012204Y0256072D01*
X0011832Y0255915D01*
X0011464Y0255750D01*
X0011100Y0255575D01*
X0010741Y0255392D01*
X0010386Y0255200D01*
X0010035Y0254999D01*
X0009690Y0254791D01*
X0009350Y0254574D01*
X0009015Y0254348D01*
X0008685Y0254115D01*
X0008362Y0253874D01*
X0008044Y0253625D01*
X0007732Y0253368D01*
X0007427Y0253104D01*
X0007128Y0252833D01*
X0006836Y0252555D01*
X0006550Y0252269D01*
X0006272Y0251977D01*
X0006001Y0251678D01*
X0005737Y0251373D01*
X0005480Y0251061D01*
X0005231Y0250743D01*
X0004990Y0250420D01*
X0004757Y0250090D01*
X0004531Y0249755D01*
X0004314Y0249415D01*
X0004106Y0249070D01*
X0003905Y0248719D01*
X0003713Y0248364D01*
X0003530Y0248005D01*
X0003355Y0247641D01*
X0003190Y0247273D01*
X0003033Y0246901D01*
X0002885Y0246525D01*
X0002747Y0246146D01*
X0002618Y0245764D01*
X0002497Y0245378D01*
X0002387Y0244990D01*
X0002285Y0244599D01*
X0002194Y0244206D01*
X0002111Y0243811D01*
X0002038Y0243414D01*
X0001975Y0243015D01*
X0001922Y0242615D01*
X0001878Y0242214D01*
X0001844Y0241812D01*
X0001820Y0241409D01*
X0001805Y0241006D01*
X0001800Y0240602D01*
X0001800Y0077158D01*
X0001805Y0076754D01*
X0001820Y0076351D01*
X0001844Y0075948D01*
X0001878Y0075546D01*
X0001922Y0075145D01*
X0001975Y0074745D01*
X0002038Y0074346D01*
X0002111Y0073949D01*
X0002194Y0073554D01*
X0002285Y0073161D01*
X0002387Y0072770D01*
X0002497Y0072382D01*
X0002618Y0071996D01*
X0002747Y0071614D01*
X0002885Y0071235D01*
X0003033Y0070859D01*
X0003190Y0070487D01*
X0003355Y0070119D01*
X0003530Y0069755D01*
X0003713Y0069396D01*
X0003905Y0069041D01*
X0004106Y0068690D01*
X0004314Y0068345D01*
X0004531Y0068005D01*
X0004757Y0067670D01*
X0004990Y0067340D01*
X0005231Y0067017D01*
X0005480Y0066699D01*
X0005737Y0066387D01*
X0006001Y0066082D01*
X0006272Y0065783D01*
X0006550Y0065491D01*
X0006836Y0065205D01*
X0007128Y0064927D01*
X0007427Y0064656D01*
X0007732Y0064392D01*
X0008044Y0064135D01*
X0008362Y0063886D01*
X0008685Y0063645D01*
X0009015Y0063412D01*
X0009350Y0063186D01*
X0009690Y0062969D01*
X0010035Y0062761D01*
X0010386Y0062560D01*
X0010741Y0062368D01*
X0011100Y0062185D01*
X0011464Y0062010D01*
X0011832Y0061845D01*
X0012204Y0061688D01*
X0012580Y0061540D01*
X0012959Y0061402D01*
X0013341Y0061273D01*
X0013727Y0061152D01*
X0014115Y0061042D01*
X0014506Y0060940D01*
X0014899Y0060849D01*
X0015294Y0060766D01*
X0015691Y0060693D01*
X0016090Y0060630D01*
X0016490Y0060577D01*
X0016891Y0060533D01*
X0017293Y0060499D01*
X0017696Y0060475D01*
X0018099Y0060460D01*
X0018503Y0060455D01*
X0029359Y0071479D02*
X0029361Y0071580D01*
X0029367Y0071681D01*
X0029377Y0071782D01*
X0029391Y0071882D01*
X0029409Y0071981D01*
X0029431Y0072080D01*
X0029456Y0072178D01*
X0029486Y0072275D01*
X0029519Y0072370D01*
X0029556Y0072464D01*
X0029597Y0072557D01*
X0029641Y0072648D01*
X0029689Y0072737D01*
X0029741Y0072824D01*
X0029796Y0072909D01*
X0029854Y0072991D01*
X0029915Y0073072D01*
X0029980Y0073150D01*
X0030047Y0073225D01*
X0030117Y0073297D01*
X0030191Y0073367D01*
X0030267Y0073434D01*
X0030345Y0073498D01*
X0030426Y0073558D01*
X0030509Y0073615D01*
X0030595Y0073669D01*
X0030683Y0073720D01*
X0030772Y0073767D01*
X0030863Y0073811D01*
X0030956Y0073850D01*
X0031051Y0073887D01*
X0031146Y0073919D01*
X0031243Y0073948D01*
X0031342Y0073972D01*
X0031440Y0073993D01*
X0031540Y0074010D01*
X0031640Y0074023D01*
X0031741Y0074032D01*
X0031842Y0074037D01*
X0031943Y0074038D01*
X0032044Y0074035D01*
X0032145Y0074028D01*
X0032246Y0074017D01*
X0032346Y0074002D01*
X0032445Y0073983D01*
X0032544Y0073960D01*
X0032641Y0073934D01*
X0032738Y0073903D01*
X0032833Y0073869D01*
X0032926Y0073831D01*
X0033019Y0073789D01*
X0033109Y0073744D01*
X0033198Y0073695D01*
X0033284Y0073643D01*
X0033368Y0073587D01*
X0033451Y0073528D01*
X0033530Y0073466D01*
X0033608Y0073401D01*
X0033682Y0073333D01*
X0033754Y0073261D01*
X0033823Y0073188D01*
X0033889Y0073111D01*
X0033952Y0073032D01*
X0034012Y0072950D01*
X0034068Y0072866D01*
X0034121Y0072780D01*
X0034171Y0072692D01*
X0034217Y0072602D01*
X0034260Y0072511D01*
X0034299Y0072417D01*
X0034334Y0072322D01*
X0034365Y0072226D01*
X0034393Y0072129D01*
X0034417Y0072031D01*
X0034437Y0071932D01*
X0034453Y0071832D01*
X0034465Y0071731D01*
X0034473Y0071631D01*
X0034477Y0071530D01*
X0034477Y0071428D01*
X0034473Y0071327D01*
X0034465Y0071227D01*
X0034453Y0071126D01*
X0034437Y0071026D01*
X0034417Y0070927D01*
X0034393Y0070829D01*
X0034365Y0070732D01*
X0034334Y0070636D01*
X0034299Y0070541D01*
X0034260Y0070447D01*
X0034217Y0070356D01*
X0034171Y0070266D01*
X0034121Y0070178D01*
X0034068Y0070092D01*
X0034012Y0070008D01*
X0033952Y0069926D01*
X0033889Y0069847D01*
X0033823Y0069770D01*
X0033754Y0069697D01*
X0033682Y0069625D01*
X0033608Y0069557D01*
X0033530Y0069492D01*
X0033451Y0069430D01*
X0033368Y0069371D01*
X0033284Y0069315D01*
X0033197Y0069263D01*
X0033109Y0069214D01*
X0033019Y0069169D01*
X0032926Y0069127D01*
X0032833Y0069089D01*
X0032738Y0069055D01*
X0032641Y0069024D01*
X0032544Y0068998D01*
X0032445Y0068975D01*
X0032346Y0068956D01*
X0032246Y0068941D01*
X0032145Y0068930D01*
X0032044Y0068923D01*
X0031943Y0068920D01*
X0031842Y0068921D01*
X0031741Y0068926D01*
X0031640Y0068935D01*
X0031540Y0068948D01*
X0031440Y0068965D01*
X0031342Y0068986D01*
X0031243Y0069010D01*
X0031146Y0069039D01*
X0031051Y0069071D01*
X0030956Y0069108D01*
X0030863Y0069147D01*
X0030772Y0069191D01*
X0030683Y0069238D01*
X0030595Y0069289D01*
X0030509Y0069343D01*
X0030426Y0069400D01*
X0030345Y0069460D01*
X0030267Y0069524D01*
X0030191Y0069591D01*
X0030117Y0069661D01*
X0030047Y0069733D01*
X0029980Y0069808D01*
X0029915Y0069886D01*
X0029854Y0069967D01*
X0029796Y0070049D01*
X0029741Y0070134D01*
X0029689Y0070221D01*
X0029641Y0070310D01*
X0029597Y0070401D01*
X0029556Y0070494D01*
X0029519Y0070588D01*
X0029486Y0070683D01*
X0029456Y0070780D01*
X0029431Y0070878D01*
X0029409Y0070977D01*
X0029391Y0071076D01*
X0029377Y0071176D01*
X0029367Y0071277D01*
X0029361Y0071378D01*
X0029359Y0071479D01*
X0047469Y0071479D02*
X0047471Y0071580D01*
X0047477Y0071681D01*
X0047487Y0071782D01*
X0047501Y0071882D01*
X0047519Y0071981D01*
X0047541Y0072080D01*
X0047566Y0072178D01*
X0047596Y0072275D01*
X0047629Y0072370D01*
X0047666Y0072464D01*
X0047707Y0072557D01*
X0047751Y0072648D01*
X0047799Y0072737D01*
X0047851Y0072824D01*
X0047906Y0072909D01*
X0047964Y0072991D01*
X0048025Y0073072D01*
X0048090Y0073150D01*
X0048157Y0073225D01*
X0048227Y0073297D01*
X0048301Y0073367D01*
X0048377Y0073434D01*
X0048455Y0073498D01*
X0048536Y0073558D01*
X0048619Y0073615D01*
X0048705Y0073669D01*
X0048793Y0073720D01*
X0048882Y0073767D01*
X0048973Y0073811D01*
X0049066Y0073850D01*
X0049161Y0073887D01*
X0049256Y0073919D01*
X0049353Y0073948D01*
X0049452Y0073972D01*
X0049550Y0073993D01*
X0049650Y0074010D01*
X0049750Y0074023D01*
X0049851Y0074032D01*
X0049952Y0074037D01*
X0050053Y0074038D01*
X0050154Y0074035D01*
X0050255Y0074028D01*
X0050356Y0074017D01*
X0050456Y0074002D01*
X0050555Y0073983D01*
X0050654Y0073960D01*
X0050751Y0073934D01*
X0050848Y0073903D01*
X0050943Y0073869D01*
X0051036Y0073831D01*
X0051129Y0073789D01*
X0051219Y0073744D01*
X0051308Y0073695D01*
X0051394Y0073643D01*
X0051478Y0073587D01*
X0051561Y0073528D01*
X0051640Y0073466D01*
X0051718Y0073401D01*
X0051792Y0073333D01*
X0051864Y0073261D01*
X0051933Y0073188D01*
X0051999Y0073111D01*
X0052062Y0073032D01*
X0052122Y0072950D01*
X0052178Y0072866D01*
X0052231Y0072780D01*
X0052281Y0072692D01*
X0052327Y0072602D01*
X0052370Y0072511D01*
X0052409Y0072417D01*
X0052444Y0072322D01*
X0052475Y0072226D01*
X0052503Y0072129D01*
X0052527Y0072031D01*
X0052547Y0071932D01*
X0052563Y0071832D01*
X0052575Y0071731D01*
X0052583Y0071631D01*
X0052587Y0071530D01*
X0052587Y0071428D01*
X0052583Y0071327D01*
X0052575Y0071227D01*
X0052563Y0071126D01*
X0052547Y0071026D01*
X0052527Y0070927D01*
X0052503Y0070829D01*
X0052475Y0070732D01*
X0052444Y0070636D01*
X0052409Y0070541D01*
X0052370Y0070447D01*
X0052327Y0070356D01*
X0052281Y0070266D01*
X0052231Y0070178D01*
X0052178Y0070092D01*
X0052122Y0070008D01*
X0052062Y0069926D01*
X0051999Y0069847D01*
X0051933Y0069770D01*
X0051864Y0069697D01*
X0051792Y0069625D01*
X0051718Y0069557D01*
X0051640Y0069492D01*
X0051561Y0069430D01*
X0051478Y0069371D01*
X0051394Y0069315D01*
X0051307Y0069263D01*
X0051219Y0069214D01*
X0051129Y0069169D01*
X0051036Y0069127D01*
X0050943Y0069089D01*
X0050848Y0069055D01*
X0050751Y0069024D01*
X0050654Y0068998D01*
X0050555Y0068975D01*
X0050456Y0068956D01*
X0050356Y0068941D01*
X0050255Y0068930D01*
X0050154Y0068923D01*
X0050053Y0068920D01*
X0049952Y0068921D01*
X0049851Y0068926D01*
X0049750Y0068935D01*
X0049650Y0068948D01*
X0049550Y0068965D01*
X0049452Y0068986D01*
X0049353Y0069010D01*
X0049256Y0069039D01*
X0049161Y0069071D01*
X0049066Y0069108D01*
X0048973Y0069147D01*
X0048882Y0069191D01*
X0048793Y0069238D01*
X0048705Y0069289D01*
X0048619Y0069343D01*
X0048536Y0069400D01*
X0048455Y0069460D01*
X0048377Y0069524D01*
X0048301Y0069591D01*
X0048227Y0069661D01*
X0048157Y0069733D01*
X0048090Y0069808D01*
X0048025Y0069886D01*
X0047964Y0069967D01*
X0047906Y0070049D01*
X0047851Y0070134D01*
X0047799Y0070221D01*
X0047751Y0070310D01*
X0047707Y0070401D01*
X0047666Y0070494D01*
X0047629Y0070588D01*
X0047596Y0070683D01*
X0047566Y0070780D01*
X0047541Y0070878D01*
X0047519Y0070977D01*
X0047501Y0071076D01*
X0047487Y0071176D01*
X0047477Y0071277D01*
X0047471Y0071378D01*
X0047469Y0071479D01*
X0127784Y0071479D02*
X0127786Y0071580D01*
X0127792Y0071681D01*
X0127802Y0071782D01*
X0127816Y0071882D01*
X0127834Y0071981D01*
X0127856Y0072080D01*
X0127881Y0072178D01*
X0127911Y0072275D01*
X0127944Y0072370D01*
X0127981Y0072464D01*
X0128022Y0072557D01*
X0128066Y0072648D01*
X0128114Y0072737D01*
X0128166Y0072824D01*
X0128221Y0072909D01*
X0128279Y0072991D01*
X0128340Y0073072D01*
X0128405Y0073150D01*
X0128472Y0073225D01*
X0128542Y0073297D01*
X0128616Y0073367D01*
X0128692Y0073434D01*
X0128770Y0073498D01*
X0128851Y0073558D01*
X0128934Y0073615D01*
X0129020Y0073669D01*
X0129108Y0073720D01*
X0129197Y0073767D01*
X0129288Y0073811D01*
X0129381Y0073850D01*
X0129476Y0073887D01*
X0129571Y0073919D01*
X0129668Y0073948D01*
X0129767Y0073972D01*
X0129865Y0073993D01*
X0129965Y0074010D01*
X0130065Y0074023D01*
X0130166Y0074032D01*
X0130267Y0074037D01*
X0130368Y0074038D01*
X0130469Y0074035D01*
X0130570Y0074028D01*
X0130671Y0074017D01*
X0130771Y0074002D01*
X0130870Y0073983D01*
X0130969Y0073960D01*
X0131066Y0073934D01*
X0131163Y0073903D01*
X0131258Y0073869D01*
X0131351Y0073831D01*
X0131444Y0073789D01*
X0131534Y0073744D01*
X0131623Y0073695D01*
X0131709Y0073643D01*
X0131793Y0073587D01*
X0131876Y0073528D01*
X0131955Y0073466D01*
X0132033Y0073401D01*
X0132107Y0073333D01*
X0132179Y0073261D01*
X0132248Y0073188D01*
X0132314Y0073111D01*
X0132377Y0073032D01*
X0132437Y0072950D01*
X0132493Y0072866D01*
X0132546Y0072780D01*
X0132596Y0072692D01*
X0132642Y0072602D01*
X0132685Y0072511D01*
X0132724Y0072417D01*
X0132759Y0072322D01*
X0132790Y0072226D01*
X0132818Y0072129D01*
X0132842Y0072031D01*
X0132862Y0071932D01*
X0132878Y0071832D01*
X0132890Y0071731D01*
X0132898Y0071631D01*
X0132902Y0071530D01*
X0132902Y0071428D01*
X0132898Y0071327D01*
X0132890Y0071227D01*
X0132878Y0071126D01*
X0132862Y0071026D01*
X0132842Y0070927D01*
X0132818Y0070829D01*
X0132790Y0070732D01*
X0132759Y0070636D01*
X0132724Y0070541D01*
X0132685Y0070447D01*
X0132642Y0070356D01*
X0132596Y0070266D01*
X0132546Y0070178D01*
X0132493Y0070092D01*
X0132437Y0070008D01*
X0132377Y0069926D01*
X0132314Y0069847D01*
X0132248Y0069770D01*
X0132179Y0069697D01*
X0132107Y0069625D01*
X0132033Y0069557D01*
X0131955Y0069492D01*
X0131876Y0069430D01*
X0131793Y0069371D01*
X0131709Y0069315D01*
X0131622Y0069263D01*
X0131534Y0069214D01*
X0131444Y0069169D01*
X0131351Y0069127D01*
X0131258Y0069089D01*
X0131163Y0069055D01*
X0131066Y0069024D01*
X0130969Y0068998D01*
X0130870Y0068975D01*
X0130771Y0068956D01*
X0130671Y0068941D01*
X0130570Y0068930D01*
X0130469Y0068923D01*
X0130368Y0068920D01*
X0130267Y0068921D01*
X0130166Y0068926D01*
X0130065Y0068935D01*
X0129965Y0068948D01*
X0129865Y0068965D01*
X0129767Y0068986D01*
X0129668Y0069010D01*
X0129571Y0069039D01*
X0129476Y0069071D01*
X0129381Y0069108D01*
X0129288Y0069147D01*
X0129197Y0069191D01*
X0129108Y0069238D01*
X0129020Y0069289D01*
X0128934Y0069343D01*
X0128851Y0069400D01*
X0128770Y0069460D01*
X0128692Y0069524D01*
X0128616Y0069591D01*
X0128542Y0069661D01*
X0128472Y0069733D01*
X0128405Y0069808D01*
X0128340Y0069886D01*
X0128279Y0069967D01*
X0128221Y0070049D01*
X0128166Y0070134D01*
X0128114Y0070221D01*
X0128066Y0070310D01*
X0128022Y0070401D01*
X0127981Y0070494D01*
X0127944Y0070588D01*
X0127911Y0070683D01*
X0127881Y0070780D01*
X0127856Y0070878D01*
X0127834Y0070977D01*
X0127816Y0071076D01*
X0127802Y0071176D01*
X0127792Y0071277D01*
X0127786Y0071378D01*
X0127784Y0071479D01*
X0145895Y0071479D02*
X0145897Y0071580D01*
X0145903Y0071681D01*
X0145913Y0071782D01*
X0145927Y0071882D01*
X0145945Y0071981D01*
X0145967Y0072080D01*
X0145992Y0072178D01*
X0146022Y0072275D01*
X0146055Y0072370D01*
X0146092Y0072464D01*
X0146133Y0072557D01*
X0146177Y0072648D01*
X0146225Y0072737D01*
X0146277Y0072824D01*
X0146332Y0072909D01*
X0146390Y0072991D01*
X0146451Y0073072D01*
X0146516Y0073150D01*
X0146583Y0073225D01*
X0146653Y0073297D01*
X0146727Y0073367D01*
X0146803Y0073434D01*
X0146881Y0073498D01*
X0146962Y0073558D01*
X0147045Y0073615D01*
X0147131Y0073669D01*
X0147219Y0073720D01*
X0147308Y0073767D01*
X0147399Y0073811D01*
X0147492Y0073850D01*
X0147587Y0073887D01*
X0147682Y0073919D01*
X0147779Y0073948D01*
X0147878Y0073972D01*
X0147976Y0073993D01*
X0148076Y0074010D01*
X0148176Y0074023D01*
X0148277Y0074032D01*
X0148378Y0074037D01*
X0148479Y0074038D01*
X0148580Y0074035D01*
X0148681Y0074028D01*
X0148782Y0074017D01*
X0148882Y0074002D01*
X0148981Y0073983D01*
X0149080Y0073960D01*
X0149177Y0073934D01*
X0149274Y0073903D01*
X0149369Y0073869D01*
X0149462Y0073831D01*
X0149555Y0073789D01*
X0149645Y0073744D01*
X0149734Y0073695D01*
X0149820Y0073643D01*
X0149904Y0073587D01*
X0149987Y0073528D01*
X0150066Y0073466D01*
X0150144Y0073401D01*
X0150218Y0073333D01*
X0150290Y0073261D01*
X0150359Y0073188D01*
X0150425Y0073111D01*
X0150488Y0073032D01*
X0150548Y0072950D01*
X0150604Y0072866D01*
X0150657Y0072780D01*
X0150707Y0072692D01*
X0150753Y0072602D01*
X0150796Y0072511D01*
X0150835Y0072417D01*
X0150870Y0072322D01*
X0150901Y0072226D01*
X0150929Y0072129D01*
X0150953Y0072031D01*
X0150973Y0071932D01*
X0150989Y0071832D01*
X0151001Y0071731D01*
X0151009Y0071631D01*
X0151013Y0071530D01*
X0151013Y0071428D01*
X0151009Y0071327D01*
X0151001Y0071227D01*
X0150989Y0071126D01*
X0150973Y0071026D01*
X0150953Y0070927D01*
X0150929Y0070829D01*
X0150901Y0070732D01*
X0150870Y0070636D01*
X0150835Y0070541D01*
X0150796Y0070447D01*
X0150753Y0070356D01*
X0150707Y0070266D01*
X0150657Y0070178D01*
X0150604Y0070092D01*
X0150548Y0070008D01*
X0150488Y0069926D01*
X0150425Y0069847D01*
X0150359Y0069770D01*
X0150290Y0069697D01*
X0150218Y0069625D01*
X0150144Y0069557D01*
X0150066Y0069492D01*
X0149987Y0069430D01*
X0149904Y0069371D01*
X0149820Y0069315D01*
X0149733Y0069263D01*
X0149645Y0069214D01*
X0149555Y0069169D01*
X0149462Y0069127D01*
X0149369Y0069089D01*
X0149274Y0069055D01*
X0149177Y0069024D01*
X0149080Y0068998D01*
X0148981Y0068975D01*
X0148882Y0068956D01*
X0148782Y0068941D01*
X0148681Y0068930D01*
X0148580Y0068923D01*
X0148479Y0068920D01*
X0148378Y0068921D01*
X0148277Y0068926D01*
X0148176Y0068935D01*
X0148076Y0068948D01*
X0147976Y0068965D01*
X0147878Y0068986D01*
X0147779Y0069010D01*
X0147682Y0069039D01*
X0147587Y0069071D01*
X0147492Y0069108D01*
X0147399Y0069147D01*
X0147308Y0069191D01*
X0147219Y0069238D01*
X0147131Y0069289D01*
X0147045Y0069343D01*
X0146962Y0069400D01*
X0146881Y0069460D01*
X0146803Y0069524D01*
X0146727Y0069591D01*
X0146653Y0069661D01*
X0146583Y0069733D01*
X0146516Y0069808D01*
X0146451Y0069886D01*
X0146390Y0069967D01*
X0146332Y0070049D01*
X0146277Y0070134D01*
X0146225Y0070221D01*
X0146177Y0070310D01*
X0146133Y0070401D01*
X0146092Y0070494D01*
X0146055Y0070588D01*
X0146022Y0070683D01*
X0145992Y0070780D01*
X0145967Y0070878D01*
X0145945Y0070977D01*
X0145927Y0071076D01*
X0145913Y0071176D01*
X0145903Y0071277D01*
X0145897Y0071378D01*
X0145895Y0071479D01*
D11*
X0144291Y0066755D02*
X0144291Y0062151D01*
X0147360Y0062151D01*
X0148894Y0062151D02*
X0151964Y0062151D01*
X0153498Y0062151D02*
X0156568Y0062151D01*
X0155033Y0062151D02*
X0155033Y0066755D01*
X0153498Y0065220D01*
X0151964Y0066755D02*
X0148894Y0066755D01*
X0148894Y0062151D01*
X0148894Y0064453D02*
X0150429Y0064453D01*
X0142756Y0064453D02*
X0139687Y0064453D01*
X0139687Y0065220D02*
X0141221Y0066755D01*
X0142756Y0065220D01*
X0142756Y0062151D01*
X0139687Y0062151D02*
X0139687Y0065220D01*
X0138152Y0066755D02*
X0138152Y0062151D01*
X0135083Y0062151D02*
X0135083Y0066755D01*
X0136617Y0065220D01*
X0138152Y0066755D01*
X0133548Y0061384D02*
X0130479Y0061384D01*
X0128944Y0062918D02*
X0128944Y0063686D01*
X0128177Y0064453D01*
X0125875Y0064453D01*
X0124340Y0063686D02*
X0124340Y0062918D01*
X0123573Y0062151D01*
X0122038Y0062151D01*
X0121271Y0062918D01*
X0119736Y0062918D02*
X0119736Y0066755D01*
X0121271Y0065988D02*
X0121271Y0065220D01*
X0122038Y0064453D01*
X0123573Y0064453D01*
X0124340Y0063686D01*
X0125875Y0062151D02*
X0128177Y0062151D01*
X0128944Y0062918D01*
X0128177Y0064453D02*
X0128944Y0065220D01*
X0128944Y0065988D01*
X0128177Y0066755D01*
X0125875Y0066755D01*
X0125875Y0062151D01*
X0124340Y0065988D02*
X0123573Y0066755D01*
X0122038Y0066755D01*
X0121271Y0065988D01*
X0119736Y0062918D02*
X0118969Y0062151D01*
X0117434Y0062151D01*
X0116667Y0062918D01*
X0116667Y0066755D01*
X0104553Y0091167D02*
X0102982Y0091167D01*
X0102589Y0091560D01*
X0102589Y0092346D01*
X0102982Y0092739D01*
X0103768Y0092739D02*
X0103768Y0091953D01*
X0103768Y0092739D02*
X0104553Y0092739D01*
X0104946Y0092346D01*
X0104946Y0091560D01*
X0104553Y0091167D01*
X0104946Y0093705D02*
X0102589Y0093705D01*
X0104946Y0095276D01*
X0102589Y0095276D01*
X0102589Y0096242D02*
X0102589Y0097421D01*
X0102982Y0097814D01*
X0104553Y0097814D01*
X0104946Y0097421D01*
X0104946Y0096242D01*
X0102589Y0096242D01*
X0102589Y0101317D02*
X0102589Y0102496D01*
X0102982Y0102889D01*
X0103768Y0102889D01*
X0104160Y0102496D01*
X0104160Y0101317D01*
X0104160Y0102103D02*
X0104946Y0102889D01*
X0104946Y0101317D02*
X0102589Y0101317D01*
X0102589Y0103855D02*
X0102589Y0105427D01*
X0102589Y0104641D02*
X0104946Y0104641D01*
X0104553Y0106393D02*
X0104946Y0106785D01*
X0104946Y0107571D01*
X0104553Y0107964D01*
X0104160Y0107964D01*
X0103768Y0107571D01*
X0103768Y0106785D01*
X0103375Y0106393D01*
X0102982Y0106393D01*
X0102589Y0106785D01*
X0102589Y0107571D01*
X0102982Y0107964D01*
X0102589Y0111468D02*
X0103768Y0111468D01*
X0103375Y0112254D01*
X0103375Y0112647D01*
X0103768Y0113040D01*
X0104553Y0113040D01*
X0104946Y0112647D01*
X0104946Y0111861D01*
X0104553Y0111468D01*
X0102589Y0111468D02*
X0102589Y0113040D01*
X0102589Y0114005D02*
X0104160Y0114005D01*
X0104946Y0114791D01*
X0104160Y0115577D01*
X0102589Y0115577D01*
X0102982Y0116543D02*
X0102589Y0116936D01*
X0102589Y0117722D01*
X0102982Y0118115D01*
X0104553Y0116543D01*
X0104946Y0116936D01*
X0104946Y0117722D01*
X0104553Y0118115D01*
X0102982Y0118115D01*
X0102982Y0116543D02*
X0104553Y0116543D01*
X0104160Y0121618D02*
X0104160Y0122797D01*
X0103768Y0123190D01*
X0102982Y0123190D01*
X0102589Y0122797D01*
X0102589Y0121618D01*
X0104946Y0121618D01*
X0104160Y0122404D02*
X0104946Y0123190D01*
X0104946Y0124156D02*
X0102589Y0125728D01*
X0102589Y0126693D02*
X0102589Y0127872D01*
X0102982Y0128265D01*
X0104553Y0128265D01*
X0104946Y0127872D01*
X0104946Y0126693D01*
X0102589Y0126693D01*
X0102589Y0124156D02*
X0104946Y0125728D01*
X0102589Y0131769D02*
X0102589Y0133340D01*
X0102589Y0132554D02*
X0104946Y0132554D01*
X0104946Y0134306D02*
X0102589Y0135878D01*
X0102589Y0136844D02*
X0102589Y0138023D01*
X0102982Y0138416D01*
X0104553Y0138416D01*
X0104946Y0138023D01*
X0104946Y0136844D01*
X0102589Y0136844D01*
X0102589Y0134306D02*
X0104946Y0135878D01*
X0104553Y0141919D02*
X0102982Y0141919D01*
X0102589Y0142312D01*
X0102589Y0143098D01*
X0102982Y0143491D01*
X0102589Y0144456D02*
X0102589Y0146028D01*
X0102589Y0145242D02*
X0104946Y0145242D01*
X0104553Y0143491D02*
X0104946Y0143098D01*
X0104946Y0142312D01*
X0104553Y0141919D01*
X0104553Y0146994D02*
X0104946Y0147387D01*
X0104946Y0148173D01*
X0104553Y0148566D01*
X0104160Y0148566D01*
X0103768Y0148173D01*
X0103768Y0147387D01*
X0103375Y0146994D01*
X0102982Y0146994D01*
X0102589Y0147387D01*
X0102589Y0148173D01*
X0102982Y0148566D01*
X0102589Y0152069D02*
X0102589Y0153248D01*
X0102982Y0153641D01*
X0103768Y0153641D01*
X0104160Y0153248D01*
X0104160Y0152069D01*
X0104160Y0152855D02*
X0104946Y0153641D01*
X0104553Y0154607D02*
X0104946Y0155000D01*
X0104946Y0155786D01*
X0104553Y0156179D01*
X0104160Y0156179D01*
X0103768Y0155786D01*
X0103768Y0155000D01*
X0103375Y0154607D01*
X0102982Y0154607D01*
X0102589Y0155000D01*
X0102589Y0155786D01*
X0102982Y0156179D01*
X0102589Y0157144D02*
X0102589Y0158716D01*
X0102589Y0157930D02*
X0104946Y0157930D01*
X0104946Y0162220D02*
X0102589Y0162220D01*
X0102589Y0163399D01*
X0102982Y0163792D01*
X0103768Y0163792D01*
X0104160Y0163399D01*
X0104160Y0162220D01*
X0104160Y0164757D02*
X0104160Y0165936D01*
X0103768Y0166329D01*
X0102982Y0166329D01*
X0102589Y0165936D01*
X0102589Y0164757D01*
X0104946Y0164757D01*
X0104160Y0165543D02*
X0104946Y0166329D01*
X0104553Y0167295D02*
X0102982Y0167295D01*
X0102589Y0167688D01*
X0102589Y0168474D01*
X0102982Y0168867D01*
X0103768Y0168867D02*
X0103768Y0168081D01*
X0103768Y0168867D02*
X0104553Y0168867D01*
X0104946Y0168474D01*
X0104946Y0167688D01*
X0104553Y0167295D01*
X0104553Y0172370D02*
X0102982Y0172370D01*
X0102589Y0172763D01*
X0102589Y0173549D01*
X0102982Y0173942D01*
X0103768Y0173942D02*
X0103768Y0173156D01*
X0103768Y0173942D02*
X0104553Y0173942D01*
X0104946Y0173549D01*
X0104946Y0172763D01*
X0104553Y0172370D01*
X0104946Y0174908D02*
X0102589Y0174908D01*
X0104946Y0176480D01*
X0102589Y0176480D01*
X0102589Y0177445D02*
X0102589Y0178624D01*
X0102982Y0179017D01*
X0104553Y0179017D01*
X0104946Y0178624D01*
X0104946Y0177445D01*
X0102589Y0177445D01*
X0102589Y0152069D02*
X0104946Y0152069D01*
X0058142Y0066755D02*
X0055073Y0066755D01*
X0055073Y0062151D01*
X0058142Y0062151D01*
X0056608Y0064453D02*
X0055073Y0064453D01*
X0053539Y0062151D02*
X0050469Y0062151D01*
X0050469Y0066755D01*
X0048935Y0065220D02*
X0048935Y0062151D01*
X0048935Y0064453D02*
X0045865Y0064453D01*
X0045865Y0065220D02*
X0047400Y0066755D01*
X0048935Y0065220D01*
X0045865Y0065220D02*
X0045865Y0062151D01*
X0044331Y0062151D02*
X0044331Y0066755D01*
X0042796Y0065220D01*
X0041261Y0066755D01*
X0041261Y0062151D01*
X0039727Y0061384D02*
X0036657Y0061384D01*
X0035123Y0062918D02*
X0035123Y0063686D01*
X0034355Y0064453D01*
X0032054Y0064453D01*
X0030519Y0063686D02*
X0030519Y0062918D01*
X0029752Y0062151D01*
X0028217Y0062151D01*
X0027450Y0062918D01*
X0025915Y0062918D02*
X0025915Y0066755D01*
X0027450Y0065988D02*
X0027450Y0065220D01*
X0028217Y0064453D01*
X0029752Y0064453D01*
X0030519Y0063686D01*
X0032054Y0062151D02*
X0034355Y0062151D01*
X0035123Y0062918D01*
X0034355Y0064453D02*
X0035123Y0065220D01*
X0035123Y0065988D01*
X0034355Y0066755D01*
X0032054Y0066755D01*
X0032054Y0062151D01*
X0030519Y0065988D02*
X0029752Y0066755D01*
X0028217Y0066755D01*
X0027450Y0065988D01*
X0025915Y0062918D02*
X0025148Y0062151D01*
X0023613Y0062151D01*
X0022846Y0062918D01*
X0022846Y0066755D01*
X0006128Y0091167D02*
X0006521Y0091560D01*
X0006521Y0092346D01*
X0006128Y0092739D01*
X0005342Y0092739D01*
X0005342Y0091953D01*
X0004556Y0092739D02*
X0004163Y0092346D01*
X0004163Y0091560D01*
X0004556Y0091167D01*
X0006128Y0091167D01*
X0006521Y0093705D02*
X0004163Y0093705D01*
X0006521Y0095276D01*
X0004163Y0095276D01*
X0004163Y0096242D02*
X0004163Y0097421D01*
X0004556Y0097814D01*
X0006128Y0097814D01*
X0006521Y0097421D01*
X0006521Y0096242D01*
X0004163Y0096242D01*
X0004163Y0101317D02*
X0004163Y0102496D01*
X0004556Y0102889D01*
X0005342Y0102889D01*
X0005735Y0102496D01*
X0005735Y0101317D01*
X0006521Y0101317D02*
X0004163Y0101317D01*
X0005735Y0102103D02*
X0006521Y0102889D01*
X0006521Y0104641D02*
X0004163Y0104641D01*
X0004163Y0103855D02*
X0004163Y0105427D01*
X0004556Y0106393D02*
X0004949Y0106393D01*
X0005342Y0106785D01*
X0005342Y0107571D01*
X0005735Y0107964D01*
X0006128Y0107964D01*
X0006521Y0107571D01*
X0006521Y0106785D01*
X0006128Y0106393D01*
X0004556Y0106393D02*
X0004163Y0106785D01*
X0004163Y0107571D01*
X0004556Y0107964D01*
X0004163Y0111468D02*
X0005342Y0111468D01*
X0004949Y0112254D01*
X0004949Y0112647D01*
X0005342Y0113040D01*
X0006128Y0113040D01*
X0006521Y0112647D01*
X0006521Y0111861D01*
X0006128Y0111468D01*
X0004163Y0111468D02*
X0004163Y0113040D01*
X0004163Y0114005D02*
X0005735Y0114005D01*
X0006521Y0114791D01*
X0005735Y0115577D01*
X0004163Y0115577D01*
X0004556Y0116543D02*
X0004163Y0116936D01*
X0004163Y0117722D01*
X0004556Y0118115D01*
X0006128Y0116543D01*
X0006521Y0116936D01*
X0006521Y0117722D01*
X0006128Y0118115D01*
X0004556Y0118115D01*
X0004556Y0116543D02*
X0006128Y0116543D01*
X0005735Y0121618D02*
X0005735Y0122797D01*
X0005342Y0123190D01*
X0004556Y0123190D01*
X0004163Y0122797D01*
X0004163Y0121618D01*
X0006521Y0121618D01*
X0005735Y0122404D02*
X0006521Y0123190D01*
X0006521Y0124156D02*
X0004163Y0125728D01*
X0004163Y0126693D02*
X0004163Y0127872D01*
X0004556Y0128265D01*
X0006128Y0128265D01*
X0006521Y0127872D01*
X0006521Y0126693D01*
X0004163Y0126693D01*
X0004163Y0124156D02*
X0006521Y0125728D01*
X0004163Y0131769D02*
X0004163Y0133340D01*
X0004163Y0132554D02*
X0006521Y0132554D01*
X0006521Y0134306D02*
X0004163Y0135878D01*
X0004163Y0136844D02*
X0004163Y0138023D01*
X0004556Y0138416D01*
X0006128Y0138416D01*
X0006521Y0138023D01*
X0006521Y0136844D01*
X0004163Y0136844D01*
X0004163Y0134306D02*
X0006521Y0135878D01*
X0006128Y0141919D02*
X0004556Y0141919D01*
X0004163Y0142312D01*
X0004163Y0143098D01*
X0004556Y0143491D01*
X0004163Y0144456D02*
X0004163Y0146028D01*
X0004163Y0145242D02*
X0006521Y0145242D01*
X0006128Y0143491D02*
X0006521Y0143098D01*
X0006521Y0142312D01*
X0006128Y0141919D01*
X0006128Y0146994D02*
X0006521Y0147387D01*
X0006521Y0148173D01*
X0006128Y0148566D01*
X0005735Y0148566D01*
X0005342Y0148173D01*
X0005342Y0147387D01*
X0004949Y0146994D01*
X0004556Y0146994D01*
X0004163Y0147387D01*
X0004163Y0148173D01*
X0004556Y0148566D01*
X0004163Y0152069D02*
X0004163Y0153248D01*
X0004556Y0153641D01*
X0005342Y0153641D01*
X0005735Y0153248D01*
X0005735Y0152069D01*
X0006521Y0152069D02*
X0004163Y0152069D01*
X0005735Y0152855D02*
X0006521Y0153641D01*
X0006128Y0154607D02*
X0006521Y0155000D01*
X0006521Y0155786D01*
X0006128Y0156179D01*
X0005735Y0156179D01*
X0005342Y0155786D01*
X0005342Y0155000D01*
X0004949Y0154607D01*
X0004556Y0154607D01*
X0004163Y0155000D01*
X0004163Y0155786D01*
X0004556Y0156179D01*
X0004163Y0157144D02*
X0004163Y0158716D01*
X0004163Y0157930D02*
X0006521Y0157930D01*
X0006521Y0162220D02*
X0004163Y0162220D01*
X0004163Y0163399D01*
X0004556Y0163792D01*
X0005342Y0163792D01*
X0005735Y0163399D01*
X0005735Y0162220D01*
X0005735Y0164757D02*
X0005735Y0165936D01*
X0005342Y0166329D01*
X0004556Y0166329D01*
X0004163Y0165936D01*
X0004163Y0164757D01*
X0006521Y0164757D01*
X0005735Y0165543D02*
X0006521Y0166329D01*
X0006128Y0167295D02*
X0004556Y0167295D01*
X0004163Y0167688D01*
X0004163Y0168474D01*
X0004556Y0168867D01*
X0005342Y0168867D02*
X0005342Y0168081D01*
X0005342Y0168867D02*
X0006128Y0168867D01*
X0006521Y0168474D01*
X0006521Y0167688D01*
X0006128Y0167295D01*
X0006128Y0172370D02*
X0004556Y0172370D01*
X0004163Y0172763D01*
X0004163Y0173549D01*
X0004556Y0173942D01*
X0005342Y0173942D02*
X0005342Y0173156D01*
X0005342Y0173942D02*
X0006128Y0173942D01*
X0006521Y0173549D01*
X0006521Y0172763D01*
X0006128Y0172370D01*
X0006521Y0174908D02*
X0004163Y0174908D01*
X0006521Y0176480D01*
X0004163Y0176480D01*
X0004163Y0177445D02*
X0004163Y0178624D01*
X0004556Y0179017D01*
X0006128Y0179017D01*
X0006521Y0178624D01*
X0006521Y0177445D01*
X0004163Y0177445D01*
X0032741Y0249455D02*
X0035810Y0249455D01*
X0037345Y0250222D02*
X0037345Y0254826D01*
X0040414Y0254826D01*
X0041949Y0254826D02*
X0041949Y0250222D01*
X0045018Y0250222D01*
X0046553Y0250222D02*
X0046553Y0254826D01*
X0048087Y0253291D01*
X0049622Y0254826D01*
X0049622Y0250222D01*
X0051157Y0250222D02*
X0051157Y0253291D01*
X0052691Y0254826D01*
X0054226Y0253291D01*
X0054226Y0250222D01*
X0055761Y0250222D02*
X0058830Y0250222D01*
X0060364Y0250222D02*
X0060364Y0254826D01*
X0063434Y0254826D01*
X0061899Y0252524D02*
X0060364Y0252524D01*
X0060364Y0250222D02*
X0063434Y0250222D01*
X0055761Y0250222D02*
X0055761Y0254826D01*
X0054226Y0252524D02*
X0051157Y0252524D01*
X0045018Y0254826D02*
X0041949Y0254826D01*
X0041949Y0252524D02*
X0043483Y0252524D01*
X0038879Y0252524D02*
X0037345Y0252524D01*
X0031206Y0251757D02*
X0031206Y0250989D01*
X0030439Y0250222D01*
X0028137Y0250222D01*
X0028137Y0254826D01*
X0030439Y0254826D01*
X0031206Y0254059D01*
X0031206Y0253291D01*
X0030439Y0252524D01*
X0028137Y0252524D01*
X0026602Y0251757D02*
X0026602Y0250989D01*
X0025835Y0250222D01*
X0024300Y0250222D01*
X0023533Y0250989D01*
X0021998Y0250989D02*
X0021998Y0254826D01*
X0023533Y0254059D02*
X0023533Y0253291D01*
X0024300Y0252524D01*
X0025835Y0252524D01*
X0026602Y0251757D01*
X0026602Y0254059D02*
X0025835Y0254826D01*
X0024300Y0254826D01*
X0023533Y0254059D01*
X0021998Y0250989D02*
X0021231Y0250222D01*
X0019696Y0250222D01*
X0018929Y0250989D01*
X0018929Y0254826D01*
X0030439Y0252524D02*
X0031206Y0251757D01*
X0117354Y0250989D02*
X0118122Y0250222D01*
X0119656Y0250222D01*
X0120424Y0250989D01*
X0120424Y0254826D01*
X0121958Y0254059D02*
X0121958Y0253291D01*
X0122726Y0252524D01*
X0124260Y0252524D01*
X0125028Y0251757D01*
X0125028Y0250989D01*
X0124260Y0250222D01*
X0122726Y0250222D01*
X0121958Y0250989D01*
X0121958Y0254059D02*
X0122726Y0254826D01*
X0124260Y0254826D01*
X0125028Y0254059D01*
X0126562Y0254826D02*
X0126562Y0250222D01*
X0128864Y0250222D01*
X0129631Y0250989D01*
X0129631Y0251757D01*
X0128864Y0252524D01*
X0126562Y0252524D01*
X0126562Y0254826D02*
X0128864Y0254826D01*
X0129631Y0254059D01*
X0129631Y0253291D01*
X0128864Y0252524D01*
X0131166Y0249455D02*
X0134235Y0249455D01*
X0135770Y0250222D02*
X0135770Y0254826D01*
X0138839Y0254826D01*
X0140374Y0254826D02*
X0140374Y0250222D01*
X0143443Y0250222D01*
X0144978Y0250222D02*
X0144978Y0254826D01*
X0146513Y0253291D01*
X0148047Y0254826D01*
X0148047Y0250222D01*
X0149582Y0250222D02*
X0149582Y0253291D01*
X0151116Y0254826D01*
X0152651Y0253291D01*
X0152651Y0250222D01*
X0154186Y0250222D02*
X0157255Y0250222D01*
X0158790Y0250222D02*
X0158790Y0254826D01*
X0161859Y0254826D01*
X0163394Y0253291D02*
X0164928Y0254826D01*
X0164928Y0250222D01*
X0163394Y0250222D02*
X0166463Y0250222D01*
X0161859Y0250222D02*
X0158790Y0250222D01*
X0158790Y0252524D02*
X0160324Y0252524D01*
X0154186Y0254826D02*
X0154186Y0250222D01*
X0152651Y0252524D02*
X0149582Y0252524D01*
X0143443Y0254826D02*
X0140374Y0254826D01*
X0140374Y0252524D02*
X0141909Y0252524D01*
X0137305Y0252524D02*
X0135770Y0252524D01*
X0117354Y0250989D02*
X0117354Y0254826D01*
D12*
X0149954Y0209208D02*
X0152856Y0209208D01*
X0152856Y0211143D01*
X0152856Y0208197D02*
X0152856Y0206262D01*
X0150921Y0208197D01*
X0150438Y0208197D01*
X0149954Y0207713D01*
X0149954Y0206746D01*
X0150438Y0206262D01*
X0150438Y0205250D02*
X0150921Y0205250D01*
X0151405Y0204767D01*
X0151889Y0205250D01*
X0152373Y0205250D01*
X0152856Y0204767D01*
X0152856Y0203799D01*
X0152373Y0203315D01*
X0151405Y0204283D02*
X0151405Y0204767D01*
X0150438Y0205250D02*
X0149954Y0204767D01*
X0149954Y0203799D01*
X0150438Y0203315D01*
X0151405Y0202304D02*
X0151405Y0200369D01*
X0150921Y0199357D02*
X0150438Y0199357D01*
X0149954Y0198874D01*
X0149954Y0197906D01*
X0150438Y0197422D01*
X0150438Y0196411D02*
X0149954Y0195927D01*
X0149954Y0194960D01*
X0150438Y0194476D01*
X0152373Y0194476D01*
X0152856Y0194960D01*
X0152856Y0195927D01*
X0152373Y0196411D01*
X0152856Y0197422D02*
X0150921Y0199357D01*
X0152856Y0199357D02*
X0152856Y0197422D01*
X0152856Y0193464D02*
X0149954Y0193464D01*
X0149954Y0191529D02*
X0152856Y0193464D01*
X0152856Y0191529D02*
X0149954Y0191529D01*
X0149954Y0190518D02*
X0151889Y0190518D01*
X0152856Y0189550D01*
X0151889Y0188583D01*
X0149954Y0188583D01*
X0141312Y0134554D02*
X0141795Y0134070D01*
X0141795Y0133103D01*
X0141312Y0132619D01*
X0141312Y0131608D02*
X0141795Y0131124D01*
X0141795Y0130156D01*
X0141312Y0129673D01*
X0140344Y0130640D02*
X0140344Y0131124D01*
X0140828Y0131608D01*
X0141312Y0131608D01*
X0140344Y0131124D02*
X0139860Y0131608D01*
X0139377Y0131608D01*
X0138893Y0131124D01*
X0138893Y0130156D01*
X0139377Y0129673D01*
X0140344Y0128661D02*
X0140344Y0126726D01*
X0139377Y0125714D02*
X0141312Y0123780D01*
X0141795Y0123780D01*
X0141795Y0122768D02*
X0141795Y0120833D01*
X0141795Y0121800D02*
X0138893Y0121800D01*
X0139860Y0120833D01*
X0141795Y0119821D02*
X0141795Y0117886D01*
X0141795Y0118854D02*
X0138893Y0118854D01*
X0139860Y0117886D01*
X0141795Y0116875D02*
X0141795Y0114940D01*
X0141795Y0115907D02*
X0138893Y0115907D01*
X0139860Y0114940D01*
X0138893Y0123780D02*
X0138893Y0125714D01*
X0139377Y0125714D01*
X0139377Y0132619D02*
X0138893Y0133103D01*
X0138893Y0134070D01*
X0139377Y0134554D01*
X0139860Y0134554D01*
X0140344Y0134070D01*
X0140828Y0134554D01*
X0141312Y0134554D01*
X0140344Y0134070D02*
X0140344Y0133587D01*
X0054431Y0189550D02*
X0053464Y0190518D01*
X0051529Y0190518D01*
X0051529Y0191529D02*
X0054431Y0193464D01*
X0051529Y0193464D01*
X0052012Y0194476D02*
X0053947Y0194476D01*
X0054431Y0194960D01*
X0054431Y0195927D01*
X0053947Y0196411D01*
X0054431Y0197422D02*
X0052496Y0199357D01*
X0052012Y0199357D01*
X0051529Y0198874D01*
X0051529Y0197906D01*
X0052012Y0197422D01*
X0052012Y0196411D02*
X0051529Y0195927D01*
X0051529Y0194960D01*
X0052012Y0194476D01*
X0051529Y0191529D02*
X0054431Y0191529D01*
X0054431Y0189550D02*
X0053464Y0188583D01*
X0051529Y0188583D01*
X0054431Y0197422D02*
X0054431Y0199357D01*
X0052980Y0200369D02*
X0052980Y0202304D01*
X0053947Y0203315D02*
X0054431Y0203799D01*
X0054431Y0204767D01*
X0053947Y0205250D01*
X0053464Y0205250D01*
X0052980Y0204767D01*
X0052980Y0204283D01*
X0052980Y0204767D02*
X0052496Y0205250D01*
X0052012Y0205250D01*
X0051529Y0204767D01*
X0051529Y0203799D01*
X0052012Y0203315D01*
X0052012Y0206262D02*
X0051529Y0206746D01*
X0051529Y0207713D01*
X0052012Y0208197D01*
X0052496Y0208197D01*
X0054431Y0206262D01*
X0054431Y0208197D01*
X0054431Y0209208D02*
X0054431Y0211143D01*
X0054431Y0209208D02*
X0051529Y0209208D01*
X0042886Y0134554D02*
X0043370Y0134070D01*
X0043370Y0133103D01*
X0042886Y0132619D01*
X0042886Y0131608D02*
X0043370Y0131124D01*
X0043370Y0130156D01*
X0042886Y0129673D01*
X0041919Y0130640D02*
X0041919Y0131124D01*
X0042403Y0131608D01*
X0042886Y0131608D01*
X0041919Y0131124D02*
X0041435Y0131608D01*
X0040951Y0131608D01*
X0040468Y0131124D01*
X0040468Y0130156D01*
X0040951Y0129673D01*
X0041919Y0128661D02*
X0041919Y0126726D01*
X0040951Y0125714D02*
X0042886Y0123780D01*
X0043370Y0123780D01*
X0043370Y0122768D02*
X0043370Y0120833D01*
X0043370Y0121800D02*
X0040468Y0121800D01*
X0041435Y0120833D01*
X0043370Y0119821D02*
X0043370Y0117886D01*
X0043370Y0118854D02*
X0040468Y0118854D01*
X0041435Y0117886D01*
X0043370Y0116875D02*
X0043370Y0114940D01*
X0043370Y0115907D02*
X0040468Y0115907D01*
X0041435Y0114940D01*
X0040468Y0123780D02*
X0040468Y0125714D01*
X0040951Y0125714D01*
X0040951Y0132619D02*
X0040468Y0133103D01*
X0040468Y0134070D01*
X0040951Y0134554D01*
X0041435Y0134554D01*
X0041919Y0134070D01*
X0042403Y0134554D01*
X0042886Y0134554D01*
X0041919Y0134070D02*
X0041919Y0133587D01*
D13*
X0025958Y0154066D02*
X0025958Y0154433D01*
X0025225Y0155167D01*
X0025958Y0155167D02*
X0024491Y0155167D01*
X0024858Y0155909D02*
X0025591Y0155909D01*
X0025958Y0156276D01*
X0025958Y0157010D01*
X0025591Y0157377D01*
X0024858Y0157377D01*
X0024491Y0157010D01*
X0024491Y0156276D01*
X0024858Y0155909D01*
X0024491Y0158116D02*
X0024858Y0158483D01*
X0026325Y0158483D01*
X0025958Y0158850D02*
X0025958Y0158116D01*
X0025591Y0159592D02*
X0024491Y0159592D01*
X0024491Y0160693D01*
X0024858Y0161060D01*
X0025225Y0160693D01*
X0025225Y0159592D01*
X0025591Y0159592D02*
X0025958Y0159959D01*
X0025958Y0160693D01*
X0025591Y0161802D02*
X0024491Y0161802D01*
X0025591Y0161802D02*
X0025958Y0162169D01*
X0025958Y0163270D01*
X0024491Y0163270D01*
X0024858Y0164012D02*
X0025591Y0164012D01*
X0025958Y0164379D01*
X0025958Y0165113D01*
X0025591Y0165480D01*
X0024858Y0165480D01*
X0024491Y0165113D01*
X0024491Y0164379D01*
X0024858Y0164012D01*
X0024858Y0166222D02*
X0025225Y0166589D01*
X0025225Y0167323D01*
X0025591Y0167690D01*
X0025958Y0167323D01*
X0025958Y0166222D01*
X0024858Y0166222D02*
X0024491Y0166589D01*
X0024491Y0167690D01*
X0025225Y0168432D02*
X0025225Y0169899D01*
X0025591Y0169899D02*
X0025958Y0169532D01*
X0025958Y0168799D01*
X0025591Y0168432D01*
X0025225Y0168432D01*
X0024491Y0168799D02*
X0024491Y0169532D01*
X0024858Y0169899D01*
X0025591Y0169899D01*
X0025591Y0170641D02*
X0025225Y0171008D01*
X0025225Y0172109D01*
X0025225Y0171375D02*
X0024491Y0170641D01*
X0025591Y0170641D02*
X0026325Y0170641D01*
X0026692Y0171008D01*
X0026692Y0172109D01*
X0024491Y0172109D01*
X0028091Y0168242D02*
X0028091Y0166774D01*
X0028091Y0167508D02*
X0030292Y0167508D01*
X0029558Y0168242D01*
X0029925Y0166032D02*
X0030292Y0165665D01*
X0030292Y0164931D01*
X0029925Y0164564D01*
X0029558Y0164564D01*
X0028091Y0166032D01*
X0028091Y0164564D01*
X0028091Y0163822D02*
X0029558Y0163822D01*
X0029558Y0163455D01*
X0029191Y0163088D01*
X0029558Y0162721D01*
X0029191Y0162354D01*
X0028091Y0162354D01*
X0028091Y0163088D02*
X0029191Y0163088D01*
X0029191Y0161612D02*
X0029558Y0161245D01*
X0029558Y0160511D01*
X0029191Y0160144D01*
X0028091Y0160144D01*
X0028091Y0159403D02*
X0028091Y0157935D01*
X0029558Y0157935D02*
X0028091Y0159403D01*
X0029558Y0159403D02*
X0029558Y0157935D01*
X0030292Y0161612D02*
X0028091Y0161612D01*
X0122916Y0161802D02*
X0124017Y0161802D01*
X0124384Y0162169D01*
X0124384Y0163270D01*
X0122916Y0163270D01*
X0123283Y0164012D02*
X0124017Y0164012D01*
X0124384Y0164379D01*
X0124384Y0165113D01*
X0124017Y0165480D01*
X0123283Y0165480D01*
X0122916Y0165113D01*
X0122916Y0164379D01*
X0123283Y0164012D01*
X0123283Y0166222D02*
X0123650Y0166589D01*
X0123650Y0167323D01*
X0124017Y0167690D01*
X0124384Y0167323D01*
X0124384Y0166222D01*
X0123283Y0166222D02*
X0122916Y0166589D01*
X0122916Y0167690D01*
X0123650Y0168432D02*
X0123650Y0169899D01*
X0124017Y0169899D02*
X0124384Y0169532D01*
X0124384Y0168799D01*
X0124017Y0168432D01*
X0123650Y0168432D01*
X0122916Y0168799D02*
X0122916Y0169532D01*
X0123283Y0169899D01*
X0124017Y0169899D01*
X0124017Y0170641D02*
X0123650Y0171008D01*
X0123650Y0172109D01*
X0123650Y0171375D02*
X0122916Y0170641D01*
X0124017Y0170641D02*
X0124751Y0170641D01*
X0125118Y0171008D01*
X0125118Y0172109D01*
X0122916Y0172109D01*
X0126516Y0168242D02*
X0126516Y0166774D01*
X0126516Y0167508D02*
X0128718Y0167508D01*
X0127984Y0168242D01*
X0128351Y0166032D02*
X0128718Y0165665D01*
X0128718Y0164931D01*
X0128351Y0164564D01*
X0127984Y0164564D01*
X0126516Y0166032D01*
X0126516Y0164564D01*
X0126516Y0163822D02*
X0127984Y0163822D01*
X0127984Y0163455D01*
X0127617Y0163088D01*
X0127984Y0162721D01*
X0127617Y0162354D01*
X0126516Y0162354D01*
X0126516Y0163088D02*
X0127617Y0163088D01*
X0127617Y0161612D02*
X0127984Y0161245D01*
X0127984Y0160511D01*
X0127617Y0160144D01*
X0126516Y0160144D01*
X0126516Y0159403D02*
X0126516Y0157935D01*
X0127984Y0157935D02*
X0126516Y0159403D01*
X0127984Y0159403D02*
X0127984Y0157935D01*
X0124751Y0158483D02*
X0123283Y0158483D01*
X0122916Y0158116D01*
X0123283Y0157377D02*
X0122916Y0157010D01*
X0122916Y0156276D01*
X0123283Y0155909D01*
X0124017Y0155909D01*
X0124384Y0156276D01*
X0124384Y0157010D01*
X0124017Y0157377D01*
X0123283Y0157377D01*
X0124384Y0158116D02*
X0124384Y0158850D01*
X0124017Y0159592D02*
X0124384Y0159959D01*
X0124384Y0160693D01*
X0123650Y0160693D02*
X0123283Y0161060D01*
X0122916Y0160693D01*
X0122916Y0159592D01*
X0124017Y0159592D01*
X0123650Y0159592D02*
X0123650Y0160693D01*
X0126516Y0161612D02*
X0128718Y0161612D01*
X0124384Y0155167D02*
X0122916Y0155167D01*
X0123650Y0155167D02*
X0124384Y0154433D01*
X0124384Y0154066D01*
D14*
X0123060Y0182502D02*
X0123062Y0182558D01*
X0123068Y0182613D01*
X0123078Y0182667D01*
X0123091Y0182721D01*
X0123109Y0182774D01*
X0123130Y0182825D01*
X0123154Y0182875D01*
X0123182Y0182923D01*
X0123214Y0182969D01*
X0123248Y0183013D01*
X0123286Y0183054D01*
X0123326Y0183092D01*
X0123369Y0183127D01*
X0123414Y0183159D01*
X0123462Y0183188D01*
X0123511Y0183214D01*
X0123562Y0183236D01*
X0123614Y0183254D01*
X0123668Y0183268D01*
X0123723Y0183279D01*
X0123778Y0183286D01*
X0123833Y0183289D01*
X0123889Y0183288D01*
X0123944Y0183283D01*
X0123999Y0183274D01*
X0124053Y0183262D01*
X0124106Y0183245D01*
X0124158Y0183225D01*
X0124208Y0183201D01*
X0124256Y0183174D01*
X0124303Y0183144D01*
X0124347Y0183110D01*
X0124389Y0183073D01*
X0124427Y0183033D01*
X0124464Y0182991D01*
X0124497Y0182946D01*
X0124526Y0182900D01*
X0124553Y0182851D01*
X0124575Y0182800D01*
X0124595Y0182748D01*
X0124610Y0182694D01*
X0124622Y0182640D01*
X0124630Y0182585D01*
X0124634Y0182530D01*
X0124634Y0182474D01*
X0124630Y0182419D01*
X0124622Y0182364D01*
X0124610Y0182310D01*
X0124595Y0182256D01*
X0124575Y0182204D01*
X0124553Y0182153D01*
X0124526Y0182104D01*
X0124497Y0182058D01*
X0124464Y0182013D01*
X0124427Y0181971D01*
X0124389Y0181931D01*
X0124347Y0181894D01*
X0124303Y0181860D01*
X0124256Y0181830D01*
X0124208Y0181803D01*
X0124158Y0181779D01*
X0124106Y0181759D01*
X0124053Y0181742D01*
X0123999Y0181730D01*
X0123944Y0181721D01*
X0123889Y0181716D01*
X0123833Y0181715D01*
X0123778Y0181718D01*
X0123723Y0181725D01*
X0123668Y0181736D01*
X0123614Y0181750D01*
X0123562Y0181768D01*
X0123511Y0181790D01*
X0123462Y0181816D01*
X0123414Y0181845D01*
X0123369Y0181877D01*
X0123326Y0181912D01*
X0123286Y0181950D01*
X0123248Y0181991D01*
X0123214Y0182035D01*
X0123182Y0182081D01*
X0123154Y0182129D01*
X0123130Y0182179D01*
X0123109Y0182230D01*
X0123091Y0182283D01*
X0123078Y0182337D01*
X0123068Y0182391D01*
X0123062Y0182446D01*
X0123060Y0182502D01*
X0024635Y0182502D02*
X0024637Y0182558D01*
X0024643Y0182613D01*
X0024653Y0182667D01*
X0024666Y0182721D01*
X0024684Y0182774D01*
X0024705Y0182825D01*
X0024729Y0182875D01*
X0024757Y0182923D01*
X0024789Y0182969D01*
X0024823Y0183013D01*
X0024861Y0183054D01*
X0024901Y0183092D01*
X0024944Y0183127D01*
X0024989Y0183159D01*
X0025037Y0183188D01*
X0025086Y0183214D01*
X0025137Y0183236D01*
X0025189Y0183254D01*
X0025243Y0183268D01*
X0025298Y0183279D01*
X0025353Y0183286D01*
X0025408Y0183289D01*
X0025464Y0183288D01*
X0025519Y0183283D01*
X0025574Y0183274D01*
X0025628Y0183262D01*
X0025681Y0183245D01*
X0025733Y0183225D01*
X0025783Y0183201D01*
X0025831Y0183174D01*
X0025878Y0183144D01*
X0025922Y0183110D01*
X0025964Y0183073D01*
X0026002Y0183033D01*
X0026039Y0182991D01*
X0026072Y0182946D01*
X0026101Y0182900D01*
X0026128Y0182851D01*
X0026150Y0182800D01*
X0026170Y0182748D01*
X0026185Y0182694D01*
X0026197Y0182640D01*
X0026205Y0182585D01*
X0026209Y0182530D01*
X0026209Y0182474D01*
X0026205Y0182419D01*
X0026197Y0182364D01*
X0026185Y0182310D01*
X0026170Y0182256D01*
X0026150Y0182204D01*
X0026128Y0182153D01*
X0026101Y0182104D01*
X0026072Y0182058D01*
X0026039Y0182013D01*
X0026002Y0181971D01*
X0025964Y0181931D01*
X0025922Y0181894D01*
X0025878Y0181860D01*
X0025831Y0181830D01*
X0025783Y0181803D01*
X0025733Y0181779D01*
X0025681Y0181759D01*
X0025628Y0181742D01*
X0025574Y0181730D01*
X0025519Y0181721D01*
X0025464Y0181716D01*
X0025408Y0181715D01*
X0025353Y0181718D01*
X0025298Y0181725D01*
X0025243Y0181736D01*
X0025189Y0181750D01*
X0025137Y0181768D01*
X0025086Y0181790D01*
X0025037Y0181816D01*
X0024989Y0181845D01*
X0024944Y0181877D01*
X0024901Y0181912D01*
X0024861Y0181950D01*
X0024823Y0181991D01*
X0024789Y0182035D01*
X0024757Y0182081D01*
X0024729Y0182129D01*
X0024705Y0182179D01*
X0024684Y0182230D01*
X0024666Y0182283D01*
X0024653Y0182337D01*
X0024643Y0182391D01*
X0024637Y0182446D01*
X0024635Y0182502D01*
D15*
X0029409Y0184521D02*
X0030410Y0184521D01*
X0029909Y0184521D02*
X0029909Y0186022D01*
X0029409Y0185522D01*
X0127834Y0185522D02*
X0128335Y0186022D01*
X0128335Y0184521D01*
X0128835Y0184521D02*
X0127834Y0184521D01*
D16*
X0119123Y0150022D02*
X0119123Y0089983D01*
X0100225Y0089983D01*
X0100225Y0150022D02*
X0119123Y0150022D01*
X0020698Y0150022D02*
X0020698Y0089983D01*
X0001800Y0089983D01*
X0001800Y0150022D02*
X0020698Y0150022D01*
D17*
X0033296Y0155928D02*
X0033296Y0169707D01*
X0049044Y0169707D01*
X0049044Y0155928D01*
X0033296Y0155928D01*
X0025422Y0182502D02*
X0025422Y0213998D01*
X0056918Y0213998D01*
X0056918Y0182502D01*
X0025422Y0182502D01*
X0083664Y0182622D02*
X0083664Y0180870D01*
X0084248Y0179522D02*
X0083664Y0178939D01*
X0083664Y0177187D01*
X0085999Y0177187D01*
X0085999Y0175839D02*
X0083664Y0175839D01*
X0084832Y0175839D02*
X0085999Y0174672D01*
X0085999Y0174088D01*
X0085999Y0172770D02*
X0085999Y0172186D01*
X0083664Y0172186D01*
X0083664Y0172770D02*
X0083664Y0171602D01*
X0083664Y0170314D02*
X0085999Y0170314D01*
X0085999Y0168563D01*
X0085416Y0167979D01*
X0083664Y0167979D01*
X0084248Y0166631D02*
X0083664Y0166048D01*
X0083664Y0164296D01*
X0083080Y0164296D02*
X0085999Y0164296D01*
X0085999Y0166048D01*
X0085416Y0166631D01*
X0084248Y0166631D01*
X0082497Y0165464D02*
X0082497Y0164880D01*
X0083080Y0164296D01*
X0083664Y0162948D02*
X0087167Y0162948D01*
X0085999Y0162364D02*
X0085999Y0161197D01*
X0085416Y0160613D01*
X0083664Y0160613D01*
X0084248Y0159265D02*
X0083664Y0158681D01*
X0083664Y0156930D01*
X0085416Y0156930D01*
X0085999Y0157514D01*
X0085999Y0158681D01*
X0084832Y0158681D02*
X0084832Y0156930D01*
X0084832Y0155582D02*
X0085999Y0154414D01*
X0085999Y0153830D01*
X0085416Y0152513D02*
X0085999Y0151929D01*
X0085999Y0150177D01*
X0087167Y0150177D02*
X0083664Y0150177D01*
X0083664Y0151929D01*
X0084248Y0152513D01*
X0085416Y0152513D01*
X0085999Y0155582D02*
X0083664Y0155582D01*
X0084832Y0158681D02*
X0084248Y0159265D01*
X0085999Y0162364D02*
X0085416Y0162948D01*
X0089664Y0162671D02*
X0090248Y0163255D01*
X0092583Y0163255D01*
X0093167Y0162671D01*
X0093167Y0161504D01*
X0092583Y0160920D01*
X0091416Y0160920D01*
X0090832Y0161504D01*
X0091999Y0161504D01*
X0091999Y0162671D01*
X0090832Y0162671D01*
X0090832Y0161504D01*
X0090248Y0160920D02*
X0089664Y0161504D01*
X0089664Y0162671D01*
X0089664Y0159572D02*
X0089664Y0157820D01*
X0090248Y0157237D01*
X0090832Y0157820D01*
X0090832Y0158988D01*
X0091416Y0159572D01*
X0091999Y0158988D01*
X0091999Y0157237D01*
X0091416Y0155889D02*
X0091999Y0155305D01*
X0091999Y0154137D01*
X0091416Y0153554D01*
X0090832Y0153554D01*
X0090832Y0155889D01*
X0090248Y0155889D02*
X0091416Y0155889D01*
X0090248Y0155889D02*
X0089664Y0155305D01*
X0089664Y0154137D01*
X0090248Y0152206D02*
X0089664Y0151622D01*
X0089664Y0149870D01*
X0090248Y0148523D02*
X0089664Y0147939D01*
X0089664Y0146187D01*
X0091999Y0146187D01*
X0091999Y0144839D02*
X0089664Y0144839D01*
X0090832Y0144839D02*
X0091999Y0143672D01*
X0091999Y0143088D01*
X0091416Y0141770D02*
X0091999Y0141186D01*
X0091999Y0140019D01*
X0091416Y0139435D01*
X0090832Y0139435D01*
X0090832Y0141770D01*
X0090248Y0141770D02*
X0091416Y0141770D01*
X0090248Y0141770D02*
X0089664Y0141186D01*
X0089664Y0140019D01*
X0089664Y0138087D02*
X0089664Y0136919D01*
X0089664Y0137503D02*
X0093167Y0137503D01*
X0093167Y0138087D01*
X0091999Y0135632D02*
X0090248Y0135632D01*
X0089664Y0135048D01*
X0089664Y0133296D01*
X0089080Y0133296D02*
X0088497Y0133880D01*
X0088497Y0134464D01*
X0089080Y0133296D02*
X0091999Y0133296D01*
X0091416Y0131948D02*
X0091416Y0130781D01*
X0092583Y0131365D02*
X0089664Y0131365D01*
X0089664Y0129493D02*
X0089664Y0128325D01*
X0089664Y0128909D02*
X0091999Y0128909D01*
X0091999Y0129493D01*
X0093167Y0128909D02*
X0093751Y0128909D01*
X0093167Y0130781D02*
X0092583Y0131365D01*
X0091999Y0127038D02*
X0091999Y0125870D01*
X0092583Y0126454D02*
X0090248Y0126454D01*
X0089664Y0125870D01*
X0089664Y0124582D02*
X0089664Y0122247D01*
X0091999Y0122247D02*
X0089664Y0124582D01*
X0091999Y0124582D02*
X0091999Y0122247D01*
X0085999Y0123751D02*
X0085416Y0123168D01*
X0083664Y0123168D01*
X0083664Y0124335D02*
X0085416Y0124335D01*
X0085999Y0123751D01*
X0085416Y0124335D02*
X0085999Y0124919D01*
X0085999Y0125503D01*
X0083664Y0125503D01*
X0084248Y0126851D02*
X0083664Y0127435D01*
X0083664Y0128602D01*
X0084248Y0129186D01*
X0085416Y0129186D01*
X0085999Y0128602D01*
X0085999Y0127435D01*
X0085416Y0126851D01*
X0084248Y0126851D01*
X0083664Y0130534D02*
X0083664Y0132285D01*
X0084248Y0132869D01*
X0085416Y0132869D01*
X0085999Y0132285D01*
X0085999Y0130534D01*
X0084248Y0134127D02*
X0083664Y0134127D01*
X0083664Y0134711D01*
X0084248Y0134711D01*
X0084248Y0134127D01*
X0084832Y0136059D02*
X0084832Y0138394D01*
X0085416Y0138394D02*
X0085999Y0137810D01*
X0085999Y0136642D01*
X0085416Y0136059D01*
X0084832Y0136059D01*
X0083664Y0136642D02*
X0083664Y0137810D01*
X0084248Y0138394D01*
X0085416Y0138394D01*
X0085999Y0139712D02*
X0085999Y0140296D01*
X0084832Y0141463D01*
X0085999Y0141463D02*
X0083664Y0141463D01*
X0083664Y0142811D02*
X0083664Y0144563D01*
X0084248Y0145146D01*
X0084832Y0144563D01*
X0084832Y0142811D01*
X0085416Y0142811D02*
X0083664Y0142811D01*
X0085416Y0142811D02*
X0085999Y0143395D01*
X0085999Y0144563D01*
X0085999Y0146494D02*
X0084248Y0146494D01*
X0083664Y0147078D01*
X0084248Y0147662D01*
X0083664Y0148246D01*
X0084248Y0148829D01*
X0085999Y0148829D01*
X0090248Y0148523D02*
X0091999Y0148523D01*
X0091999Y0149870D02*
X0091999Y0151622D01*
X0091416Y0152206D01*
X0090248Y0152206D01*
X0089664Y0168256D02*
X0090832Y0170008D01*
X0091999Y0168256D01*
X0093167Y0170008D02*
X0089664Y0170008D01*
X0089664Y0171355D02*
X0089664Y0173107D01*
X0090248Y0173691D01*
X0091416Y0173691D01*
X0091999Y0173107D01*
X0091999Y0171355D01*
X0089664Y0174978D02*
X0089664Y0176146D01*
X0089664Y0175562D02*
X0091999Y0175562D01*
X0091999Y0176146D01*
X0093167Y0175562D02*
X0093751Y0175562D01*
X0091999Y0177464D02*
X0091999Y0178048D01*
X0090832Y0179215D01*
X0091999Y0179215D02*
X0089664Y0179215D01*
X0089664Y0180503D02*
X0090248Y0181087D01*
X0092583Y0181087D01*
X0091999Y0181671D02*
X0091999Y0180503D01*
X0091416Y0183019D02*
X0089664Y0183019D01*
X0089664Y0184770D01*
X0090248Y0185354D01*
X0090832Y0184770D01*
X0090832Y0183019D01*
X0091416Y0183019D02*
X0091999Y0183602D01*
X0091999Y0184770D01*
X0091416Y0186702D02*
X0090832Y0187286D01*
X0090832Y0189037D01*
X0089664Y0189037D02*
X0093167Y0189037D01*
X0093167Y0187286D01*
X0092583Y0186702D01*
X0091416Y0186702D01*
X0091999Y0190385D02*
X0089664Y0192720D01*
X0089664Y0190385D01*
X0091999Y0190385D02*
X0091999Y0192720D01*
X0091999Y0194008D02*
X0091999Y0195176D01*
X0092583Y0194592D02*
X0090248Y0194592D01*
X0089664Y0194008D01*
X0089664Y0196463D02*
X0089664Y0197631D01*
X0089664Y0197047D02*
X0091999Y0197047D01*
X0091999Y0197631D01*
X0093167Y0197047D02*
X0093751Y0197047D01*
X0093167Y0198979D02*
X0093167Y0201314D01*
X0089664Y0201314D01*
X0091416Y0201314D02*
X0091416Y0200147D01*
X0087751Y0202265D02*
X0087167Y0202265D01*
X0085999Y0202265D02*
X0083664Y0202265D01*
X0083664Y0202849D02*
X0083664Y0201681D01*
X0084248Y0199810D02*
X0083664Y0199226D01*
X0084248Y0199810D02*
X0086583Y0199810D01*
X0085999Y0200393D02*
X0085999Y0199226D01*
X0085999Y0197938D02*
X0085999Y0195603D01*
X0083664Y0197938D01*
X0083664Y0195603D01*
X0084248Y0194255D02*
X0083664Y0193671D01*
X0083664Y0192503D01*
X0084248Y0191920D01*
X0084832Y0192503D02*
X0085999Y0192503D01*
X0085999Y0193671D01*
X0084832Y0193671D01*
X0084832Y0192503D01*
X0085416Y0191920D01*
X0086583Y0191920D01*
X0087167Y0192503D01*
X0087167Y0193671D01*
X0086583Y0194255D01*
X0084248Y0194255D01*
X0083664Y0190572D02*
X0083664Y0188820D01*
X0084248Y0188236D01*
X0084832Y0188820D01*
X0084832Y0189988D01*
X0085416Y0190572D01*
X0085999Y0189988D01*
X0085999Y0188236D01*
X0085416Y0186889D02*
X0085999Y0186305D01*
X0085999Y0185137D01*
X0085416Y0184553D01*
X0084832Y0184553D01*
X0084832Y0186889D01*
X0084248Y0186889D02*
X0085416Y0186889D01*
X0084248Y0186889D02*
X0083664Y0186305D01*
X0083664Y0185137D01*
X0084248Y0183205D02*
X0083664Y0182622D01*
X0084248Y0183205D02*
X0085416Y0183205D01*
X0085999Y0182622D01*
X0085999Y0180870D01*
X0085999Y0179522D02*
X0084248Y0179522D01*
X0087167Y0172186D02*
X0087751Y0172186D01*
X0085999Y0202265D02*
X0085999Y0202849D01*
X0085416Y0204137D02*
X0085416Y0205304D01*
X0086583Y0204721D02*
X0083664Y0204721D01*
X0084832Y0206652D02*
X0084832Y0208987D01*
X0085416Y0208987D02*
X0085999Y0208404D01*
X0085999Y0207236D01*
X0085416Y0206652D01*
X0084832Y0206652D01*
X0083664Y0207236D02*
X0083664Y0208404D01*
X0084248Y0208987D01*
X0085416Y0208987D01*
X0085416Y0210335D02*
X0085999Y0210919D01*
X0085999Y0212087D01*
X0085416Y0212671D01*
X0084248Y0212671D01*
X0083664Y0212087D01*
X0083664Y0210919D01*
X0084248Y0210335D01*
X0085416Y0210335D01*
X0085999Y0213958D02*
X0083080Y0213958D01*
X0082497Y0214542D01*
X0082497Y0215126D01*
X0087167Y0213958D02*
X0087751Y0213958D01*
X0089664Y0214879D02*
X0090248Y0214295D01*
X0093167Y0214295D01*
X0093167Y0213712D02*
X0093167Y0214879D01*
X0091416Y0212364D02*
X0090248Y0212364D01*
X0089664Y0211780D01*
X0089664Y0210612D01*
X0090248Y0210028D01*
X0091416Y0210028D01*
X0091999Y0210612D01*
X0091999Y0211780D01*
X0091416Y0212364D01*
X0089664Y0214879D02*
X0089664Y0215463D01*
X0090248Y0216047D01*
X0090248Y0208681D02*
X0089664Y0208097D01*
X0089664Y0206929D01*
X0090832Y0206345D02*
X0090832Y0208681D01*
X0091416Y0208681D02*
X0091999Y0208097D01*
X0091999Y0206929D01*
X0091416Y0206345D01*
X0090832Y0206345D01*
X0090248Y0208681D02*
X0091416Y0208681D01*
X0087167Y0204137D02*
X0086583Y0204721D01*
X0123847Y0213998D02*
X0123847Y0182502D01*
X0155343Y0182502D01*
X0155343Y0213998D01*
X0123847Y0213998D01*
X0131721Y0169707D02*
X0131721Y0155928D01*
X0147469Y0155928D01*
X0147469Y0169707D01*
X0131721Y0169707D01*
X0180922Y0165464D02*
X0180922Y0164880D01*
X0181506Y0164296D01*
X0184425Y0164296D01*
X0184425Y0166048D01*
X0183841Y0166631D01*
X0182673Y0166631D01*
X0182089Y0166048D01*
X0182089Y0164296D01*
X0182089Y0162948D02*
X0185592Y0162948D01*
X0184425Y0162364D02*
X0184425Y0161197D01*
X0183841Y0160613D01*
X0182089Y0160613D01*
X0182673Y0159265D02*
X0182089Y0158681D01*
X0182089Y0156930D01*
X0183841Y0156930D01*
X0184425Y0157514D01*
X0184425Y0158681D01*
X0183257Y0158681D02*
X0183257Y0156930D01*
X0183257Y0155582D02*
X0184425Y0154414D01*
X0184425Y0153830D01*
X0183841Y0152513D02*
X0184425Y0151929D01*
X0184425Y0150177D01*
X0185592Y0150177D02*
X0182089Y0150177D01*
X0182089Y0151929D01*
X0182673Y0152513D01*
X0183841Y0152513D01*
X0184425Y0155582D02*
X0182089Y0155582D01*
X0183257Y0158681D02*
X0182673Y0159265D01*
X0184425Y0162364D02*
X0183841Y0162948D01*
X0188089Y0162671D02*
X0188673Y0163255D01*
X0191009Y0163255D01*
X0191592Y0162671D01*
X0191592Y0161504D01*
X0191009Y0160920D01*
X0189841Y0160920D01*
X0189257Y0161504D01*
X0190425Y0161504D01*
X0190425Y0162671D01*
X0189257Y0162671D01*
X0189257Y0161504D01*
X0188673Y0160920D02*
X0188089Y0161504D01*
X0188089Y0162671D01*
X0188089Y0159572D02*
X0188089Y0157820D01*
X0188673Y0157237D01*
X0189257Y0157820D01*
X0189257Y0158988D01*
X0189841Y0159572D01*
X0190425Y0158988D01*
X0190425Y0157237D01*
X0189841Y0155889D02*
X0190425Y0155305D01*
X0190425Y0154137D01*
X0189841Y0153554D01*
X0189257Y0153554D01*
X0189257Y0155889D01*
X0188673Y0155889D02*
X0189841Y0155889D01*
X0188673Y0155889D02*
X0188089Y0155305D01*
X0188089Y0154137D01*
X0188673Y0152206D02*
X0188089Y0151622D01*
X0188089Y0149870D01*
X0188673Y0148523D02*
X0188089Y0147939D01*
X0188089Y0146187D01*
X0190425Y0146187D01*
X0190425Y0144839D02*
X0188089Y0144839D01*
X0189257Y0144839D02*
X0190425Y0143672D01*
X0190425Y0143088D01*
X0189841Y0141770D02*
X0190425Y0141186D01*
X0190425Y0140019D01*
X0189841Y0139435D01*
X0189257Y0139435D01*
X0189257Y0141770D01*
X0188673Y0141770D02*
X0189841Y0141770D01*
X0188673Y0141770D02*
X0188089Y0141186D01*
X0188089Y0140019D01*
X0188089Y0138087D02*
X0188089Y0136919D01*
X0188089Y0137503D02*
X0191592Y0137503D01*
X0191592Y0138087D01*
X0190425Y0135632D02*
X0188673Y0135632D01*
X0188089Y0135048D01*
X0188089Y0133296D01*
X0187506Y0133296D02*
X0186922Y0133880D01*
X0186922Y0134464D01*
X0187506Y0133296D02*
X0190425Y0133296D01*
X0189841Y0131948D02*
X0189841Y0130781D01*
X0191009Y0131365D02*
X0188089Y0131365D01*
X0188089Y0129493D02*
X0188089Y0128325D01*
X0188089Y0128909D02*
X0190425Y0128909D01*
X0190425Y0129493D01*
X0191592Y0128909D02*
X0192176Y0128909D01*
X0191592Y0130781D02*
X0191009Y0131365D01*
X0190425Y0127038D02*
X0190425Y0125870D01*
X0191009Y0126454D02*
X0188673Y0126454D01*
X0188089Y0125870D01*
X0188089Y0124582D02*
X0188089Y0122247D01*
X0188089Y0124582D02*
X0190425Y0122247D01*
X0190425Y0124582D01*
X0184425Y0124919D02*
X0183841Y0124335D01*
X0184425Y0123751D01*
X0183841Y0123168D01*
X0182089Y0123168D01*
X0182089Y0124335D02*
X0183841Y0124335D01*
X0184425Y0124919D02*
X0184425Y0125503D01*
X0182089Y0125503D01*
X0182673Y0126851D02*
X0182089Y0127435D01*
X0182089Y0128602D01*
X0182673Y0129186D01*
X0183841Y0129186D01*
X0184425Y0128602D01*
X0184425Y0127435D01*
X0183841Y0126851D01*
X0182673Y0126851D01*
X0182089Y0130534D02*
X0182089Y0132285D01*
X0182673Y0132869D01*
X0183841Y0132869D01*
X0184425Y0132285D01*
X0184425Y0130534D01*
X0182673Y0134127D02*
X0182089Y0134127D01*
X0182089Y0134711D01*
X0182673Y0134711D01*
X0182673Y0134127D01*
X0183257Y0136059D02*
X0183257Y0138394D01*
X0182673Y0138394D02*
X0183841Y0138394D01*
X0184425Y0137810D01*
X0184425Y0136642D01*
X0183841Y0136059D01*
X0183257Y0136059D01*
X0182089Y0136642D02*
X0182089Y0137810D01*
X0182673Y0138394D01*
X0184425Y0139712D02*
X0184425Y0140296D01*
X0183257Y0141463D01*
X0182089Y0141463D02*
X0184425Y0141463D01*
X0183841Y0142811D02*
X0184425Y0143395D01*
X0184425Y0144563D01*
X0183257Y0144563D02*
X0183257Y0142811D01*
X0183841Y0142811D02*
X0182089Y0142811D01*
X0182089Y0144563D01*
X0182673Y0145146D01*
X0183257Y0144563D01*
X0182673Y0146494D02*
X0184425Y0146494D01*
X0182673Y0146494D02*
X0182089Y0147078D01*
X0182673Y0147662D01*
X0182089Y0148246D01*
X0182673Y0148829D01*
X0184425Y0148829D01*
X0188673Y0148523D02*
X0190425Y0148523D01*
X0190425Y0149870D02*
X0190425Y0151622D01*
X0189841Y0152206D01*
X0188673Y0152206D01*
X0188089Y0168256D02*
X0189257Y0170008D01*
X0190425Y0168256D01*
X0191592Y0170008D02*
X0188089Y0170008D01*
X0188089Y0171355D02*
X0188089Y0173107D01*
X0188673Y0173691D01*
X0189841Y0173691D01*
X0190425Y0173107D01*
X0190425Y0171355D01*
X0188089Y0174978D02*
X0188089Y0176146D01*
X0188089Y0175562D02*
X0190425Y0175562D01*
X0190425Y0176146D01*
X0191592Y0175562D02*
X0192176Y0175562D01*
X0190425Y0177464D02*
X0190425Y0178048D01*
X0189257Y0179215D01*
X0188089Y0179215D02*
X0190425Y0179215D01*
X0190425Y0180503D02*
X0190425Y0181671D01*
X0191009Y0181087D02*
X0188673Y0181087D01*
X0188089Y0180503D01*
X0188089Y0183019D02*
X0188089Y0184770D01*
X0188673Y0185354D01*
X0189257Y0184770D01*
X0189257Y0183019D01*
X0189841Y0183019D02*
X0188089Y0183019D01*
X0189841Y0183019D02*
X0190425Y0183602D01*
X0190425Y0184770D01*
X0191009Y0186702D02*
X0189841Y0186702D01*
X0189257Y0187286D01*
X0189257Y0189037D01*
X0188089Y0189037D02*
X0191592Y0189037D01*
X0191592Y0187286D01*
X0191009Y0186702D01*
X0190425Y0190385D02*
X0188089Y0192720D01*
X0188089Y0190385D01*
X0190425Y0190385D02*
X0190425Y0192720D01*
X0190425Y0194008D02*
X0190425Y0195176D01*
X0191009Y0194592D02*
X0188673Y0194592D01*
X0188089Y0194008D01*
X0188089Y0196463D02*
X0188089Y0197631D01*
X0188089Y0197047D02*
X0190425Y0197047D01*
X0190425Y0197631D01*
X0191592Y0197047D02*
X0192176Y0197047D01*
X0191592Y0198979D02*
X0191592Y0201314D01*
X0188089Y0201314D01*
X0189841Y0201314D02*
X0189841Y0200147D01*
X0186176Y0202265D02*
X0185592Y0202265D01*
X0184425Y0202265D02*
X0182089Y0202265D01*
X0182089Y0202849D02*
X0182089Y0201681D01*
X0182673Y0199810D02*
X0182089Y0199226D01*
X0182673Y0199810D02*
X0185009Y0199810D01*
X0184425Y0200393D02*
X0184425Y0199226D01*
X0184425Y0197938D02*
X0184425Y0195603D01*
X0182089Y0197938D01*
X0182089Y0195603D01*
X0182673Y0194255D02*
X0182089Y0193671D01*
X0182089Y0192503D01*
X0182673Y0191920D01*
X0183257Y0192503D02*
X0184425Y0192503D01*
X0184425Y0193671D01*
X0183257Y0193671D01*
X0183257Y0192503D01*
X0183841Y0191920D01*
X0185009Y0191920D01*
X0185592Y0192503D01*
X0185592Y0193671D01*
X0185009Y0194255D01*
X0182673Y0194255D01*
X0182089Y0190572D02*
X0182089Y0188820D01*
X0182673Y0188236D01*
X0183257Y0188820D01*
X0183257Y0189988D01*
X0183841Y0190572D01*
X0184425Y0189988D01*
X0184425Y0188236D01*
X0183841Y0186889D02*
X0184425Y0186305D01*
X0184425Y0185137D01*
X0183841Y0184553D01*
X0183257Y0184553D01*
X0183257Y0186889D01*
X0182673Y0186889D02*
X0183841Y0186889D01*
X0182673Y0186889D02*
X0182089Y0186305D01*
X0182089Y0185137D01*
X0182673Y0183205D02*
X0182089Y0182622D01*
X0182089Y0180870D01*
X0182673Y0179522D02*
X0182089Y0178939D01*
X0182089Y0177187D01*
X0184425Y0177187D01*
X0184425Y0175839D02*
X0182089Y0175839D01*
X0183257Y0175839D02*
X0184425Y0174672D01*
X0184425Y0174088D01*
X0184425Y0172770D02*
X0184425Y0172186D01*
X0182089Y0172186D01*
X0182089Y0172770D02*
X0182089Y0171602D01*
X0182089Y0170314D02*
X0184425Y0170314D01*
X0184425Y0168563D01*
X0183841Y0167979D01*
X0182089Y0167979D01*
X0185592Y0172186D02*
X0186176Y0172186D01*
X0184425Y0179522D02*
X0182673Y0179522D01*
X0184425Y0180870D02*
X0184425Y0182622D01*
X0183841Y0183205D01*
X0182673Y0183205D01*
X0184425Y0202265D02*
X0184425Y0202849D01*
X0183841Y0204137D02*
X0183841Y0205304D01*
X0185009Y0204721D02*
X0182089Y0204721D01*
X0183257Y0206652D02*
X0183257Y0208987D01*
X0182673Y0208987D02*
X0183841Y0208987D01*
X0184425Y0208404D01*
X0184425Y0207236D01*
X0183841Y0206652D01*
X0183257Y0206652D01*
X0182089Y0207236D02*
X0182089Y0208404D01*
X0182673Y0208987D01*
X0182673Y0210335D02*
X0182089Y0210919D01*
X0182089Y0212087D01*
X0182673Y0212671D01*
X0183841Y0212671D01*
X0184425Y0212087D01*
X0184425Y0210919D01*
X0183841Y0210335D01*
X0182673Y0210335D01*
X0181506Y0213958D02*
X0184425Y0213958D01*
X0185592Y0213958D02*
X0186176Y0213958D01*
X0188089Y0214879D02*
X0188673Y0214295D01*
X0191592Y0214295D01*
X0191592Y0213712D02*
X0191592Y0214879D01*
X0189841Y0212364D02*
X0188673Y0212364D01*
X0188089Y0211780D01*
X0188089Y0210612D01*
X0188673Y0210028D01*
X0189841Y0210028D01*
X0190425Y0210612D01*
X0190425Y0211780D01*
X0189841Y0212364D01*
X0188089Y0214879D02*
X0188089Y0215463D01*
X0188673Y0216047D01*
X0188673Y0208681D02*
X0188089Y0208097D01*
X0188089Y0206929D01*
X0189257Y0206345D02*
X0189257Y0208681D01*
X0188673Y0208681D02*
X0189841Y0208681D01*
X0190425Y0208097D01*
X0190425Y0206929D01*
X0189841Y0206345D01*
X0189257Y0206345D01*
X0185592Y0204137D02*
X0185009Y0204721D01*
X0181506Y0213958D02*
X0180922Y0214542D01*
X0180922Y0215126D01*
D18*
X0017351Y0063605D02*
X0017351Y0060061D01*
X0064595Y0060061D01*
X0064595Y0063605D01*
X0056721Y0075416D02*
X0025225Y0075416D01*
X0016780Y0090022D02*
X0019280Y0092522D01*
X0019280Y0097522D01*
X0016780Y0100022D01*
X0019280Y0102522D01*
X0019280Y0107522D01*
X0016780Y0110022D01*
X0019280Y0112522D01*
X0019280Y0117522D01*
X0016780Y0120022D01*
X0019280Y0122522D01*
X0019280Y0127522D01*
X0016780Y0130022D01*
X0019280Y0132522D01*
X0019280Y0137522D01*
X0016780Y0140022D01*
X0019280Y0142522D01*
X0019280Y0147522D01*
X0016780Y0150022D01*
X0019280Y0152522D01*
X0019280Y0157522D01*
X0016780Y0160022D01*
X0019280Y0162522D01*
X0019280Y0167522D01*
X0016780Y0170022D01*
X0011780Y0170022D01*
X0009280Y0167522D01*
X0009280Y0162522D01*
X0011780Y0160022D01*
X0009280Y0157522D01*
X0009280Y0152522D01*
X0011780Y0150022D01*
X0009280Y0147522D01*
X0009280Y0142522D01*
X0011780Y0140022D01*
X0009280Y0137522D01*
X0009280Y0132522D01*
X0011780Y0130022D01*
X0009280Y0127522D01*
X0009280Y0122522D01*
X0011780Y0120022D01*
X0009280Y0117522D01*
X0009280Y0112522D01*
X0011780Y0110022D01*
X0009280Y0107522D01*
X0009280Y0102522D01*
X0011780Y0100022D01*
X0009280Y0097522D01*
X0009280Y0092522D01*
X0011780Y0090022D01*
X0016780Y0090022D01*
X0034670Y0112516D02*
X0034670Y0138316D01*
X0047670Y0138316D01*
X0047670Y0112516D01*
X0034670Y0112516D01*
X0016308Y0170022D02*
X0011308Y0170022D01*
X0008808Y0172522D01*
X0008808Y0177522D01*
X0011308Y0180022D01*
X0016308Y0180022D01*
X0018808Y0177522D01*
X0018808Y0172522D01*
X0016308Y0170022D01*
X0025422Y0241557D02*
X0056918Y0241557D01*
X0064792Y0253369D02*
X0064792Y0257306D01*
X0017548Y0257306D02*
X0017548Y0253369D01*
X0107233Y0177522D02*
X0107233Y0172522D01*
X0109733Y0170022D01*
X0114733Y0170022D01*
X0117233Y0172522D01*
X0117233Y0177522D01*
X0114733Y0180022D01*
X0109733Y0180022D01*
X0107233Y0177522D01*
X0110206Y0170022D02*
X0115206Y0170022D01*
X0117706Y0167522D01*
X0117706Y0162522D01*
X0115206Y0160022D01*
X0117706Y0157522D01*
X0117706Y0152522D01*
X0115206Y0150022D01*
X0117706Y0147522D01*
X0117706Y0142522D01*
X0115206Y0140022D01*
X0117706Y0137522D01*
X0117706Y0132522D01*
X0115206Y0130022D01*
X0117706Y0127522D01*
X0117706Y0122522D01*
X0115206Y0120022D01*
X0117706Y0117522D01*
X0117706Y0112522D01*
X0115206Y0110022D01*
X0117706Y0107522D01*
X0117706Y0102522D01*
X0115206Y0100022D01*
X0117706Y0097522D01*
X0117706Y0092522D01*
X0115206Y0090022D01*
X0110206Y0090022D01*
X0107706Y0092522D01*
X0107706Y0097522D01*
X0110206Y0100022D01*
X0107706Y0102522D01*
X0107706Y0107522D01*
X0110206Y0110022D01*
X0107706Y0112522D01*
X0107706Y0117522D01*
X0110206Y0120022D01*
X0107706Y0122522D01*
X0107706Y0127522D01*
X0110206Y0130022D01*
X0107706Y0132522D01*
X0107706Y0137522D01*
X0110206Y0140022D01*
X0107706Y0142522D01*
X0107706Y0147522D01*
X0110206Y0150022D01*
X0107706Y0152522D01*
X0107706Y0157522D01*
X0110206Y0160022D01*
X0107706Y0162522D01*
X0107706Y0167522D01*
X0110206Y0170022D01*
X0133095Y0138316D02*
X0133095Y0112516D01*
X0146095Y0112516D01*
X0146095Y0138316D01*
X0133095Y0138316D01*
X0123650Y0075416D02*
X0155146Y0075416D01*
X0163020Y0063605D02*
X0163020Y0060061D01*
X0115776Y0060061D01*
X0115776Y0063605D01*
X0123847Y0241557D02*
X0155343Y0241557D01*
X0163217Y0253369D02*
X0163217Y0257306D01*
X0115973Y0257306D02*
X0115973Y0253369D01*
D19*
X0073192Y0115310D03*
X0072592Y0112310D03*
X0071992Y0112310D03*
X0071392Y0112310D03*
X0069592Y0109310D03*
X0068992Y0109310D03*
X0068392Y0109310D03*
X0075592Y0109310D03*
X0076192Y0109310D03*
X0076792Y0109310D03*
X0077392Y0109310D03*
X0083992Y0105110D03*
X0084592Y0105110D03*
X0085192Y0105110D03*
X0085792Y0105110D03*
X0086392Y0105110D03*
X0086992Y0105110D03*
X0087592Y0105110D03*
X0090592Y0097910D03*
X0091192Y0097910D03*
X0091792Y0097910D03*
X0093592Y0092510D03*
X0094192Y0092510D03*
X0094792Y0092510D03*
X0087592Y0092510D03*
X0086992Y0092510D03*
X0086392Y0092510D03*
X0085792Y0092510D03*
X0085192Y0092510D03*
X0084592Y0092510D03*
X0083992Y0092510D03*
X0083392Y0092510D03*
X0082792Y0092510D03*
X0080392Y0092510D03*
X0079792Y0092510D03*
X0079192Y0092510D03*
X0078592Y0092510D03*
X0077992Y0092510D03*
X0077392Y0092510D03*
X0076792Y0092510D03*
X0076192Y0092510D03*
X0075592Y0092510D03*
X0073192Y0097310D03*
X0069592Y0092510D03*
X0068992Y0092510D03*
X0068392Y0092510D03*
X0080992Y0074510D03*
X0081592Y0074510D03*
X0082192Y0074510D03*
X0093592Y0105110D03*
X0094192Y0105110D03*
X0094792Y0105110D03*
X0166817Y0109310D03*
X0167417Y0109310D03*
X0168017Y0109310D03*
X0169817Y0112310D03*
X0170417Y0112310D03*
X0171017Y0112310D03*
X0171617Y0115310D03*
X0174017Y0109310D03*
X0174617Y0109310D03*
X0175217Y0109310D03*
X0175817Y0109310D03*
X0182417Y0105110D03*
X0183017Y0105110D03*
X0183617Y0105110D03*
X0184217Y0105110D03*
X0184817Y0105110D03*
X0185417Y0105110D03*
X0186017Y0105110D03*
X0189017Y0097910D03*
X0189617Y0097910D03*
X0190217Y0097910D03*
X0192017Y0092510D03*
X0192617Y0092510D03*
X0193217Y0092510D03*
X0186017Y0092510D03*
X0185417Y0092510D03*
X0184817Y0092510D03*
X0184217Y0092510D03*
X0183617Y0092510D03*
X0183017Y0092510D03*
X0182417Y0092510D03*
X0181817Y0092510D03*
X0181217Y0092510D03*
X0178817Y0092510D03*
X0178217Y0092510D03*
X0177617Y0092510D03*
X0177017Y0092510D03*
X0176417Y0092510D03*
X0175817Y0092510D03*
X0175217Y0092510D03*
X0174617Y0092510D03*
X0174017Y0092510D03*
X0171617Y0097310D03*
X0168017Y0092510D03*
X0167417Y0092510D03*
X0166817Y0092510D03*
X0179417Y0074510D03*
X0180017Y0074510D03*
X0180617Y0074510D03*
X0192017Y0105110D03*
X0192617Y0105110D03*
X0193217Y0105110D03*
D20*
X0190217Y0111710D03*
X0189617Y0111710D03*
X0189017Y0111710D03*
X0188417Y0111710D03*
X0187817Y0111710D03*
X0187217Y0111710D03*
X0168617Y0115310D03*
X0168617Y0097310D03*
X0169817Y0085310D03*
X0170417Y0085310D03*
X0171017Y0085310D03*
X0171617Y0085310D03*
X0172217Y0085310D03*
X0172817Y0085310D03*
X0186617Y0085310D03*
X0187217Y0085310D03*
X0187817Y0085310D03*
X0188417Y0085310D03*
X0189017Y0085310D03*
X0189617Y0085310D03*
X0190217Y0085310D03*
X0091792Y0085310D03*
X0091192Y0085310D03*
X0090592Y0085310D03*
X0089992Y0085310D03*
X0089392Y0085310D03*
X0088792Y0085310D03*
X0088192Y0085310D03*
X0074392Y0085310D03*
X0073792Y0085310D03*
X0073192Y0085310D03*
X0072592Y0085310D03*
X0071992Y0085310D03*
X0071392Y0085310D03*
X0070192Y0097310D03*
X0070192Y0115310D03*
X0088792Y0111710D03*
X0089392Y0111710D03*
X0089992Y0111710D03*
X0090592Y0111710D03*
X0091192Y0111710D03*
X0091792Y0111710D03*
D21*
X0078592Y0108710D03*
X0077992Y0109310D03*
X0070192Y0108710D03*
X0089392Y0094310D03*
X0168617Y0108710D03*
X0176417Y0109310D03*
X0177017Y0108710D03*
X0187817Y0094310D03*
D22*
X0187217Y0094610D03*
X0191417Y0090410D03*
X0177617Y0109010D03*
X0168617Y0090410D03*
X0092992Y0090410D03*
X0088792Y0094610D03*
X0079192Y0109010D03*
X0070192Y0090410D03*
D23*
X0070792Y0085610D03*
X0070792Y0097610D03*
X0071392Y0097610D03*
X0071992Y0097610D03*
X0072592Y0097610D03*
X0072592Y0115610D03*
X0071992Y0115610D03*
X0071392Y0115610D03*
X0070792Y0115610D03*
X0092392Y0111410D03*
X0092392Y0085610D03*
X0169217Y0085610D03*
X0169217Y0097610D03*
X0169817Y0097610D03*
X0170417Y0097610D03*
X0171017Y0097610D03*
X0171017Y0115610D03*
X0170417Y0115610D03*
X0169817Y0115610D03*
X0169217Y0115610D03*
X0190817Y0111410D03*
X0190817Y0085610D03*
D24*
X0188417Y0097610D03*
X0190817Y0098210D03*
X0171617Y0112610D03*
X0169217Y0112010D03*
X0092392Y0098210D03*
X0089992Y0097610D03*
X0073192Y0112610D03*
X0070792Y0112010D03*
D25*
X0073192Y0092810D03*
X0070792Y0092210D03*
X0089992Y0092810D03*
X0092392Y0092210D03*
X0169217Y0092210D03*
X0171617Y0092810D03*
X0188417Y0092810D03*
X0190817Y0092210D03*
D26*
X0190217Y0092510D03*
X0189617Y0092510D03*
X0189017Y0092510D03*
X0172817Y0113510D03*
X0171017Y0092510D03*
X0170417Y0092510D03*
X0169817Y0092510D03*
X0091792Y0092510D03*
X0091192Y0092510D03*
X0090592Y0092510D03*
X0074392Y0113510D03*
X0072592Y0092510D03*
X0071992Y0092510D03*
X0071392Y0092510D03*
D27*
X0073792Y0113810D03*
X0172217Y0113810D03*
D28*
X0172217Y0094010D03*
X0172817Y0094010D03*
X0074392Y0094010D03*
X0073792Y0094010D03*
D29*
X0074992Y0109610D03*
X0173417Y0109610D03*
D30*
X0173417Y0093710D03*
X0074992Y0093710D03*
D31*
X0077992Y0116210D03*
X0079192Y0116210D03*
X0176417Y0116210D03*
X0177617Y0116210D03*
D32*
X0177017Y0116510D03*
X0078592Y0116510D03*
D33*
X0080992Y0095210D03*
X0081592Y0095210D03*
X0082192Y0095210D03*
X0179417Y0095210D03*
X0180017Y0095210D03*
X0180617Y0095210D03*
D34*
X0186617Y0098510D03*
X0088192Y0098510D03*
D35*
X0092992Y0104210D03*
X0191417Y0104210D03*
M02*
