G75*
%MOIN*%
%OFA0B0*%
%FSLAX25Y25*%
%IPPOS*%
%LPD*%
%AMOC8*
5,1,8,0,0,1.08239X$1,22.5*
%
%ADD10R,0.03150X0.04724*%
%ADD11R,0.04724X0.03150*%
%ADD12R,0.07400X0.07400*%
%ADD13C,0.07400*%
%ADD14C,0.06022*%
%ADD15C,0.13055*%
%ADD16C,0.06337*%
%ADD17C,0.12661*%
%ADD18R,0.06299X0.08583*%
%ADD19C,0.01000*%
%ADD20C,0.03175*%
%ADD21C,0.01600*%
%ADD22C,0.03962*%
%ADD23C,0.03569*%
%ADD24C,0.01200*%
D10*
X0029753Y0088014D03*
X0036839Y0088014D03*
X0045501Y0088014D03*
X0052587Y0088014D03*
X0053375Y0117542D03*
X0060461Y0117542D03*
X0058493Y0141164D03*
X0060461Y0149038D03*
X0060461Y0156912D03*
X0062430Y0164786D03*
X0062430Y0172660D03*
X0055343Y0172660D03*
X0055343Y0164786D03*
X0053375Y0156912D03*
X0053375Y0149038D03*
X0051406Y0141164D03*
X0052194Y0243526D03*
X0045107Y0243526D03*
X0037233Y0243526D03*
X0030146Y0243526D03*
D11*
X0037233Y0229353D03*
X0037233Y0222266D03*
X0033296Y0203762D03*
X0033296Y0196676D03*
X0025422Y0196676D03*
X0025422Y0203762D03*
X0045107Y0222266D03*
X0045107Y0229353D03*
X0074635Y0230140D03*
X0074635Y0225416D03*
X0074635Y0218329D03*
X0074635Y0205731D03*
X0074635Y0198644D03*
X0074635Y0193920D03*
X0074635Y0186833D03*
X0074635Y0174235D03*
X0074635Y0167148D03*
X0074635Y0162424D03*
X0074635Y0155337D03*
X0074635Y0142739D03*
X0074635Y0135652D03*
X0074635Y0130928D03*
X0074635Y0123841D03*
X0074635Y0111243D03*
X0074635Y0104156D03*
X0074635Y0099431D03*
X0074635Y0092345D03*
X0045107Y0092345D03*
X0045107Y0099431D03*
X0039202Y0099431D03*
X0039202Y0092345D03*
X0074635Y0237227D03*
D12*
X0013780Y0095022D03*
D13*
X0014780Y0105022D03*
X0013780Y0115022D03*
X0014780Y0125022D03*
X0013780Y0135022D03*
X0014780Y0145022D03*
X0013780Y0155022D03*
X0014780Y0165022D03*
X0013808Y0175022D03*
D14*
X0027391Y0234825D03*
X0037233Y0234825D03*
X0045107Y0234825D03*
X0054950Y0234825D03*
D15*
X0067036Y0245494D03*
X0015304Y0245494D03*
D16*
X0027194Y0079865D03*
X0037036Y0079865D03*
X0044910Y0079865D03*
X0054753Y0079865D03*
D17*
X0064595Y0071479D03*
X0017351Y0071479D03*
D18*
X0013611Y0186085D03*
X0013611Y0222227D03*
D19*
X0015580Y0212030D02*
X0005737Y0212030D01*
X0005737Y0125022D01*
X0014780Y0125022D01*
X0014780Y0105022D02*
X0025422Y0105022D01*
X0025422Y0139195D01*
X0031328Y0165022D02*
X0031328Y0186439D01*
X0033296Y0190376D01*
X0033296Y0193132D01*
X0032902Y0193132D01*
X0033296Y0193526D01*
X0033296Y0196676D01*
X0029359Y0190376D02*
X0027391Y0190376D01*
X0025422Y0190376D01*
X0013611Y0190376D01*
X0013611Y0186085D01*
X0007706Y0186085D01*
X0007706Y0155022D01*
X0013780Y0155022D01*
X0014780Y0165022D02*
X0031328Y0165022D01*
X0025422Y0190376D02*
X0025422Y0196676D01*
X0037233Y0215967D02*
X0056918Y0215967D01*
X0054556Y0222266D02*
X0045107Y0222266D01*
X0045107Y0229353D02*
X0045107Y0234825D01*
X0045107Y0243526D01*
X0037233Y0243526D02*
X0037233Y0234825D01*
X0037233Y0229353D01*
X0037233Y0222266D02*
X0037233Y0215967D01*
X0039792Y0210061D02*
X0039906Y0210059D01*
X0040020Y0210053D01*
X0040134Y0210043D01*
X0040248Y0210030D01*
X0040361Y0210012D01*
X0040473Y0209991D01*
X0040584Y0209966D01*
X0040695Y0209937D01*
X0040804Y0209904D01*
X0040913Y0209868D01*
X0041019Y0209828D01*
X0041125Y0209784D01*
X0041229Y0209737D01*
X0041331Y0209686D01*
X0041432Y0209632D01*
X0041531Y0209574D01*
X0041627Y0209513D01*
X0041722Y0209449D01*
X0041814Y0209381D01*
X0041904Y0209311D01*
X0041991Y0209237D01*
X0042076Y0209160D01*
X0042158Y0209081D01*
X0042237Y0208999D01*
X0042314Y0208914D01*
X0042388Y0208827D01*
X0042458Y0208737D01*
X0042526Y0208645D01*
X0042590Y0208550D01*
X0042651Y0208454D01*
X0042709Y0208355D01*
X0042763Y0208254D01*
X0042814Y0208152D01*
X0042861Y0208048D01*
X0042905Y0207942D01*
X0042945Y0207836D01*
X0042981Y0207727D01*
X0043014Y0207618D01*
X0043043Y0207507D01*
X0043068Y0207396D01*
X0043089Y0207284D01*
X0043107Y0207171D01*
X0043120Y0207057D01*
X0043130Y0206943D01*
X0043136Y0206829D01*
X0043138Y0206715D01*
X0043139Y0206715D02*
X0043139Y0100219D01*
X0045107Y0099431D01*
X0045107Y0092345D02*
X0045501Y0088014D01*
X0044910Y0079865D01*
X0036839Y0088014D02*
X0039202Y0092345D01*
X0036839Y0088014D02*
X0036839Y0079865D01*
X0037036Y0079865D01*
X0039202Y0099431D02*
X0041170Y0099628D01*
X0041170Y0202187D01*
X0041171Y0202187D02*
X0041169Y0202273D01*
X0041164Y0202359D01*
X0041154Y0202444D01*
X0041141Y0202529D01*
X0041124Y0202613D01*
X0041104Y0202697D01*
X0041080Y0202779D01*
X0041052Y0202860D01*
X0041021Y0202941D01*
X0040987Y0203019D01*
X0040949Y0203096D01*
X0040907Y0203172D01*
X0040863Y0203245D01*
X0040815Y0203316D01*
X0040764Y0203386D01*
X0040710Y0203453D01*
X0040654Y0203517D01*
X0040594Y0203579D01*
X0040532Y0203639D01*
X0040468Y0203695D01*
X0040401Y0203749D01*
X0040331Y0203800D01*
X0040260Y0203848D01*
X0040187Y0203892D01*
X0040111Y0203934D01*
X0040034Y0203972D01*
X0039956Y0204006D01*
X0039875Y0204037D01*
X0039794Y0204065D01*
X0039712Y0204089D01*
X0039628Y0204109D01*
X0039544Y0204126D01*
X0039459Y0204139D01*
X0039374Y0204149D01*
X0039288Y0204154D01*
X0039202Y0204156D01*
X0010461Y0203369D02*
X0010461Y0209274D01*
X0060461Y0117542D02*
X0064792Y0117542D01*
X0064792Y0091951D01*
X0074635Y0091951D01*
X0074635Y0092345D01*
X0074635Y0099431D02*
X0074635Y0104156D01*
X0074635Y0119510D02*
X0074635Y0123841D01*
X0074635Y0130928D02*
X0074635Y0135652D01*
X0074635Y0151006D02*
X0074635Y0155337D01*
X0074635Y0162424D02*
X0074635Y0167148D01*
X0074635Y0182502D02*
X0074635Y0186833D01*
X0074635Y0193920D02*
X0074635Y0198644D01*
X0074635Y0213998D02*
X0074635Y0218329D01*
X0074635Y0225416D02*
X0074635Y0230140D01*
D20*
X0074635Y0213998D03*
X0074635Y0182502D03*
X0070698Y0178565D03*
X0061446Y0183290D03*
X0049044Y0176597D03*
X0039202Y0204156D03*
X0039792Y0210061D03*
X0032902Y0193132D03*
X0029359Y0190376D03*
X0029359Y0208093D03*
X0023454Y0219904D03*
X0015580Y0212030D03*
X0010461Y0209274D03*
X0010461Y0203369D03*
X0019123Y0186636D03*
X0029359Y0145101D03*
X0025422Y0139195D03*
X0029359Y0113605D03*
X0060855Y0109668D03*
X0070304Y0147069D03*
X0074635Y0151006D03*
X0074635Y0119510D03*
X0056918Y0215967D03*
X0054556Y0222266D03*
D21*
X0012800Y0063390D02*
X0016558Y0062383D01*
X0018503Y0062255D01*
X0083522Y0062255D01*
X0085467Y0062383D01*
X0089225Y0063390D01*
X0092594Y0065335D01*
X0095345Y0068086D01*
X0097291Y0071455D01*
X0098298Y0075213D01*
X0098425Y0077158D01*
X0098425Y0240602D01*
X0098298Y0242547D01*
X0097291Y0246305D01*
X0095345Y0249675D01*
X0092594Y0252426D01*
X0089225Y0254371D01*
X0085467Y0255378D01*
X0083522Y0255506D01*
X0018503Y0255506D01*
X0016558Y0255378D01*
X0012800Y0254371D01*
X0009431Y0252426D01*
X0006680Y0249675D01*
X0004734Y0246305D01*
X0004734Y0246305D01*
X0003727Y0242547D01*
X0003600Y0240602D01*
X0003600Y0229978D01*
X0003711Y0229978D01*
X0004787Y0230035D01*
X0005593Y0230841D01*
X0006836Y0231356D01*
X0008181Y0231356D01*
X0009424Y0230841D01*
X0010375Y0229890D01*
X0010890Y0228647D01*
X0010890Y0228318D01*
X0012836Y0228318D01*
X0012836Y0223002D01*
X0014386Y0223002D01*
X0014386Y0228318D01*
X0016998Y0228318D01*
X0017455Y0228195D01*
X0017866Y0227958D01*
X0018201Y0227623D01*
X0018438Y0227213D01*
X0018561Y0226755D01*
X0018561Y0223002D01*
X0014386Y0223002D01*
X0014386Y0221452D01*
X0018561Y0221452D01*
X0018561Y0217698D01*
X0018438Y0217241D01*
X0018201Y0216830D01*
X0017866Y0216495D01*
X0017455Y0216258D01*
X0016998Y0216135D01*
X0014386Y0216135D01*
X0014386Y0221452D01*
X0012836Y0221452D01*
X0008661Y0221452D01*
X0008661Y0217698D01*
X0008784Y0217241D01*
X0009021Y0216830D01*
X0009356Y0216495D01*
X0009767Y0216258D01*
X0010224Y0216135D01*
X0012836Y0216135D01*
X0012836Y0221452D01*
X0012836Y0223002D01*
X0008661Y0223002D01*
X0008661Y0224793D01*
X0008181Y0224594D01*
X0006836Y0224594D01*
X0005968Y0224953D01*
X0005968Y0213930D01*
X0013255Y0213930D01*
X0013887Y0214563D01*
X0014985Y0215017D01*
X0016174Y0215017D01*
X0017272Y0214563D01*
X0018112Y0213722D01*
X0018567Y0212624D01*
X0018567Y0211436D01*
X0018112Y0210338D01*
X0017272Y0209497D01*
X0016174Y0209043D01*
X0014985Y0209043D01*
X0013887Y0209497D01*
X0013401Y0209984D01*
X0013449Y0209868D01*
X0013449Y0208680D01*
X0012994Y0207582D01*
X0012361Y0206949D01*
X0012361Y0205693D01*
X0012994Y0205061D01*
X0013449Y0203963D01*
X0013449Y0202774D01*
X0012994Y0201676D01*
X0012154Y0200836D01*
X0011056Y0200381D01*
X0009867Y0200381D01*
X0008769Y0200836D01*
X0007929Y0201676D01*
X0007637Y0202381D01*
X0007637Y0187985D01*
X0009061Y0187985D01*
X0009061Y0190956D01*
X0009882Y0191776D01*
X0012324Y0191776D01*
X0012824Y0192276D01*
X0023522Y0192276D01*
X0023522Y0193701D01*
X0022480Y0193701D01*
X0021660Y0194521D01*
X0021660Y0198830D01*
X0022480Y0199650D01*
X0028364Y0199650D01*
X0029184Y0198830D01*
X0029184Y0194521D01*
X0028364Y0193701D01*
X0027322Y0193701D01*
X0027322Y0192564D01*
X0027667Y0192909D01*
X0028765Y0193364D01*
X0029915Y0193364D01*
X0029915Y0193727D01*
X0030036Y0194019D01*
X0029534Y0194521D01*
X0029534Y0198830D01*
X0030354Y0199650D01*
X0036238Y0199650D01*
X0037058Y0198830D01*
X0037058Y0194521D01*
X0036238Y0193701D01*
X0035890Y0193701D01*
X0035890Y0192538D01*
X0035435Y0191440D01*
X0035196Y0191201D01*
X0035196Y0190685D01*
X0035347Y0190231D01*
X0035196Y0189928D01*
X0035196Y0189589D01*
X0034858Y0189251D01*
X0033228Y0185991D01*
X0033228Y0164235D01*
X0032115Y0163122D01*
X0019513Y0163122D01*
X0019104Y0162133D01*
X0017669Y0160698D01*
X0015795Y0159922D01*
X0015278Y0159922D01*
X0016669Y0159346D01*
X0018104Y0157911D01*
X0018880Y0156037D01*
X0018880Y0154008D01*
X0018104Y0152133D01*
X0016669Y0150698D01*
X0015278Y0150122D01*
X0015795Y0150122D01*
X0017669Y0149346D01*
X0019104Y0147911D01*
X0019880Y0146037D01*
X0019880Y0144008D01*
X0019104Y0142133D01*
X0017669Y0140698D01*
X0015795Y0139922D01*
X0015278Y0139922D01*
X0016669Y0139346D01*
X0018104Y0137911D01*
X0018880Y0136037D01*
X0018880Y0134008D01*
X0018104Y0132133D01*
X0016669Y0130698D01*
X0015278Y0130122D01*
X0015795Y0130122D01*
X0017669Y0129346D01*
X0019104Y0127911D01*
X0019880Y0126037D01*
X0019880Y0124008D01*
X0019104Y0122133D01*
X0017669Y0120698D01*
X0015795Y0119922D01*
X0015278Y0119922D01*
X0016669Y0119346D01*
X0018104Y0117911D01*
X0018880Y0116037D01*
X0018880Y0114008D01*
X0018104Y0112133D01*
X0016669Y0110698D01*
X0015278Y0110122D01*
X0015795Y0110122D01*
X0017669Y0109346D01*
X0019104Y0107911D01*
X0019513Y0106922D01*
X0023522Y0106922D01*
X0023522Y0136870D01*
X0022889Y0137503D01*
X0022435Y0138601D01*
X0022435Y0139790D01*
X0022889Y0140888D01*
X0023730Y0141728D01*
X0024828Y0142183D01*
X0026016Y0142183D01*
X0027114Y0141728D01*
X0027955Y0140888D01*
X0028409Y0139790D01*
X0028409Y0138601D01*
X0027955Y0137503D01*
X0027322Y0136870D01*
X0027322Y0104235D01*
X0026209Y0103122D01*
X0019513Y0103122D01*
X0019104Y0102133D01*
X0017669Y0100698D01*
X0017243Y0100522D01*
X0017717Y0100522D01*
X0018175Y0100399D01*
X0018586Y0100162D01*
X0018921Y0099827D01*
X0019158Y0099417D01*
X0019280Y0098959D01*
X0019280Y0095222D01*
X0013980Y0095222D01*
X0013980Y0094822D01*
X0013980Y0089522D01*
X0017717Y0089522D01*
X0018175Y0089645D01*
X0018586Y0089882D01*
X0018921Y0090217D01*
X0019158Y0090627D01*
X0019280Y0091085D01*
X0019280Y0094822D01*
X0013980Y0094822D01*
X0013580Y0094822D01*
X0008280Y0094822D01*
X0008280Y0091085D01*
X0008403Y0090627D01*
X0008640Y0090217D01*
X0008975Y0089882D01*
X0009386Y0089645D01*
X0009843Y0089522D01*
X0013580Y0089522D01*
X0013580Y0094822D01*
X0013580Y0095222D01*
X0008280Y0095222D01*
X0008280Y0098959D01*
X0008403Y0099417D01*
X0008640Y0099827D01*
X0008975Y0100162D01*
X0009386Y0100399D01*
X0009843Y0100522D01*
X0012317Y0100522D01*
X0011891Y0100698D01*
X0010457Y0102133D01*
X0009680Y0104008D01*
X0009680Y0106037D01*
X0010457Y0107911D01*
X0011891Y0109346D01*
X0013283Y0109922D01*
X0012766Y0109922D01*
X0010891Y0110698D01*
X0009457Y0112133D01*
X0008943Y0113373D01*
X0003600Y0113373D01*
X0003600Y0077158D01*
X0003727Y0075213D01*
X0004734Y0071455D01*
X0006680Y0068086D01*
X0009431Y0065335D01*
X0012800Y0063390D01*
X0012345Y0063652D02*
X0015146Y0063652D01*
X0014732Y0063763D02*
X0015762Y0063487D01*
X0016551Y0063383D01*
X0016551Y0070679D01*
X0009256Y0070679D01*
X0009360Y0069889D01*
X0009635Y0068860D01*
X0010043Y0067875D01*
X0010576Y0066952D01*
X0011225Y0066106D01*
X0011979Y0065353D01*
X0012824Y0064704D01*
X0013747Y0064171D01*
X0014732Y0063763D01*
X0016551Y0063652D02*
X0018151Y0063652D01*
X0018151Y0063383D02*
X0018941Y0063487D01*
X0019970Y0063763D01*
X0020955Y0064171D01*
X0021878Y0064704D01*
X0022724Y0065353D01*
X0023477Y0066106D01*
X0024126Y0066952D01*
X0024659Y0067875D01*
X0025067Y0068860D01*
X0025343Y0069889D01*
X0025447Y0070679D01*
X0018151Y0070679D01*
X0018151Y0072279D01*
X0016551Y0072279D01*
X0016551Y0079574D01*
X0015762Y0079470D01*
X0014732Y0079194D01*
X0013747Y0078787D01*
X0012824Y0078254D01*
X0011979Y0077605D01*
X0011225Y0076851D01*
X0010576Y0076006D01*
X0010043Y0075083D01*
X0009635Y0074098D01*
X0009360Y0073068D01*
X0009256Y0072279D01*
X0016551Y0072279D01*
X0016551Y0070679D01*
X0018151Y0070679D01*
X0018151Y0063383D01*
X0018151Y0065251D02*
X0016551Y0065251D01*
X0016551Y0066849D02*
X0018151Y0066849D01*
X0018151Y0068448D02*
X0016551Y0068448D01*
X0016551Y0070046D02*
X0018151Y0070046D01*
X0018151Y0071645D02*
X0027559Y0071645D01*
X0027559Y0072346D02*
X0027559Y0070612D01*
X0028223Y0069010D01*
X0029449Y0067783D01*
X0031051Y0067120D01*
X0032785Y0067120D01*
X0034387Y0067783D01*
X0035614Y0069010D01*
X0036277Y0070612D01*
X0036277Y0072346D01*
X0035614Y0073948D01*
X0034387Y0075174D01*
X0032785Y0075838D01*
X0031051Y0075838D01*
X0029449Y0075174D01*
X0028223Y0073948D01*
X0027559Y0072346D01*
X0027931Y0073243D02*
X0025296Y0073243D01*
X0025343Y0073068D02*
X0025067Y0074098D01*
X0024659Y0075083D01*
X0024180Y0075913D01*
X0024590Y0075615D01*
X0025286Y0075260D01*
X0026030Y0075018D01*
X0026803Y0074896D01*
X0027009Y0074896D01*
X0027009Y0079680D01*
X0022225Y0079680D01*
X0022225Y0079474D01*
X0022348Y0078701D01*
X0022589Y0077957D01*
X0022816Y0077513D01*
X0022724Y0077605D01*
X0021878Y0078254D01*
X0020955Y0078787D01*
X0019970Y0079194D01*
X0018941Y0079470D01*
X0018151Y0079574D01*
X0018151Y0072279D01*
X0025447Y0072279D01*
X0025343Y0073068D01*
X0024759Y0074842D02*
X0029116Y0074842D01*
X0029101Y0075260D02*
X0029798Y0075615D01*
X0030430Y0076075D01*
X0030983Y0076628D01*
X0031443Y0077260D01*
X0031798Y0077957D01*
X0032040Y0078701D01*
X0032162Y0079474D01*
X0032162Y0079680D01*
X0027378Y0079680D01*
X0027378Y0074896D01*
X0027585Y0074896D01*
X0028357Y0075018D01*
X0029101Y0075260D01*
X0030796Y0076440D02*
X0034000Y0076440D01*
X0034448Y0075992D02*
X0036127Y0075296D01*
X0037945Y0075296D01*
X0039624Y0075992D01*
X0040909Y0077277D01*
X0040973Y0077431D01*
X0041037Y0077277D01*
X0042322Y0075992D01*
X0044001Y0075296D01*
X0045819Y0075296D01*
X0047498Y0075992D01*
X0048783Y0077277D01*
X0049479Y0078956D01*
X0049479Y0080773D01*
X0048783Y0082452D01*
X0047498Y0083738D01*
X0047108Y0083899D01*
X0047133Y0084252D01*
X0047655Y0084252D01*
X0048476Y0085072D01*
X0048476Y0089796D01*
X0048869Y0090190D01*
X0048869Y0094500D01*
X0048049Y0095320D01*
X0042165Y0095320D01*
X0042154Y0095309D01*
X0042144Y0095320D01*
X0036259Y0095320D01*
X0035439Y0094500D01*
X0035439Y0091776D01*
X0034685Y0091776D01*
X0033865Y0090956D01*
X0033865Y0085072D01*
X0034685Y0084252D01*
X0034939Y0084252D01*
X0034939Y0083941D01*
X0034448Y0083738D01*
X0033163Y0082452D01*
X0032468Y0080773D01*
X0032468Y0078956D01*
X0033163Y0077277D01*
X0034448Y0075992D01*
X0034720Y0074842D02*
X0047227Y0074842D01*
X0047559Y0075174D02*
X0046333Y0073948D01*
X0045669Y0072346D01*
X0045669Y0070612D01*
X0046333Y0069010D01*
X0047559Y0067783D01*
X0049161Y0067120D01*
X0050895Y0067120D01*
X0052498Y0067783D01*
X0053724Y0069010D01*
X0054387Y0070612D01*
X0054387Y0072346D01*
X0053724Y0073948D01*
X0052498Y0075174D01*
X0050895Y0075838D01*
X0049161Y0075838D01*
X0047559Y0075174D01*
X0047947Y0076440D02*
X0051716Y0076440D01*
X0052165Y0075992D02*
X0050880Y0077277D01*
X0050184Y0078956D01*
X0050184Y0080773D01*
X0050880Y0082452D01*
X0052165Y0083738D01*
X0052441Y0083852D01*
X0050776Y0083852D01*
X0050318Y0083975D01*
X0049907Y0084212D01*
X0049572Y0084547D01*
X0049335Y0084957D01*
X0049213Y0085415D01*
X0049213Y0088014D01*
X0052587Y0088014D01*
X0052587Y0088014D01*
X0049213Y0088014D01*
X0049213Y0090613D01*
X0049335Y0091071D01*
X0049572Y0091482D01*
X0049907Y0091817D01*
X0050318Y0092054D01*
X0050776Y0092176D01*
X0052587Y0092176D01*
X0052587Y0088014D01*
X0052587Y0088014D01*
X0052588Y0088014D02*
X0052588Y0088014D01*
X0055962Y0088014D01*
X0055962Y0085415D01*
X0055840Y0084957D01*
X0055603Y0084547D01*
X0055489Y0084433D01*
X0055661Y0084433D01*
X0057341Y0083738D01*
X0058626Y0082452D01*
X0059321Y0080773D01*
X0059321Y0078956D01*
X0058626Y0077277D01*
X0057341Y0075992D01*
X0055661Y0075296D01*
X0053844Y0075296D01*
X0052165Y0075992D01*
X0052830Y0074842D02*
X0057188Y0074842D01*
X0057287Y0075083D02*
X0056880Y0074098D01*
X0056604Y0073068D01*
X0056500Y0072279D01*
X0063795Y0072279D01*
X0063795Y0079574D01*
X0063006Y0079470D01*
X0061976Y0079194D01*
X0060991Y0078787D01*
X0060068Y0078254D01*
X0059223Y0077605D01*
X0058469Y0076851D01*
X0057820Y0076006D01*
X0057287Y0075083D01*
X0057789Y0076440D02*
X0058154Y0076440D01*
X0058941Y0078039D02*
X0059788Y0078039D01*
X0059321Y0079637D02*
X0098425Y0079637D01*
X0098425Y0078039D02*
X0069402Y0078039D01*
X0069122Y0078254D02*
X0069968Y0077605D01*
X0070721Y0076851D01*
X0071370Y0076006D01*
X0071903Y0075083D01*
X0072311Y0074098D01*
X0072587Y0073068D01*
X0072691Y0072279D01*
X0065395Y0072279D01*
X0063795Y0072279D01*
X0063795Y0070679D01*
X0056500Y0070679D01*
X0056604Y0069889D01*
X0056880Y0068860D01*
X0057287Y0067875D01*
X0057820Y0066952D01*
X0058469Y0066106D01*
X0059223Y0065353D01*
X0060068Y0064704D01*
X0060991Y0064171D01*
X0061976Y0063763D01*
X0063006Y0063487D01*
X0063795Y0063383D01*
X0063795Y0070679D01*
X0065395Y0070679D01*
X0065395Y0063383D01*
X0066185Y0063487D01*
X0067214Y0063763D01*
X0068199Y0064171D01*
X0069122Y0064704D01*
X0069968Y0065353D01*
X0070721Y0066106D01*
X0071370Y0066952D01*
X0071903Y0067875D01*
X0072311Y0068860D01*
X0072587Y0069889D01*
X0072691Y0070679D01*
X0065395Y0070679D01*
X0065395Y0072279D01*
X0065395Y0079574D01*
X0066185Y0079470D01*
X0067214Y0079194D01*
X0068199Y0078787D01*
X0069122Y0078254D01*
X0071037Y0076440D02*
X0098378Y0076440D01*
X0098198Y0074842D02*
X0072003Y0074842D01*
X0072540Y0073243D02*
X0097770Y0073243D01*
X0097342Y0071645D02*
X0065395Y0071645D01*
X0065395Y0073243D02*
X0063795Y0073243D01*
X0063795Y0071645D02*
X0054387Y0071645D01*
X0054153Y0070046D02*
X0056583Y0070046D01*
X0057050Y0068448D02*
X0053162Y0068448D01*
X0054016Y0073243D02*
X0056651Y0073243D01*
X0057899Y0066849D02*
X0024047Y0066849D01*
X0024896Y0068448D02*
X0028785Y0068448D01*
X0027793Y0070046D02*
X0025363Y0070046D01*
X0022591Y0065251D02*
X0059356Y0065251D01*
X0062390Y0063652D02*
X0019557Y0063652D01*
X0016551Y0071645D02*
X0004684Y0071645D01*
X0004255Y0073243D02*
X0009406Y0073243D01*
X0009944Y0074842D02*
X0003827Y0074842D01*
X0003647Y0076440D02*
X0010910Y0076440D01*
X0012544Y0078039D02*
X0003600Y0078039D01*
X0003600Y0079637D02*
X0022225Y0079637D01*
X0022225Y0080049D02*
X0027009Y0080049D01*
X0027009Y0079680D01*
X0027378Y0079680D01*
X0027378Y0080049D01*
X0032162Y0080049D01*
X0032162Y0080256D01*
X0032040Y0081028D01*
X0031798Y0081772D01*
X0031443Y0082469D01*
X0030983Y0083101D01*
X0030430Y0083654D01*
X0030158Y0083852D01*
X0031565Y0083852D01*
X0032022Y0083975D01*
X0032433Y0084212D01*
X0032768Y0084547D01*
X0033005Y0084957D01*
X0033128Y0085415D01*
X0033128Y0088014D01*
X0029753Y0088014D01*
X0029753Y0088014D01*
X0033128Y0088014D01*
X0033128Y0090613D01*
X0033005Y0091071D01*
X0032768Y0091482D01*
X0032433Y0091817D01*
X0032022Y0092054D01*
X0031565Y0092176D01*
X0029753Y0092176D01*
X0029753Y0088014D01*
X0029753Y0088014D01*
X0026378Y0088014D01*
X0026378Y0085415D01*
X0026501Y0084957D01*
X0026592Y0084800D01*
X0026030Y0084711D01*
X0025286Y0084469D01*
X0024590Y0084114D01*
X0023957Y0083654D01*
X0023404Y0083101D01*
X0022944Y0082469D01*
X0022589Y0081772D01*
X0022348Y0081028D01*
X0022225Y0080256D01*
X0022225Y0080049D01*
X0022415Y0081236D02*
X0003600Y0081236D01*
X0003600Y0082834D02*
X0023210Y0082834D01*
X0022563Y0078039D02*
X0022158Y0078039D01*
X0025215Y0084433D02*
X0003600Y0084433D01*
X0003600Y0086031D02*
X0026378Y0086031D01*
X0026378Y0087630D02*
X0003600Y0087630D01*
X0003600Y0089228D02*
X0026378Y0089228D01*
X0026378Y0088014D02*
X0026378Y0090613D01*
X0026501Y0091071D01*
X0026738Y0091482D01*
X0027073Y0091817D01*
X0027483Y0092054D01*
X0027941Y0092176D01*
X0029753Y0092176D01*
X0029753Y0088014D01*
X0029753Y0088014D01*
X0026378Y0088014D01*
X0026435Y0090827D02*
X0019211Y0090827D01*
X0019280Y0092425D02*
X0035439Y0092425D01*
X0035439Y0094024D02*
X0019280Y0094024D01*
X0019280Y0095622D02*
X0062892Y0095622D01*
X0062892Y0094024D02*
X0048869Y0094024D01*
X0048869Y0092425D02*
X0062892Y0092425D01*
X0062892Y0091164D02*
X0064005Y0090051D01*
X0071011Y0090051D01*
X0071693Y0089370D01*
X0077577Y0089370D01*
X0078397Y0090190D01*
X0078397Y0094500D01*
X0077577Y0095320D01*
X0071693Y0095320D01*
X0070872Y0094500D01*
X0070872Y0093851D01*
X0066692Y0093851D01*
X0066692Y0118329D01*
X0065579Y0119442D01*
X0063436Y0119442D01*
X0063436Y0120484D01*
X0062661Y0121259D01*
X0062661Y0122834D01*
X0063328Y0123501D01*
X0063843Y0124743D01*
X0063843Y0126088D01*
X0063328Y0127331D01*
X0062377Y0128282D01*
X0061134Y0128797D01*
X0059789Y0128797D01*
X0058546Y0128282D01*
X0057595Y0127331D01*
X0057080Y0126088D01*
X0057080Y0124743D01*
X0057595Y0123501D01*
X0058261Y0122834D01*
X0058261Y0121259D01*
X0057487Y0120484D01*
X0057487Y0114600D01*
X0058307Y0113780D01*
X0062616Y0113780D01*
X0062892Y0114056D01*
X0062892Y0091164D01*
X0063229Y0090827D02*
X0055905Y0090827D01*
X0055962Y0090613D02*
X0055840Y0091071D01*
X0055603Y0091482D01*
X0055267Y0091817D01*
X0054857Y0092054D01*
X0054399Y0092176D01*
X0052587Y0092176D01*
X0052587Y0088014D01*
X0052588Y0088014D02*
X0055962Y0088014D01*
X0055962Y0090613D01*
X0055962Y0089228D02*
X0098425Y0089228D01*
X0098425Y0087630D02*
X0055962Y0087630D01*
X0055962Y0086031D02*
X0098425Y0086031D01*
X0098425Y0084433D02*
X0055662Y0084433D01*
X0058244Y0082834D02*
X0098425Y0082834D01*
X0098425Y0081236D02*
X0059130Y0081236D01*
X0063795Y0078039D02*
X0065395Y0078039D01*
X0065395Y0076440D02*
X0063795Y0076440D01*
X0063795Y0074842D02*
X0065395Y0074842D01*
X0065395Y0070046D02*
X0063795Y0070046D01*
X0063795Y0068448D02*
X0065395Y0068448D01*
X0065395Y0066849D02*
X0063795Y0066849D01*
X0063795Y0065251D02*
X0065395Y0065251D01*
X0065395Y0063652D02*
X0063795Y0063652D01*
X0066801Y0063652D02*
X0089680Y0063652D01*
X0092449Y0065251D02*
X0069835Y0065251D01*
X0071291Y0066849D02*
X0094109Y0066849D01*
X0095554Y0068448D02*
X0072140Y0068448D01*
X0072608Y0070046D02*
X0096477Y0070046D01*
X0098425Y0090827D02*
X0078397Y0090827D01*
X0078397Y0092425D02*
X0098425Y0092425D01*
X0098425Y0094024D02*
X0078397Y0094024D01*
X0077577Y0096457D02*
X0078397Y0097277D01*
X0078397Y0101586D01*
X0078189Y0101794D01*
X0078397Y0102001D01*
X0078397Y0106311D01*
X0077577Y0107131D01*
X0071693Y0107131D01*
X0070872Y0106311D01*
X0070872Y0102001D01*
X0071080Y0101794D01*
X0070872Y0101586D01*
X0070872Y0097277D01*
X0071693Y0096457D01*
X0077577Y0096457D01*
X0078341Y0097221D02*
X0098425Y0097221D01*
X0098425Y0098819D02*
X0078397Y0098819D01*
X0078397Y0100418D02*
X0098425Y0100418D01*
X0098425Y0102016D02*
X0078397Y0102016D01*
X0078397Y0103615D02*
X0098425Y0103615D01*
X0098425Y0105213D02*
X0078397Y0105213D01*
X0077895Y0106812D02*
X0098425Y0106812D01*
X0098425Y0108410D02*
X0078285Y0108410D01*
X0078437Y0108562D02*
X0078674Y0108973D01*
X0078797Y0109431D01*
X0078797Y0111242D01*
X0074635Y0111242D01*
X0074635Y0107868D01*
X0077234Y0107868D01*
X0077692Y0107990D01*
X0078102Y0108227D01*
X0078437Y0108562D01*
X0078797Y0110009D02*
X0098425Y0110009D01*
X0098425Y0111607D02*
X0078797Y0111607D01*
X0078797Y0111243D02*
X0078797Y0113054D01*
X0078674Y0113512D01*
X0078437Y0113923D01*
X0078102Y0114258D01*
X0077692Y0114495D01*
X0077234Y0114617D01*
X0074635Y0114617D01*
X0074635Y0111243D01*
X0074635Y0111243D01*
X0078797Y0111243D01*
X0078756Y0113206D02*
X0098425Y0113206D01*
X0098425Y0114805D02*
X0066692Y0114805D01*
X0066692Y0116403D02*
X0098425Y0116403D01*
X0098425Y0118002D02*
X0077243Y0118002D01*
X0077167Y0117818D02*
X0076327Y0116978D01*
X0075229Y0116523D01*
X0074040Y0116523D01*
X0072942Y0116978D01*
X0072102Y0117818D01*
X0071647Y0118916D01*
X0071647Y0120104D01*
X0071963Y0120866D01*
X0071693Y0120866D01*
X0070872Y0121686D01*
X0070872Y0125996D01*
X0071693Y0126816D01*
X0077577Y0126816D01*
X0078397Y0125996D01*
X0078397Y0121686D01*
X0077577Y0120866D01*
X0077307Y0120866D01*
X0077622Y0120104D01*
X0077622Y0118916D01*
X0077167Y0117818D01*
X0077622Y0119600D02*
X0098425Y0119600D01*
X0098425Y0121199D02*
X0077909Y0121199D01*
X0078397Y0122797D02*
X0098425Y0122797D01*
X0098425Y0124396D02*
X0078397Y0124396D01*
X0078397Y0125994D02*
X0098425Y0125994D01*
X0098425Y0127593D02*
X0063066Y0127593D01*
X0063843Y0125994D02*
X0070872Y0125994D01*
X0070872Y0124396D02*
X0063699Y0124396D01*
X0062661Y0122797D02*
X0070872Y0122797D01*
X0071360Y0121199D02*
X0062721Y0121199D01*
X0063436Y0119600D02*
X0071647Y0119600D01*
X0072026Y0118002D02*
X0066692Y0118002D01*
X0066692Y0113206D02*
X0070513Y0113206D01*
X0070472Y0113054D02*
X0070472Y0111243D01*
X0074635Y0111243D01*
X0074635Y0111242D01*
X0074635Y0111242D01*
X0074635Y0107868D01*
X0072035Y0107868D01*
X0071578Y0107990D01*
X0071167Y0108227D01*
X0070832Y0108562D01*
X0070595Y0108973D01*
X0070472Y0109431D01*
X0070472Y0111242D01*
X0074635Y0111242D01*
X0074635Y0111243D01*
X0074635Y0114617D01*
X0072035Y0114617D01*
X0071578Y0114495D01*
X0071167Y0114258D01*
X0070832Y0113923D01*
X0070595Y0113512D01*
X0070472Y0113054D01*
X0070472Y0111607D02*
X0066692Y0111607D01*
X0066692Y0110009D02*
X0070472Y0110009D01*
X0070984Y0108410D02*
X0066692Y0108410D01*
X0066692Y0106812D02*
X0071374Y0106812D01*
X0070872Y0105213D02*
X0066692Y0105213D01*
X0066692Y0103615D02*
X0070872Y0103615D01*
X0070872Y0102016D02*
X0066692Y0102016D01*
X0066692Y0100418D02*
X0070872Y0100418D01*
X0070872Y0098819D02*
X0066692Y0098819D01*
X0066692Y0097221D02*
X0070928Y0097221D01*
X0070872Y0094024D02*
X0066692Y0094024D01*
X0066692Y0095622D02*
X0098425Y0095622D01*
X0098425Y0129191D02*
X0078397Y0129191D01*
X0078397Y0128773D02*
X0078397Y0133082D01*
X0078189Y0133290D01*
X0078397Y0133497D01*
X0078397Y0137807D01*
X0077577Y0138627D01*
X0071693Y0138627D01*
X0070872Y0137807D01*
X0070872Y0133497D01*
X0071080Y0133290D01*
X0070872Y0133082D01*
X0070872Y0128773D01*
X0071693Y0127953D01*
X0077577Y0127953D01*
X0078397Y0128773D01*
X0078397Y0130790D02*
X0098425Y0130790D01*
X0098425Y0132388D02*
X0078397Y0132388D01*
X0078397Y0133987D02*
X0098425Y0133987D01*
X0098425Y0135585D02*
X0078397Y0135585D01*
X0078397Y0137184D02*
X0098425Y0137184D01*
X0098425Y0138782D02*
X0061868Y0138782D01*
X0061868Y0138565D02*
X0061868Y0141164D01*
X0061868Y0143763D01*
X0061745Y0144221D01*
X0061508Y0144631D01*
X0061264Y0144876D01*
X0062273Y0144876D01*
X0062731Y0144998D01*
X0063141Y0145235D01*
X0063477Y0145570D01*
X0063714Y0145981D01*
X0063836Y0146439D01*
X0063836Y0149038D01*
X0063836Y0151637D01*
X0063714Y0152095D01*
X0063477Y0152505D01*
X0063141Y0152840D01*
X0062731Y0153077D01*
X0062461Y0153150D01*
X0062616Y0153150D01*
X0063436Y0153970D01*
X0063436Y0159854D01*
X0062666Y0160624D01*
X0064242Y0160624D01*
X0064699Y0160746D01*
X0065110Y0160983D01*
X0065445Y0161318D01*
X0065682Y0161729D01*
X0065805Y0162187D01*
X0065805Y0164786D01*
X0065805Y0167385D01*
X0065682Y0167843D01*
X0065445Y0168253D01*
X0065110Y0168588D01*
X0064877Y0168723D01*
X0065110Y0168857D01*
X0065445Y0169192D01*
X0065682Y0169603D01*
X0065805Y0170061D01*
X0065805Y0172660D01*
X0065805Y0175259D01*
X0065682Y0175717D01*
X0065445Y0176127D01*
X0065110Y0176462D01*
X0064699Y0176699D01*
X0064242Y0176822D01*
X0062430Y0176822D01*
X0062430Y0172660D01*
X0062430Y0172660D01*
X0065805Y0172660D01*
X0062430Y0172660D01*
X0062430Y0172660D01*
X0062430Y0176822D01*
X0060618Y0176822D01*
X0060160Y0176699D01*
X0059750Y0176462D01*
X0059415Y0176127D01*
X0059178Y0175717D01*
X0059055Y0175259D01*
X0059055Y0172660D01*
X0062430Y0172660D01*
X0062430Y0172660D01*
X0062430Y0168948D01*
X0062430Y0164786D01*
X0062430Y0164786D01*
X0065805Y0164786D01*
X0062430Y0164786D01*
X0062430Y0164786D01*
X0062430Y0172660D01*
X0062430Y0172660D01*
X0059055Y0172660D01*
X0059055Y0170061D01*
X0059178Y0169603D01*
X0059415Y0169192D01*
X0059750Y0168857D01*
X0059983Y0168723D01*
X0059750Y0168588D01*
X0059415Y0168253D01*
X0059178Y0167843D01*
X0059055Y0167385D01*
X0059055Y0164786D01*
X0062430Y0164786D01*
X0062430Y0164786D01*
X0059055Y0164786D01*
X0059055Y0164644D01*
X0058724Y0165305D01*
X0058724Y0165697D01*
X0058332Y0166089D01*
X0058318Y0166118D01*
X0058318Y0167728D01*
X0057543Y0168503D01*
X0057543Y0168943D01*
X0058318Y0169718D01*
X0058318Y0175602D01*
X0057498Y0176422D01*
X0053189Y0176422D01*
X0052369Y0175602D01*
X0052369Y0174860D01*
X0051532Y0174860D01*
X0051577Y0174905D01*
X0052031Y0176003D01*
X0052031Y0177191D01*
X0051577Y0178289D01*
X0050736Y0179129D01*
X0049638Y0179584D01*
X0048450Y0179584D01*
X0047352Y0179129D01*
X0046511Y0178289D01*
X0046057Y0177191D01*
X0046057Y0176003D01*
X0046511Y0174905D01*
X0046844Y0174572D01*
X0046844Y0171749D01*
X0048133Y0170460D01*
X0052369Y0170460D01*
X0052369Y0169718D01*
X0053143Y0168943D01*
X0053143Y0168503D01*
X0052369Y0167728D01*
X0052369Y0161844D01*
X0053189Y0161024D01*
X0055946Y0161024D01*
X0057487Y0157942D01*
X0057487Y0153970D01*
X0058307Y0153150D01*
X0058462Y0153150D01*
X0058192Y0153077D01*
X0057781Y0152840D01*
X0057446Y0152505D01*
X0057209Y0152095D01*
X0057087Y0151637D01*
X0057087Y0149038D01*
X0060461Y0149038D01*
X0060461Y0149038D01*
X0057087Y0149038D01*
X0057087Y0146439D01*
X0057209Y0145981D01*
X0057446Y0145570D01*
X0057691Y0145326D01*
X0056681Y0145326D01*
X0056223Y0145203D01*
X0055813Y0144966D01*
X0055478Y0144631D01*
X0055241Y0144221D01*
X0055118Y0143763D01*
X0055118Y0141164D01*
X0058493Y0141164D01*
X0061868Y0141164D01*
X0058493Y0141164D01*
X0058493Y0141164D01*
X0058493Y0141164D01*
X0058493Y0137002D01*
X0060305Y0137002D01*
X0060762Y0137124D01*
X0061173Y0137361D01*
X0061508Y0137696D01*
X0061745Y0138107D01*
X0061868Y0138565D01*
X0060865Y0137184D02*
X0070872Y0137184D01*
X0070872Y0135585D02*
X0045039Y0135585D01*
X0045039Y0133987D02*
X0070872Y0133987D01*
X0070872Y0132388D02*
X0045039Y0132388D01*
X0045039Y0130790D02*
X0070872Y0130790D01*
X0070872Y0129191D02*
X0045039Y0129191D01*
X0045039Y0127593D02*
X0057857Y0127593D01*
X0057080Y0125994D02*
X0045039Y0125994D01*
X0045039Y0124396D02*
X0057224Y0124396D01*
X0058261Y0122797D02*
X0045039Y0122797D01*
X0045039Y0121199D02*
X0050549Y0121199D01*
X0050695Y0121344D02*
X0050360Y0121009D01*
X0050123Y0120599D01*
X0050000Y0120141D01*
X0050000Y0117542D01*
X0053375Y0117542D01*
X0053375Y0117542D01*
X0053375Y0121704D01*
X0055187Y0121704D01*
X0055644Y0121581D01*
X0056055Y0121344D01*
X0056390Y0121009D01*
X0056627Y0120599D01*
X0056750Y0120141D01*
X0056750Y0117542D01*
X0053375Y0117542D01*
X0053375Y0117542D01*
X0053375Y0121704D01*
X0051563Y0121704D01*
X0051105Y0121581D01*
X0050695Y0121344D01*
X0050000Y0119600D02*
X0045039Y0119600D01*
X0045039Y0118002D02*
X0050000Y0118002D01*
X0050000Y0117542D02*
X0050000Y0114943D01*
X0050123Y0114485D01*
X0050360Y0114074D01*
X0050695Y0113739D01*
X0051105Y0113502D01*
X0051563Y0113380D01*
X0053375Y0113380D01*
X0055187Y0113380D01*
X0055644Y0113502D01*
X0056055Y0113739D01*
X0056390Y0114074D01*
X0056627Y0114485D01*
X0056750Y0114943D01*
X0056750Y0117542D01*
X0053375Y0117542D01*
X0053375Y0117542D01*
X0053375Y0113380D01*
X0053375Y0117542D01*
X0053375Y0117542D01*
X0050000Y0117542D01*
X0050000Y0116403D02*
X0045039Y0116403D01*
X0045039Y0114805D02*
X0050037Y0114805D01*
X0053375Y0114805D02*
X0053375Y0114805D01*
X0053375Y0116403D02*
X0053375Y0116403D01*
X0053375Y0118002D02*
X0053375Y0118002D01*
X0053375Y0119600D02*
X0053375Y0119600D01*
X0053375Y0121199D02*
X0053375Y0121199D01*
X0056201Y0121199D02*
X0058201Y0121199D01*
X0057487Y0119600D02*
X0056750Y0119600D01*
X0056750Y0118002D02*
X0057487Y0118002D01*
X0057487Y0116403D02*
X0056750Y0116403D01*
X0056713Y0114805D02*
X0057487Y0114805D01*
X0060461Y0117542D02*
X0060461Y0125416D01*
X0058493Y0137002D02*
X0056681Y0137002D01*
X0056223Y0137124D01*
X0055813Y0137361D01*
X0055478Y0137696D01*
X0055241Y0138107D01*
X0055118Y0138565D01*
X0055118Y0141164D01*
X0058493Y0141164D01*
X0058493Y0141164D01*
X0058493Y0137002D01*
X0058493Y0137184D02*
X0058493Y0137184D01*
X0058493Y0138782D02*
X0058493Y0138782D01*
X0058493Y0140381D02*
X0058493Y0140381D01*
X0056120Y0137184D02*
X0045039Y0137184D01*
X0045272Y0138464D02*
X0046442Y0137980D01*
X0047709Y0137980D01*
X0048431Y0138279D01*
X0048431Y0138222D01*
X0049252Y0137402D01*
X0053561Y0137402D01*
X0054381Y0138222D01*
X0054381Y0144106D01*
X0053561Y0144926D01*
X0049252Y0144926D01*
X0048431Y0144106D01*
X0048431Y0144049D01*
X0047709Y0144348D01*
X0046442Y0144348D01*
X0045272Y0143863D01*
X0045039Y0143630D01*
X0045039Y0146293D01*
X0045160Y0146171D01*
X0046403Y0145657D01*
X0047748Y0145657D01*
X0048991Y0146171D01*
X0049657Y0146838D01*
X0050400Y0146838D01*
X0050400Y0146096D01*
X0051220Y0145276D01*
X0055530Y0145276D01*
X0056350Y0146096D01*
X0056350Y0151980D01*
X0055575Y0152755D01*
X0055575Y0153195D01*
X0056350Y0153970D01*
X0056350Y0159854D01*
X0055530Y0160674D01*
X0051220Y0160674D01*
X0050400Y0159854D01*
X0050400Y0153970D01*
X0050781Y0153589D01*
X0050781Y0152361D01*
X0050400Y0151980D01*
X0050400Y0151238D01*
X0049657Y0151238D01*
X0048991Y0151904D01*
X0047748Y0152419D01*
X0046403Y0152419D01*
X0045160Y0151904D01*
X0045039Y0151782D01*
X0045039Y0186451D01*
X0045076Y0186414D01*
X0045076Y0183642D01*
X0046247Y0182471D01*
X0054074Y0182471D01*
X0054052Y0182449D01*
X0053537Y0181206D01*
X0053537Y0179861D01*
X0054052Y0178619D01*
X0055003Y0177667D01*
X0056246Y0177153D01*
X0057591Y0177153D01*
X0058833Y0177667D01*
X0059784Y0178619D01*
X0060299Y0179861D01*
X0060299Y0181206D01*
X0059784Y0182449D01*
X0058918Y0183315D01*
X0058918Y0185299D01*
X0057747Y0186471D01*
X0049133Y0186471D01*
X0049942Y0187280D01*
X0050457Y0188523D01*
X0050457Y0189868D01*
X0049942Y0191111D01*
X0049276Y0191777D01*
X0049276Y0197244D01*
X0049942Y0197910D01*
X0050457Y0199153D01*
X0050457Y0200498D01*
X0049942Y0201740D01*
X0048991Y0202692D01*
X0047748Y0203206D01*
X0046403Y0203206D01*
X0045160Y0202692D01*
X0045039Y0202570D01*
X0045039Y0207759D01*
X0044240Y0209687D01*
X0042764Y0211163D01*
X0042529Y0211260D01*
X0042325Y0211754D01*
X0041484Y0212594D01*
X0040386Y0213049D01*
X0039198Y0213049D01*
X0038100Y0212594D01*
X0037260Y0211754D01*
X0036967Y0211047D01*
X0035937Y0211474D01*
X0034592Y0211474D01*
X0033349Y0210959D01*
X0032398Y0210008D01*
X0031883Y0208765D01*
X0031883Y0207420D01*
X0032167Y0206737D01*
X0030354Y0206737D01*
X0029579Y0205962D01*
X0029139Y0205962D01*
X0028364Y0206737D01*
X0022480Y0206737D01*
X0022099Y0206356D01*
X0016637Y0206356D01*
X0015348Y0205067D01*
X0015348Y0202407D01*
X0014682Y0201740D01*
X0014167Y0200498D01*
X0014167Y0199153D01*
X0014682Y0197910D01*
X0015633Y0196959D01*
X0016875Y0196444D01*
X0018221Y0196444D01*
X0019463Y0196959D01*
X0020414Y0197910D01*
X0020929Y0199153D01*
X0020929Y0200498D01*
X0020414Y0201740D01*
X0020199Y0201956D01*
X0021660Y0201956D01*
X0021660Y0201607D01*
X0022480Y0200787D01*
X0028364Y0200787D01*
X0029139Y0201562D01*
X0029579Y0201562D01*
X0030354Y0200787D01*
X0036238Y0200787D01*
X0037058Y0201607D01*
X0037058Y0202074D01*
X0037509Y0201623D01*
X0038607Y0201169D01*
X0039270Y0201169D01*
X0039270Y0102406D01*
X0036259Y0102406D01*
X0035439Y0101586D01*
X0035439Y0097277D01*
X0036259Y0096457D01*
X0042144Y0096457D01*
X0042154Y0096467D01*
X0042165Y0096457D01*
X0048049Y0096457D01*
X0048869Y0097277D01*
X0048869Y0101586D01*
X0048049Y0102406D01*
X0045039Y0102406D01*
X0045039Y0138698D01*
X0045272Y0138464D01*
X0047076Y0141164D02*
X0051406Y0141164D01*
X0050400Y0146775D02*
X0049594Y0146775D01*
X0049325Y0151570D02*
X0050400Y0151570D01*
X0050781Y0153169D02*
X0045039Y0153169D01*
X0045039Y0154767D02*
X0050400Y0154767D01*
X0050400Y0156366D02*
X0045039Y0156366D01*
X0045039Y0157964D02*
X0050400Y0157964D01*
X0050400Y0159563D02*
X0045039Y0159563D01*
X0045039Y0161161D02*
X0053051Y0161161D01*
X0052369Y0162760D02*
X0045039Y0162760D01*
X0045039Y0164358D02*
X0052369Y0164358D01*
X0052369Y0165957D02*
X0045039Y0165957D01*
X0045039Y0167555D02*
X0052369Y0167555D01*
X0052932Y0169154D02*
X0045039Y0169154D01*
X0045039Y0170752D02*
X0047840Y0170752D01*
X0046844Y0172351D02*
X0045039Y0172351D01*
X0045039Y0173949D02*
X0046844Y0173949D01*
X0046245Y0175548D02*
X0045039Y0175548D01*
X0045039Y0177146D02*
X0046057Y0177146D01*
X0046967Y0178745D02*
X0045039Y0178745D01*
X0045039Y0180343D02*
X0053537Y0180343D01*
X0053842Y0181942D02*
X0045039Y0181942D01*
X0045039Y0183540D02*
X0045178Y0183540D01*
X0045076Y0185139D02*
X0045039Y0185139D01*
X0047076Y0189195D02*
X0047076Y0199825D01*
X0048916Y0202723D02*
X0071160Y0202723D01*
X0071167Y0202716D02*
X0071578Y0202479D01*
X0072035Y0202356D01*
X0074635Y0202356D01*
X0077234Y0202356D01*
X0077692Y0202479D01*
X0078102Y0202716D01*
X0078437Y0203051D01*
X0078674Y0203461D01*
X0078797Y0203919D01*
X0078797Y0205731D01*
X0078797Y0207542D01*
X0078674Y0208000D01*
X0078437Y0208411D01*
X0078102Y0208746D01*
X0077692Y0208983D01*
X0077234Y0209105D01*
X0074635Y0209105D01*
X0074635Y0205731D01*
X0078797Y0205731D01*
X0074635Y0205731D01*
X0074635Y0205731D01*
X0074635Y0205731D01*
X0074635Y0209105D01*
X0072035Y0209105D01*
X0071578Y0208983D01*
X0071167Y0208746D01*
X0070832Y0208411D01*
X0070595Y0208000D01*
X0070472Y0207542D01*
X0070472Y0205731D01*
X0074635Y0205731D01*
X0074635Y0202356D01*
X0074635Y0205731D01*
X0074635Y0205731D01*
X0074635Y0205731D01*
X0070472Y0205731D01*
X0070472Y0203919D01*
X0070595Y0203461D01*
X0070832Y0203051D01*
X0071167Y0202716D01*
X0071693Y0201619D02*
X0070872Y0200799D01*
X0070872Y0196489D01*
X0071080Y0196282D01*
X0070872Y0196074D01*
X0070872Y0191765D01*
X0071693Y0190945D01*
X0077577Y0190945D01*
X0078397Y0191765D01*
X0078397Y0196074D01*
X0078189Y0196282D01*
X0078397Y0196489D01*
X0078397Y0200799D01*
X0077577Y0201619D01*
X0071693Y0201619D01*
X0071198Y0201124D02*
X0050197Y0201124D01*
X0050457Y0199526D02*
X0070872Y0199526D01*
X0070872Y0197927D02*
X0049949Y0197927D01*
X0049276Y0196329D02*
X0071033Y0196329D01*
X0070872Y0194730D02*
X0049276Y0194730D01*
X0049276Y0193132D02*
X0070872Y0193132D01*
X0071104Y0191533D02*
X0049519Y0191533D01*
X0050429Y0189935D02*
X0098425Y0189935D01*
X0098425Y0191533D02*
X0078165Y0191533D01*
X0078397Y0193132D02*
X0098425Y0193132D01*
X0098425Y0194730D02*
X0078397Y0194730D01*
X0078236Y0196329D02*
X0098425Y0196329D01*
X0098425Y0197927D02*
X0078397Y0197927D01*
X0078397Y0199526D02*
X0098425Y0199526D01*
X0098425Y0201124D02*
X0078072Y0201124D01*
X0078109Y0202723D02*
X0098425Y0202723D01*
X0098425Y0204321D02*
X0078797Y0204321D01*
X0078797Y0205920D02*
X0098425Y0205920D01*
X0098425Y0207518D02*
X0078797Y0207518D01*
X0076327Y0211466D02*
X0077167Y0212306D01*
X0077622Y0213404D01*
X0077622Y0214593D01*
X0077307Y0215354D01*
X0077577Y0215354D01*
X0078397Y0216174D01*
X0078397Y0220484D01*
X0077577Y0221304D01*
X0071693Y0221304D01*
X0070872Y0220484D01*
X0070872Y0216174D01*
X0071693Y0215354D01*
X0071963Y0215354D01*
X0071647Y0214593D01*
X0071647Y0213404D01*
X0072102Y0212306D01*
X0072942Y0211466D01*
X0074040Y0211011D01*
X0075229Y0211011D01*
X0076327Y0211466D01*
X0077170Y0212314D02*
X0098425Y0212314D01*
X0098425Y0213912D02*
X0077622Y0213912D01*
X0077733Y0215511D02*
X0098425Y0215511D01*
X0098425Y0217109D02*
X0078397Y0217109D01*
X0078397Y0218708D02*
X0098425Y0218708D01*
X0098425Y0220306D02*
X0078397Y0220306D01*
X0077577Y0222441D02*
X0078397Y0223261D01*
X0078397Y0227570D01*
X0078189Y0227778D01*
X0078397Y0227985D01*
X0078397Y0232295D01*
X0077577Y0233115D01*
X0071693Y0233115D01*
X0070872Y0232295D01*
X0070872Y0227985D01*
X0071080Y0227778D01*
X0070872Y0227570D01*
X0070872Y0223261D01*
X0071693Y0222441D01*
X0077577Y0222441D01*
X0078397Y0223503D02*
X0098425Y0223503D01*
X0098425Y0221905D02*
X0057543Y0221905D01*
X0057543Y0221672D02*
X0057543Y0222860D01*
X0057088Y0223958D01*
X0056248Y0224799D01*
X0055150Y0225254D01*
X0053962Y0225254D01*
X0052864Y0224799D01*
X0052231Y0224166D01*
X0048869Y0224166D01*
X0048869Y0224421D01*
X0048049Y0225241D01*
X0042165Y0225241D01*
X0041345Y0224421D01*
X0041345Y0220111D01*
X0042165Y0219291D01*
X0048049Y0219291D01*
X0048869Y0220111D01*
X0048869Y0220366D01*
X0052231Y0220366D01*
X0052864Y0219734D01*
X0053962Y0219279D01*
X0055150Y0219279D01*
X0056248Y0219734D01*
X0057088Y0220574D01*
X0057543Y0221672D01*
X0056821Y0220306D02*
X0070872Y0220306D01*
X0070872Y0218708D02*
X0058108Y0218708D01*
X0058610Y0218500D02*
X0057512Y0218954D01*
X0056324Y0218954D01*
X0055226Y0218500D01*
X0054593Y0217867D01*
X0039133Y0217867D01*
X0039133Y0219291D01*
X0040175Y0219291D01*
X0040995Y0220111D01*
X0040995Y0224421D01*
X0040175Y0225241D01*
X0034291Y0225241D01*
X0033471Y0224421D01*
X0033471Y0220111D01*
X0034291Y0219291D01*
X0035333Y0219291D01*
X0035333Y0215180D01*
X0036446Y0214067D01*
X0054593Y0214067D01*
X0055226Y0213434D01*
X0056324Y0212980D01*
X0057512Y0212980D01*
X0058610Y0213434D01*
X0059451Y0214275D01*
X0059905Y0215373D01*
X0059905Y0216561D01*
X0059451Y0217659D01*
X0058610Y0218500D01*
X0059678Y0217109D02*
X0070872Y0217109D01*
X0071536Y0215511D02*
X0059905Y0215511D01*
X0059088Y0213912D02*
X0071647Y0213912D01*
X0072099Y0212314D02*
X0041765Y0212314D01*
X0042764Y0211163D02*
X0042764Y0211163D01*
X0043212Y0210715D02*
X0098425Y0210715D01*
X0098425Y0209117D02*
X0044476Y0209117D01*
X0044240Y0209687D02*
X0044240Y0209687D01*
X0045039Y0207518D02*
X0070472Y0207518D01*
X0070472Y0205920D02*
X0045039Y0205920D01*
X0045039Y0204321D02*
X0070472Y0204321D01*
X0074635Y0204321D02*
X0074635Y0204321D01*
X0074635Y0202723D02*
X0074635Y0202723D01*
X0074635Y0205920D02*
X0074635Y0205920D01*
X0074635Y0207518D02*
X0074635Y0207518D01*
X0070872Y0223503D02*
X0057277Y0223503D01*
X0055516Y0225102D02*
X0070872Y0225102D01*
X0070872Y0226700D02*
X0048372Y0226700D01*
X0048049Y0226378D02*
X0048869Y0227198D01*
X0048869Y0231507D01*
X0048448Y0231928D01*
X0048847Y0232327D01*
X0049518Y0233948D01*
X0049518Y0235703D01*
X0048847Y0237324D01*
X0047606Y0238565D01*
X0047007Y0238813D01*
X0047007Y0239764D01*
X0047262Y0239764D01*
X0048082Y0240584D01*
X0048082Y0246468D01*
X0047262Y0247288D01*
X0042952Y0247288D01*
X0042132Y0246468D01*
X0042132Y0240584D01*
X0042952Y0239764D01*
X0043207Y0239764D01*
X0043207Y0238813D01*
X0042608Y0238565D01*
X0041368Y0237324D01*
X0041170Y0236847D01*
X0040973Y0237324D01*
X0039732Y0238565D01*
X0039133Y0238813D01*
X0039133Y0239764D01*
X0039388Y0239764D01*
X0040208Y0240584D01*
X0040208Y0246468D01*
X0039388Y0247288D01*
X0035078Y0247288D01*
X0034258Y0246468D01*
X0034258Y0240584D01*
X0035078Y0239764D01*
X0035333Y0239764D01*
X0035333Y0238813D01*
X0034734Y0238565D01*
X0033494Y0237324D01*
X0032822Y0235703D01*
X0032822Y0233948D01*
X0033494Y0232327D01*
X0033892Y0231928D01*
X0033471Y0231507D01*
X0033471Y0227198D01*
X0034291Y0226378D01*
X0040175Y0226378D01*
X0040995Y0227198D01*
X0040995Y0231507D01*
X0040574Y0231928D01*
X0040973Y0232327D01*
X0041170Y0232803D01*
X0041368Y0232327D01*
X0041766Y0231928D01*
X0041345Y0231507D01*
X0041345Y0227198D01*
X0042165Y0226378D01*
X0048049Y0226378D01*
X0048188Y0225102D02*
X0053595Y0225102D01*
X0052291Y0220306D02*
X0048869Y0220306D01*
X0048869Y0228299D02*
X0070872Y0228299D01*
X0070872Y0229897D02*
X0048869Y0229897D01*
X0048869Y0231496D02*
X0052041Y0231496D01*
X0052451Y0231086D02*
X0054072Y0230414D01*
X0055827Y0230414D01*
X0057448Y0231086D01*
X0058689Y0232327D01*
X0059361Y0233948D01*
X0059361Y0235703D01*
X0058689Y0237324D01*
X0057448Y0238565D01*
X0055827Y0239236D01*
X0054072Y0239236D01*
X0052451Y0238565D01*
X0051210Y0237324D01*
X0050539Y0235703D01*
X0050539Y0233948D01*
X0051210Y0232327D01*
X0052451Y0231086D01*
X0050892Y0233094D02*
X0049165Y0233094D01*
X0049518Y0234693D02*
X0050539Y0234693D01*
X0050782Y0236291D02*
X0049274Y0236291D01*
X0048281Y0237890D02*
X0051776Y0237890D01*
X0052194Y0239364D02*
X0050382Y0239364D01*
X0049924Y0239486D01*
X0049514Y0239723D01*
X0049179Y0240059D01*
X0048942Y0240469D01*
X0048819Y0240927D01*
X0048819Y0243526D01*
X0052194Y0243526D01*
X0055568Y0243526D01*
X0055568Y0246125D01*
X0055446Y0246583D01*
X0055209Y0246993D01*
X0054874Y0247329D01*
X0054463Y0247566D01*
X0054005Y0247688D01*
X0052194Y0247688D01*
X0052194Y0243526D01*
X0052194Y0243526D01*
X0055568Y0243526D01*
X0055568Y0240927D01*
X0055446Y0240469D01*
X0055209Y0240059D01*
X0054874Y0239723D01*
X0054463Y0239486D01*
X0054005Y0239364D01*
X0052194Y0239364D01*
X0052194Y0243526D01*
X0052194Y0243526D01*
X0052194Y0243526D01*
X0052194Y0247688D01*
X0050382Y0247688D01*
X0049924Y0247566D01*
X0049514Y0247329D01*
X0049179Y0246993D01*
X0048942Y0246583D01*
X0048819Y0246125D01*
X0048819Y0243526D01*
X0052194Y0243526D01*
X0052194Y0239364D01*
X0052194Y0239488D02*
X0052194Y0239488D01*
X0052194Y0241087D02*
X0052194Y0241087D01*
X0052194Y0242685D02*
X0052194Y0242685D01*
X0052194Y0243526D02*
X0052194Y0243526D01*
X0052194Y0244284D02*
X0052194Y0244284D01*
X0052194Y0245882D02*
X0052194Y0245882D01*
X0052194Y0247481D02*
X0052194Y0247481D01*
X0054610Y0247481D02*
X0058947Y0247481D01*
X0058851Y0247123D02*
X0059134Y0248177D01*
X0059551Y0249186D01*
X0060097Y0250131D01*
X0060762Y0250997D01*
X0061534Y0251769D01*
X0062400Y0252433D01*
X0063345Y0252979D01*
X0064354Y0253397D01*
X0065408Y0253680D01*
X0066236Y0253789D01*
X0066236Y0246295D01*
X0067836Y0246295D01*
X0067836Y0253789D01*
X0068664Y0253680D01*
X0069719Y0253397D01*
X0070727Y0252979D01*
X0071673Y0252433D01*
X0072539Y0251769D01*
X0073311Y0250997D01*
X0073975Y0250131D01*
X0074521Y0249186D01*
X0074939Y0248177D01*
X0075221Y0247123D01*
X0075330Y0246294D01*
X0067836Y0246294D01*
X0067836Y0244694D01*
X0067836Y0237200D01*
X0068664Y0237309D01*
X0069719Y0237592D01*
X0070472Y0237904D01*
X0070472Y0237227D01*
X0074635Y0237227D01*
X0078797Y0237227D01*
X0078797Y0239039D01*
X0078674Y0239496D01*
X0078437Y0239907D01*
X0078102Y0240242D01*
X0077692Y0240479D01*
X0077234Y0240602D01*
X0074635Y0240602D01*
X0074635Y0237227D01*
X0074635Y0237227D01*
X0074635Y0237227D01*
X0078797Y0237227D01*
X0078797Y0235415D01*
X0078674Y0234957D01*
X0078437Y0234547D01*
X0078102Y0234212D01*
X0077692Y0233975D01*
X0077234Y0233852D01*
X0074635Y0233852D01*
X0074635Y0237227D01*
X0074635Y0240602D01*
X0073778Y0240602D01*
X0073975Y0240858D01*
X0074521Y0241803D01*
X0074939Y0242812D01*
X0075221Y0243866D01*
X0075330Y0244694D01*
X0067836Y0244694D01*
X0066236Y0244694D01*
X0066236Y0237200D01*
X0065408Y0237309D01*
X0064354Y0237592D01*
X0063345Y0238010D01*
X0062400Y0238556D01*
X0061534Y0239220D01*
X0060762Y0239992D01*
X0060097Y0240858D01*
X0059551Y0241803D01*
X0059134Y0242812D01*
X0058851Y0243866D01*
X0058742Y0244694D01*
X0066236Y0244694D01*
X0066236Y0246294D01*
X0058742Y0246294D01*
X0058851Y0247123D01*
X0059507Y0249079D02*
X0022833Y0249079D01*
X0022789Y0249186D02*
X0022243Y0250131D01*
X0021578Y0250997D01*
X0020806Y0251769D01*
X0019940Y0252433D01*
X0018995Y0252979D01*
X0017986Y0253397D01*
X0016932Y0253680D01*
X0016104Y0253789D01*
X0016104Y0246295D01*
X0014504Y0246295D01*
X0014504Y0253789D01*
X0013676Y0253680D01*
X0012621Y0253397D01*
X0011613Y0252979D01*
X0010667Y0252433D01*
X0009801Y0251769D01*
X0009030Y0250997D01*
X0008365Y0250131D01*
X0007819Y0249186D01*
X0007401Y0248177D01*
X0007119Y0247123D01*
X0007010Y0246294D01*
X0014504Y0246294D01*
X0014504Y0244694D01*
X0016104Y0244694D01*
X0016104Y0237200D01*
X0016932Y0237309D01*
X0017986Y0237592D01*
X0018995Y0238010D01*
X0019940Y0238556D01*
X0020806Y0239220D01*
X0021578Y0239992D01*
X0022243Y0240858D01*
X0022789Y0241803D01*
X0023206Y0242812D01*
X0023489Y0243866D01*
X0023598Y0244694D01*
X0016104Y0244694D01*
X0016104Y0246294D01*
X0023598Y0246294D01*
X0023489Y0247123D01*
X0023206Y0248177D01*
X0022789Y0249186D01*
X0021823Y0250678D02*
X0060517Y0250678D01*
X0062195Y0252276D02*
X0020145Y0252276D01*
X0018015Y0255473D02*
X0084010Y0255473D01*
X0078676Y0239488D02*
X0098425Y0239488D01*
X0098425Y0237890D02*
X0078797Y0237890D01*
X0078797Y0236291D02*
X0098425Y0236291D01*
X0098425Y0234693D02*
X0078522Y0234693D01*
X0077597Y0233094D02*
X0098425Y0233094D01*
X0098425Y0231496D02*
X0078397Y0231496D01*
X0078397Y0229897D02*
X0098425Y0229897D01*
X0098425Y0228299D02*
X0078397Y0228299D01*
X0078397Y0226700D02*
X0098425Y0226700D01*
X0098425Y0225102D02*
X0078397Y0225102D01*
X0074635Y0233852D02*
X0074635Y0237227D01*
X0074635Y0237227D01*
X0074635Y0237227D01*
X0070472Y0237227D01*
X0070472Y0235415D01*
X0070595Y0234957D01*
X0070832Y0234547D01*
X0071167Y0234212D01*
X0071578Y0233975D01*
X0072035Y0233852D01*
X0074635Y0233852D01*
X0074635Y0234693D02*
X0074635Y0234693D01*
X0074635Y0236291D02*
X0074635Y0236291D01*
X0074635Y0237890D02*
X0074635Y0237890D01*
X0074635Y0239488D02*
X0074635Y0239488D01*
X0074107Y0241087D02*
X0098393Y0241087D01*
X0098261Y0242685D02*
X0074886Y0242685D01*
X0075276Y0244284D02*
X0097832Y0244284D01*
X0097404Y0245882D02*
X0067836Y0245882D01*
X0067836Y0244284D02*
X0066236Y0244284D01*
X0066236Y0245882D02*
X0055568Y0245882D01*
X0055568Y0244284D02*
X0058796Y0244284D01*
X0059186Y0242685D02*
X0055568Y0242685D01*
X0055568Y0241087D02*
X0059965Y0241087D01*
X0059117Y0236291D02*
X0070472Y0236291D01*
X0070438Y0237890D02*
X0070472Y0237890D01*
X0070748Y0234693D02*
X0059361Y0234693D01*
X0059007Y0233094D02*
X0071672Y0233094D01*
X0070872Y0231496D02*
X0057858Y0231496D01*
X0058123Y0237890D02*
X0063634Y0237890D01*
X0066236Y0237890D02*
X0067836Y0237890D01*
X0067836Y0239488D02*
X0066236Y0239488D01*
X0066236Y0241087D02*
X0067836Y0241087D01*
X0067836Y0242685D02*
X0066236Y0242685D01*
X0066236Y0247481D02*
X0067836Y0247481D01*
X0067836Y0249079D02*
X0066236Y0249079D01*
X0066236Y0250678D02*
X0067836Y0250678D01*
X0067836Y0252276D02*
X0066236Y0252276D01*
X0061265Y0239488D02*
X0054467Y0239488D01*
X0049921Y0239488D02*
X0047007Y0239488D01*
X0048082Y0241087D02*
X0048819Y0241087D01*
X0048819Y0242685D02*
X0048082Y0242685D01*
X0048082Y0244284D02*
X0048819Y0244284D01*
X0048819Y0245882D02*
X0048082Y0245882D01*
X0049778Y0247481D02*
X0032563Y0247481D01*
X0032416Y0247566D02*
X0031958Y0247688D01*
X0030147Y0247688D01*
X0030147Y0243526D01*
X0033521Y0243526D01*
X0033521Y0246125D01*
X0033399Y0246583D01*
X0033162Y0246993D01*
X0032826Y0247329D01*
X0032416Y0247566D01*
X0033521Y0245882D02*
X0034258Y0245882D01*
X0034258Y0244284D02*
X0033521Y0244284D01*
X0033521Y0243526D02*
X0030147Y0243526D01*
X0030147Y0243526D01*
X0030146Y0243526D01*
X0026772Y0243526D01*
X0026772Y0240927D01*
X0026894Y0240469D01*
X0027131Y0240059D01*
X0027466Y0239723D01*
X0027617Y0239636D01*
X0027496Y0239636D01*
X0027496Y0234931D01*
X0027285Y0234931D01*
X0027285Y0239636D01*
X0027012Y0239636D01*
X0026264Y0239518D01*
X0025544Y0239284D01*
X0024869Y0238940D01*
X0024256Y0238495D01*
X0023721Y0237959D01*
X0023276Y0237347D01*
X0022932Y0236672D01*
X0022698Y0235952D01*
X0022580Y0235204D01*
X0022580Y0234931D01*
X0027285Y0234931D01*
X0027285Y0234720D01*
X0022580Y0234720D01*
X0022580Y0234447D01*
X0022698Y0233699D01*
X0022932Y0232978D01*
X0023276Y0232304D01*
X0023721Y0231691D01*
X0024256Y0231156D01*
X0024869Y0230710D01*
X0025544Y0230367D01*
X0026264Y0230133D01*
X0027012Y0230014D01*
X0027285Y0230014D01*
X0027285Y0234720D01*
X0027496Y0234720D01*
X0027496Y0234931D01*
X0032202Y0234931D01*
X0032202Y0235204D01*
X0032083Y0235952D01*
X0031849Y0236672D01*
X0031505Y0237347D01*
X0031060Y0237959D01*
X0030525Y0238495D01*
X0029912Y0238940D01*
X0029237Y0239284D01*
X0028991Y0239364D01*
X0030146Y0239364D01*
X0030146Y0243526D01*
X0030146Y0243526D01*
X0026772Y0243526D01*
X0026772Y0246125D01*
X0026894Y0246583D01*
X0027131Y0246993D01*
X0027466Y0247329D01*
X0027877Y0247566D01*
X0028335Y0247688D01*
X0030146Y0247688D01*
X0030146Y0243526D01*
X0030147Y0243526D01*
X0030147Y0239364D01*
X0031958Y0239364D01*
X0032416Y0239486D01*
X0032826Y0239723D01*
X0033162Y0240059D01*
X0033399Y0240469D01*
X0033521Y0240927D01*
X0033521Y0243526D01*
X0033521Y0242685D02*
X0034258Y0242685D01*
X0034258Y0241087D02*
X0033521Y0241087D01*
X0032419Y0239488D02*
X0035333Y0239488D01*
X0034060Y0237890D02*
X0031111Y0237890D01*
X0031973Y0236291D02*
X0033066Y0236291D01*
X0032822Y0234693D02*
X0032202Y0234693D01*
X0032202Y0234720D02*
X0027496Y0234720D01*
X0027496Y0230014D01*
X0027769Y0230014D01*
X0028517Y0230133D01*
X0029237Y0230367D01*
X0029912Y0230710D01*
X0030525Y0231156D01*
X0031060Y0231691D01*
X0031505Y0232304D01*
X0031849Y0232978D01*
X0032083Y0233699D01*
X0032202Y0234447D01*
X0032202Y0234720D01*
X0031887Y0233094D02*
X0033176Y0233094D01*
X0033471Y0231496D02*
X0030865Y0231496D01*
X0033471Y0229897D02*
X0010368Y0229897D01*
X0012836Y0228299D02*
X0014386Y0228299D01*
X0014386Y0226700D02*
X0012836Y0226700D01*
X0012836Y0225102D02*
X0014386Y0225102D01*
X0014386Y0223503D02*
X0012836Y0223503D01*
X0012836Y0221905D02*
X0005968Y0221905D01*
X0005968Y0223503D02*
X0008661Y0223503D01*
X0008661Y0220306D02*
X0005968Y0220306D01*
X0005968Y0218708D02*
X0008661Y0218708D01*
X0008860Y0217109D02*
X0005968Y0217109D01*
X0005968Y0215511D02*
X0035333Y0215511D01*
X0035333Y0217109D02*
X0018362Y0217109D01*
X0018561Y0218708D02*
X0035333Y0218708D01*
X0033471Y0220306D02*
X0018561Y0220306D01*
X0018561Y0223503D02*
X0033471Y0223503D01*
X0033471Y0221905D02*
X0014386Y0221905D01*
X0014386Y0220306D02*
X0012836Y0220306D01*
X0012836Y0218708D02*
X0014386Y0218708D01*
X0014386Y0217109D02*
X0012836Y0217109D01*
X0013449Y0209117D02*
X0014806Y0209117D01*
X0016201Y0205920D02*
X0012361Y0205920D01*
X0012930Y0207518D02*
X0031883Y0207518D01*
X0032029Y0209117D02*
X0016353Y0209117D01*
X0018268Y0210715D02*
X0033105Y0210715D01*
X0035265Y0208093D02*
X0033296Y0203762D01*
X0025422Y0203762D01*
X0025422Y0204156D01*
X0017548Y0204156D01*
X0017548Y0199825D01*
X0015348Y0202723D02*
X0013427Y0202723D01*
X0013300Y0204321D02*
X0015348Y0204321D01*
X0014426Y0201124D02*
X0012442Y0201124D01*
X0014167Y0199526D02*
X0007637Y0199526D01*
X0007637Y0201124D02*
X0008481Y0201124D01*
X0007637Y0197927D02*
X0014675Y0197927D01*
X0018161Y0188476D02*
X0026209Y0188476D01*
X0027034Y0188476D01*
X0027667Y0187844D01*
X0028765Y0187389D01*
X0029590Y0187389D01*
X0029428Y0187226D01*
X0029428Y0186888D01*
X0029276Y0186585D01*
X0029428Y0186131D01*
X0029428Y0166922D01*
X0019513Y0166922D01*
X0019104Y0167911D01*
X0017669Y0169346D01*
X0016077Y0170005D01*
X0016691Y0170318D01*
X0017391Y0170827D01*
X0018003Y0171439D01*
X0018512Y0172139D01*
X0018905Y0172911D01*
X0019172Y0173734D01*
X0019308Y0174589D01*
X0019308Y0174822D01*
X0014008Y0174822D01*
X0014008Y0175222D01*
X0019308Y0175222D01*
X0019308Y0175455D01*
X0019172Y0176310D01*
X0018905Y0177133D01*
X0018512Y0177905D01*
X0018003Y0178605D01*
X0017391Y0179217D01*
X0016691Y0179726D01*
X0015919Y0180119D01*
X0015096Y0180387D01*
X0015051Y0180394D01*
X0017341Y0180394D01*
X0018161Y0181214D01*
X0018161Y0188476D01*
X0018161Y0188336D02*
X0027175Y0188336D01*
X0029352Y0186738D02*
X0018161Y0186738D01*
X0018161Y0185139D02*
X0029428Y0185139D01*
X0029428Y0183540D02*
X0018161Y0183540D01*
X0018161Y0181942D02*
X0029428Y0181942D01*
X0029428Y0180343D02*
X0015229Y0180343D01*
X0017863Y0178745D02*
X0029428Y0178745D01*
X0029428Y0177146D02*
X0018898Y0177146D01*
X0019293Y0175548D02*
X0029428Y0175548D01*
X0029428Y0173949D02*
X0019207Y0173949D01*
X0018620Y0172351D02*
X0029428Y0172351D01*
X0029428Y0170752D02*
X0017288Y0170752D01*
X0017861Y0169154D02*
X0029428Y0169154D01*
X0029428Y0167555D02*
X0019251Y0167555D01*
X0019363Y0162760D02*
X0039270Y0162760D01*
X0039270Y0164358D02*
X0033228Y0164358D01*
X0033228Y0165957D02*
X0039270Y0165957D01*
X0039270Y0167555D02*
X0033228Y0167555D01*
X0033228Y0169154D02*
X0039270Y0169154D01*
X0039270Y0170752D02*
X0033228Y0170752D01*
X0033228Y0172351D02*
X0039270Y0172351D01*
X0039270Y0173949D02*
X0033228Y0173949D01*
X0033228Y0175548D02*
X0039270Y0175548D01*
X0039270Y0177146D02*
X0033228Y0177146D01*
X0033228Y0178745D02*
X0039270Y0178745D01*
X0039270Y0180343D02*
X0033228Y0180343D01*
X0033228Y0181942D02*
X0039270Y0181942D01*
X0039270Y0183540D02*
X0033228Y0183540D01*
X0033228Y0185139D02*
X0039270Y0185139D01*
X0039270Y0186738D02*
X0033601Y0186738D01*
X0034400Y0188336D02*
X0039270Y0188336D01*
X0039270Y0189935D02*
X0035199Y0189935D01*
X0035473Y0191533D02*
X0039270Y0191533D01*
X0039270Y0193132D02*
X0035890Y0193132D01*
X0037058Y0194730D02*
X0039270Y0194730D01*
X0039270Y0196329D02*
X0037058Y0196329D01*
X0037058Y0197927D02*
X0039270Y0197927D01*
X0039270Y0199526D02*
X0036363Y0199526D01*
X0036575Y0201124D02*
X0039270Y0201124D01*
X0037820Y0212314D02*
X0018567Y0212314D01*
X0017922Y0213912D02*
X0054748Y0213912D01*
X0055729Y0218708D02*
X0039133Y0218708D01*
X0040995Y0220306D02*
X0041345Y0220306D01*
X0041345Y0221905D02*
X0040995Y0221905D01*
X0040995Y0223503D02*
X0041345Y0223503D01*
X0042026Y0225102D02*
X0040314Y0225102D01*
X0040498Y0226700D02*
X0041843Y0226700D01*
X0041345Y0228299D02*
X0040995Y0228299D01*
X0040995Y0229897D02*
X0041345Y0229897D01*
X0041345Y0231496D02*
X0040995Y0231496D01*
X0040407Y0237890D02*
X0041934Y0237890D01*
X0043207Y0239488D02*
X0039133Y0239488D01*
X0040208Y0241087D02*
X0042132Y0241087D01*
X0042132Y0242685D02*
X0040208Y0242685D01*
X0040208Y0244284D02*
X0042132Y0244284D01*
X0042132Y0245882D02*
X0040208Y0245882D01*
X0033471Y0228299D02*
X0017070Y0228299D01*
X0018561Y0226700D02*
X0033969Y0226700D01*
X0034152Y0225102D02*
X0018561Y0225102D01*
X0022894Y0233094D02*
X0003600Y0233094D01*
X0003600Y0231496D02*
X0023916Y0231496D01*
X0022580Y0234693D02*
X0003600Y0234693D01*
X0003600Y0236291D02*
X0022808Y0236291D01*
X0023670Y0237890D02*
X0018706Y0237890D01*
X0021075Y0239488D02*
X0026174Y0239488D01*
X0027285Y0239488D02*
X0027496Y0239488D01*
X0027496Y0237890D02*
X0027285Y0237890D01*
X0027285Y0236291D02*
X0027496Y0236291D01*
X0027496Y0234693D02*
X0027285Y0234693D01*
X0027285Y0233094D02*
X0027496Y0233094D01*
X0027496Y0231496D02*
X0027285Y0231496D01*
X0030146Y0239488D02*
X0030147Y0239488D01*
X0030146Y0241087D02*
X0030147Y0241087D01*
X0030146Y0242685D02*
X0030147Y0242685D01*
X0030146Y0244284D02*
X0030147Y0244284D01*
X0030146Y0245882D02*
X0030147Y0245882D01*
X0030146Y0247481D02*
X0030147Y0247481D01*
X0027730Y0247481D02*
X0023393Y0247481D01*
X0023544Y0244284D02*
X0026772Y0244284D01*
X0026772Y0245882D02*
X0016104Y0245882D01*
X0016104Y0244284D02*
X0014504Y0244284D01*
X0014504Y0244694D02*
X0014504Y0237200D01*
X0013676Y0237309D01*
X0012621Y0237592D01*
X0011613Y0238010D01*
X0010667Y0238556D01*
X0009801Y0239220D01*
X0009030Y0239992D01*
X0008365Y0240858D01*
X0007819Y0241803D01*
X0007401Y0242812D01*
X0007119Y0243866D01*
X0007010Y0244694D01*
X0014504Y0244694D01*
X0014504Y0245882D02*
X0004621Y0245882D01*
X0004193Y0244284D02*
X0007064Y0244284D01*
X0007454Y0242685D02*
X0003764Y0242685D01*
X0003632Y0241087D02*
X0008233Y0241087D01*
X0009533Y0239488D02*
X0003600Y0239488D01*
X0003600Y0237890D02*
X0011902Y0237890D01*
X0014504Y0237890D02*
X0016104Y0237890D01*
X0016104Y0239488D02*
X0014504Y0239488D01*
X0014504Y0241087D02*
X0016104Y0241087D01*
X0016104Y0242685D02*
X0014504Y0242685D01*
X0014504Y0247481D02*
X0016104Y0247481D01*
X0016104Y0249079D02*
X0014504Y0249079D01*
X0014504Y0250678D02*
X0016104Y0250678D01*
X0016104Y0252276D02*
X0014504Y0252276D01*
X0011941Y0253875D02*
X0090084Y0253875D01*
X0092744Y0252276D02*
X0071877Y0252276D01*
X0073555Y0250678D02*
X0094342Y0250678D01*
X0095689Y0249079D02*
X0074565Y0249079D01*
X0075125Y0247481D02*
X0096612Y0247481D01*
X0077577Y0189808D02*
X0078397Y0188988D01*
X0078397Y0184678D01*
X0077577Y0183858D01*
X0077307Y0183858D01*
X0077622Y0183097D01*
X0077622Y0181908D01*
X0077167Y0180810D01*
X0076327Y0179970D01*
X0075229Y0179515D01*
X0074040Y0179515D01*
X0072942Y0179970D01*
X0072102Y0180810D01*
X0071647Y0181908D01*
X0071647Y0183097D01*
X0071963Y0183858D01*
X0071693Y0183858D01*
X0070872Y0184678D01*
X0070872Y0188988D01*
X0071693Y0189808D01*
X0077577Y0189808D01*
X0078397Y0188336D02*
X0098425Y0188336D01*
X0098425Y0186738D02*
X0078397Y0186738D01*
X0078397Y0185139D02*
X0098425Y0185139D01*
X0098425Y0183540D02*
X0077438Y0183540D01*
X0077622Y0181942D02*
X0098425Y0181942D01*
X0098425Y0180343D02*
X0076701Y0180343D01*
X0077234Y0177609D02*
X0074635Y0177609D01*
X0074635Y0174235D01*
X0074635Y0174235D01*
X0078797Y0174235D01*
X0078797Y0176046D01*
X0078674Y0176504D01*
X0078437Y0176915D01*
X0078102Y0177250D01*
X0077692Y0177487D01*
X0077234Y0177609D01*
X0078205Y0177146D02*
X0098425Y0177146D01*
X0098425Y0175548D02*
X0078797Y0175548D01*
X0078797Y0174235D02*
X0074635Y0174235D01*
X0074635Y0174235D01*
X0074635Y0177609D01*
X0072035Y0177609D01*
X0071578Y0177487D01*
X0071167Y0177250D01*
X0070832Y0176915D01*
X0070595Y0176504D01*
X0070472Y0176046D01*
X0070472Y0174235D01*
X0074635Y0174235D01*
X0074635Y0170860D01*
X0077234Y0170860D01*
X0077692Y0170983D01*
X0078102Y0171219D01*
X0078437Y0171555D01*
X0078674Y0171965D01*
X0078797Y0172423D01*
X0078797Y0174235D01*
X0078797Y0173949D02*
X0098425Y0173949D01*
X0098425Y0172351D02*
X0078778Y0172351D01*
X0077577Y0170123D02*
X0078397Y0169303D01*
X0078397Y0164993D01*
X0078189Y0164786D01*
X0078397Y0164578D01*
X0078397Y0160269D01*
X0077577Y0159449D01*
X0071693Y0159449D01*
X0070872Y0160269D01*
X0070872Y0164578D01*
X0071080Y0164786D01*
X0070872Y0164993D01*
X0070872Y0169303D01*
X0071693Y0170123D01*
X0077577Y0170123D01*
X0078397Y0169154D02*
X0098425Y0169154D01*
X0098425Y0170752D02*
X0065805Y0170752D01*
X0065805Y0172351D02*
X0070492Y0172351D01*
X0070472Y0172423D02*
X0070595Y0171965D01*
X0070832Y0171555D01*
X0071167Y0171219D01*
X0071578Y0170983D01*
X0072035Y0170860D01*
X0074635Y0170860D01*
X0074635Y0174235D01*
X0074635Y0174235D01*
X0074635Y0174235D01*
X0070472Y0174235D01*
X0070472Y0172423D01*
X0070472Y0173949D02*
X0065805Y0173949D01*
X0065727Y0175548D02*
X0070472Y0175548D01*
X0071064Y0177146D02*
X0052031Y0177146D01*
X0051843Y0175548D02*
X0052369Y0175548D01*
X0051121Y0178745D02*
X0053999Y0178745D01*
X0055343Y0172660D02*
X0049044Y0172660D01*
X0049044Y0176597D01*
X0049399Y0186738D02*
X0070872Y0186738D01*
X0070872Y0188336D02*
X0050379Y0188336D01*
X0045235Y0202723D02*
X0045039Y0202723D01*
X0055343Y0172660D02*
X0055343Y0164786D01*
X0056524Y0164786D01*
X0060461Y0156912D01*
X0058288Y0153169D02*
X0055575Y0153169D01*
X0056350Y0154767D02*
X0057487Y0154767D01*
X0057487Y0156366D02*
X0056350Y0156366D01*
X0056350Y0157964D02*
X0057475Y0157964D01*
X0056676Y0159563D02*
X0056350Y0159563D01*
X0058465Y0165957D02*
X0059055Y0165957D01*
X0059101Y0167555D02*
X0058318Y0167555D01*
X0057754Y0169154D02*
X0059453Y0169154D01*
X0059055Y0170752D02*
X0058318Y0170752D01*
X0058318Y0172351D02*
X0059055Y0172351D01*
X0059055Y0173949D02*
X0058318Y0173949D01*
X0058318Y0175548D02*
X0059133Y0175548D01*
X0059837Y0178745D02*
X0098425Y0178745D01*
X0098425Y0167555D02*
X0078397Y0167555D01*
X0078397Y0165957D02*
X0098425Y0165957D01*
X0098425Y0164358D02*
X0078397Y0164358D01*
X0078397Y0162760D02*
X0098425Y0162760D01*
X0098425Y0161161D02*
X0078397Y0161161D01*
X0077691Y0159563D02*
X0098425Y0159563D01*
X0098425Y0157964D02*
X0077924Y0157964D01*
X0077577Y0158312D02*
X0078397Y0157492D01*
X0078397Y0153182D01*
X0077577Y0152362D01*
X0077307Y0152362D01*
X0077622Y0151601D01*
X0077622Y0150412D01*
X0077167Y0149314D01*
X0076327Y0148474D01*
X0075229Y0148019D01*
X0074040Y0148019D01*
X0072942Y0148474D01*
X0072102Y0149314D01*
X0071647Y0150412D01*
X0071647Y0151601D01*
X0071963Y0152362D01*
X0071693Y0152362D01*
X0070872Y0153182D01*
X0070872Y0157492D01*
X0071693Y0158312D01*
X0077577Y0158312D01*
X0078397Y0156366D02*
X0098425Y0156366D01*
X0098425Y0154767D02*
X0078397Y0154767D01*
X0078383Y0153169D02*
X0098425Y0153169D01*
X0098425Y0151570D02*
X0077622Y0151570D01*
X0077440Y0149972D02*
X0098425Y0149972D01*
X0098425Y0148373D02*
X0076084Y0148373D01*
X0077234Y0146113D02*
X0074635Y0146113D01*
X0074635Y0142739D01*
X0074635Y0142739D01*
X0078797Y0142739D01*
X0078797Y0144550D01*
X0078674Y0145008D01*
X0078437Y0145419D01*
X0078102Y0145754D01*
X0077692Y0145991D01*
X0077234Y0146113D01*
X0078577Y0145176D02*
X0098425Y0145176D01*
X0098425Y0143578D02*
X0078797Y0143578D01*
X0078797Y0142739D02*
X0074635Y0142739D01*
X0074635Y0142739D01*
X0074635Y0146113D01*
X0072035Y0146113D01*
X0071578Y0145991D01*
X0071167Y0145754D01*
X0070832Y0145419D01*
X0070595Y0145008D01*
X0070472Y0144550D01*
X0070472Y0142739D01*
X0074635Y0142739D01*
X0074635Y0142739D01*
X0074635Y0142738D02*
X0074635Y0139364D01*
X0077234Y0139364D01*
X0077692Y0139486D01*
X0078102Y0139723D01*
X0078437Y0140059D01*
X0078674Y0140469D01*
X0078797Y0140927D01*
X0078797Y0142739D01*
X0078797Y0141979D02*
X0098425Y0141979D01*
X0098425Y0140381D02*
X0078623Y0140381D01*
X0074635Y0140381D02*
X0074635Y0140381D01*
X0074635Y0139364D02*
X0074635Y0142738D01*
X0074635Y0142738D01*
X0074635Y0142739D02*
X0070472Y0142739D01*
X0070472Y0140927D01*
X0070595Y0140469D01*
X0070832Y0140059D01*
X0071167Y0139723D01*
X0071578Y0139486D01*
X0072035Y0139364D01*
X0074635Y0139364D01*
X0074635Y0141979D02*
X0074635Y0141979D01*
X0074635Y0143578D02*
X0074635Y0143578D01*
X0074635Y0145176D02*
X0074635Y0145176D01*
X0073185Y0148373D02*
X0063836Y0148373D01*
X0063836Y0149038D02*
X0060462Y0149038D01*
X0063836Y0149038D01*
X0063836Y0149972D02*
X0071830Y0149972D01*
X0071647Y0151570D02*
X0063836Y0151570D01*
X0062635Y0153169D02*
X0070886Y0153169D01*
X0070872Y0154767D02*
X0063436Y0154767D01*
X0063436Y0156366D02*
X0070872Y0156366D01*
X0071345Y0157964D02*
X0063436Y0157964D01*
X0063436Y0159563D02*
X0071579Y0159563D01*
X0070872Y0161161D02*
X0065288Y0161161D01*
X0065805Y0162760D02*
X0070872Y0162760D01*
X0070872Y0164358D02*
X0065805Y0164358D01*
X0065805Y0165957D02*
X0070872Y0165957D01*
X0070872Y0167555D02*
X0065759Y0167555D01*
X0065407Y0169154D02*
X0070872Y0169154D01*
X0074635Y0172351D02*
X0074635Y0172351D01*
X0074635Y0173949D02*
X0074635Y0173949D01*
X0074635Y0175548D02*
X0074635Y0175548D01*
X0074635Y0177146D02*
X0074635Y0177146D01*
X0072569Y0180343D02*
X0060299Y0180343D01*
X0059995Y0181942D02*
X0071647Y0181942D01*
X0071831Y0183540D02*
X0058918Y0183540D01*
X0058918Y0185139D02*
X0070872Y0185139D01*
X0062430Y0175548D02*
X0062430Y0175548D01*
X0062430Y0173949D02*
X0062430Y0173949D01*
X0062430Y0172351D02*
X0062430Y0172351D01*
X0062430Y0170752D02*
X0062430Y0170752D01*
X0062430Y0169154D02*
X0062430Y0169154D01*
X0062430Y0167555D02*
X0062430Y0167555D01*
X0062430Y0165957D02*
X0062430Y0165957D01*
X0057087Y0151570D02*
X0056350Y0151570D01*
X0056350Y0149972D02*
X0057087Y0149972D01*
X0057087Y0148373D02*
X0056350Y0148373D01*
X0056350Y0146775D02*
X0057087Y0146775D01*
X0056176Y0145176D02*
X0045039Y0145176D01*
X0047076Y0149038D02*
X0052981Y0149038D01*
X0052981Y0156912D01*
X0053375Y0156912D01*
X0053375Y0149038D01*
X0054381Y0143578D02*
X0055118Y0143578D01*
X0055118Y0141979D02*
X0054381Y0141979D01*
X0054381Y0140381D02*
X0055118Y0140381D01*
X0055118Y0138782D02*
X0054381Y0138782D01*
X0060462Y0149038D02*
X0060462Y0149038D01*
X0063039Y0145176D02*
X0070692Y0145176D01*
X0070472Y0143578D02*
X0061868Y0143578D01*
X0061868Y0141979D02*
X0070472Y0141979D01*
X0070646Y0140381D02*
X0061868Y0140381D01*
X0063836Y0146775D02*
X0098425Y0146775D01*
X0074635Y0113206D02*
X0074635Y0113206D01*
X0074635Y0111607D02*
X0074635Y0111607D01*
X0074635Y0110009D02*
X0074635Y0110009D01*
X0074635Y0108410D02*
X0074635Y0108410D01*
X0062892Y0108410D02*
X0045039Y0108410D01*
X0045039Y0106812D02*
X0062892Y0106812D01*
X0062892Y0105213D02*
X0045039Y0105213D01*
X0045039Y0103615D02*
X0062892Y0103615D01*
X0062892Y0102016D02*
X0048439Y0102016D01*
X0048869Y0100418D02*
X0062892Y0100418D01*
X0062892Y0098819D02*
X0048869Y0098819D01*
X0048813Y0097221D02*
X0062892Y0097221D01*
X0062892Y0110009D02*
X0045039Y0110009D01*
X0045039Y0111607D02*
X0062892Y0111607D01*
X0062892Y0113206D02*
X0045039Y0113206D01*
X0039270Y0113206D02*
X0027322Y0113206D01*
X0027322Y0114805D02*
X0039270Y0114805D01*
X0039270Y0116403D02*
X0027322Y0116403D01*
X0027322Y0118002D02*
X0039270Y0118002D01*
X0039270Y0119600D02*
X0027322Y0119600D01*
X0027322Y0121199D02*
X0039270Y0121199D01*
X0039270Y0122797D02*
X0027322Y0122797D01*
X0027322Y0124396D02*
X0039270Y0124396D01*
X0039270Y0125994D02*
X0027322Y0125994D01*
X0027322Y0127593D02*
X0039270Y0127593D01*
X0039270Y0129191D02*
X0027322Y0129191D01*
X0027322Y0130790D02*
X0039270Y0130790D01*
X0039270Y0132388D02*
X0027322Y0132388D01*
X0027322Y0133987D02*
X0039270Y0133987D01*
X0039270Y0135585D02*
X0027322Y0135585D01*
X0027635Y0137184D02*
X0039270Y0137184D01*
X0039270Y0138782D02*
X0028409Y0138782D01*
X0028165Y0140381D02*
X0039270Y0140381D01*
X0039270Y0141979D02*
X0026508Y0141979D01*
X0024337Y0141979D02*
X0018950Y0141979D01*
X0019702Y0143578D02*
X0039270Y0143578D01*
X0039270Y0145176D02*
X0019880Y0145176D01*
X0019575Y0146775D02*
X0039270Y0146775D01*
X0039270Y0148373D02*
X0018642Y0148373D01*
X0017541Y0151570D02*
X0039270Y0151570D01*
X0039270Y0149972D02*
X0016158Y0149972D01*
X0018051Y0157964D02*
X0039270Y0157964D01*
X0039270Y0156366D02*
X0018744Y0156366D01*
X0018880Y0154767D02*
X0039270Y0154767D01*
X0039270Y0153169D02*
X0018533Y0153169D01*
X0016145Y0159563D02*
X0039270Y0159563D01*
X0039270Y0161161D02*
X0018132Y0161161D01*
X0016902Y0140381D02*
X0022680Y0140381D01*
X0022435Y0138782D02*
X0017233Y0138782D01*
X0018405Y0137184D02*
X0023209Y0137184D01*
X0023522Y0135585D02*
X0018880Y0135585D01*
X0018872Y0133987D02*
X0023522Y0133987D01*
X0023522Y0132388D02*
X0018209Y0132388D01*
X0016760Y0130790D02*
X0023522Y0130790D01*
X0023522Y0129191D02*
X0017824Y0129191D01*
X0019236Y0127593D02*
X0023522Y0127593D01*
X0023522Y0125994D02*
X0019880Y0125994D01*
X0019880Y0124396D02*
X0023522Y0124396D01*
X0023522Y0122797D02*
X0019379Y0122797D01*
X0018169Y0121199D02*
X0023522Y0121199D01*
X0023522Y0119600D02*
X0016055Y0119600D01*
X0018013Y0118002D02*
X0023522Y0118002D01*
X0023522Y0116403D02*
X0018728Y0116403D01*
X0018880Y0114805D02*
X0023522Y0114805D01*
X0023522Y0113206D02*
X0018548Y0113206D01*
X0017578Y0111607D02*
X0023522Y0111607D01*
X0023522Y0110009D02*
X0016068Y0110009D01*
X0013780Y0115022D02*
X0013780Y0115573D01*
X0003769Y0115573D01*
X0003769Y0227778D01*
X0007509Y0227975D01*
X0007215Y0247481D02*
X0005413Y0247481D01*
X0006336Y0249079D02*
X0007775Y0249079D01*
X0007683Y0250678D02*
X0008785Y0250678D01*
X0009281Y0252276D02*
X0010463Y0252276D01*
X0022375Y0241087D02*
X0026772Y0241087D01*
X0026772Y0242685D02*
X0023154Y0242685D01*
X0022143Y0201124D02*
X0020670Y0201124D01*
X0020929Y0199526D02*
X0022355Y0199526D01*
X0021660Y0197927D02*
X0020421Y0197927D01*
X0021660Y0196329D02*
X0007637Y0196329D01*
X0007637Y0194730D02*
X0021660Y0194730D01*
X0023522Y0193132D02*
X0007637Y0193132D01*
X0007637Y0191533D02*
X0009638Y0191533D01*
X0009061Y0189935D02*
X0007637Y0189935D01*
X0007637Y0188336D02*
X0009061Y0188336D01*
X0027322Y0193132D02*
X0028204Y0193132D01*
X0029184Y0194730D02*
X0029534Y0194730D01*
X0029534Y0196329D02*
X0029184Y0196329D01*
X0029184Y0197927D02*
X0029534Y0197927D01*
X0030229Y0199526D02*
X0028489Y0199526D01*
X0028701Y0201124D02*
X0030017Y0201124D01*
X0009012Y0113206D02*
X0003600Y0113206D01*
X0003600Y0111607D02*
X0009982Y0111607D01*
X0010956Y0108410D02*
X0003600Y0108410D01*
X0003600Y0106812D02*
X0010002Y0106812D01*
X0009680Y0105213D02*
X0003600Y0105213D01*
X0003600Y0103615D02*
X0009843Y0103615D01*
X0010573Y0102016D02*
X0003600Y0102016D01*
X0003600Y0100418D02*
X0009455Y0100418D01*
X0008280Y0098819D02*
X0003600Y0098819D01*
X0003600Y0097221D02*
X0008280Y0097221D01*
X0008280Y0095622D02*
X0003600Y0095622D01*
X0003600Y0094024D02*
X0008280Y0094024D01*
X0008280Y0092425D02*
X0003600Y0092425D01*
X0003600Y0090827D02*
X0008349Y0090827D01*
X0013580Y0090827D02*
X0013980Y0090827D01*
X0013980Y0092425D02*
X0013580Y0092425D01*
X0013580Y0094024D02*
X0013980Y0094024D01*
X0018106Y0100418D02*
X0035439Y0100418D01*
X0035439Y0098819D02*
X0019280Y0098819D01*
X0019280Y0097221D02*
X0035495Y0097221D01*
X0035870Y0102016D02*
X0018987Y0102016D01*
X0018604Y0108410D02*
X0023522Y0108410D01*
X0027322Y0108410D02*
X0039270Y0108410D01*
X0039270Y0106812D02*
X0027322Y0106812D01*
X0027322Y0105213D02*
X0039270Y0105213D01*
X0039270Y0103615D02*
X0026702Y0103615D01*
X0027322Y0110009D02*
X0039270Y0110009D01*
X0039270Y0111607D02*
X0027322Y0111607D01*
X0029753Y0090827D02*
X0029753Y0090827D01*
X0029753Y0089228D02*
X0029753Y0089228D01*
X0033128Y0089228D02*
X0033865Y0089228D01*
X0033865Y0087630D02*
X0033128Y0087630D01*
X0033128Y0086031D02*
X0033865Y0086031D01*
X0034504Y0084433D02*
X0032654Y0084433D01*
X0033545Y0082834D02*
X0031177Y0082834D01*
X0031972Y0081236D02*
X0032659Y0081236D01*
X0032468Y0079637D02*
X0032162Y0079637D01*
X0031825Y0078039D02*
X0032848Y0078039D01*
X0035905Y0073243D02*
X0046041Y0073243D01*
X0045669Y0071645D02*
X0036277Y0071645D01*
X0036043Y0070046D02*
X0045904Y0070046D01*
X0046895Y0068448D02*
X0035052Y0068448D01*
X0040073Y0076440D02*
X0041874Y0076440D01*
X0047836Y0084433D02*
X0049686Y0084433D01*
X0049213Y0086031D02*
X0048476Y0086031D01*
X0048476Y0087630D02*
X0049213Y0087630D01*
X0049213Y0089228D02*
X0048476Y0089228D01*
X0048869Y0090827D02*
X0049270Y0090827D01*
X0052587Y0090827D02*
X0052587Y0090827D01*
X0052587Y0089228D02*
X0052587Y0089228D01*
X0051262Y0082834D02*
X0048401Y0082834D01*
X0049287Y0081236D02*
X0050376Y0081236D01*
X0050184Y0079637D02*
X0049479Y0079637D01*
X0049099Y0078039D02*
X0050564Y0078039D01*
X0033865Y0090827D02*
X0033070Y0090827D01*
X0027378Y0079637D02*
X0027009Y0079637D01*
X0027009Y0078039D02*
X0027378Y0078039D01*
X0027378Y0076440D02*
X0027009Y0076440D01*
X0018151Y0076440D02*
X0016551Y0076440D01*
X0016551Y0074842D02*
X0018151Y0074842D01*
X0018151Y0073243D02*
X0016551Y0073243D01*
X0016551Y0078039D02*
X0018151Y0078039D01*
X0012112Y0065251D02*
X0009577Y0065251D01*
X0010655Y0066849D02*
X0007916Y0066849D01*
X0006471Y0068448D02*
X0009806Y0068448D01*
X0009339Y0070046D02*
X0005548Y0070046D01*
X0003600Y0110009D02*
X0012556Y0110009D01*
D22*
X0017548Y0199825D03*
X0007509Y0227975D03*
X0035265Y0208093D03*
X0047076Y0199825D03*
X0047076Y0189195D03*
X0056918Y0180534D03*
X0047076Y0149038D03*
X0060461Y0125416D03*
D23*
X0047076Y0141164D03*
D24*
X0056918Y0180534D02*
X0056918Y0184471D01*
X0047076Y0184471D01*
X0047076Y0189195D01*
M02*
