%
M48
M72
T01C0.0157
T02C0.0197
T03C0.0236
T04C0.0362
T05C0.0394
T06C0.0400
T07C0.0512
T08C0.0866
T09C0.0906
%
T01
X6086Y10967
X7463Y11951
X7030Y14707
X7463Y15101
X7070Y17857
X7463Y18250
X6145Y18329
X4904Y17660
X3290Y19313
X2936Y19038
X1912Y18664
X1046Y20337
X1046Y20927
X1558Y21203
X2345Y21990
X2936Y20809
X3920Y20416
X3979Y21006
X5456Y22227
X5692Y21597
X7463Y21400
X10889Y20927
X11400Y21203
X10889Y20337
X11755Y18664
X12778Y19038
X13133Y19313
X13763Y20416
X13822Y21006
X12778Y20809
X12188Y21990
X14747Y17660
X15987Y18329
X16912Y17857
X17306Y18250
X17306Y15101
X16873Y14707
X17306Y11951
X15928Y10967
X12778Y11360
X12385Y13920
X12778Y14510
X17306Y21400
X15534Y21597
X15298Y22227
X2936Y14510
X2542Y13920
X2936Y11360
T02
X4708Y14116
X14550Y14116
T03
X14550Y14904
X15889Y12542
X15534Y18053
X14550Y18920
X14550Y19983
X13369Y20809
X11597Y19983
X10593Y22797
X5692Y18053
X4708Y18920
X4708Y19983
X3526Y20809
X1755Y19983
X751Y22797
X4708Y14904
X6046Y12542
T04
X5495Y23483
X4511Y23483
X3723Y23483
X2739Y23483
X12582Y23483
X13566Y23483
X14353Y23483
X15337Y23483
T05
X15318Y7986
X14334Y7986
X13546Y7986
X12562Y7986
X5475Y7986
X4491Y7986
X3704Y7986
X2719Y7986
T06
X1378Y9502
X1478Y10502
X1378Y11502
X1478Y12502
X1378Y13502
X1478Y14502
X1378Y15502
X1478Y16502
X1381Y17502
X11223Y17502
X11321Y16502
X11221Y15502
X11321Y14502
X11221Y13502
X11321Y12502
X11221Y11502
X11321Y10502
X11221Y9502
T07
X13034Y7148
X14845Y7148
X5003Y7148
X3192Y7148
T08
X1735Y7148
X6460Y7148
X11578Y7148
X16302Y7148
T09
X16546Y24549
X11373Y24549
X6704Y24549
X1530Y24549
M30
