G75*
%MOIN*%
%OFA0B0*%
%FSLAX25Y25*%
%IPPOS*%
%LPD*%
%AMOC8*
5,1,8,0,0,1.08239X$1,22.5*
%
%ADD10R,0.08800X0.04800*%
%ADD11R,0.08661X0.14173*%
%ADD12R,0.07400X0.07400*%
%ADD13C,0.07400*%
%ADD14R,0.01969X0.04724*%
%ADD15R,0.04724X0.01969*%
%ADD16C,0.06022*%
%ADD17C,0.13055*%
%ADD18C,0.06337*%
%ADD19C,0.12661*%
%ADD20R,0.02756X0.16142*%
%ADD21R,0.03937X0.16142*%
%ADD22C,0.03175*%
%ADD23C,0.01000*%
%ADD24C,0.01600*%
%ADD25C,0.03962*%
%ADD26C,0.03569*%
D10*
X0053370Y0116316D03*
X0053370Y0125416D03*
X0053370Y0134516D03*
X0151795Y0134516D03*
X0151795Y0125416D03*
X0151795Y0116316D03*
D11*
X0127394Y0125416D03*
X0028969Y0125416D03*
D12*
X0013780Y0095022D03*
X0112206Y0095022D03*
D13*
X0113206Y0105022D03*
X0112206Y0115022D03*
X0113206Y0125022D03*
X0112206Y0135022D03*
X0113206Y0145022D03*
X0112206Y0155022D03*
X0113206Y0165022D03*
X0112233Y0175022D03*
X0014780Y0165022D03*
X0013808Y0175022D03*
X0013780Y0155022D03*
X0014780Y0145022D03*
X0013780Y0135022D03*
X0014780Y0125022D03*
X0013780Y0115022D03*
X0014780Y0105022D03*
D14*
X0030146Y0181518D03*
X0033296Y0181518D03*
X0036446Y0181518D03*
X0039595Y0181518D03*
X0042745Y0181518D03*
X0045894Y0181518D03*
X0049044Y0181518D03*
X0052194Y0181518D03*
X0052194Y0214983D03*
X0049044Y0214983D03*
X0045894Y0214983D03*
X0042745Y0214983D03*
X0039595Y0214983D03*
X0036446Y0214983D03*
X0033296Y0214983D03*
X0029950Y0214983D03*
X0128375Y0214983D03*
X0131721Y0214983D03*
X0134871Y0214983D03*
X0138020Y0214983D03*
X0141170Y0214983D03*
X0144320Y0214983D03*
X0147469Y0214983D03*
X0150619Y0214983D03*
X0150619Y0181518D03*
X0147469Y0181518D03*
X0144320Y0181518D03*
X0141170Y0181518D03*
X0138020Y0181518D03*
X0134871Y0181518D03*
X0131721Y0181518D03*
X0128572Y0181518D03*
D15*
X0122863Y0187227D03*
X0122863Y0190376D03*
X0122863Y0193526D03*
X0122863Y0196676D03*
X0122863Y0199825D03*
X0122863Y0202975D03*
X0122863Y0206124D03*
X0122863Y0209274D03*
X0156328Y0209274D03*
X0156328Y0206124D03*
X0156328Y0202975D03*
X0156328Y0199825D03*
X0156328Y0196676D03*
X0156328Y0193526D03*
X0156328Y0190376D03*
X0156328Y0187227D03*
X0057902Y0187227D03*
X0057902Y0190376D03*
X0057902Y0193526D03*
X0057902Y0196676D03*
X0057902Y0199825D03*
X0057902Y0202975D03*
X0057902Y0206124D03*
X0057902Y0209274D03*
X0024438Y0209274D03*
X0024438Y0206124D03*
X0024438Y0202975D03*
X0024438Y0199825D03*
X0024438Y0196676D03*
X0024438Y0193526D03*
X0024438Y0190376D03*
X0024438Y0187227D03*
D16*
X0027391Y0234825D03*
X0037233Y0234825D03*
X0045107Y0234825D03*
X0054950Y0234825D03*
X0125816Y0234825D03*
X0135658Y0234825D03*
X0143532Y0234825D03*
X0153375Y0234825D03*
D17*
X0165461Y0245494D03*
X0113729Y0245494D03*
X0067036Y0245494D03*
X0015304Y0245494D03*
D18*
X0027194Y0079865D03*
X0037036Y0079865D03*
X0044910Y0079865D03*
X0054753Y0079865D03*
X0125619Y0079865D03*
X0135461Y0079865D03*
X0143335Y0079865D03*
X0153178Y0079865D03*
D19*
X0163020Y0071479D03*
X0115776Y0071479D03*
X0064595Y0071479D03*
X0017351Y0071479D03*
D20*
X0035265Y0162817D03*
X0047076Y0162817D03*
X0133690Y0162817D03*
X0145501Y0162817D03*
D21*
X0139595Y0162817D03*
X0041170Y0162817D03*
D22*
X0049044Y0176597D03*
X0061446Y0183290D03*
X0070698Y0178565D03*
X0074635Y0182502D03*
X0074635Y0151006D03*
X0070304Y0147069D03*
X0074635Y0119510D03*
X0060855Y0109668D03*
X0029359Y0113605D03*
X0025422Y0139195D03*
X0029359Y0145101D03*
X0019123Y0186636D03*
X0029359Y0190376D03*
X0032902Y0193132D03*
X0039202Y0204156D03*
X0039792Y0210061D03*
X0029359Y0208093D03*
X0023454Y0219904D03*
X0015580Y0212030D03*
X0010461Y0209274D03*
X0010461Y0203369D03*
X0054556Y0222266D03*
X0056918Y0215967D03*
X0074635Y0213998D03*
X0108887Y0209274D03*
X0114005Y0212030D03*
X0108887Y0203369D03*
X0117548Y0186636D03*
X0127784Y0190376D03*
X0131328Y0193132D03*
X0137627Y0204156D03*
X0138217Y0210061D03*
X0127784Y0208093D03*
X0121879Y0219904D03*
X0147469Y0176597D03*
X0159871Y0183290D03*
X0169123Y0178565D03*
X0173060Y0182502D03*
X0173060Y0151006D03*
X0168729Y0147069D03*
X0173060Y0119510D03*
X0159280Y0109668D03*
X0127784Y0113605D03*
X0123847Y0139195D03*
X0127784Y0145101D03*
X0173060Y0213998D03*
X0155343Y0215967D03*
X0152981Y0222266D03*
D23*
X0147469Y0222266D01*
X0147469Y0214983D01*
X0150619Y0214983D02*
X0150619Y0215967D01*
X0155343Y0215967D01*
X0156328Y0206124D02*
X0167154Y0206124D01*
X0167154Y0213998D01*
X0173060Y0213998D01*
X0167154Y0202975D02*
X0156328Y0202975D01*
X0156328Y0196676D02*
X0165186Y0196676D01*
X0165186Y0151006D01*
X0173060Y0151006D01*
X0163217Y0135258D02*
X0163217Y0133290D01*
X0165186Y0133290D01*
X0165186Y0119510D01*
X0173060Y0119510D01*
X0163217Y0135258D02*
X0163217Y0193526D01*
X0156328Y0193526D01*
X0156328Y0190376D02*
X0152784Y0190376D01*
X0152784Y0196282D01*
X0127784Y0196282D01*
X0127784Y0190376D01*
X0131328Y0193132D02*
X0131328Y0194313D01*
X0151013Y0194313D01*
X0151013Y0189392D01*
X0153375Y0187424D01*
X0156131Y0187424D01*
X0156328Y0187227D01*
X0167154Y0182502D02*
X0167154Y0202975D01*
X0167154Y0182502D02*
X0173060Y0182502D01*
X0145501Y0170691D02*
X0145501Y0162817D01*
X0145501Y0170691D02*
X0143532Y0172660D01*
X0141564Y0172660D01*
X0141564Y0181518D01*
X0141170Y0181518D01*
X0138020Y0181518D02*
X0138020Y0172660D01*
X0133690Y0172660D01*
X0133690Y0162817D01*
X0123847Y0182502D02*
X0108887Y0182502D01*
X0108887Y0203369D01*
X0106131Y0206124D02*
X0122863Y0206124D01*
X0122863Y0209274D02*
X0108887Y0209274D01*
X0106131Y0206124D02*
X0106131Y0145022D01*
X0113206Y0145022D01*
X0112206Y0135022D02*
X0104162Y0135022D01*
X0104162Y0223841D01*
X0125422Y0223841D01*
X0125422Y0218920D01*
X0131721Y0218920D01*
X0131721Y0214983D01*
X0128375Y0214983D02*
X0128375Y0212030D01*
X0114005Y0212030D01*
X0122863Y0210061D02*
X0122863Y0209274D01*
X0137627Y0204156D02*
X0137743Y0204158D01*
X0137859Y0204164D01*
X0137974Y0204173D01*
X0138089Y0204186D01*
X0138204Y0204203D01*
X0138318Y0204224D01*
X0138432Y0204249D01*
X0138544Y0204277D01*
X0138655Y0204309D01*
X0138766Y0204344D01*
X0138875Y0204383D01*
X0138983Y0204426D01*
X0139089Y0204472D01*
X0139194Y0204521D01*
X0139297Y0204574D01*
X0139399Y0204631D01*
X0139498Y0204690D01*
X0139595Y0204753D01*
X0139691Y0204819D01*
X0139784Y0204888D01*
X0139875Y0204960D01*
X0139963Y0205035D01*
X0140049Y0205113D01*
X0140132Y0205194D01*
X0140213Y0205277D01*
X0140291Y0205363D01*
X0140366Y0205451D01*
X0140438Y0205542D01*
X0140507Y0205635D01*
X0140573Y0205731D01*
X0140636Y0205828D01*
X0140695Y0205928D01*
X0140752Y0206029D01*
X0140805Y0206132D01*
X0140854Y0206237D01*
X0140900Y0206343D01*
X0140943Y0206451D01*
X0140982Y0206560D01*
X0141017Y0206671D01*
X0141049Y0206782D01*
X0141077Y0206894D01*
X0141102Y0207008D01*
X0141123Y0207122D01*
X0141140Y0207237D01*
X0141153Y0207352D01*
X0141162Y0207467D01*
X0141168Y0207583D01*
X0141170Y0207699D01*
X0141170Y0214983D01*
X0138020Y0214983D02*
X0137981Y0214981D01*
X0137943Y0214975D01*
X0137906Y0214966D01*
X0137869Y0214953D01*
X0137834Y0214936D01*
X0137801Y0214917D01*
X0137770Y0214894D01*
X0137741Y0214868D01*
X0137715Y0214839D01*
X0137692Y0214808D01*
X0137673Y0214775D01*
X0137656Y0214740D01*
X0137643Y0214703D01*
X0137634Y0214666D01*
X0137628Y0214628D01*
X0137626Y0214589D01*
X0137627Y0214589D02*
X0138217Y0210061D01*
X0123847Y0182502D02*
X0123847Y0139195D01*
X0074635Y0151006D02*
X0066761Y0151006D01*
X0066761Y0196676D01*
X0057902Y0196676D01*
X0057902Y0193526D02*
X0064792Y0193526D01*
X0064792Y0135258D01*
X0064792Y0133290D01*
X0066761Y0133290D01*
X0066761Y0119510D01*
X0074635Y0119510D01*
X0047076Y0162817D02*
X0047076Y0170691D01*
X0045107Y0172660D01*
X0043139Y0172660D01*
X0043139Y0181518D01*
X0042745Y0181518D01*
X0039595Y0181518D02*
X0039595Y0172660D01*
X0035265Y0172660D01*
X0035265Y0162817D01*
X0025422Y0182502D02*
X0010461Y0182502D01*
X0010461Y0203369D01*
X0007706Y0206124D02*
X0024438Y0206124D01*
X0024438Y0209274D02*
X0010461Y0209274D01*
X0007706Y0206124D02*
X0007706Y0145022D01*
X0014780Y0145022D01*
X0013780Y0135022D02*
X0005737Y0135022D01*
X0005737Y0223841D01*
X0026997Y0223841D01*
X0026997Y0218920D01*
X0033296Y0218920D01*
X0033296Y0214983D01*
X0029950Y0214983D02*
X0029950Y0212030D01*
X0015580Y0212030D01*
X0024438Y0210061D02*
X0024438Y0209274D01*
X0029359Y0196282D02*
X0029359Y0190376D01*
X0032902Y0193132D02*
X0032902Y0194313D01*
X0052587Y0194313D01*
X0052587Y0189392D01*
X0054950Y0187424D01*
X0057706Y0187424D01*
X0057902Y0187227D01*
X0057902Y0190376D02*
X0054359Y0190376D01*
X0054359Y0196282D01*
X0029359Y0196282D01*
X0025422Y0182502D02*
X0025422Y0139195D01*
X0068729Y0182502D02*
X0068729Y0202975D01*
X0057902Y0202975D01*
X0057902Y0206124D02*
X0068729Y0206124D01*
X0068729Y0213998D01*
X0074635Y0213998D01*
X0056918Y0215967D02*
X0052194Y0215967D01*
X0052194Y0214983D01*
X0049044Y0214983D02*
X0049044Y0222266D01*
X0054556Y0222266D01*
X0042745Y0214983D02*
X0042745Y0207699D01*
X0042743Y0207583D01*
X0042737Y0207467D01*
X0042728Y0207352D01*
X0042715Y0207237D01*
X0042698Y0207122D01*
X0042677Y0207008D01*
X0042652Y0206894D01*
X0042624Y0206782D01*
X0042592Y0206671D01*
X0042557Y0206560D01*
X0042518Y0206451D01*
X0042475Y0206343D01*
X0042429Y0206237D01*
X0042380Y0206132D01*
X0042327Y0206029D01*
X0042270Y0205928D01*
X0042211Y0205828D01*
X0042148Y0205731D01*
X0042082Y0205635D01*
X0042013Y0205542D01*
X0041941Y0205451D01*
X0041866Y0205363D01*
X0041788Y0205277D01*
X0041707Y0205194D01*
X0041624Y0205113D01*
X0041538Y0205035D01*
X0041450Y0204960D01*
X0041359Y0204888D01*
X0041266Y0204819D01*
X0041170Y0204753D01*
X0041073Y0204690D01*
X0040974Y0204631D01*
X0040872Y0204574D01*
X0040769Y0204521D01*
X0040664Y0204472D01*
X0040558Y0204426D01*
X0040450Y0204383D01*
X0040341Y0204344D01*
X0040230Y0204309D01*
X0040119Y0204277D01*
X0040007Y0204249D01*
X0039893Y0204224D01*
X0039779Y0204203D01*
X0039664Y0204186D01*
X0039549Y0204173D01*
X0039434Y0204164D01*
X0039318Y0204158D01*
X0039202Y0204156D01*
X0039792Y0210061D02*
X0039202Y0214589D01*
X0039201Y0214589D02*
X0039203Y0214628D01*
X0039209Y0214666D01*
X0039218Y0214703D01*
X0039231Y0214740D01*
X0039248Y0214775D01*
X0039267Y0214808D01*
X0039290Y0214839D01*
X0039316Y0214868D01*
X0039345Y0214894D01*
X0039376Y0214917D01*
X0039409Y0214936D01*
X0039444Y0214953D01*
X0039481Y0214966D01*
X0039518Y0214975D01*
X0039556Y0214981D01*
X0039595Y0214983D01*
X0068729Y0182502D02*
X0074635Y0182502D01*
D24*
X0016558Y0062383D02*
X0012800Y0063390D01*
X0009431Y0065335D01*
X0006680Y0068086D01*
X0004734Y0071455D01*
X0003727Y0075213D01*
X0003600Y0077158D01*
X0003600Y0240602D01*
X0003727Y0242547D01*
X0004734Y0246305D01*
X0006680Y0249675D01*
X0009431Y0252426D01*
X0012800Y0254371D01*
X0016558Y0255378D01*
X0018503Y0255506D01*
X0083522Y0255506D01*
X0085467Y0255378D01*
X0089225Y0254371D01*
X0092594Y0252426D01*
X0095345Y0249675D01*
X0097291Y0246305D01*
X0098298Y0242547D01*
X0098425Y0240602D01*
X0098425Y0077158D01*
X0098298Y0075213D01*
X0097291Y0071455D01*
X0095345Y0068086D01*
X0092594Y0065335D01*
X0089225Y0063390D01*
X0085467Y0062383D01*
X0083522Y0062255D01*
X0018503Y0062255D01*
X0016558Y0062383D01*
X0016551Y0063383D02*
X0015762Y0063487D01*
X0014732Y0063763D01*
X0013747Y0064171D01*
X0012824Y0064704D01*
X0011979Y0065353D01*
X0011225Y0066106D01*
X0010576Y0066952D01*
X0010043Y0067875D01*
X0009635Y0068860D01*
X0009360Y0069889D01*
X0009256Y0070679D01*
X0016551Y0070679D01*
X0016551Y0072279D01*
X0016551Y0079574D01*
X0015762Y0079470D01*
X0014732Y0079194D01*
X0013747Y0078787D01*
X0012824Y0078254D01*
X0011979Y0077605D01*
X0011225Y0076851D01*
X0010576Y0076006D01*
X0010043Y0075083D01*
X0009635Y0074098D01*
X0009360Y0073068D01*
X0009256Y0072279D01*
X0016551Y0072279D01*
X0018151Y0072279D01*
X0018151Y0079574D01*
X0018941Y0079470D01*
X0019970Y0079194D01*
X0020955Y0078787D01*
X0021878Y0078254D01*
X0022724Y0077605D01*
X0022816Y0077513D01*
X0022589Y0077957D01*
X0022348Y0078701D01*
X0022225Y0079474D01*
X0022225Y0079680D01*
X0027009Y0079680D01*
X0027009Y0080049D01*
X0022225Y0080049D01*
X0022225Y0080256D01*
X0022348Y0081028D01*
X0022589Y0081772D01*
X0022944Y0082469D01*
X0023404Y0083101D01*
X0023957Y0083654D01*
X0024590Y0084114D01*
X0025286Y0084469D01*
X0026030Y0084711D01*
X0026803Y0084833D01*
X0027009Y0084833D01*
X0027009Y0080049D01*
X0027378Y0080049D01*
X0027378Y0084833D01*
X0027585Y0084833D01*
X0028357Y0084711D01*
X0029101Y0084469D01*
X0029798Y0084114D01*
X0030430Y0083654D01*
X0030983Y0083101D01*
X0031443Y0082469D01*
X0031798Y0081772D01*
X0032040Y0081028D01*
X0032162Y0080256D01*
X0032162Y0080049D01*
X0027378Y0080049D01*
X0027378Y0079680D01*
X0027378Y0074896D01*
X0027585Y0074896D01*
X0028357Y0075018D01*
X0029101Y0075260D01*
X0029798Y0075615D01*
X0030430Y0076075D01*
X0030983Y0076628D01*
X0031443Y0077260D01*
X0031798Y0077957D01*
X0032040Y0078701D01*
X0032162Y0079474D01*
X0032162Y0079680D01*
X0027378Y0079680D01*
X0027009Y0079680D01*
X0027009Y0074896D01*
X0026803Y0074896D01*
X0026030Y0075018D01*
X0025286Y0075260D01*
X0024590Y0075615D01*
X0024180Y0075913D01*
X0024659Y0075083D01*
X0025067Y0074098D01*
X0025343Y0073068D01*
X0025447Y0072279D01*
X0018151Y0072279D01*
X0018151Y0070679D01*
X0025447Y0070679D01*
X0025343Y0069889D01*
X0025067Y0068860D01*
X0024659Y0067875D01*
X0024126Y0066952D01*
X0023477Y0066106D01*
X0022724Y0065353D01*
X0021878Y0064704D01*
X0020955Y0064171D01*
X0019970Y0063763D01*
X0018941Y0063487D01*
X0018151Y0063383D01*
X0018151Y0070679D01*
X0016551Y0070679D01*
X0016551Y0063383D01*
X0016551Y0063652D02*
X0018151Y0063652D01*
X0019557Y0063652D02*
X0062390Y0063652D01*
X0061976Y0063763D02*
X0063006Y0063487D01*
X0063795Y0063383D01*
X0063795Y0070679D01*
X0056500Y0070679D01*
X0056604Y0069889D01*
X0056880Y0068860D01*
X0057287Y0067875D01*
X0057820Y0066952D01*
X0058469Y0066106D01*
X0059223Y0065353D01*
X0060068Y0064704D01*
X0060991Y0064171D01*
X0061976Y0063763D01*
X0063795Y0063652D02*
X0065395Y0063652D01*
X0065395Y0063383D02*
X0066185Y0063487D01*
X0067214Y0063763D01*
X0068199Y0064171D01*
X0069122Y0064704D01*
X0069968Y0065353D01*
X0070721Y0066106D01*
X0071370Y0066952D01*
X0071903Y0067875D01*
X0072311Y0068860D01*
X0072587Y0069889D01*
X0072691Y0070679D01*
X0065395Y0070679D01*
X0065395Y0063383D01*
X0066801Y0063652D02*
X0089680Y0063652D01*
X0092449Y0065251D02*
X0069835Y0065251D01*
X0071291Y0066849D02*
X0094109Y0066849D01*
X0095554Y0068448D02*
X0072140Y0068448D01*
X0072608Y0070046D02*
X0096477Y0070046D01*
X0097342Y0071645D02*
X0065395Y0071645D01*
X0065395Y0072279D02*
X0065395Y0070679D01*
X0063795Y0070679D01*
X0063795Y0072279D01*
X0063795Y0079574D01*
X0063006Y0079470D01*
X0061976Y0079194D01*
X0060991Y0078787D01*
X0060068Y0078254D01*
X0059223Y0077605D01*
X0058469Y0076851D01*
X0057820Y0076006D01*
X0057287Y0075083D01*
X0056880Y0074098D01*
X0056604Y0073068D01*
X0056500Y0072279D01*
X0063795Y0072279D01*
X0065395Y0072279D01*
X0065395Y0079574D01*
X0066185Y0079470D01*
X0067214Y0079194D01*
X0068199Y0078787D01*
X0069122Y0078254D01*
X0069968Y0077605D01*
X0070721Y0076851D01*
X0071370Y0076006D01*
X0071903Y0075083D01*
X0072311Y0074098D01*
X0072587Y0073068D01*
X0072691Y0072279D01*
X0065395Y0072279D01*
X0065395Y0073243D02*
X0063795Y0073243D01*
X0063795Y0071645D02*
X0054387Y0071645D01*
X0054387Y0072346D02*
X0054387Y0070612D01*
X0053724Y0069010D01*
X0052498Y0067783D01*
X0050895Y0067120D01*
X0049161Y0067120D01*
X0047559Y0067783D01*
X0046333Y0069010D01*
X0045669Y0070612D01*
X0045669Y0072346D01*
X0046333Y0073948D01*
X0047559Y0075174D01*
X0049161Y0075838D01*
X0050895Y0075838D01*
X0052498Y0075174D01*
X0053724Y0073948D01*
X0054387Y0072346D01*
X0054016Y0073243D02*
X0056651Y0073243D01*
X0057188Y0074842D02*
X0052830Y0074842D01*
X0053844Y0075296D02*
X0055661Y0075296D01*
X0057341Y0075992D01*
X0058626Y0077277D01*
X0059321Y0078956D01*
X0059321Y0080773D01*
X0058626Y0082452D01*
X0057341Y0083738D01*
X0056980Y0083887D01*
X0057143Y0108199D01*
X0057150Y0108205D01*
X0057150Y0109110D01*
X0057156Y0110013D01*
X0057150Y0110019D01*
X0057150Y0110028D01*
X0056510Y0110667D01*
X0055876Y0111310D01*
X0055867Y0111310D01*
X0055861Y0111317D01*
X0054957Y0111317D01*
X0054053Y0111323D01*
X0054047Y0111317D01*
X0045339Y0111317D01*
X0045339Y0133058D01*
X0047570Y0133058D01*
X0047570Y0131536D01*
X0048390Y0130716D01*
X0058261Y0130716D01*
X0058261Y0129216D01*
X0048390Y0129216D01*
X0047570Y0128396D01*
X0047570Y0122436D01*
X0048390Y0121616D01*
X0058350Y0121616D01*
X0059068Y0122333D01*
X0059789Y0122035D01*
X0061134Y0122035D01*
X0062377Y0122549D01*
X0063328Y0123501D01*
X0063843Y0124743D01*
X0063843Y0126088D01*
X0063328Y0127331D01*
X0062661Y0127997D01*
X0062661Y0146012D01*
X0061373Y0147301D01*
X0059118Y0147301D01*
X0059118Y0177952D01*
X0059784Y0178619D01*
X0060299Y0179861D01*
X0060299Y0181206D01*
X0059784Y0182449D01*
X0058833Y0183400D01*
X0057591Y0183915D01*
X0056246Y0183915D01*
X0055003Y0183400D01*
X0054978Y0183375D01*
X0054978Y0184117D01*
X0054855Y0184575D01*
X0054618Y0184986D01*
X0054283Y0185321D01*
X0053873Y0185558D01*
X0053415Y0185680D01*
X0052194Y0185680D01*
X0052194Y0181518D01*
X0052194Y0177356D01*
X0053415Y0177356D01*
X0053873Y0177479D01*
X0054283Y0177716D01*
X0054618Y0178051D01*
X0054619Y0178052D01*
X0054718Y0177952D01*
X0054718Y0147301D01*
X0050016Y0147301D01*
X0050457Y0148365D01*
X0050457Y0149710D01*
X0049942Y0150953D01*
X0048991Y0151904D01*
X0047748Y0152419D01*
X0046403Y0152419D01*
X0045160Y0151904D01*
X0044494Y0151238D01*
X0033528Y0151238D01*
X0033528Y0153346D01*
X0037222Y0153346D01*
X0037672Y0153796D01*
X0037761Y0153641D01*
X0038096Y0153306D01*
X0038507Y0153069D01*
X0038965Y0152946D01*
X0040986Y0152946D01*
X0040986Y0162633D01*
X0041354Y0162633D01*
X0041354Y0152946D01*
X0043376Y0152946D01*
X0043833Y0153069D01*
X0044244Y0153306D01*
X0044579Y0153641D01*
X0044668Y0153796D01*
X0045118Y0153346D01*
X0049033Y0153346D01*
X0049854Y0154167D01*
X0049854Y0171468D01*
X0049033Y0172288D01*
X0048166Y0172288D01*
X0047863Y0172591D01*
X0045894Y0174560D01*
X0045039Y0174560D01*
X0045039Y0177356D01*
X0045894Y0177356D01*
X0045894Y0181518D01*
X0045895Y0181518D01*
X0045895Y0177356D01*
X0046125Y0177356D01*
X0046057Y0177191D01*
X0046057Y0176003D01*
X0046511Y0174905D01*
X0047352Y0174064D01*
X0048450Y0173609D01*
X0049638Y0173609D01*
X0050736Y0174064D01*
X0051577Y0174905D01*
X0052031Y0176003D01*
X0052031Y0177191D01*
X0051963Y0177356D01*
X0052194Y0177356D01*
X0052194Y0181518D01*
X0052194Y0181518D01*
X0052194Y0181518D01*
X0052194Y0185680D01*
X0050972Y0185680D01*
X0050515Y0185558D01*
X0050104Y0185321D01*
X0050064Y0185280D01*
X0048024Y0185280D01*
X0047984Y0185321D01*
X0047574Y0185558D01*
X0047116Y0185680D01*
X0045895Y0185680D01*
X0045895Y0181518D01*
X0045894Y0181518D01*
X0045894Y0185680D01*
X0044673Y0185680D01*
X0044215Y0185558D01*
X0043805Y0185321D01*
X0043765Y0185280D01*
X0041181Y0185280D01*
X0041170Y0185270D01*
X0041159Y0185280D01*
X0038031Y0185280D01*
X0038020Y0185270D01*
X0038010Y0185280D01*
X0037119Y0185280D01*
X0038762Y0186995D01*
X0044494Y0186995D01*
X0045160Y0186329D01*
X0046403Y0185814D01*
X0047748Y0185814D01*
X0048991Y0186329D01*
X0049942Y0187280D01*
X0050457Y0188523D01*
X0050457Y0189868D01*
X0049942Y0191111D01*
X0048991Y0192062D01*
X0048142Y0192413D01*
X0050687Y0192413D01*
X0050687Y0190080D01*
X0050624Y0190004D01*
X0050687Y0189306D01*
X0050687Y0188605D01*
X0050757Y0188535D01*
X0050766Y0188436D01*
X0051305Y0187988D01*
X0051800Y0187492D01*
X0051900Y0187492D01*
X0053667Y0186019D01*
X0054163Y0185524D01*
X0054262Y0185524D01*
X0054338Y0185460D01*
X0054342Y0185461D01*
X0054960Y0184843D01*
X0060844Y0184843D01*
X0061665Y0185663D01*
X0061665Y0188791D01*
X0061654Y0188802D01*
X0061665Y0188812D01*
X0061665Y0191626D01*
X0062892Y0191626D01*
X0062892Y0132503D01*
X0064005Y0131390D01*
X0064861Y0131390D01*
X0064861Y0118723D01*
X0065974Y0117610D01*
X0072310Y0117610D01*
X0072942Y0116978D01*
X0074040Y0116523D01*
X0075229Y0116523D01*
X0076327Y0116978D01*
X0077167Y0117818D01*
X0077622Y0118916D01*
X0077622Y0120104D01*
X0077167Y0121202D01*
X0076327Y0122043D01*
X0075229Y0122498D01*
X0074040Y0122498D01*
X0072942Y0122043D01*
X0072310Y0121410D01*
X0068661Y0121410D01*
X0068661Y0134077D01*
X0067548Y0135190D01*
X0066692Y0135190D01*
X0066692Y0149106D01*
X0072310Y0149106D01*
X0072942Y0148474D01*
X0074040Y0148019D01*
X0075229Y0148019D01*
X0076327Y0148474D01*
X0077167Y0149314D01*
X0077622Y0150412D01*
X0077622Y0151601D01*
X0077167Y0152699D01*
X0076327Y0153539D01*
X0075229Y0153994D01*
X0074040Y0153994D01*
X0072942Y0153539D01*
X0072310Y0152906D01*
X0068661Y0152906D01*
X0068661Y0180602D01*
X0072310Y0180602D01*
X0072942Y0179970D01*
X0074040Y0179515D01*
X0075229Y0179515D01*
X0076327Y0179970D01*
X0077167Y0180810D01*
X0077622Y0181908D01*
X0077622Y0183097D01*
X0077167Y0184195D01*
X0076327Y0185035D01*
X0075229Y0185490D01*
X0074040Y0185490D01*
X0072942Y0185035D01*
X0072310Y0184402D01*
X0070629Y0184402D01*
X0070629Y0203762D01*
X0069841Y0204550D01*
X0070629Y0205337D01*
X0070629Y0212098D01*
X0072310Y0212098D01*
X0072942Y0211466D01*
X0074040Y0211011D01*
X0075229Y0211011D01*
X0076327Y0211466D01*
X0077167Y0212306D01*
X0077622Y0213404D01*
X0077622Y0214593D01*
X0077167Y0215691D01*
X0076327Y0216531D01*
X0075229Y0216986D01*
X0074040Y0216986D01*
X0072942Y0216531D01*
X0072310Y0215898D01*
X0067942Y0215898D01*
X0066829Y0214785D01*
X0066829Y0208024D01*
X0062057Y0208024D01*
X0062065Y0208053D01*
X0062065Y0209274D01*
X0062065Y0210495D01*
X0061942Y0210953D01*
X0061705Y0211363D01*
X0061370Y0211699D01*
X0060959Y0211936D01*
X0060502Y0212058D01*
X0057902Y0212058D01*
X0055303Y0212058D01*
X0054845Y0211936D01*
X0054435Y0211699D01*
X0054100Y0211363D01*
X0053863Y0210953D01*
X0053740Y0210495D01*
X0053740Y0209274D01*
X0053740Y0208053D01*
X0053863Y0207595D01*
X0054100Y0207185D01*
X0054140Y0207144D01*
X0054140Y0204560D01*
X0054151Y0204550D01*
X0054140Y0204539D01*
X0054140Y0202025D01*
X0049657Y0202025D01*
X0048991Y0202692D01*
X0047748Y0203206D01*
X0046403Y0203206D01*
X0045160Y0202692D01*
X0044494Y0202025D01*
X0041296Y0202025D01*
X0041734Y0202464D01*
X0041931Y0202938D01*
X0042285Y0203085D01*
X0043816Y0204616D01*
X0044645Y0206616D01*
X0044645Y0210828D01*
X0044673Y0210820D01*
X0045894Y0210820D01*
X0045894Y0214983D01*
X0045894Y0219145D01*
X0044673Y0219145D01*
X0044215Y0219022D01*
X0043805Y0218785D01*
X0043765Y0218745D01*
X0041181Y0218745D01*
X0041170Y0218734D01*
X0041159Y0218745D01*
X0038031Y0218745D01*
X0038020Y0218734D01*
X0038010Y0218745D01*
X0035196Y0218745D01*
X0035196Y0219707D01*
X0034083Y0220820D01*
X0028897Y0220820D01*
X0028897Y0224628D01*
X0027784Y0225741D01*
X0012717Y0225741D01*
X0022655Y0235679D01*
X0022580Y0235204D01*
X0022580Y0234931D01*
X0027285Y0234931D01*
X0027285Y0239636D01*
X0027012Y0239636D01*
X0026537Y0239561D01*
X0028302Y0241326D01*
X0046164Y0241326D01*
X0050904Y0236586D01*
X0050539Y0235703D01*
X0050539Y0233948D01*
X0051210Y0232327D01*
X0052451Y0231086D01*
X0054072Y0230414D01*
X0055827Y0230414D01*
X0057448Y0231086D01*
X0058689Y0232327D01*
X0059361Y0233948D01*
X0059361Y0235703D01*
X0058689Y0237324D01*
X0057448Y0238565D01*
X0055827Y0239236D01*
X0054477Y0239236D01*
X0047987Y0245726D01*
X0026479Y0245726D01*
X0025191Y0244437D01*
X0022953Y0242199D01*
X0023206Y0242812D01*
X0023489Y0243866D01*
X0023598Y0244694D01*
X0016104Y0244694D01*
X0016104Y0237200D01*
X0016932Y0237309D01*
X0017986Y0237592D01*
X0018599Y0237846D01*
X0010731Y0229978D01*
X0010287Y0229978D01*
X0009424Y0230841D01*
X0008181Y0231356D01*
X0006836Y0231356D01*
X0005593Y0230841D01*
X0004642Y0229890D01*
X0004128Y0228647D01*
X0004128Y0227302D01*
X0004642Y0226060D01*
X0004961Y0225741D01*
X0004950Y0225741D01*
X0003837Y0224628D01*
X0003837Y0134235D01*
X0004950Y0133122D01*
X0009047Y0133122D01*
X0009457Y0132133D01*
X0010891Y0130698D01*
X0012766Y0129922D01*
X0013283Y0129922D01*
X0011891Y0129346D01*
X0010457Y0127911D01*
X0009680Y0126037D01*
X0009680Y0124008D01*
X0010457Y0122133D01*
X0011891Y0120698D01*
X0013283Y0120122D01*
X0012766Y0120122D01*
X0010891Y0119346D01*
X0009457Y0117911D01*
X0008680Y0116037D01*
X0008680Y0114008D01*
X0009457Y0112133D01*
X0010891Y0110698D01*
X0012766Y0109922D01*
X0013283Y0109922D01*
X0011891Y0109346D01*
X0010457Y0107911D01*
X0009680Y0106037D01*
X0009680Y0104008D01*
X0010457Y0102133D01*
X0011891Y0100698D01*
X0012317Y0100522D01*
X0009843Y0100522D01*
X0009386Y0100399D01*
X0008975Y0100162D01*
X0008640Y0099827D01*
X0008403Y0099417D01*
X0008280Y0098959D01*
X0008280Y0095222D01*
X0013580Y0095222D01*
X0013580Y0094822D01*
X0008280Y0094822D01*
X0008280Y0091085D01*
X0008403Y0090627D01*
X0008640Y0090217D01*
X0008975Y0089882D01*
X0009386Y0089645D01*
X0009843Y0089522D01*
X0013580Y0089522D01*
X0013580Y0094822D01*
X0013980Y0094822D01*
X0013980Y0089522D01*
X0017717Y0089522D01*
X0018175Y0089645D01*
X0018586Y0089882D01*
X0018921Y0090217D01*
X0019158Y0090627D01*
X0019280Y0091085D01*
X0019280Y0094822D01*
X0013980Y0094822D01*
X0013980Y0095222D01*
X0019280Y0095222D01*
X0019280Y0098959D01*
X0019158Y0099417D01*
X0018921Y0099827D01*
X0018586Y0100162D01*
X0018175Y0100399D01*
X0017717Y0100522D01*
X0017243Y0100522D01*
X0017669Y0100698D01*
X0019104Y0102133D01*
X0019880Y0104008D01*
X0019880Y0106037D01*
X0019104Y0107911D01*
X0017669Y0109346D01*
X0015795Y0110122D01*
X0015278Y0110122D01*
X0016669Y0110698D01*
X0018104Y0112133D01*
X0018618Y0113373D01*
X0019285Y0113373D01*
X0019285Y0108205D01*
X0020574Y0106917D01*
X0052735Y0106917D01*
X0052580Y0083909D01*
X0052165Y0083738D01*
X0050880Y0082452D01*
X0050184Y0080773D01*
X0050184Y0078956D01*
X0050880Y0077277D01*
X0052165Y0075992D01*
X0053844Y0075296D01*
X0051716Y0076440D02*
X0047947Y0076440D01*
X0047498Y0075992D02*
X0048783Y0077277D01*
X0049479Y0078956D01*
X0049479Y0080773D01*
X0048783Y0082452D01*
X0047498Y0083738D01*
X0045819Y0084433D01*
X0044001Y0084433D01*
X0037946Y0084433D01*
X0037945Y0084433D02*
X0036127Y0084433D01*
X0029172Y0084433D01*
X0027378Y0084433D02*
X0027009Y0084433D01*
X0027009Y0082834D02*
X0027378Y0082834D01*
X0027378Y0081236D02*
X0027009Y0081236D01*
X0027009Y0079637D02*
X0027378Y0079637D01*
X0027378Y0078039D02*
X0027009Y0078039D01*
X0027009Y0076440D02*
X0027378Y0076440D01*
X0029116Y0074842D02*
X0024759Y0074842D01*
X0025296Y0073243D02*
X0027931Y0073243D01*
X0028223Y0073948D02*
X0027559Y0072346D01*
X0027559Y0070612D01*
X0028223Y0069010D01*
X0029449Y0067783D01*
X0031051Y0067120D01*
X0032785Y0067120D01*
X0034387Y0067783D01*
X0035614Y0069010D01*
X0036277Y0070612D01*
X0036277Y0072346D01*
X0035614Y0073948D01*
X0034387Y0075174D01*
X0032785Y0075838D01*
X0031051Y0075838D01*
X0029449Y0075174D01*
X0028223Y0073948D01*
X0027559Y0071645D02*
X0018151Y0071645D01*
X0018151Y0073243D02*
X0016551Y0073243D01*
X0016551Y0071645D02*
X0004684Y0071645D01*
X0004255Y0073243D02*
X0009406Y0073243D01*
X0009944Y0074842D02*
X0003827Y0074842D01*
X0003647Y0076440D02*
X0010910Y0076440D01*
X0012544Y0078039D02*
X0003600Y0078039D01*
X0003600Y0079637D02*
X0022225Y0079637D01*
X0022158Y0078039D02*
X0022563Y0078039D01*
X0022415Y0081236D02*
X0003600Y0081236D01*
X0003600Y0082834D02*
X0023210Y0082834D01*
X0025215Y0084433D02*
X0003600Y0084433D01*
X0003600Y0086031D02*
X0052594Y0086031D01*
X0052583Y0084433D02*
X0045820Y0084433D01*
X0044001Y0084433D02*
X0042322Y0083738D01*
X0041037Y0082452D01*
X0040973Y0082298D01*
X0040909Y0082452D01*
X0039624Y0083738D01*
X0037945Y0084433D01*
X0036127Y0084433D02*
X0034448Y0083738D01*
X0033163Y0082452D01*
X0032468Y0080773D01*
X0032468Y0078956D01*
X0033163Y0077277D01*
X0034448Y0075992D01*
X0036127Y0075296D01*
X0037945Y0075296D01*
X0039624Y0075992D01*
X0040909Y0077277D01*
X0040973Y0077431D01*
X0041037Y0077277D01*
X0042322Y0075992D01*
X0044001Y0075296D01*
X0045819Y0075296D01*
X0047498Y0075992D01*
X0047227Y0074842D02*
X0034720Y0074842D01*
X0034000Y0076440D02*
X0030796Y0076440D01*
X0031825Y0078039D02*
X0032848Y0078039D01*
X0032468Y0079637D02*
X0032162Y0079637D01*
X0031972Y0081236D02*
X0032659Y0081236D01*
X0033545Y0082834D02*
X0031177Y0082834D01*
X0035905Y0073243D02*
X0046041Y0073243D01*
X0045669Y0071645D02*
X0036277Y0071645D01*
X0036043Y0070046D02*
X0045904Y0070046D01*
X0046895Y0068448D02*
X0035052Y0068448D01*
X0028785Y0068448D02*
X0024896Y0068448D01*
X0025363Y0070046D02*
X0027793Y0070046D01*
X0024047Y0066849D02*
X0057899Y0066849D01*
X0057050Y0068448D02*
X0053162Y0068448D01*
X0054153Y0070046D02*
X0056583Y0070046D01*
X0059356Y0065251D02*
X0022591Y0065251D01*
X0018151Y0065251D02*
X0016551Y0065251D01*
X0016551Y0066849D02*
X0018151Y0066849D01*
X0018151Y0068448D02*
X0016551Y0068448D01*
X0016551Y0070046D02*
X0018151Y0070046D01*
X0018151Y0074842D02*
X0016551Y0074842D01*
X0016551Y0076440D02*
X0018151Y0076440D01*
X0018151Y0078039D02*
X0016551Y0078039D01*
X0009339Y0070046D02*
X0005548Y0070046D01*
X0006471Y0068448D02*
X0009806Y0068448D01*
X0010655Y0066849D02*
X0007916Y0066849D01*
X0009577Y0065251D02*
X0012112Y0065251D01*
X0012345Y0063652D02*
X0015146Y0063652D01*
X0003600Y0087630D02*
X0052605Y0087630D01*
X0052616Y0089228D02*
X0003600Y0089228D01*
X0003600Y0090827D02*
X0008349Y0090827D01*
X0008280Y0092425D02*
X0003600Y0092425D01*
X0003600Y0094024D02*
X0008280Y0094024D01*
X0008280Y0095622D02*
X0003600Y0095622D01*
X0003600Y0097221D02*
X0008280Y0097221D01*
X0008280Y0098819D02*
X0003600Y0098819D01*
X0003600Y0100418D02*
X0009455Y0100418D01*
X0010573Y0102016D02*
X0003600Y0102016D01*
X0003600Y0103615D02*
X0009843Y0103615D01*
X0009680Y0105213D02*
X0003600Y0105213D01*
X0003600Y0106812D02*
X0010002Y0106812D01*
X0010956Y0108410D02*
X0003600Y0108410D01*
X0003600Y0110009D02*
X0012556Y0110009D01*
X0009982Y0111607D02*
X0003600Y0111607D01*
X0003600Y0113206D02*
X0009012Y0113206D01*
X0008680Y0114805D02*
X0003600Y0114805D01*
X0003600Y0116403D02*
X0008832Y0116403D01*
X0009547Y0118002D02*
X0003600Y0118002D01*
X0003600Y0119600D02*
X0011506Y0119600D01*
X0011391Y0121199D02*
X0003600Y0121199D01*
X0003600Y0122797D02*
X0010182Y0122797D01*
X0009680Y0124396D02*
X0003600Y0124396D01*
X0003600Y0125994D02*
X0009680Y0125994D01*
X0010325Y0127593D02*
X0003600Y0127593D01*
X0003600Y0129191D02*
X0011737Y0129191D01*
X0010800Y0130790D02*
X0003600Y0130790D01*
X0003600Y0132388D02*
X0009351Y0132388D01*
X0004085Y0133987D02*
X0003600Y0133987D01*
X0003600Y0135585D02*
X0003837Y0135585D01*
X0003837Y0137184D02*
X0003600Y0137184D01*
X0003600Y0138782D02*
X0003837Y0138782D01*
X0003837Y0140381D02*
X0003600Y0140381D01*
X0003600Y0141979D02*
X0003837Y0141979D01*
X0003837Y0143578D02*
X0003600Y0143578D01*
X0003600Y0145176D02*
X0003837Y0145176D01*
X0003837Y0146775D02*
X0003600Y0146775D01*
X0003600Y0148373D02*
X0003837Y0148373D01*
X0003837Y0149972D02*
X0003600Y0149972D01*
X0003600Y0151570D02*
X0003837Y0151570D01*
X0003837Y0153169D02*
X0003600Y0153169D01*
X0003600Y0154767D02*
X0003837Y0154767D01*
X0003837Y0156366D02*
X0003600Y0156366D01*
X0003600Y0157964D02*
X0003837Y0157964D01*
X0003837Y0159563D02*
X0003600Y0159563D01*
X0003600Y0161161D02*
X0003837Y0161161D01*
X0003837Y0162760D02*
X0003600Y0162760D01*
X0003600Y0164358D02*
X0003837Y0164358D01*
X0003837Y0165957D02*
X0003600Y0165957D01*
X0003600Y0167555D02*
X0003837Y0167555D01*
X0003837Y0169154D02*
X0003600Y0169154D01*
X0003600Y0170752D02*
X0003837Y0170752D01*
X0003837Y0172351D02*
X0003600Y0172351D01*
X0003600Y0173949D02*
X0003837Y0173949D01*
X0003837Y0175548D02*
X0003600Y0175548D01*
X0003600Y0177146D02*
X0003837Y0177146D01*
X0003837Y0178745D02*
X0003600Y0178745D01*
X0003600Y0180343D02*
X0003837Y0180343D01*
X0003837Y0181942D02*
X0003600Y0181942D01*
X0003600Y0183540D02*
X0003837Y0183540D01*
X0003837Y0185139D02*
X0003600Y0185139D01*
X0003600Y0186738D02*
X0003837Y0186738D01*
X0003837Y0188336D02*
X0003600Y0188336D01*
X0003600Y0189935D02*
X0003837Y0189935D01*
X0003837Y0191533D02*
X0003600Y0191533D01*
X0003600Y0193132D02*
X0003837Y0193132D01*
X0003837Y0194730D02*
X0003600Y0194730D01*
X0003600Y0196329D02*
X0003837Y0196329D01*
X0003837Y0197927D02*
X0003600Y0197927D01*
X0003600Y0199526D02*
X0003837Y0199526D01*
X0003837Y0201124D02*
X0003600Y0201124D01*
X0003600Y0202723D02*
X0003837Y0202723D01*
X0003837Y0204321D02*
X0003600Y0204321D01*
X0003600Y0205920D02*
X0003837Y0205920D01*
X0003837Y0207518D02*
X0003600Y0207518D01*
X0003600Y0209117D02*
X0003837Y0209117D01*
X0003837Y0210715D02*
X0003600Y0210715D01*
X0003600Y0212314D02*
X0003837Y0212314D01*
X0003837Y0213912D02*
X0003600Y0213912D01*
X0003600Y0215511D02*
X0003837Y0215511D01*
X0003837Y0217109D02*
X0003600Y0217109D01*
X0003600Y0218708D02*
X0003837Y0218708D01*
X0003837Y0220306D02*
X0003600Y0220306D01*
X0003600Y0221905D02*
X0003837Y0221905D01*
X0003837Y0223503D02*
X0003600Y0223503D01*
X0003600Y0225102D02*
X0004311Y0225102D01*
X0004377Y0226700D02*
X0003600Y0226700D01*
X0003600Y0228299D02*
X0004128Y0228299D01*
X0004650Y0229897D02*
X0003600Y0229897D01*
X0003600Y0231496D02*
X0012249Y0231496D01*
X0013848Y0233094D02*
X0003600Y0233094D01*
X0003600Y0234693D02*
X0015446Y0234693D01*
X0017045Y0236291D02*
X0003600Y0236291D01*
X0003600Y0237890D02*
X0011902Y0237890D01*
X0011613Y0238010D02*
X0012621Y0237592D01*
X0013676Y0237309D01*
X0014504Y0237200D01*
X0014504Y0244694D01*
X0016104Y0244694D01*
X0016104Y0246294D01*
X0023598Y0246294D01*
X0023489Y0247123D01*
X0023206Y0248177D01*
X0022789Y0249186D01*
X0022243Y0250131D01*
X0021578Y0250997D01*
X0020806Y0251769D01*
X0019940Y0252433D01*
X0018995Y0252979D01*
X0017986Y0253397D01*
X0016932Y0253680D01*
X0016104Y0253789D01*
X0016104Y0246295D01*
X0014504Y0246295D01*
X0014504Y0253789D01*
X0013676Y0253680D01*
X0012621Y0253397D01*
X0011613Y0252979D01*
X0010667Y0252433D01*
X0009801Y0251769D01*
X0009030Y0250997D01*
X0008365Y0250131D01*
X0007819Y0249186D01*
X0007401Y0248177D01*
X0007119Y0247123D01*
X0007010Y0246294D01*
X0014504Y0246294D01*
X0014504Y0244694D01*
X0007010Y0244694D01*
X0007119Y0243866D01*
X0007401Y0242812D01*
X0007819Y0241803D01*
X0008365Y0240858D01*
X0009030Y0239992D01*
X0009801Y0239220D01*
X0010667Y0238556D01*
X0011613Y0238010D01*
X0009533Y0239488D02*
X0003600Y0239488D01*
X0003632Y0241087D02*
X0008233Y0241087D01*
X0007454Y0242685D02*
X0003764Y0242685D01*
X0004193Y0244284D02*
X0007064Y0244284D01*
X0004621Y0245882D02*
X0014504Y0245882D01*
X0014504Y0244284D02*
X0016104Y0244284D01*
X0016104Y0245882D02*
X0066236Y0245882D01*
X0066236Y0246294D02*
X0066236Y0244694D01*
X0067836Y0244694D01*
X0067836Y0237200D01*
X0068664Y0237309D01*
X0069719Y0237592D01*
X0070727Y0238010D01*
X0071673Y0238556D01*
X0072539Y0239220D01*
X0073311Y0239992D01*
X0073975Y0240858D01*
X0074521Y0241803D01*
X0074939Y0242812D01*
X0075221Y0243866D01*
X0075330Y0244694D01*
X0067836Y0244694D01*
X0067836Y0246294D01*
X0075330Y0246294D01*
X0075221Y0247123D01*
X0074939Y0248177D01*
X0074521Y0249186D01*
X0073975Y0250131D01*
X0073311Y0250997D01*
X0072539Y0251769D01*
X0071673Y0252433D01*
X0070727Y0252979D01*
X0069719Y0253397D01*
X0068664Y0253680D01*
X0067836Y0253789D01*
X0067836Y0246295D01*
X0066236Y0246295D01*
X0066236Y0253789D01*
X0065408Y0253680D01*
X0064354Y0253397D01*
X0063345Y0252979D01*
X0062400Y0252433D01*
X0061534Y0251769D01*
X0060762Y0250997D01*
X0060097Y0250131D01*
X0059551Y0249186D01*
X0059134Y0248177D01*
X0058851Y0247123D01*
X0058742Y0246294D01*
X0066236Y0246294D01*
X0066236Y0247481D02*
X0067836Y0247481D01*
X0067836Y0249079D02*
X0066236Y0249079D01*
X0066236Y0250678D02*
X0067836Y0250678D01*
X0067836Y0252276D02*
X0066236Y0252276D01*
X0062195Y0252276D02*
X0020145Y0252276D01*
X0021823Y0250678D02*
X0060517Y0250678D01*
X0059507Y0249079D02*
X0022833Y0249079D01*
X0023393Y0247481D02*
X0058947Y0247481D01*
X0058742Y0244694D02*
X0058851Y0243866D01*
X0059134Y0242812D01*
X0059551Y0241803D01*
X0060097Y0240858D01*
X0060762Y0239992D01*
X0061534Y0239220D01*
X0062400Y0238556D01*
X0063345Y0238010D01*
X0064354Y0237592D01*
X0065408Y0237309D01*
X0066236Y0237200D01*
X0066236Y0244694D01*
X0058742Y0244694D01*
X0058796Y0244284D02*
X0049429Y0244284D01*
X0051027Y0242685D02*
X0059186Y0242685D01*
X0059965Y0241087D02*
X0052626Y0241087D01*
X0054224Y0239488D02*
X0061265Y0239488D01*
X0063634Y0237890D02*
X0058123Y0237890D01*
X0059117Y0236291D02*
X0098425Y0236291D01*
X0098425Y0234693D02*
X0059361Y0234693D01*
X0059007Y0233094D02*
X0098425Y0233094D01*
X0098425Y0231496D02*
X0057858Y0231496D01*
X0054950Y0234825D02*
X0054950Y0235652D01*
X0047076Y0243526D01*
X0027391Y0243526D01*
X0011643Y0227778D01*
X0007706Y0227778D01*
X0007509Y0227975D01*
X0007637Y0221941D02*
X0025097Y0221941D01*
X0025097Y0218133D01*
X0026210Y0217020D01*
X0027565Y0217020D01*
X0027565Y0213930D01*
X0017904Y0213930D01*
X0017272Y0214563D01*
X0016174Y0215017D01*
X0014985Y0215017D01*
X0013887Y0214563D01*
X0013047Y0213722D01*
X0012592Y0212624D01*
X0012592Y0211436D01*
X0012640Y0211320D01*
X0012154Y0211807D01*
X0011056Y0212261D01*
X0009867Y0212261D01*
X0008769Y0211807D01*
X0007929Y0210966D01*
X0007637Y0210262D01*
X0007637Y0221941D01*
X0007637Y0221905D02*
X0025097Y0221905D01*
X0025097Y0220306D02*
X0007637Y0220306D01*
X0007637Y0218708D02*
X0025097Y0218708D01*
X0026120Y0217109D02*
X0007637Y0217109D01*
X0007637Y0215511D02*
X0027565Y0215511D01*
X0028200Y0210130D02*
X0030737Y0210130D01*
X0031827Y0211220D01*
X0033980Y0211220D01*
X0033349Y0210959D01*
X0032398Y0210008D01*
X0031883Y0208765D01*
X0031883Y0207420D01*
X0032398Y0206178D01*
X0033065Y0205511D01*
X0033065Y0198914D01*
X0033797Y0198182D01*
X0030146Y0198182D01*
X0028572Y0198182D01*
X0028200Y0197810D01*
X0028200Y0198240D01*
X0028189Y0198250D01*
X0028200Y0198261D01*
X0028200Y0200845D01*
X0028240Y0200885D01*
X0028477Y0201296D01*
X0028600Y0201754D01*
X0028600Y0202975D01*
X0028600Y0204196D01*
X0028477Y0204654D01*
X0028240Y0205064D01*
X0028200Y0205105D01*
X0028200Y0207689D01*
X0028189Y0207699D01*
X0028200Y0207710D01*
X0028200Y0210130D01*
X0028200Y0209117D02*
X0032029Y0209117D01*
X0031883Y0207518D02*
X0028200Y0207518D01*
X0028200Y0205920D02*
X0032656Y0205920D01*
X0033065Y0204321D02*
X0028566Y0204321D01*
X0028600Y0202975D02*
X0024438Y0202975D01*
X0024438Y0202975D01*
X0028600Y0202975D01*
X0028600Y0202723D02*
X0033065Y0202723D01*
X0033065Y0201124D02*
X0028378Y0201124D01*
X0028200Y0199526D02*
X0033065Y0199526D01*
X0035265Y0199825D02*
X0035265Y0208093D01*
X0036446Y0208093D01*
X0036446Y0214983D01*
X0033105Y0210715D02*
X0031322Y0210715D01*
X0034596Y0220306D02*
X0047144Y0220306D01*
X0047116Y0219145D02*
X0045895Y0219145D01*
X0045895Y0214983D01*
X0045894Y0214983D01*
X0045895Y0214983D01*
X0045895Y0210820D01*
X0047116Y0210820D01*
X0047574Y0210943D01*
X0047984Y0211180D01*
X0048024Y0211220D01*
X0050608Y0211220D01*
X0050619Y0211231D01*
X0050630Y0211220D01*
X0053758Y0211220D01*
X0054578Y0212041D01*
X0054578Y0214067D01*
X0054593Y0214067D01*
X0055226Y0213434D01*
X0056324Y0212980D01*
X0057512Y0212980D01*
X0058610Y0213434D01*
X0059451Y0214275D01*
X0059905Y0215373D01*
X0059905Y0216561D01*
X0059451Y0217659D01*
X0058610Y0218500D01*
X0057512Y0218954D01*
X0056324Y0218954D01*
X0055226Y0218500D01*
X0054593Y0217867D01*
X0054578Y0217867D01*
X0054578Y0217925D01*
X0053758Y0218745D01*
X0050944Y0218745D01*
X0050944Y0220366D01*
X0052231Y0220366D01*
X0052864Y0219734D01*
X0053962Y0219279D01*
X0055150Y0219279D01*
X0056248Y0219734D01*
X0057088Y0220574D01*
X0057543Y0221672D01*
X0057543Y0222860D01*
X0057088Y0223958D01*
X0056248Y0224799D01*
X0055150Y0225254D01*
X0053962Y0225254D01*
X0052864Y0224799D01*
X0052231Y0224166D01*
X0048257Y0224166D01*
X0047144Y0223053D01*
X0047144Y0219137D01*
X0047116Y0219145D01*
X0045895Y0218708D02*
X0045894Y0218708D01*
X0045894Y0217109D02*
X0045895Y0217109D01*
X0045894Y0215511D02*
X0045895Y0215511D01*
X0045894Y0213912D02*
X0045895Y0213912D01*
X0045894Y0212314D02*
X0045895Y0212314D01*
X0044645Y0210715D02*
X0053799Y0210715D01*
X0053740Y0209274D02*
X0057902Y0209274D01*
X0053740Y0209274D01*
X0053740Y0209117D02*
X0044645Y0209117D01*
X0044645Y0207518D02*
X0053907Y0207518D01*
X0054140Y0205920D02*
X0044356Y0205920D01*
X0043816Y0204616D02*
X0043816Y0204616D01*
X0043521Y0204321D02*
X0054140Y0204321D01*
X0054140Y0202723D02*
X0048916Y0202723D01*
X0047076Y0199825D02*
X0035265Y0199825D01*
X0041841Y0202723D02*
X0045235Y0202723D01*
X0042285Y0203085D02*
X0042285Y0203085D01*
X0047076Y0199825D02*
X0057902Y0199825D01*
X0061665Y0191533D02*
X0062892Y0191533D01*
X0062892Y0189935D02*
X0061665Y0189935D01*
X0061665Y0188336D02*
X0062892Y0188336D01*
X0062892Y0186738D02*
X0061665Y0186738D01*
X0061141Y0185139D02*
X0062892Y0185139D01*
X0062892Y0183540D02*
X0058495Y0183540D01*
X0059995Y0181942D02*
X0062892Y0181942D01*
X0062892Y0180343D02*
X0060299Y0180343D01*
X0059837Y0178745D02*
X0062892Y0178745D01*
X0062892Y0177146D02*
X0059118Y0177146D01*
X0059118Y0175548D02*
X0062892Y0175548D01*
X0062892Y0173949D02*
X0059118Y0173949D01*
X0059118Y0172351D02*
X0062892Y0172351D01*
X0062892Y0170752D02*
X0059118Y0170752D01*
X0059118Y0169154D02*
X0062892Y0169154D01*
X0062892Y0167555D02*
X0059118Y0167555D01*
X0059118Y0165957D02*
X0062892Y0165957D01*
X0062892Y0164358D02*
X0059118Y0164358D01*
X0059118Y0162760D02*
X0062892Y0162760D01*
X0062892Y0161161D02*
X0059118Y0161161D01*
X0059118Y0159563D02*
X0062892Y0159563D01*
X0062892Y0157964D02*
X0059118Y0157964D01*
X0059118Y0156366D02*
X0062892Y0156366D01*
X0062892Y0154767D02*
X0059118Y0154767D01*
X0059118Y0153169D02*
X0062892Y0153169D01*
X0062892Y0151570D02*
X0059118Y0151570D01*
X0059118Y0149972D02*
X0062892Y0149972D01*
X0062892Y0148373D02*
X0059118Y0148373D01*
X0061899Y0146775D02*
X0062892Y0146775D01*
X0062892Y0145176D02*
X0062661Y0145176D01*
X0062661Y0143578D02*
X0062892Y0143578D01*
X0062892Y0141979D02*
X0062661Y0141979D01*
X0062661Y0140381D02*
X0062892Y0140381D01*
X0062892Y0138782D02*
X0062661Y0138782D01*
X0062661Y0137184D02*
X0062892Y0137184D01*
X0062892Y0135585D02*
X0062661Y0135585D01*
X0062661Y0133987D02*
X0062892Y0133987D01*
X0063007Y0132388D02*
X0062661Y0132388D01*
X0062661Y0130790D02*
X0064861Y0130790D01*
X0064861Y0129191D02*
X0062661Y0129191D01*
X0063066Y0127593D02*
X0064861Y0127593D01*
X0064861Y0125994D02*
X0063843Y0125994D01*
X0063699Y0124396D02*
X0064861Y0124396D01*
X0064861Y0122797D02*
X0062624Y0122797D01*
X0064861Y0121199D02*
X0045339Y0121199D01*
X0045339Y0122797D02*
X0047570Y0122797D01*
X0047570Y0124396D02*
X0045339Y0124396D01*
X0045339Y0125994D02*
X0047570Y0125994D01*
X0047570Y0127593D02*
X0045339Y0127593D01*
X0045339Y0129191D02*
X0048366Y0129191D01*
X0048316Y0130790D02*
X0045339Y0130790D01*
X0045339Y0132388D02*
X0047570Y0132388D01*
X0047076Y0135258D02*
X0047076Y0141164D01*
X0047076Y0135258D02*
X0043139Y0135258D01*
X0043139Y0109117D01*
X0021485Y0109117D01*
X0021485Y0115573D01*
X0013780Y0115573D01*
X0013780Y0115022D01*
X0015278Y0119922D02*
X0015795Y0119922D01*
X0017669Y0120698D01*
X0019104Y0122133D01*
X0019880Y0124008D01*
X0019880Y0126037D01*
X0019104Y0127911D01*
X0017669Y0129346D01*
X0015795Y0130122D01*
X0015278Y0130122D01*
X0016669Y0130698D01*
X0018104Y0132133D01*
X0018880Y0134008D01*
X0018880Y0136037D01*
X0018104Y0137911D01*
X0016669Y0139346D01*
X0015278Y0139922D01*
X0015795Y0139922D01*
X0017669Y0140698D01*
X0019104Y0142133D01*
X0019880Y0144008D01*
X0019880Y0146037D01*
X0019104Y0147911D01*
X0017669Y0149346D01*
X0015795Y0150122D01*
X0015278Y0150122D01*
X0016669Y0150698D01*
X0018104Y0152133D01*
X0018880Y0154008D01*
X0018880Y0156037D01*
X0018104Y0157911D01*
X0016669Y0159346D01*
X0015278Y0159922D01*
X0015795Y0159922D01*
X0017669Y0160698D01*
X0019104Y0162133D01*
X0019880Y0164008D01*
X0019880Y0166037D01*
X0019104Y0167911D01*
X0017669Y0169346D01*
X0016077Y0170005D01*
X0016691Y0170318D01*
X0017391Y0170827D01*
X0018003Y0171439D01*
X0018512Y0172139D01*
X0018905Y0172911D01*
X0019172Y0173734D01*
X0019308Y0174589D01*
X0019308Y0174822D01*
X0014008Y0174822D01*
X0014008Y0175222D01*
X0019308Y0175222D01*
X0019308Y0175455D01*
X0019172Y0176310D01*
X0018905Y0177133D01*
X0018512Y0177905D01*
X0018003Y0178605D01*
X0017391Y0179217D01*
X0016691Y0179726D01*
X0015919Y0180119D01*
X0015096Y0180387D01*
X0014241Y0180522D01*
X0014008Y0180522D01*
X0014008Y0175222D01*
X0013608Y0175222D01*
X0013608Y0180522D01*
X0013375Y0180522D01*
X0012520Y0180387D01*
X0011697Y0180119D01*
X0010925Y0179726D01*
X0010225Y0179217D01*
X0009613Y0178605D01*
X0009605Y0178595D01*
X0009605Y0180671D01*
X0009674Y0180602D01*
X0023522Y0180602D01*
X0023522Y0141520D01*
X0022889Y0140888D01*
X0022435Y0139790D01*
X0022435Y0138601D01*
X0022889Y0137503D01*
X0023730Y0136663D01*
X0024828Y0136208D01*
X0026016Y0136208D01*
X0027114Y0136663D01*
X0027955Y0137503D01*
X0028409Y0138601D01*
X0028409Y0139790D01*
X0027955Y0140888D01*
X0027322Y0141520D01*
X0027322Y0183289D01*
X0026209Y0184402D01*
X0012361Y0184402D01*
X0012361Y0201044D01*
X0012994Y0201676D01*
X0013449Y0202774D01*
X0013449Y0203963D01*
X0013340Y0204224D01*
X0020283Y0204224D01*
X0020276Y0204196D01*
X0020276Y0202975D01*
X0024438Y0202975D01*
X0024438Y0202975D01*
X0020276Y0202975D01*
X0020276Y0202025D01*
X0020130Y0202025D01*
X0019463Y0202692D01*
X0018221Y0203206D01*
X0016875Y0203206D01*
X0015633Y0202692D01*
X0014682Y0201740D01*
X0014167Y0200498D01*
X0014167Y0199153D01*
X0014682Y0197910D01*
X0015633Y0196959D01*
X0016875Y0196444D01*
X0018221Y0196444D01*
X0019463Y0196959D01*
X0020130Y0197625D01*
X0020676Y0197625D01*
X0020676Y0195111D01*
X0020686Y0195101D01*
X0020676Y0195090D01*
X0020676Y0191962D01*
X0020686Y0191951D01*
X0020676Y0191941D01*
X0020676Y0188812D01*
X0020686Y0188802D01*
X0020676Y0188791D01*
X0020676Y0185663D01*
X0021496Y0184843D01*
X0027380Y0184843D01*
X0028200Y0185663D01*
X0028200Y0187623D01*
X0028765Y0187389D01*
X0029953Y0187389D01*
X0031051Y0187844D01*
X0031892Y0188684D01*
X0032346Y0189782D01*
X0032346Y0190145D01*
X0033497Y0190145D01*
X0034595Y0190600D01*
X0035435Y0191440D01*
X0035838Y0192413D01*
X0046010Y0192413D01*
X0045160Y0192062D01*
X0044494Y0191395D01*
X0038708Y0191395D01*
X0038688Y0191414D01*
X0037800Y0191395D01*
X0036912Y0191395D01*
X0036893Y0191376D01*
X0036866Y0191375D01*
X0036251Y0190734D01*
X0035624Y0190107D01*
X0035624Y0190079D01*
X0031724Y0186010D01*
X0031389Y0185675D01*
X0031368Y0185680D01*
X0030147Y0185680D01*
X0030147Y0181518D01*
X0030147Y0177356D01*
X0031368Y0177356D01*
X0031825Y0177479D01*
X0032236Y0177716D01*
X0032276Y0177756D01*
X0034246Y0177756D01*
X0034246Y0176828D01*
X0030416Y0176828D01*
X0029128Y0175540D01*
X0029128Y0148127D01*
X0030416Y0146838D01*
X0037827Y0146838D01*
X0037002Y0146012D01*
X0037002Y0127616D01*
X0034700Y0127616D01*
X0034700Y0133082D01*
X0033880Y0133902D01*
X0024059Y0133902D01*
X0023239Y0133082D01*
X0023239Y0117749D01*
X0024059Y0116929D01*
X0033880Y0116929D01*
X0034700Y0117749D01*
X0034700Y0123216D01*
X0040113Y0123216D01*
X0040939Y0124041D01*
X0040939Y0111317D01*
X0023685Y0111317D01*
X0023685Y0116484D01*
X0022396Y0117773D01*
X0018161Y0117773D01*
X0018104Y0117911D01*
X0016669Y0119346D01*
X0015278Y0119922D01*
X0016055Y0119600D02*
X0023239Y0119600D01*
X0023239Y0118002D02*
X0018013Y0118002D01*
X0018169Y0121199D02*
X0023239Y0121199D01*
X0023239Y0122797D02*
X0019379Y0122797D01*
X0019880Y0124396D02*
X0023239Y0124396D01*
X0023239Y0125994D02*
X0019880Y0125994D01*
X0019236Y0127593D02*
X0023239Y0127593D01*
X0023239Y0129191D02*
X0017824Y0129191D01*
X0016760Y0130790D02*
X0023239Y0130790D01*
X0023239Y0132388D02*
X0018209Y0132388D01*
X0018872Y0133987D02*
X0037002Y0133987D01*
X0037002Y0135585D02*
X0018880Y0135585D01*
X0018405Y0137184D02*
X0023209Y0137184D01*
X0022435Y0138782D02*
X0017233Y0138782D01*
X0016902Y0140381D02*
X0022680Y0140381D01*
X0023522Y0141979D02*
X0018950Y0141979D01*
X0019702Y0143578D02*
X0023522Y0143578D01*
X0023522Y0145176D02*
X0019880Y0145176D01*
X0019575Y0146775D02*
X0023522Y0146775D01*
X0023522Y0148373D02*
X0018642Y0148373D01*
X0016158Y0149972D02*
X0023522Y0149972D01*
X0023522Y0151570D02*
X0017541Y0151570D01*
X0018533Y0153169D02*
X0023522Y0153169D01*
X0023522Y0154767D02*
X0018880Y0154767D01*
X0018744Y0156366D02*
X0023522Y0156366D01*
X0023522Y0157964D02*
X0018051Y0157964D01*
X0016145Y0159563D02*
X0023522Y0159563D01*
X0023522Y0161161D02*
X0018132Y0161161D01*
X0019363Y0162760D02*
X0023522Y0162760D01*
X0023522Y0164358D02*
X0019880Y0164358D01*
X0019880Y0165957D02*
X0023522Y0165957D01*
X0023522Y0167555D02*
X0019251Y0167555D01*
X0017861Y0169154D02*
X0023522Y0169154D01*
X0023522Y0170752D02*
X0017288Y0170752D01*
X0018620Y0172351D02*
X0023522Y0172351D01*
X0023522Y0173949D02*
X0019207Y0173949D01*
X0019293Y0175548D02*
X0023522Y0175548D01*
X0023522Y0177146D02*
X0018898Y0177146D01*
X0017863Y0178745D02*
X0023522Y0178745D01*
X0023522Y0180343D02*
X0015229Y0180343D01*
X0014008Y0180343D02*
X0013608Y0180343D01*
X0012387Y0180343D02*
X0009605Y0180343D01*
X0009605Y0178745D02*
X0009753Y0178745D01*
X0013608Y0178745D02*
X0014008Y0178745D01*
X0014008Y0177146D02*
X0013608Y0177146D01*
X0013608Y0175548D02*
X0014008Y0175548D01*
X0012361Y0185139D02*
X0021199Y0185139D01*
X0020676Y0186738D02*
X0012361Y0186738D01*
X0012361Y0188336D02*
X0020676Y0188336D01*
X0020676Y0189935D02*
X0012361Y0189935D01*
X0012361Y0191533D02*
X0020676Y0191533D01*
X0020676Y0193132D02*
X0012361Y0193132D01*
X0012361Y0194730D02*
X0020676Y0194730D01*
X0020676Y0196329D02*
X0012361Y0196329D01*
X0012361Y0197927D02*
X0014675Y0197927D01*
X0014167Y0199526D02*
X0012361Y0199526D01*
X0012442Y0201124D02*
X0014426Y0201124D01*
X0013427Y0202723D02*
X0015708Y0202723D01*
X0017548Y0199825D02*
X0024438Y0199825D01*
X0028200Y0197927D02*
X0028317Y0197927D01*
X0032346Y0189935D02*
X0035485Y0189935D01*
X0035473Y0191533D02*
X0044632Y0191533D01*
X0047076Y0189195D02*
X0037824Y0189195D01*
X0033296Y0184471D01*
X0033296Y0181518D01*
X0030147Y0181518D02*
X0030146Y0181518D01*
X0027362Y0181518D01*
X0027362Y0178919D01*
X0027485Y0178461D01*
X0027722Y0178051D01*
X0028057Y0177716D01*
X0028467Y0177479D01*
X0028925Y0177356D01*
X0030146Y0177356D01*
X0030146Y0181518D01*
X0030146Y0181518D01*
X0027362Y0181518D01*
X0027362Y0184117D01*
X0027485Y0184575D01*
X0027722Y0184986D01*
X0028057Y0185321D01*
X0028467Y0185558D01*
X0028925Y0185680D01*
X0030146Y0185680D01*
X0030146Y0181518D01*
X0030147Y0181518D01*
X0030146Y0181942D02*
X0030147Y0181942D01*
X0030146Y0183540D02*
X0030147Y0183540D01*
X0030146Y0185139D02*
X0030147Y0185139D01*
X0028200Y0186738D02*
X0032421Y0186738D01*
X0031544Y0188336D02*
X0033953Y0188336D01*
X0036446Y0181518D02*
X0036446Y0174628D01*
X0031328Y0174628D01*
X0031328Y0149038D01*
X0047076Y0149038D01*
X0049325Y0151570D02*
X0054718Y0151570D01*
X0054718Y0149972D02*
X0050348Y0149972D01*
X0050457Y0148373D02*
X0054718Y0148373D01*
X0056918Y0145101D02*
X0060461Y0145101D01*
X0060461Y0125416D01*
X0053370Y0125416D01*
X0052970Y0120516D02*
X0048733Y0120516D01*
X0048275Y0120393D01*
X0047865Y0120156D01*
X0047530Y0119821D01*
X0047293Y0119411D01*
X0047170Y0118953D01*
X0047170Y0116716D01*
X0052970Y0116716D01*
X0052970Y0120516D01*
X0053770Y0120516D02*
X0053770Y0116716D01*
X0052970Y0116716D01*
X0052970Y0115916D01*
X0047170Y0115916D01*
X0047170Y0113679D01*
X0047293Y0113221D01*
X0047530Y0112811D01*
X0047865Y0112475D01*
X0048275Y0112238D01*
X0048733Y0112116D01*
X0052970Y0112116D01*
X0052970Y0115916D01*
X0053770Y0115916D01*
X0053770Y0116716D01*
X0059570Y0116716D01*
X0059570Y0118953D01*
X0059447Y0119411D01*
X0059210Y0119821D01*
X0058875Y0120156D01*
X0058465Y0120393D01*
X0058007Y0120516D01*
X0053770Y0120516D01*
X0053770Y0119600D02*
X0052970Y0119600D01*
X0052970Y0118002D02*
X0053770Y0118002D01*
X0053770Y0116403D02*
X0098425Y0116403D01*
X0098425Y0114805D02*
X0059570Y0114805D01*
X0059570Y0115916D02*
X0059570Y0113679D01*
X0059447Y0113221D01*
X0059210Y0112811D01*
X0058875Y0112475D01*
X0058465Y0112238D01*
X0058007Y0112116D01*
X0053770Y0112116D01*
X0053770Y0115916D01*
X0059570Y0115916D01*
X0059570Y0118002D02*
X0065582Y0118002D01*
X0064861Y0119600D02*
X0059338Y0119600D01*
X0059439Y0113206D02*
X0098425Y0113206D01*
X0098425Y0111607D02*
X0045339Y0111607D01*
X0045339Y0113206D02*
X0047301Y0113206D01*
X0047170Y0114805D02*
X0045339Y0114805D01*
X0045339Y0116403D02*
X0052970Y0116403D01*
X0052970Y0114805D02*
X0053770Y0114805D01*
X0053770Y0113206D02*
X0052970Y0113206D01*
X0054950Y0109117D02*
X0043139Y0109117D01*
X0040939Y0111607D02*
X0023685Y0111607D01*
X0023685Y0113206D02*
X0040939Y0113206D01*
X0040939Y0114805D02*
X0023685Y0114805D01*
X0023685Y0116403D02*
X0040939Y0116403D01*
X0040939Y0118002D02*
X0034700Y0118002D01*
X0034700Y0119600D02*
X0040939Y0119600D01*
X0040939Y0121199D02*
X0034700Y0121199D01*
X0034700Y0122797D02*
X0040939Y0122797D01*
X0039202Y0125416D02*
X0028969Y0125416D01*
X0034700Y0129191D02*
X0037002Y0129191D01*
X0037002Y0130790D02*
X0034700Y0130790D01*
X0034700Y0132388D02*
X0037002Y0132388D01*
X0037002Y0137184D02*
X0027635Y0137184D01*
X0028409Y0138782D02*
X0037002Y0138782D01*
X0037002Y0140381D02*
X0028165Y0140381D01*
X0027322Y0141979D02*
X0037002Y0141979D01*
X0037002Y0143578D02*
X0027322Y0143578D01*
X0027322Y0145176D02*
X0037002Y0145176D01*
X0037764Y0146775D02*
X0027322Y0146775D01*
X0027322Y0148373D02*
X0029128Y0148373D01*
X0029128Y0149972D02*
X0027322Y0149972D01*
X0027322Y0151570D02*
X0029128Y0151570D01*
X0029128Y0153169D02*
X0027322Y0153169D01*
X0027322Y0154767D02*
X0029128Y0154767D01*
X0029128Y0156366D02*
X0027322Y0156366D01*
X0027322Y0157964D02*
X0029128Y0157964D01*
X0029128Y0159563D02*
X0027322Y0159563D01*
X0027322Y0161161D02*
X0029128Y0161161D01*
X0029128Y0162760D02*
X0027322Y0162760D01*
X0027322Y0164358D02*
X0029128Y0164358D01*
X0029128Y0165957D02*
X0027322Y0165957D01*
X0027322Y0167555D02*
X0029128Y0167555D01*
X0029128Y0169154D02*
X0027322Y0169154D01*
X0027322Y0170752D02*
X0029128Y0170752D01*
X0029128Y0172351D02*
X0027322Y0172351D01*
X0027322Y0173949D02*
X0029128Y0173949D01*
X0029136Y0175548D02*
X0027322Y0175548D01*
X0027322Y0177146D02*
X0034246Y0177146D01*
X0030147Y0178745D02*
X0030146Y0178745D01*
X0030146Y0180343D02*
X0030147Y0180343D01*
X0027362Y0180343D02*
X0027322Y0180343D01*
X0027322Y0178745D02*
X0027409Y0178745D01*
X0027362Y0181942D02*
X0027322Y0181942D01*
X0027362Y0183540D02*
X0027071Y0183540D01*
X0027676Y0185139D02*
X0027875Y0185139D01*
X0038515Y0186738D02*
X0044752Y0186738D01*
X0045894Y0185139D02*
X0045895Y0185139D01*
X0045894Y0183540D02*
X0045895Y0183540D01*
X0045894Y0181942D02*
X0045895Y0181942D01*
X0045894Y0180343D02*
X0045895Y0180343D01*
X0045894Y0178745D02*
X0045895Y0178745D01*
X0046057Y0177146D02*
X0045039Y0177146D01*
X0045039Y0175548D02*
X0046245Y0175548D01*
X0046504Y0173949D02*
X0047629Y0173949D01*
X0048103Y0172351D02*
X0054718Y0172351D01*
X0054718Y0173949D02*
X0050459Y0173949D01*
X0051843Y0175548D02*
X0054718Y0175548D01*
X0054718Y0177146D02*
X0052031Y0177146D01*
X0052194Y0178745D02*
X0052194Y0178745D01*
X0052194Y0180343D02*
X0052194Y0180343D01*
X0052194Y0181942D02*
X0052194Y0181942D01*
X0052194Y0183540D02*
X0052194Y0183540D01*
X0052194Y0185139D02*
X0052194Y0185139D01*
X0052805Y0186738D02*
X0049399Y0186738D01*
X0050379Y0188336D02*
X0050887Y0188336D01*
X0050630Y0189935D02*
X0050429Y0189935D01*
X0050687Y0191533D02*
X0049519Y0191533D01*
X0054465Y0185139D02*
X0054664Y0185139D01*
X0054978Y0183540D02*
X0055342Y0183540D01*
X0056918Y0180534D02*
X0056918Y0145101D01*
X0039202Y0145101D01*
X0039202Y0125416D01*
X0045339Y0119600D02*
X0047402Y0119600D01*
X0047170Y0118002D02*
X0045339Y0118002D01*
X0052734Y0106812D02*
X0019559Y0106812D01*
X0019285Y0108410D02*
X0018604Y0108410D01*
X0019285Y0110009D02*
X0016068Y0110009D01*
X0017578Y0111607D02*
X0019285Y0111607D01*
X0019285Y0113206D02*
X0018548Y0113206D01*
X0019880Y0105213D02*
X0052723Y0105213D01*
X0052713Y0103615D02*
X0019718Y0103615D01*
X0018987Y0102016D02*
X0052702Y0102016D01*
X0052691Y0100418D02*
X0018106Y0100418D01*
X0019280Y0098819D02*
X0052680Y0098819D01*
X0052670Y0097221D02*
X0019280Y0097221D01*
X0019280Y0095622D02*
X0052659Y0095622D01*
X0052648Y0094024D02*
X0019280Y0094024D01*
X0019280Y0092425D02*
X0052637Y0092425D01*
X0052626Y0090827D02*
X0019211Y0090827D01*
X0013980Y0090827D02*
X0013580Y0090827D01*
X0013580Y0092425D02*
X0013980Y0092425D01*
X0013980Y0094024D02*
X0013580Y0094024D01*
X0040073Y0076440D02*
X0041874Y0076440D01*
X0041419Y0082834D02*
X0040527Y0082834D01*
X0048401Y0082834D02*
X0051262Y0082834D01*
X0050376Y0081236D02*
X0049287Y0081236D01*
X0049479Y0079637D02*
X0050184Y0079637D01*
X0050564Y0078039D02*
X0049099Y0078039D01*
X0054753Y0079865D02*
X0054950Y0109117D01*
X0057150Y0108410D02*
X0098425Y0108410D01*
X0098425Y0106812D02*
X0057134Y0106812D01*
X0057123Y0105213D02*
X0098425Y0105213D01*
X0098425Y0103615D02*
X0057113Y0103615D01*
X0057102Y0102016D02*
X0098425Y0102016D01*
X0098425Y0100418D02*
X0057091Y0100418D01*
X0057080Y0098819D02*
X0098425Y0098819D01*
X0098425Y0097221D02*
X0057070Y0097221D01*
X0057059Y0095622D02*
X0098425Y0095622D01*
X0098425Y0094024D02*
X0057048Y0094024D01*
X0057037Y0092425D02*
X0098425Y0092425D01*
X0098425Y0090827D02*
X0057027Y0090827D01*
X0057016Y0089228D02*
X0098425Y0089228D01*
X0098425Y0087630D02*
X0057005Y0087630D01*
X0056994Y0086031D02*
X0098425Y0086031D01*
X0098425Y0084433D02*
X0056984Y0084433D01*
X0058244Y0082834D02*
X0098425Y0082834D01*
X0098425Y0081236D02*
X0059130Y0081236D01*
X0059321Y0079637D02*
X0098425Y0079637D01*
X0098425Y0078039D02*
X0069402Y0078039D01*
X0071037Y0076440D02*
X0098378Y0076440D01*
X0098198Y0074842D02*
X0072003Y0074842D01*
X0072540Y0073243D02*
X0097770Y0073243D01*
X0102153Y0075213D02*
X0102025Y0077158D01*
X0102025Y0240602D01*
X0102153Y0242547D01*
X0103160Y0246305D01*
X0105105Y0249675D01*
X0107856Y0252426D01*
X0111225Y0254371D01*
X0114983Y0255378D01*
X0116928Y0255506D01*
X0181947Y0255506D01*
X0183892Y0255378D01*
X0187650Y0254371D01*
X0191020Y0252426D01*
X0193771Y0249675D01*
X0195716Y0246305D01*
X0196723Y0242547D01*
X0196850Y0240602D01*
X0196850Y0077158D01*
X0196723Y0075213D01*
X0195716Y0071455D01*
X0193771Y0068086D01*
X0191020Y0065335D01*
X0187650Y0063390D01*
X0183892Y0062383D01*
X0181947Y0062255D01*
X0116928Y0062255D01*
X0114983Y0062383D01*
X0111225Y0063390D01*
X0107856Y0065335D01*
X0105105Y0068086D01*
X0103160Y0071455D01*
X0102153Y0075213D01*
X0102252Y0074842D02*
X0108369Y0074842D01*
X0108469Y0075083D02*
X0108061Y0074098D01*
X0107785Y0073068D01*
X0107681Y0072279D01*
X0114976Y0072279D01*
X0114976Y0070679D01*
X0107681Y0070679D01*
X0107785Y0069889D01*
X0108061Y0068860D01*
X0108469Y0067875D01*
X0109001Y0066952D01*
X0109650Y0066106D01*
X0110404Y0065353D01*
X0111249Y0064704D01*
X0112173Y0064171D01*
X0113157Y0063763D01*
X0114187Y0063487D01*
X0114976Y0063383D01*
X0114976Y0070679D01*
X0116576Y0070679D01*
X0116576Y0063383D01*
X0117366Y0063487D01*
X0118396Y0063763D01*
X0119380Y0064171D01*
X0120303Y0064704D01*
X0121149Y0065353D01*
X0121902Y0066106D01*
X0122551Y0066952D01*
X0123084Y0067875D01*
X0123492Y0068860D01*
X0123768Y0069889D01*
X0123872Y0070679D01*
X0116576Y0070679D01*
X0116576Y0072279D01*
X0114976Y0072279D01*
X0114976Y0079574D01*
X0114187Y0079470D01*
X0113157Y0079194D01*
X0112173Y0078787D01*
X0111249Y0078254D01*
X0110404Y0077605D01*
X0109650Y0076851D01*
X0109001Y0076006D01*
X0108469Y0075083D01*
X0109335Y0076440D02*
X0102072Y0076440D01*
X0102025Y0078039D02*
X0110969Y0078039D01*
X0114976Y0078039D02*
X0116576Y0078039D01*
X0116576Y0079574D02*
X0116576Y0072279D01*
X0123872Y0072279D01*
X0123768Y0073068D01*
X0123492Y0074098D01*
X0123084Y0075083D01*
X0122605Y0075913D01*
X0123015Y0075615D01*
X0123712Y0075260D01*
X0124455Y0075018D01*
X0125228Y0074896D01*
X0125435Y0074896D01*
X0125435Y0079680D01*
X0125803Y0079680D01*
X0125803Y0074896D01*
X0126010Y0074896D01*
X0126782Y0075018D01*
X0127526Y0075260D01*
X0128223Y0075615D01*
X0128856Y0076075D01*
X0129409Y0076628D01*
X0129868Y0077260D01*
X0130223Y0077957D01*
X0130465Y0078701D01*
X0130587Y0079474D01*
X0130587Y0079680D01*
X0125803Y0079680D01*
X0125803Y0080049D01*
X0125435Y0080049D01*
X0125435Y0084833D01*
X0125228Y0084833D01*
X0124455Y0084711D01*
X0123712Y0084469D01*
X0123015Y0084114D01*
X0122382Y0083654D01*
X0121829Y0083101D01*
X0121369Y0082469D01*
X0121014Y0081772D01*
X0120773Y0081028D01*
X0120650Y0080256D01*
X0120650Y0080049D01*
X0125435Y0080049D01*
X0125435Y0079680D01*
X0120650Y0079680D01*
X0120650Y0079474D01*
X0120773Y0078701D01*
X0121014Y0077957D01*
X0121241Y0077513D01*
X0121149Y0077605D01*
X0120303Y0078254D01*
X0119380Y0078787D01*
X0118396Y0079194D01*
X0117366Y0079470D01*
X0116576Y0079574D01*
X0116576Y0076440D02*
X0114976Y0076440D01*
X0114976Y0074842D02*
X0116576Y0074842D01*
X0116576Y0073243D02*
X0114976Y0073243D01*
X0114976Y0071645D02*
X0103109Y0071645D01*
X0102681Y0073243D02*
X0107832Y0073243D01*
X0107764Y0070046D02*
X0103973Y0070046D01*
X0104896Y0068448D02*
X0108231Y0068448D01*
X0109080Y0066849D02*
X0106342Y0066849D01*
X0108002Y0065251D02*
X0110537Y0065251D01*
X0110770Y0063652D02*
X0113571Y0063652D01*
X0114976Y0063652D02*
X0116576Y0063652D01*
X0117982Y0063652D02*
X0160815Y0063652D01*
X0160401Y0063763D02*
X0161431Y0063487D01*
X0162220Y0063383D01*
X0162220Y0070679D01*
X0154925Y0070679D01*
X0155029Y0069889D01*
X0155305Y0068860D01*
X0155713Y0067875D01*
X0156246Y0066952D01*
X0156894Y0066106D01*
X0157648Y0065353D01*
X0158494Y0064704D01*
X0159417Y0064171D01*
X0160401Y0063763D01*
X0162220Y0063652D02*
X0163820Y0063652D01*
X0163820Y0063383D02*
X0164610Y0063487D01*
X0165640Y0063763D01*
X0166624Y0064171D01*
X0167547Y0064704D01*
X0168393Y0065353D01*
X0169147Y0066106D01*
X0169795Y0066952D01*
X0170328Y0067875D01*
X0170736Y0068860D01*
X0171012Y0069889D01*
X0171116Y0070679D01*
X0163821Y0070679D01*
X0163821Y0072279D01*
X0171116Y0072279D01*
X0171012Y0073068D01*
X0170736Y0074098D01*
X0170328Y0075083D01*
X0169795Y0076006D01*
X0169147Y0076851D01*
X0168393Y0077605D01*
X0167547Y0078254D01*
X0166624Y0078787D01*
X0165640Y0079194D01*
X0164610Y0079470D01*
X0163820Y0079574D01*
X0163820Y0072279D01*
X0162220Y0072279D01*
X0162220Y0070679D01*
X0163820Y0070679D01*
X0163820Y0063383D01*
X0165226Y0063652D02*
X0188105Y0063652D01*
X0190874Y0065251D02*
X0168260Y0065251D01*
X0169717Y0066849D02*
X0192534Y0066849D01*
X0193980Y0068448D02*
X0170566Y0068448D01*
X0171033Y0070046D02*
X0194902Y0070046D01*
X0195767Y0071645D02*
X0163821Y0071645D01*
X0163820Y0073243D02*
X0162220Y0073243D01*
X0162220Y0072279D02*
X0162220Y0079574D01*
X0161431Y0079470D01*
X0160401Y0079194D01*
X0159417Y0078787D01*
X0158494Y0078254D01*
X0157648Y0077605D01*
X0156894Y0076851D01*
X0156246Y0076006D01*
X0155713Y0075083D01*
X0155305Y0074098D01*
X0155029Y0073068D01*
X0154925Y0072279D01*
X0162220Y0072279D01*
X0162220Y0071645D02*
X0152813Y0071645D01*
X0152813Y0072346D02*
X0152813Y0070612D01*
X0152149Y0069010D01*
X0150923Y0067783D01*
X0149321Y0067120D01*
X0147586Y0067120D01*
X0145984Y0067783D01*
X0144758Y0069010D01*
X0144094Y0070612D01*
X0144094Y0072346D01*
X0144758Y0073948D01*
X0145984Y0075174D01*
X0147586Y0075838D01*
X0149321Y0075838D01*
X0150923Y0075174D01*
X0152149Y0073948D01*
X0152813Y0072346D01*
X0152441Y0073243D02*
X0155076Y0073243D01*
X0155613Y0074842D02*
X0151255Y0074842D01*
X0152269Y0075296D02*
X0154087Y0075296D01*
X0155766Y0075992D01*
X0157051Y0077277D01*
X0157746Y0078956D01*
X0157746Y0080773D01*
X0157051Y0082452D01*
X0155766Y0083738D01*
X0155405Y0083887D01*
X0155569Y0108199D01*
X0155575Y0108205D01*
X0155575Y0109110D01*
X0155581Y0110013D01*
X0155575Y0110019D01*
X0155575Y0110028D01*
X0154935Y0110667D01*
X0154301Y0111310D01*
X0154292Y0111310D01*
X0154286Y0111317D01*
X0153382Y0111317D01*
X0152478Y0111323D01*
X0152472Y0111317D01*
X0143764Y0111317D01*
X0143764Y0133058D01*
X0145995Y0133058D01*
X0145995Y0131536D01*
X0146815Y0130716D01*
X0156687Y0130716D01*
X0156687Y0129216D01*
X0146815Y0129216D01*
X0145995Y0128396D01*
X0145995Y0122436D01*
X0146815Y0121616D01*
X0156775Y0121616D01*
X0157493Y0122333D01*
X0158214Y0122035D01*
X0159559Y0122035D01*
X0160802Y0122549D01*
X0161753Y0123501D01*
X0162268Y0124743D01*
X0162268Y0126088D01*
X0161753Y0127331D01*
X0161087Y0127997D01*
X0161087Y0146012D01*
X0159798Y0147301D01*
X0157543Y0147301D01*
X0157543Y0177952D01*
X0158210Y0178619D01*
X0158724Y0179861D01*
X0158724Y0181206D01*
X0158210Y0182449D01*
X0157259Y0183400D01*
X0156016Y0183915D01*
X0154671Y0183915D01*
X0153428Y0183400D01*
X0153403Y0183375D01*
X0153403Y0184117D01*
X0153280Y0184575D01*
X0153044Y0184986D01*
X0152708Y0185321D01*
X0152298Y0185558D01*
X0151840Y0185680D01*
X0150619Y0185680D01*
X0150619Y0181518D01*
X0150619Y0177356D01*
X0151840Y0177356D01*
X0152298Y0177479D01*
X0152708Y0177716D01*
X0153044Y0178051D01*
X0153044Y0178052D02*
X0153143Y0177952D01*
X0153143Y0147301D01*
X0148441Y0147301D01*
X0148882Y0148365D01*
X0148882Y0149710D01*
X0148367Y0150953D01*
X0147416Y0151904D01*
X0146173Y0152419D01*
X0144828Y0152419D01*
X0143586Y0151904D01*
X0142919Y0151238D01*
X0131953Y0151238D01*
X0131953Y0153346D01*
X0135648Y0153346D01*
X0136097Y0153796D01*
X0136186Y0153641D01*
X0136522Y0153306D01*
X0136932Y0153069D01*
X0137390Y0152946D01*
X0139411Y0152946D01*
X0139411Y0162633D01*
X0139780Y0162633D01*
X0139780Y0152946D01*
X0141801Y0152946D01*
X0142259Y0153069D01*
X0142669Y0153306D01*
X0143004Y0153641D01*
X0143093Y0153796D01*
X0143543Y0153346D01*
X0147459Y0153346D01*
X0148279Y0154167D01*
X0148279Y0171468D01*
X0147459Y0172288D01*
X0146591Y0172288D01*
X0146288Y0172591D01*
X0144319Y0174560D01*
X0143464Y0174560D01*
X0143464Y0177356D01*
X0144320Y0177356D01*
X0144550Y0177356D01*
X0144482Y0177191D01*
X0144482Y0176003D01*
X0144937Y0174905D01*
X0145777Y0174064D01*
X0146875Y0173609D01*
X0148064Y0173609D01*
X0149162Y0174064D01*
X0150002Y0174905D01*
X0150457Y0176003D01*
X0150457Y0177191D01*
X0150388Y0177356D01*
X0150619Y0177356D01*
X0150619Y0181518D01*
X0150619Y0181518D01*
X0150619Y0181518D01*
X0150619Y0185680D01*
X0149398Y0185680D01*
X0148940Y0185558D01*
X0148529Y0185321D01*
X0148489Y0185280D01*
X0146450Y0185280D01*
X0146409Y0185321D01*
X0145999Y0185558D01*
X0145541Y0185680D01*
X0144320Y0185680D01*
X0144320Y0181518D01*
X0144320Y0177356D01*
X0144320Y0181518D01*
X0144320Y0181518D01*
X0144320Y0181518D01*
X0144320Y0185680D01*
X0143098Y0185680D01*
X0142641Y0185558D01*
X0142230Y0185321D01*
X0142190Y0185280D01*
X0139606Y0185280D01*
X0139595Y0185270D01*
X0139585Y0185280D01*
X0136456Y0185280D01*
X0136446Y0185270D01*
X0136435Y0185280D01*
X0135544Y0185280D01*
X0137188Y0186995D01*
X0142919Y0186995D01*
X0143586Y0186329D01*
X0144828Y0185814D01*
X0146173Y0185814D01*
X0147416Y0186329D01*
X0148367Y0187280D01*
X0148882Y0188523D01*
X0148882Y0189868D01*
X0148367Y0191111D01*
X0147416Y0192062D01*
X0146567Y0192413D01*
X0149113Y0192413D01*
X0149113Y0190080D01*
X0149049Y0190004D01*
X0149113Y0189306D01*
X0149113Y0188605D01*
X0149183Y0188535D01*
X0149192Y0188436D01*
X0149730Y0187988D01*
X0150226Y0187492D01*
X0150325Y0187492D01*
X0152092Y0186019D01*
X0152588Y0185524D01*
X0152687Y0185524D01*
X0152763Y0185460D01*
X0152767Y0185461D01*
X0153385Y0184843D01*
X0159270Y0184843D01*
X0160090Y0185663D01*
X0160090Y0188791D01*
X0160079Y0188802D01*
X0160090Y0188812D01*
X0160090Y0191626D01*
X0161317Y0191626D01*
X0161317Y0132503D01*
X0162430Y0131390D01*
X0163286Y0131390D01*
X0163286Y0118723D01*
X0164399Y0117610D01*
X0170735Y0117610D01*
X0171368Y0116978D01*
X0172466Y0116523D01*
X0173654Y0116523D01*
X0174752Y0116978D01*
X0175592Y0117818D01*
X0176047Y0118916D01*
X0176047Y0120104D01*
X0175592Y0121202D01*
X0174752Y0122043D01*
X0173654Y0122498D01*
X0172466Y0122498D01*
X0171368Y0122043D01*
X0170735Y0121410D01*
X0167086Y0121410D01*
X0167086Y0134077D01*
X0165973Y0135190D01*
X0165117Y0135190D01*
X0165117Y0149106D01*
X0170735Y0149106D01*
X0171368Y0148474D01*
X0172466Y0148019D01*
X0173654Y0148019D01*
X0174752Y0148474D01*
X0175592Y0149314D01*
X0176047Y0150412D01*
X0176047Y0151601D01*
X0175592Y0152699D01*
X0174752Y0153539D01*
X0173654Y0153994D01*
X0172466Y0153994D01*
X0171368Y0153539D01*
X0170735Y0152906D01*
X0167086Y0152906D01*
X0167086Y0180602D01*
X0170735Y0180602D01*
X0171368Y0179970D01*
X0172466Y0179515D01*
X0173654Y0179515D01*
X0174752Y0179970D01*
X0175592Y0180810D01*
X0176047Y0181908D01*
X0176047Y0183097D01*
X0175592Y0184195D01*
X0174752Y0185035D01*
X0173654Y0185490D01*
X0172466Y0185490D01*
X0171368Y0185035D01*
X0170735Y0184402D01*
X0169054Y0184402D01*
X0169054Y0203762D01*
X0168267Y0204550D01*
X0169054Y0205337D01*
X0169054Y0212098D01*
X0170735Y0212098D01*
X0171368Y0211466D01*
X0172466Y0211011D01*
X0173654Y0211011D01*
X0174752Y0211466D01*
X0175592Y0212306D01*
X0176047Y0213404D01*
X0176047Y0214593D01*
X0175592Y0215691D01*
X0174752Y0216531D01*
X0173654Y0216986D01*
X0172466Y0216986D01*
X0171368Y0216531D01*
X0170735Y0215898D01*
X0166367Y0215898D01*
X0165254Y0214785D01*
X0165254Y0208024D01*
X0160482Y0208024D01*
X0160490Y0208053D01*
X0160490Y0209274D01*
X0160490Y0210495D01*
X0160367Y0210953D01*
X0160130Y0211363D01*
X0159795Y0211699D01*
X0159385Y0211936D01*
X0158927Y0212058D01*
X0156328Y0212058D01*
X0156328Y0209274D01*
X0160490Y0209274D01*
X0156328Y0209274D01*
X0156328Y0209274D01*
X0156327Y0209274D01*
X0152165Y0209274D01*
X0152165Y0208053D01*
X0152288Y0207595D01*
X0152525Y0207185D01*
X0152565Y0207144D01*
X0152565Y0204560D01*
X0152576Y0204550D01*
X0152565Y0204539D01*
X0152565Y0202025D01*
X0148082Y0202025D01*
X0147416Y0202692D01*
X0146173Y0203206D01*
X0144828Y0203206D01*
X0143586Y0202692D01*
X0142919Y0202025D01*
X0139721Y0202025D01*
X0140159Y0202464D01*
X0140356Y0202938D01*
X0140710Y0203085D01*
X0140710Y0203085D01*
X0142241Y0204616D01*
X0143070Y0206616D01*
X0143070Y0210828D01*
X0143098Y0210820D01*
X0144320Y0210820D01*
X0145541Y0210820D01*
X0145999Y0210943D01*
X0146409Y0211180D01*
X0146450Y0211220D01*
X0149033Y0211220D01*
X0149044Y0211231D01*
X0149055Y0211220D01*
X0152183Y0211220D01*
X0153003Y0212041D01*
X0153003Y0214067D01*
X0153018Y0214067D01*
X0153651Y0213434D01*
X0154749Y0212980D01*
X0155938Y0212980D01*
X0157036Y0213434D01*
X0157876Y0214275D01*
X0158331Y0215373D01*
X0158331Y0216561D01*
X0157876Y0217659D01*
X0157036Y0218500D01*
X0155938Y0218954D01*
X0154749Y0218954D01*
X0153651Y0218500D01*
X0153018Y0217867D01*
X0153003Y0217867D01*
X0153003Y0217925D01*
X0152183Y0218745D01*
X0149369Y0218745D01*
X0149369Y0220366D01*
X0150656Y0220366D01*
X0151289Y0219734D01*
X0152387Y0219279D01*
X0153575Y0219279D01*
X0154673Y0219734D01*
X0155514Y0220574D01*
X0155968Y0221672D01*
X0155968Y0222860D01*
X0155514Y0223958D01*
X0154673Y0224799D01*
X0153575Y0225254D01*
X0152387Y0225254D01*
X0151289Y0224799D01*
X0150656Y0224166D01*
X0146682Y0224166D01*
X0145569Y0223053D01*
X0145569Y0219137D01*
X0145541Y0219145D01*
X0144320Y0219145D01*
X0144320Y0214983D01*
X0144320Y0214983D01*
X0144320Y0219145D01*
X0143098Y0219145D01*
X0142641Y0219022D01*
X0142230Y0218785D01*
X0142190Y0218745D01*
X0139606Y0218745D01*
X0139595Y0218734D01*
X0139585Y0218745D01*
X0136456Y0218745D01*
X0136446Y0218734D01*
X0136435Y0218745D01*
X0133621Y0218745D01*
X0133621Y0219707D01*
X0132508Y0220820D01*
X0127322Y0220820D01*
X0127322Y0224628D01*
X0126209Y0225741D01*
X0111142Y0225741D01*
X0121080Y0235679D01*
X0121005Y0235204D01*
X0121005Y0234931D01*
X0125710Y0234931D01*
X0125710Y0239636D01*
X0125437Y0239636D01*
X0124962Y0239561D01*
X0126727Y0241326D01*
X0144590Y0241326D01*
X0149330Y0236586D01*
X0148964Y0235703D01*
X0148964Y0233948D01*
X0149635Y0232327D01*
X0150876Y0231086D01*
X0152497Y0230414D01*
X0154252Y0230414D01*
X0155873Y0231086D01*
X0157114Y0232327D01*
X0157786Y0233948D01*
X0157786Y0235703D01*
X0157114Y0237324D01*
X0155873Y0238565D01*
X0154252Y0239236D01*
X0152902Y0239236D01*
X0146412Y0245726D01*
X0124904Y0245726D01*
X0123616Y0244437D01*
X0121378Y0242199D01*
X0121632Y0242812D01*
X0121914Y0243866D01*
X0122023Y0244694D01*
X0114529Y0244694D01*
X0114529Y0237200D01*
X0115357Y0237309D01*
X0116412Y0237592D01*
X0117024Y0237846D01*
X0109156Y0229978D01*
X0108712Y0229978D01*
X0107849Y0230841D01*
X0106606Y0231356D01*
X0105261Y0231356D01*
X0104019Y0230841D01*
X0103067Y0229890D01*
X0102553Y0228647D01*
X0102553Y0227302D01*
X0103067Y0226060D01*
X0103386Y0225741D01*
X0103375Y0225741D01*
X0102262Y0224628D01*
X0102262Y0134235D01*
X0103375Y0133122D01*
X0107472Y0133122D01*
X0107882Y0132133D01*
X0109317Y0130698D01*
X0111191Y0129922D01*
X0111708Y0129922D01*
X0110317Y0129346D01*
X0108882Y0127911D01*
X0108106Y0126037D01*
X0108106Y0124008D01*
X0108882Y0122133D01*
X0110317Y0120698D01*
X0111708Y0120122D01*
X0111191Y0120122D01*
X0109317Y0119346D01*
X0107882Y0117911D01*
X0107106Y0116037D01*
X0107106Y0114008D01*
X0107882Y0112133D01*
X0109317Y0110698D01*
X0111191Y0109922D01*
X0111708Y0109922D01*
X0110317Y0109346D01*
X0108882Y0107911D01*
X0108106Y0106037D01*
X0108106Y0104008D01*
X0108882Y0102133D01*
X0110317Y0100698D01*
X0110743Y0100522D01*
X0108269Y0100522D01*
X0107811Y0100399D01*
X0107400Y0100162D01*
X0107065Y0099827D01*
X0106828Y0099417D01*
X0106706Y0098959D01*
X0106706Y0095222D01*
X0112005Y0095222D01*
X0112005Y0094822D01*
X0106705Y0094822D01*
X0106706Y0091085D01*
X0106828Y0090627D01*
X0107065Y0090217D01*
X0107400Y0089882D01*
X0107811Y0089645D01*
X0108269Y0089522D01*
X0112005Y0089522D01*
X0112005Y0094822D01*
X0112406Y0094822D01*
X0112406Y0095222D01*
X0117705Y0095222D01*
X0117705Y0098959D01*
X0117583Y0099417D01*
X0117346Y0099827D01*
X0117011Y0100162D01*
X0116600Y0100399D01*
X0116142Y0100522D01*
X0115668Y0100522D01*
X0116094Y0100698D01*
X0117529Y0102133D01*
X0118305Y0104008D01*
X0118305Y0106037D01*
X0117529Y0107911D01*
X0116094Y0109346D01*
X0114220Y0110122D01*
X0113703Y0110122D01*
X0115094Y0110698D01*
X0116529Y0112133D01*
X0117043Y0113373D01*
X0117710Y0113373D01*
X0117710Y0108205D01*
X0118999Y0106917D01*
X0151160Y0106917D01*
X0151005Y0083909D01*
X0150590Y0083738D01*
X0149305Y0082452D01*
X0148609Y0080773D01*
X0148609Y0078956D01*
X0149305Y0077277D01*
X0150590Y0075992D01*
X0152269Y0075296D01*
X0150141Y0076440D02*
X0146372Y0076440D01*
X0145923Y0075992D02*
X0147208Y0077277D01*
X0147904Y0078956D01*
X0147904Y0080773D01*
X0147208Y0082452D01*
X0145923Y0083738D01*
X0144244Y0084433D01*
X0142427Y0084433D01*
X0140748Y0083738D01*
X0139462Y0082452D01*
X0139398Y0082298D01*
X0139334Y0082452D01*
X0138049Y0083738D01*
X0136370Y0084433D01*
X0134553Y0084433D01*
X0132874Y0083738D01*
X0131588Y0082452D01*
X0130893Y0080773D01*
X0130893Y0078956D01*
X0131588Y0077277D01*
X0132874Y0075992D01*
X0134553Y0075296D01*
X0136370Y0075296D01*
X0138049Y0075992D01*
X0139334Y0077277D01*
X0139398Y0077431D01*
X0139462Y0077277D01*
X0140748Y0075992D01*
X0142427Y0075296D01*
X0144244Y0075296D01*
X0145923Y0075992D01*
X0145652Y0074842D02*
X0133145Y0074842D01*
X0132813Y0075174D02*
X0131210Y0075838D01*
X0129476Y0075838D01*
X0127874Y0075174D01*
X0126648Y0073948D01*
X0125984Y0072346D01*
X0125984Y0070612D01*
X0126648Y0069010D01*
X0127874Y0067783D01*
X0129476Y0067120D01*
X0131210Y0067120D01*
X0132813Y0067783D01*
X0134039Y0069010D01*
X0134702Y0070612D01*
X0134702Y0072346D01*
X0134039Y0073948D01*
X0132813Y0075174D01*
X0132425Y0076440D02*
X0129221Y0076440D01*
X0130250Y0078039D02*
X0131273Y0078039D01*
X0130893Y0079637D02*
X0130587Y0079637D01*
X0130587Y0080049D02*
X0130587Y0080256D01*
X0130465Y0081028D01*
X0130223Y0081772D01*
X0129868Y0082469D01*
X0129409Y0083101D01*
X0128856Y0083654D01*
X0128223Y0084114D01*
X0127526Y0084469D01*
X0126782Y0084711D01*
X0126010Y0084833D01*
X0125803Y0084833D01*
X0125803Y0080049D01*
X0130587Y0080049D01*
X0130398Y0081236D02*
X0131084Y0081236D01*
X0131970Y0082834D02*
X0129603Y0082834D01*
X0127597Y0084433D02*
X0134552Y0084433D01*
X0136371Y0084433D02*
X0142426Y0084433D01*
X0144245Y0084433D02*
X0151009Y0084433D01*
X0151019Y0086031D02*
X0102025Y0086031D01*
X0102025Y0084433D02*
X0123641Y0084433D01*
X0125435Y0084433D02*
X0125803Y0084433D01*
X0125803Y0082834D02*
X0125435Y0082834D01*
X0125435Y0081236D02*
X0125803Y0081236D01*
X0125803Y0079637D02*
X0125435Y0079637D01*
X0125435Y0078039D02*
X0125803Y0078039D01*
X0125803Y0076440D02*
X0125435Y0076440D01*
X0127542Y0074842D02*
X0123184Y0074842D01*
X0123721Y0073243D02*
X0126356Y0073243D01*
X0125984Y0071645D02*
X0116576Y0071645D01*
X0116576Y0070046D02*
X0114976Y0070046D01*
X0114976Y0068448D02*
X0116576Y0068448D01*
X0116576Y0066849D02*
X0114976Y0066849D01*
X0114976Y0065251D02*
X0116576Y0065251D01*
X0121016Y0065251D02*
X0157781Y0065251D01*
X0156324Y0066849D02*
X0122473Y0066849D01*
X0123321Y0068448D02*
X0127210Y0068448D01*
X0126218Y0070046D02*
X0123789Y0070046D01*
X0120988Y0078039D02*
X0120583Y0078039D01*
X0120650Y0079637D02*
X0102025Y0079637D01*
X0102025Y0081236D02*
X0120840Y0081236D01*
X0121635Y0082834D02*
X0102025Y0082834D01*
X0102025Y0087630D02*
X0151030Y0087630D01*
X0151041Y0089228D02*
X0102025Y0089228D01*
X0102025Y0090827D02*
X0106775Y0090827D01*
X0106705Y0092425D02*
X0102025Y0092425D01*
X0102025Y0094024D02*
X0106705Y0094024D01*
X0106706Y0095622D02*
X0102025Y0095622D01*
X0102025Y0097221D02*
X0106706Y0097221D01*
X0106706Y0098819D02*
X0102025Y0098819D01*
X0102025Y0100418D02*
X0107880Y0100418D01*
X0108999Y0102016D02*
X0102025Y0102016D01*
X0102025Y0103615D02*
X0108268Y0103615D01*
X0108106Y0105213D02*
X0102025Y0105213D01*
X0102025Y0106812D02*
X0108427Y0106812D01*
X0109381Y0108410D02*
X0102025Y0108410D01*
X0102025Y0110009D02*
X0110981Y0110009D01*
X0108408Y0111607D02*
X0102025Y0111607D01*
X0102025Y0113206D02*
X0107438Y0113206D01*
X0107106Y0114805D02*
X0102025Y0114805D01*
X0102025Y0116403D02*
X0107257Y0116403D01*
X0107973Y0118002D02*
X0102025Y0118002D01*
X0102025Y0119600D02*
X0109931Y0119600D01*
X0109817Y0121199D02*
X0102025Y0121199D01*
X0102025Y0122797D02*
X0108607Y0122797D01*
X0108106Y0124396D02*
X0102025Y0124396D01*
X0102025Y0125994D02*
X0108106Y0125994D01*
X0108750Y0127593D02*
X0102025Y0127593D01*
X0102025Y0129191D02*
X0110162Y0129191D01*
X0109225Y0130790D02*
X0102025Y0130790D01*
X0102025Y0132388D02*
X0107776Y0132388D01*
X0102511Y0133987D02*
X0102025Y0133987D01*
X0102025Y0135585D02*
X0102262Y0135585D01*
X0102262Y0137184D02*
X0102025Y0137184D01*
X0102025Y0138782D02*
X0102262Y0138782D01*
X0102262Y0140381D02*
X0102025Y0140381D01*
X0102025Y0141979D02*
X0102262Y0141979D01*
X0102262Y0143578D02*
X0102025Y0143578D01*
X0102025Y0145176D02*
X0102262Y0145176D01*
X0102262Y0146775D02*
X0102025Y0146775D01*
X0102025Y0148373D02*
X0102262Y0148373D01*
X0102262Y0149972D02*
X0102025Y0149972D01*
X0102025Y0151570D02*
X0102262Y0151570D01*
X0102262Y0153169D02*
X0102025Y0153169D01*
X0102025Y0154767D02*
X0102262Y0154767D01*
X0102262Y0156366D02*
X0102025Y0156366D01*
X0102025Y0157964D02*
X0102262Y0157964D01*
X0102262Y0159563D02*
X0102025Y0159563D01*
X0102025Y0161161D02*
X0102262Y0161161D01*
X0102262Y0162760D02*
X0102025Y0162760D01*
X0102025Y0164358D02*
X0102262Y0164358D01*
X0102262Y0165957D02*
X0102025Y0165957D01*
X0102025Y0167555D02*
X0102262Y0167555D01*
X0102262Y0169154D02*
X0102025Y0169154D01*
X0102025Y0170752D02*
X0102262Y0170752D01*
X0102262Y0172351D02*
X0102025Y0172351D01*
X0102025Y0173949D02*
X0102262Y0173949D01*
X0102262Y0175548D02*
X0102025Y0175548D01*
X0102025Y0177146D02*
X0102262Y0177146D01*
X0102262Y0178745D02*
X0102025Y0178745D01*
X0102025Y0180343D02*
X0102262Y0180343D01*
X0102262Y0181942D02*
X0102025Y0181942D01*
X0102025Y0183540D02*
X0102262Y0183540D01*
X0102262Y0185139D02*
X0102025Y0185139D01*
X0102025Y0186738D02*
X0102262Y0186738D01*
X0102262Y0188336D02*
X0102025Y0188336D01*
X0102025Y0189935D02*
X0102262Y0189935D01*
X0102262Y0191533D02*
X0102025Y0191533D01*
X0102025Y0193132D02*
X0102262Y0193132D01*
X0102262Y0194730D02*
X0102025Y0194730D01*
X0102025Y0196329D02*
X0102262Y0196329D01*
X0102262Y0197927D02*
X0102025Y0197927D01*
X0102025Y0199526D02*
X0102262Y0199526D01*
X0102262Y0201124D02*
X0102025Y0201124D01*
X0102025Y0202723D02*
X0102262Y0202723D01*
X0102262Y0204321D02*
X0102025Y0204321D01*
X0102025Y0205920D02*
X0102262Y0205920D01*
X0102262Y0207518D02*
X0102025Y0207518D01*
X0102025Y0209117D02*
X0102262Y0209117D01*
X0102262Y0210715D02*
X0102025Y0210715D01*
X0102025Y0212314D02*
X0102262Y0212314D01*
X0102262Y0213912D02*
X0102025Y0213912D01*
X0102025Y0215511D02*
X0102262Y0215511D01*
X0102262Y0217109D02*
X0102025Y0217109D01*
X0102025Y0218708D02*
X0102262Y0218708D01*
X0102262Y0220306D02*
X0102025Y0220306D01*
X0102025Y0221905D02*
X0102262Y0221905D01*
X0102262Y0223503D02*
X0102025Y0223503D01*
X0102025Y0225102D02*
X0102736Y0225102D01*
X0102802Y0226700D02*
X0102025Y0226700D01*
X0102025Y0228299D02*
X0102553Y0228299D01*
X0103075Y0229897D02*
X0102025Y0229897D01*
X0102025Y0231496D02*
X0110674Y0231496D01*
X0112273Y0233094D02*
X0102025Y0233094D01*
X0102025Y0234693D02*
X0113871Y0234693D01*
X0115470Y0236291D02*
X0102025Y0236291D01*
X0102025Y0237890D02*
X0110327Y0237890D01*
X0110038Y0238010D02*
X0111047Y0237592D01*
X0112101Y0237309D01*
X0112929Y0237200D01*
X0112929Y0244694D01*
X0114529Y0244694D01*
X0114529Y0246294D01*
X0122023Y0246294D01*
X0121914Y0247123D01*
X0121632Y0248177D01*
X0121214Y0249186D01*
X0120668Y0250131D01*
X0120004Y0250997D01*
X0119232Y0251769D01*
X0118366Y0252433D01*
X0117420Y0252979D01*
X0116412Y0253397D01*
X0115357Y0253680D01*
X0114529Y0253789D01*
X0114529Y0246295D01*
X0112929Y0246295D01*
X0112929Y0253789D01*
X0112101Y0253680D01*
X0111047Y0253397D01*
X0110038Y0252979D01*
X0109093Y0252433D01*
X0108227Y0251769D01*
X0107455Y0250997D01*
X0106790Y0250131D01*
X0106244Y0249186D01*
X0105827Y0248177D01*
X0105544Y0247123D01*
X0105435Y0246294D01*
X0112929Y0246294D01*
X0112929Y0244694D01*
X0105435Y0244694D01*
X0105544Y0243866D01*
X0105827Y0242812D01*
X0106244Y0241803D01*
X0106790Y0240858D01*
X0107455Y0239992D01*
X0108227Y0239220D01*
X0109093Y0238556D01*
X0110038Y0238010D01*
X0107958Y0239488D02*
X0102025Y0239488D01*
X0102057Y0241087D02*
X0106658Y0241087D01*
X0105879Y0242685D02*
X0102190Y0242685D01*
X0102618Y0244284D02*
X0105489Y0244284D01*
X0103046Y0245882D02*
X0112929Y0245882D01*
X0112929Y0244284D02*
X0114529Y0244284D01*
X0114529Y0245882D02*
X0164661Y0245882D01*
X0164661Y0246294D02*
X0164661Y0244694D01*
X0166261Y0244694D01*
X0166261Y0237200D01*
X0167090Y0237309D01*
X0168144Y0237592D01*
X0169152Y0238010D01*
X0170098Y0238556D01*
X0170964Y0239220D01*
X0171736Y0239992D01*
X0172400Y0240858D01*
X0172946Y0241803D01*
X0173364Y0242812D01*
X0173646Y0243866D01*
X0173755Y0244694D01*
X0166261Y0244694D01*
X0166261Y0246294D01*
X0173755Y0246294D01*
X0173646Y0247123D01*
X0173364Y0248177D01*
X0172946Y0249186D01*
X0172400Y0250131D01*
X0171736Y0250997D01*
X0170964Y0251769D01*
X0170098Y0252433D01*
X0169152Y0252979D01*
X0168144Y0253397D01*
X0167090Y0253680D01*
X0166261Y0253789D01*
X0166261Y0246295D01*
X0164661Y0246295D01*
X0164661Y0253789D01*
X0163833Y0253680D01*
X0162779Y0253397D01*
X0161770Y0252979D01*
X0160825Y0252433D01*
X0159959Y0251769D01*
X0159187Y0250997D01*
X0158522Y0250131D01*
X0157977Y0249186D01*
X0157559Y0248177D01*
X0157276Y0247123D01*
X0157167Y0246294D01*
X0164661Y0246294D01*
X0164661Y0247481D02*
X0166261Y0247481D01*
X0166261Y0249079D02*
X0164661Y0249079D01*
X0164661Y0250678D02*
X0166261Y0250678D01*
X0166261Y0252276D02*
X0164661Y0252276D01*
X0160620Y0252276D02*
X0118570Y0252276D01*
X0120248Y0250678D02*
X0158942Y0250678D01*
X0157933Y0249079D02*
X0121258Y0249079D01*
X0121818Y0247481D02*
X0157372Y0247481D01*
X0157167Y0244694D02*
X0157276Y0243866D01*
X0157559Y0242812D01*
X0157977Y0241803D01*
X0158522Y0240858D01*
X0159187Y0239992D01*
X0159959Y0239220D01*
X0160825Y0238556D01*
X0161770Y0238010D01*
X0162779Y0237592D01*
X0163833Y0237309D01*
X0164661Y0237200D01*
X0164661Y0244694D01*
X0157167Y0244694D01*
X0157221Y0244284D02*
X0147854Y0244284D01*
X0149453Y0242685D02*
X0157611Y0242685D01*
X0158390Y0241087D02*
X0151051Y0241087D01*
X0152650Y0239488D02*
X0159691Y0239488D01*
X0162060Y0237890D02*
X0156548Y0237890D01*
X0157542Y0236291D02*
X0196850Y0236291D01*
X0196850Y0234693D02*
X0157786Y0234693D01*
X0157432Y0233094D02*
X0196850Y0233094D01*
X0196850Y0231496D02*
X0156284Y0231496D01*
X0153375Y0234825D02*
X0153375Y0235652D01*
X0145501Y0243526D01*
X0125816Y0243526D01*
X0110068Y0227778D01*
X0106131Y0227778D01*
X0105934Y0227975D01*
X0106062Y0221941D02*
X0123522Y0221941D01*
X0123522Y0218133D01*
X0124635Y0217020D01*
X0125991Y0217020D01*
X0125991Y0213930D01*
X0116330Y0213930D01*
X0115697Y0214563D01*
X0114599Y0215017D01*
X0113410Y0215017D01*
X0112312Y0214563D01*
X0111472Y0213722D01*
X0111017Y0212624D01*
X0111017Y0211436D01*
X0111065Y0211320D01*
X0110579Y0211807D01*
X0109481Y0212261D01*
X0108292Y0212261D01*
X0107194Y0211807D01*
X0106354Y0210966D01*
X0106062Y0210262D01*
X0106062Y0221941D01*
X0106062Y0221905D02*
X0123522Y0221905D01*
X0123522Y0220306D02*
X0106062Y0220306D01*
X0106062Y0218708D02*
X0123522Y0218708D01*
X0124545Y0217109D02*
X0106062Y0217109D01*
X0106062Y0215511D02*
X0125991Y0215511D01*
X0126625Y0210130D02*
X0129162Y0210130D01*
X0130252Y0211220D01*
X0132405Y0211220D01*
X0131775Y0210959D01*
X0130823Y0210008D01*
X0130309Y0208765D01*
X0130309Y0207420D01*
X0130823Y0206178D01*
X0131490Y0205511D01*
X0131490Y0198914D01*
X0132222Y0198182D01*
X0128571Y0198182D01*
X0126997Y0198182D01*
X0126625Y0197810D01*
X0126625Y0198240D01*
X0126615Y0198250D01*
X0126625Y0198261D01*
X0126625Y0200845D01*
X0126666Y0200885D01*
X0126903Y0201296D01*
X0127025Y0201754D01*
X0127025Y0202975D01*
X0127025Y0204196D01*
X0126903Y0204654D01*
X0126666Y0205064D01*
X0126625Y0205105D01*
X0126625Y0207689D01*
X0126615Y0207699D01*
X0126625Y0207710D01*
X0126625Y0210130D01*
X0126625Y0209117D02*
X0130454Y0209117D01*
X0130309Y0207518D02*
X0126625Y0207518D01*
X0126625Y0205920D02*
X0131081Y0205920D01*
X0131490Y0204321D02*
X0126992Y0204321D01*
X0127025Y0202975D02*
X0122863Y0202975D01*
X0122863Y0202975D01*
X0122863Y0202975D01*
X0118701Y0202975D01*
X0118701Y0204196D01*
X0118708Y0204224D01*
X0111766Y0204224D01*
X0111874Y0203963D01*
X0111874Y0202774D01*
X0111419Y0201676D01*
X0110787Y0201044D01*
X0110787Y0184402D01*
X0124634Y0184402D01*
X0125747Y0183289D01*
X0125747Y0141520D01*
X0126380Y0140888D01*
X0126835Y0139790D01*
X0126835Y0138601D01*
X0126380Y0137503D01*
X0125539Y0136663D01*
X0124441Y0136208D01*
X0123253Y0136208D01*
X0122155Y0136663D01*
X0121315Y0137503D01*
X0120860Y0138601D01*
X0120860Y0139790D01*
X0121315Y0140888D01*
X0121947Y0141520D01*
X0121947Y0180602D01*
X0108100Y0180602D01*
X0108031Y0180671D01*
X0108031Y0178595D01*
X0108038Y0178605D01*
X0108650Y0179217D01*
X0109350Y0179726D01*
X0110122Y0180119D01*
X0110945Y0180387D01*
X0111800Y0180522D01*
X0112033Y0180522D01*
X0112033Y0175222D01*
X0112433Y0175222D01*
X0112433Y0180522D01*
X0112666Y0180522D01*
X0113521Y0180387D01*
X0114344Y0180119D01*
X0115116Y0179726D01*
X0115816Y0179217D01*
X0116428Y0178605D01*
X0116937Y0177905D01*
X0117330Y0177133D01*
X0117598Y0176310D01*
X0117733Y0175455D01*
X0117733Y0175222D01*
X0112433Y0175222D01*
X0112433Y0174822D01*
X0117733Y0174822D01*
X0117733Y0174589D01*
X0117598Y0173734D01*
X0117330Y0172911D01*
X0116937Y0172139D01*
X0116428Y0171439D01*
X0115816Y0170827D01*
X0115116Y0170318D01*
X0114502Y0170005D01*
X0116094Y0169346D01*
X0117529Y0167911D01*
X0118305Y0166037D01*
X0118305Y0164008D01*
X0117529Y0162133D01*
X0116094Y0160698D01*
X0114220Y0159922D01*
X0113703Y0159922D01*
X0115094Y0159346D01*
X0116529Y0157911D01*
X0117305Y0156037D01*
X0117305Y0154008D01*
X0116529Y0152133D01*
X0115094Y0150698D01*
X0113703Y0150122D01*
X0114220Y0150122D01*
X0116094Y0149346D01*
X0117529Y0147911D01*
X0118305Y0146037D01*
X0118305Y0144008D01*
X0117529Y0142133D01*
X0116094Y0140698D01*
X0114220Y0139922D01*
X0113703Y0139922D01*
X0115094Y0139346D01*
X0116529Y0137911D01*
X0117305Y0136037D01*
X0117305Y0134008D01*
X0116529Y0132133D01*
X0115094Y0130698D01*
X0113703Y0130122D01*
X0114220Y0130122D01*
X0116094Y0129346D01*
X0117529Y0127911D01*
X0118305Y0126037D01*
X0118305Y0124008D01*
X0117529Y0122133D01*
X0116094Y0120698D01*
X0114220Y0119922D01*
X0113703Y0119922D01*
X0115094Y0119346D01*
X0116529Y0117911D01*
X0116586Y0117773D01*
X0120822Y0117773D01*
X0122110Y0116484D01*
X0122110Y0111317D01*
X0139364Y0111317D01*
X0139364Y0124041D01*
X0138538Y0123216D01*
X0133125Y0123216D01*
X0133125Y0117749D01*
X0132305Y0116929D01*
X0122484Y0116929D01*
X0121664Y0117749D01*
X0121664Y0133082D01*
X0122484Y0133902D01*
X0132305Y0133902D01*
X0133125Y0133082D01*
X0133125Y0127616D01*
X0135427Y0127616D01*
X0135427Y0146012D01*
X0136253Y0146838D01*
X0128841Y0146838D01*
X0127553Y0148127D01*
X0127553Y0175540D01*
X0128841Y0176828D01*
X0132671Y0176828D01*
X0132671Y0177756D01*
X0130701Y0177756D01*
X0130661Y0177716D01*
X0130251Y0177479D01*
X0129793Y0177356D01*
X0128572Y0177356D01*
X0128572Y0181518D01*
X0128572Y0181518D01*
X0128572Y0181518D01*
X0128572Y0185680D01*
X0129793Y0185680D01*
X0129814Y0185675D01*
X0130149Y0186010D01*
X0134049Y0190079D01*
X0134049Y0190107D01*
X0134677Y0190734D01*
X0135291Y0191375D01*
X0135318Y0191376D01*
X0135338Y0191395D01*
X0136225Y0191395D01*
X0137113Y0191414D01*
X0137133Y0191395D01*
X0142919Y0191395D01*
X0143586Y0192062D01*
X0144435Y0192413D01*
X0134263Y0192413D01*
X0133860Y0191440D01*
X0133020Y0190600D01*
X0131922Y0190145D01*
X0130772Y0190145D01*
X0130772Y0189782D01*
X0130317Y0188684D01*
X0129476Y0187844D01*
X0128378Y0187389D01*
X0127190Y0187389D01*
X0126625Y0187623D01*
X0126625Y0185663D01*
X0125805Y0184843D01*
X0119921Y0184843D01*
X0119101Y0185663D01*
X0119101Y0188791D01*
X0119111Y0188802D01*
X0119101Y0188812D01*
X0119101Y0191941D01*
X0119111Y0191951D01*
X0119101Y0191962D01*
X0119101Y0195090D01*
X0119111Y0195101D01*
X0119101Y0195111D01*
X0119101Y0197625D01*
X0118555Y0197625D01*
X0117888Y0196959D01*
X0116646Y0196444D01*
X0115301Y0196444D01*
X0114058Y0196959D01*
X0113107Y0197910D01*
X0112592Y0199153D01*
X0112592Y0200498D01*
X0113107Y0201740D01*
X0114058Y0202692D01*
X0115301Y0203206D01*
X0116646Y0203206D01*
X0117888Y0202692D01*
X0118555Y0202025D01*
X0118701Y0202025D01*
X0118701Y0202975D01*
X0122863Y0202975D01*
X0127025Y0202975D01*
X0127025Y0202723D02*
X0131490Y0202723D01*
X0131490Y0201124D02*
X0126803Y0201124D01*
X0126625Y0199526D02*
X0131490Y0199526D01*
X0133690Y0199825D02*
X0133690Y0208093D01*
X0134871Y0208093D01*
X0134871Y0214983D01*
X0131530Y0210715D02*
X0129747Y0210715D01*
X0133022Y0220306D02*
X0145569Y0220306D01*
X0145569Y0221905D02*
X0127322Y0221905D01*
X0127322Y0223503D02*
X0146019Y0223503D01*
X0144320Y0218708D02*
X0144320Y0218708D01*
X0144320Y0217109D02*
X0144320Y0217109D01*
X0144320Y0215511D02*
X0144320Y0215511D01*
X0144320Y0214983D02*
X0144320Y0210820D01*
X0144320Y0214983D01*
X0144320Y0214983D01*
X0144320Y0213912D02*
X0144320Y0213912D01*
X0144320Y0212314D02*
X0144320Y0212314D01*
X0143070Y0210715D02*
X0152224Y0210715D01*
X0152165Y0210495D02*
X0152165Y0209274D01*
X0156327Y0209274D01*
X0156327Y0209274D01*
X0156327Y0212058D01*
X0153728Y0212058D01*
X0153271Y0211936D01*
X0152860Y0211699D01*
X0152525Y0211363D01*
X0152288Y0210953D01*
X0152165Y0210495D01*
X0152165Y0209117D02*
X0143070Y0209117D01*
X0143070Y0207518D02*
X0152332Y0207518D01*
X0152565Y0205920D02*
X0142781Y0205920D01*
X0142241Y0204616D02*
X0142241Y0204616D01*
X0141947Y0204321D02*
X0152565Y0204321D01*
X0152565Y0202723D02*
X0147341Y0202723D01*
X0145501Y0199825D02*
X0133690Y0199825D01*
X0140267Y0202723D02*
X0143661Y0202723D01*
X0145501Y0199825D02*
X0156328Y0199825D01*
X0160090Y0191533D02*
X0161317Y0191533D01*
X0161317Y0189935D02*
X0160090Y0189935D01*
X0160090Y0188336D02*
X0161317Y0188336D01*
X0161317Y0186738D02*
X0160090Y0186738D01*
X0159566Y0185139D02*
X0161317Y0185139D01*
X0161317Y0183540D02*
X0156920Y0183540D01*
X0158420Y0181942D02*
X0161317Y0181942D01*
X0161317Y0180343D02*
X0158724Y0180343D01*
X0158262Y0178745D02*
X0161317Y0178745D01*
X0161317Y0177146D02*
X0157543Y0177146D01*
X0157543Y0175548D02*
X0161317Y0175548D01*
X0161317Y0173949D02*
X0157543Y0173949D01*
X0157543Y0172351D02*
X0161317Y0172351D01*
X0161317Y0170752D02*
X0157543Y0170752D01*
X0157543Y0169154D02*
X0161317Y0169154D01*
X0161317Y0167555D02*
X0157543Y0167555D01*
X0157543Y0165957D02*
X0161317Y0165957D01*
X0161317Y0164358D02*
X0157543Y0164358D01*
X0157543Y0162760D02*
X0161317Y0162760D01*
X0161317Y0161161D02*
X0157543Y0161161D01*
X0157543Y0159563D02*
X0161317Y0159563D01*
X0161317Y0157964D02*
X0157543Y0157964D01*
X0157543Y0156366D02*
X0161317Y0156366D01*
X0161317Y0154767D02*
X0157543Y0154767D01*
X0157543Y0153169D02*
X0161317Y0153169D01*
X0161317Y0151570D02*
X0157543Y0151570D01*
X0157543Y0149972D02*
X0161317Y0149972D01*
X0161317Y0148373D02*
X0157543Y0148373D01*
X0160324Y0146775D02*
X0161317Y0146775D01*
X0161317Y0145176D02*
X0161087Y0145176D01*
X0161087Y0143578D02*
X0161317Y0143578D01*
X0161317Y0141979D02*
X0161087Y0141979D01*
X0161087Y0140381D02*
X0161317Y0140381D01*
X0161317Y0138782D02*
X0161087Y0138782D01*
X0161087Y0137184D02*
X0161317Y0137184D01*
X0161317Y0135585D02*
X0161087Y0135585D01*
X0161087Y0133987D02*
X0161317Y0133987D01*
X0161432Y0132388D02*
X0161087Y0132388D01*
X0161087Y0130790D02*
X0163286Y0130790D01*
X0163286Y0129191D02*
X0161087Y0129191D01*
X0161491Y0127593D02*
X0163286Y0127593D01*
X0163286Y0125994D02*
X0162268Y0125994D01*
X0162124Y0124396D02*
X0163286Y0124396D01*
X0163286Y0122797D02*
X0161050Y0122797D01*
X0163286Y0121199D02*
X0143764Y0121199D01*
X0143764Y0122797D02*
X0145995Y0122797D01*
X0145995Y0124396D02*
X0143764Y0124396D01*
X0143764Y0125994D02*
X0145995Y0125994D01*
X0145995Y0127593D02*
X0143764Y0127593D01*
X0143764Y0129191D02*
X0146791Y0129191D01*
X0146741Y0130790D02*
X0143764Y0130790D01*
X0143764Y0132388D02*
X0145995Y0132388D01*
X0145501Y0135258D02*
X0145501Y0141164D01*
X0145501Y0135258D02*
X0141564Y0135258D01*
X0141564Y0109117D01*
X0119910Y0109117D01*
X0119910Y0115573D01*
X0112206Y0115573D01*
X0112206Y0115022D01*
X0116003Y0111607D02*
X0117710Y0111607D01*
X0117710Y0110009D02*
X0114493Y0110009D01*
X0117030Y0108410D02*
X0117710Y0108410D01*
X0117984Y0106812D02*
X0151159Y0106812D01*
X0151148Y0105213D02*
X0118305Y0105213D01*
X0118143Y0103615D02*
X0151138Y0103615D01*
X0151127Y0102016D02*
X0117412Y0102016D01*
X0116531Y0100418D02*
X0151116Y0100418D01*
X0151105Y0098819D02*
X0117705Y0098819D01*
X0117705Y0097221D02*
X0151095Y0097221D01*
X0151084Y0095622D02*
X0117705Y0095622D01*
X0117705Y0094822D02*
X0112406Y0094822D01*
X0112406Y0089522D01*
X0116142Y0089522D01*
X0116600Y0089645D01*
X0117011Y0089882D01*
X0117346Y0090217D01*
X0117583Y0090627D01*
X0117705Y0091085D01*
X0117705Y0094822D01*
X0117705Y0094024D02*
X0151073Y0094024D01*
X0151062Y0092425D02*
X0117705Y0092425D01*
X0117636Y0090827D02*
X0151052Y0090827D01*
X0155452Y0090827D02*
X0196850Y0090827D01*
X0196850Y0092425D02*
X0155463Y0092425D01*
X0155473Y0094024D02*
X0196850Y0094024D01*
X0196850Y0095622D02*
X0155484Y0095622D01*
X0155495Y0097221D02*
X0196850Y0097221D01*
X0196850Y0098819D02*
X0155506Y0098819D01*
X0155516Y0100418D02*
X0196850Y0100418D01*
X0196850Y0102016D02*
X0155527Y0102016D01*
X0155538Y0103615D02*
X0196850Y0103615D01*
X0196850Y0105213D02*
X0155549Y0105213D01*
X0155559Y0106812D02*
X0196850Y0106812D01*
X0196850Y0108410D02*
X0155575Y0108410D01*
X0155581Y0110009D02*
X0196850Y0110009D01*
X0196850Y0111607D02*
X0143764Y0111607D01*
X0143764Y0113206D02*
X0145727Y0113206D01*
X0145718Y0113221D02*
X0145955Y0112811D01*
X0146290Y0112475D01*
X0146700Y0112238D01*
X0147158Y0112116D01*
X0151395Y0112116D01*
X0151395Y0115916D01*
X0145595Y0115916D01*
X0145595Y0113679D01*
X0145718Y0113221D01*
X0145595Y0114805D02*
X0143764Y0114805D01*
X0143764Y0116403D02*
X0151395Y0116403D01*
X0151395Y0116716D02*
X0151395Y0115916D01*
X0152195Y0115916D01*
X0152195Y0112116D01*
X0156432Y0112116D01*
X0156890Y0112238D01*
X0157300Y0112475D01*
X0157636Y0112811D01*
X0157873Y0113221D01*
X0157995Y0113679D01*
X0157995Y0115916D01*
X0152195Y0115916D01*
X0152195Y0116716D01*
X0151395Y0116716D01*
X0151395Y0120516D01*
X0147158Y0120516D01*
X0146700Y0120393D01*
X0146290Y0120156D01*
X0145955Y0119821D01*
X0145718Y0119411D01*
X0145595Y0118953D01*
X0145595Y0116716D01*
X0151395Y0116716D01*
X0152195Y0116716D02*
X0152195Y0120516D01*
X0156432Y0120516D01*
X0156890Y0120393D01*
X0157300Y0120156D01*
X0157636Y0119821D01*
X0157873Y0119411D01*
X0157995Y0118953D01*
X0157995Y0116716D01*
X0152195Y0116716D01*
X0152195Y0116403D02*
X0196850Y0116403D01*
X0196850Y0114805D02*
X0157995Y0114805D01*
X0157864Y0113206D02*
X0196850Y0113206D01*
X0196850Y0118002D02*
X0175668Y0118002D01*
X0176047Y0119600D02*
X0196850Y0119600D01*
X0196850Y0121199D02*
X0175594Y0121199D01*
X0167086Y0122797D02*
X0196850Y0122797D01*
X0196850Y0124396D02*
X0167086Y0124396D01*
X0167086Y0125994D02*
X0196850Y0125994D01*
X0196850Y0127593D02*
X0167086Y0127593D01*
X0167086Y0129191D02*
X0196850Y0129191D01*
X0196850Y0130790D02*
X0167086Y0130790D01*
X0167086Y0132388D02*
X0196850Y0132388D01*
X0196850Y0133987D02*
X0167086Y0133987D01*
X0165117Y0135585D02*
X0196850Y0135585D01*
X0196850Y0137184D02*
X0165117Y0137184D01*
X0165117Y0138782D02*
X0196850Y0138782D01*
X0196850Y0140381D02*
X0165117Y0140381D01*
X0165117Y0141979D02*
X0196850Y0141979D01*
X0196850Y0143578D02*
X0165117Y0143578D01*
X0165117Y0145176D02*
X0196850Y0145176D01*
X0196850Y0146775D02*
X0165117Y0146775D01*
X0165117Y0148373D02*
X0171610Y0148373D01*
X0174510Y0148373D02*
X0196850Y0148373D01*
X0196850Y0149972D02*
X0175865Y0149972D01*
X0176047Y0151570D02*
X0196850Y0151570D01*
X0196850Y0153169D02*
X0175122Y0153169D01*
X0170997Y0153169D02*
X0167086Y0153169D01*
X0167086Y0154767D02*
X0196850Y0154767D01*
X0196850Y0156366D02*
X0167086Y0156366D01*
X0167086Y0157964D02*
X0196850Y0157964D01*
X0196850Y0159563D02*
X0167086Y0159563D01*
X0167086Y0161161D02*
X0196850Y0161161D01*
X0196850Y0162760D02*
X0167086Y0162760D01*
X0167086Y0164358D02*
X0196850Y0164358D01*
X0196850Y0165957D02*
X0167086Y0165957D01*
X0167086Y0167555D02*
X0196850Y0167555D01*
X0196850Y0169154D02*
X0167086Y0169154D01*
X0167086Y0170752D02*
X0196850Y0170752D01*
X0196850Y0172351D02*
X0167086Y0172351D01*
X0167086Y0173949D02*
X0196850Y0173949D01*
X0196850Y0175548D02*
X0167086Y0175548D01*
X0167086Y0177146D02*
X0196850Y0177146D01*
X0196850Y0178745D02*
X0167086Y0178745D01*
X0167086Y0180343D02*
X0170994Y0180343D01*
X0175126Y0180343D02*
X0196850Y0180343D01*
X0196850Y0181942D02*
X0176047Y0181942D01*
X0175863Y0183540D02*
X0196850Y0183540D01*
X0196850Y0185139D02*
X0174501Y0185139D01*
X0171619Y0185139D02*
X0169054Y0185139D01*
X0169054Y0186738D02*
X0196850Y0186738D01*
X0196850Y0188336D02*
X0169054Y0188336D01*
X0169054Y0189935D02*
X0196850Y0189935D01*
X0196850Y0191533D02*
X0169054Y0191533D01*
X0169054Y0193132D02*
X0196850Y0193132D01*
X0196850Y0194730D02*
X0169054Y0194730D01*
X0169054Y0196329D02*
X0196850Y0196329D01*
X0196850Y0197927D02*
X0169054Y0197927D01*
X0169054Y0199526D02*
X0196850Y0199526D01*
X0196850Y0201124D02*
X0169054Y0201124D01*
X0169054Y0202723D02*
X0196850Y0202723D01*
X0196850Y0204321D02*
X0168495Y0204321D01*
X0169054Y0205920D02*
X0196850Y0205920D01*
X0196850Y0207518D02*
X0169054Y0207518D01*
X0169054Y0209117D02*
X0196850Y0209117D01*
X0196850Y0210715D02*
X0169054Y0210715D01*
X0165254Y0210715D02*
X0160431Y0210715D01*
X0160490Y0209117D02*
X0165254Y0209117D01*
X0165254Y0212314D02*
X0153003Y0212314D01*
X0153003Y0213912D02*
X0153173Y0213912D01*
X0156327Y0210715D02*
X0156328Y0210715D01*
X0157513Y0213912D02*
X0165254Y0213912D01*
X0165980Y0215511D02*
X0158331Y0215511D01*
X0158104Y0217109D02*
X0196850Y0217109D01*
X0196850Y0215511D02*
X0175667Y0215511D01*
X0176047Y0213912D02*
X0196850Y0213912D01*
X0196850Y0212314D02*
X0175596Y0212314D01*
X0156533Y0218708D02*
X0196850Y0218708D01*
X0196850Y0220306D02*
X0155246Y0220306D01*
X0155968Y0221905D02*
X0196850Y0221905D01*
X0196850Y0223503D02*
X0155702Y0223503D01*
X0153942Y0225102D02*
X0196850Y0225102D01*
X0196850Y0226700D02*
X0112101Y0226700D01*
X0113700Y0228299D02*
X0196850Y0228299D01*
X0196850Y0229897D02*
X0115298Y0229897D01*
X0116897Y0231496D02*
X0122341Y0231496D01*
X0122146Y0231691D02*
X0122682Y0231156D01*
X0123294Y0230710D01*
X0123969Y0230367D01*
X0124689Y0230133D01*
X0125437Y0230014D01*
X0125710Y0230014D01*
X0125710Y0234720D01*
X0121005Y0234720D01*
X0121005Y0234447D01*
X0121123Y0233699D01*
X0121357Y0232978D01*
X0121701Y0232304D01*
X0122146Y0231691D01*
X0121320Y0233094D02*
X0118495Y0233094D01*
X0120094Y0234693D02*
X0121005Y0234693D01*
X0125710Y0234693D02*
X0125921Y0234693D01*
X0125921Y0234720D02*
X0125921Y0230014D01*
X0126194Y0230014D01*
X0126942Y0230133D01*
X0127663Y0230367D01*
X0128337Y0230710D01*
X0128950Y0231156D01*
X0129485Y0231691D01*
X0129930Y0232304D01*
X0130274Y0232978D01*
X0130508Y0233699D01*
X0130627Y0234447D01*
X0130627Y0234720D01*
X0125921Y0234720D01*
X0125921Y0234931D01*
X0125710Y0234931D01*
X0125710Y0234720D01*
X0125921Y0234720D01*
X0125921Y0234931D02*
X0130627Y0234931D01*
X0130627Y0235204D01*
X0130508Y0235952D01*
X0130274Y0236672D01*
X0129930Y0237347D01*
X0129485Y0237959D01*
X0128950Y0238495D01*
X0128337Y0238940D01*
X0127663Y0239284D01*
X0126942Y0239518D01*
X0126194Y0239636D01*
X0125921Y0239636D01*
X0125921Y0234931D01*
X0125921Y0236291D02*
X0125710Y0236291D01*
X0125710Y0237890D02*
X0125921Y0237890D01*
X0125921Y0239488D02*
X0125710Y0239488D01*
X0127033Y0239488D02*
X0146427Y0239488D01*
X0146031Y0238565D02*
X0144410Y0239236D01*
X0142655Y0239236D01*
X0141034Y0238565D01*
X0139793Y0237324D01*
X0139595Y0236847D01*
X0139398Y0237324D01*
X0138157Y0238565D01*
X0136536Y0239236D01*
X0134781Y0239236D01*
X0133160Y0238565D01*
X0131919Y0237324D01*
X0131247Y0235703D01*
X0131247Y0233948D01*
X0131919Y0232327D01*
X0133160Y0231086D01*
X0134781Y0230414D01*
X0136536Y0230414D01*
X0138157Y0231086D01*
X0139398Y0232327D01*
X0139595Y0232803D01*
X0139793Y0232327D01*
X0141034Y0231086D01*
X0142655Y0230414D01*
X0144410Y0230414D01*
X0146031Y0231086D01*
X0147272Y0232327D01*
X0147943Y0233948D01*
X0147943Y0235703D01*
X0147272Y0237324D01*
X0146031Y0238565D01*
X0146706Y0237890D02*
X0148026Y0237890D01*
X0147699Y0236291D02*
X0149208Y0236291D01*
X0148964Y0234693D02*
X0147943Y0234693D01*
X0147590Y0233094D02*
X0149317Y0233094D01*
X0150466Y0231496D02*
X0146441Y0231496D01*
X0152021Y0225102D02*
X0126848Y0225102D01*
X0125921Y0231496D02*
X0125710Y0231496D01*
X0125710Y0233094D02*
X0125921Y0233094D01*
X0129290Y0231496D02*
X0132749Y0231496D01*
X0131601Y0233094D02*
X0130312Y0233094D01*
X0130627Y0234693D02*
X0131247Y0234693D01*
X0131491Y0236291D02*
X0130398Y0236291D01*
X0129536Y0237890D02*
X0132485Y0237890D01*
X0138832Y0237890D02*
X0140359Y0237890D01*
X0144829Y0241087D02*
X0126488Y0241087D01*
X0123462Y0244284D02*
X0121969Y0244284D01*
X0121864Y0242685D02*
X0121579Y0242685D01*
X0114529Y0242685D02*
X0112929Y0242685D01*
X0112929Y0241087D02*
X0114529Y0241087D01*
X0114529Y0239488D02*
X0112929Y0239488D01*
X0112929Y0237890D02*
X0114529Y0237890D01*
X0114529Y0247481D02*
X0112929Y0247481D01*
X0112929Y0249079D02*
X0114529Y0249079D01*
X0114529Y0250678D02*
X0112929Y0250678D01*
X0112929Y0252276D02*
X0114529Y0252276D01*
X0116440Y0255473D02*
X0182436Y0255473D01*
X0188510Y0253875D02*
X0110366Y0253875D01*
X0108888Y0252276D02*
X0107707Y0252276D01*
X0107210Y0250678D02*
X0106108Y0250678D01*
X0106200Y0249079D02*
X0104761Y0249079D01*
X0105640Y0247481D02*
X0103838Y0247481D01*
X0098261Y0242685D02*
X0074886Y0242685D01*
X0075276Y0244284D02*
X0097832Y0244284D01*
X0097404Y0245882D02*
X0067836Y0245882D01*
X0067836Y0244284D02*
X0066236Y0244284D01*
X0066236Y0242685D02*
X0067836Y0242685D01*
X0067836Y0241087D02*
X0066236Y0241087D01*
X0066236Y0239488D02*
X0067836Y0239488D01*
X0067836Y0237890D02*
X0066236Y0237890D01*
X0070438Y0237890D02*
X0098425Y0237890D01*
X0098425Y0239488D02*
X0072807Y0239488D01*
X0074107Y0241087D02*
X0098393Y0241087D01*
X0096612Y0247481D02*
X0075125Y0247481D01*
X0074565Y0249079D02*
X0095689Y0249079D01*
X0094342Y0250678D02*
X0073555Y0250678D01*
X0071877Y0252276D02*
X0092744Y0252276D01*
X0090084Y0253875D02*
X0011941Y0253875D01*
X0010463Y0252276D02*
X0009281Y0252276D01*
X0008785Y0250678D02*
X0007683Y0250678D01*
X0007775Y0249079D02*
X0006336Y0249079D01*
X0007215Y0247481D02*
X0005413Y0247481D01*
X0004734Y0246305D02*
X0004734Y0246305D01*
X0014504Y0247481D02*
X0016104Y0247481D01*
X0016104Y0249079D02*
X0014504Y0249079D01*
X0014504Y0250678D02*
X0016104Y0250678D01*
X0016104Y0252276D02*
X0014504Y0252276D01*
X0018015Y0255473D02*
X0084010Y0255473D01*
X0098425Y0229897D02*
X0016873Y0229897D01*
X0015275Y0228299D02*
X0098425Y0228299D01*
X0098425Y0226700D02*
X0013676Y0226700D01*
X0018472Y0231496D02*
X0023916Y0231496D01*
X0023721Y0231691D02*
X0024256Y0231156D01*
X0024869Y0230710D01*
X0025544Y0230367D01*
X0026264Y0230133D01*
X0027012Y0230014D01*
X0027285Y0230014D01*
X0027285Y0234720D01*
X0022580Y0234720D01*
X0022580Y0234447D01*
X0022698Y0233699D01*
X0022932Y0232978D01*
X0023276Y0232304D01*
X0023721Y0231691D01*
X0022894Y0233094D02*
X0020070Y0233094D01*
X0021669Y0234693D02*
X0022580Y0234693D01*
X0027285Y0234693D02*
X0027496Y0234693D01*
X0027496Y0234720D02*
X0027496Y0230014D01*
X0027769Y0230014D01*
X0028517Y0230133D01*
X0029237Y0230367D01*
X0029912Y0230710D01*
X0030525Y0231156D01*
X0031060Y0231691D01*
X0031505Y0232304D01*
X0031849Y0232978D01*
X0032083Y0233699D01*
X0032202Y0234447D01*
X0032202Y0234720D01*
X0027496Y0234720D01*
X0027496Y0234931D01*
X0027285Y0234931D01*
X0027285Y0234720D01*
X0027496Y0234720D01*
X0027496Y0234931D02*
X0032202Y0234931D01*
X0032202Y0235204D01*
X0032083Y0235952D01*
X0031849Y0236672D01*
X0031505Y0237347D01*
X0031060Y0237959D01*
X0030525Y0238495D01*
X0029912Y0238940D01*
X0029237Y0239284D01*
X0028517Y0239518D01*
X0027769Y0239636D01*
X0027496Y0239636D01*
X0027496Y0234931D01*
X0027496Y0236291D02*
X0027285Y0236291D01*
X0027285Y0237890D02*
X0027496Y0237890D01*
X0027496Y0239488D02*
X0027285Y0239488D01*
X0028607Y0239488D02*
X0048002Y0239488D01*
X0047606Y0238565D02*
X0045984Y0239236D01*
X0044230Y0239236D01*
X0042608Y0238565D01*
X0041368Y0237324D01*
X0041170Y0236847D01*
X0040973Y0237324D01*
X0039732Y0238565D01*
X0038110Y0239236D01*
X0036356Y0239236D01*
X0034734Y0238565D01*
X0033494Y0237324D01*
X0032822Y0235703D01*
X0032822Y0233948D01*
X0033494Y0232327D01*
X0034734Y0231086D01*
X0036356Y0230414D01*
X0038110Y0230414D01*
X0039732Y0231086D01*
X0040973Y0232327D01*
X0041170Y0232803D01*
X0041368Y0232327D01*
X0042608Y0231086D01*
X0044230Y0230414D01*
X0045984Y0230414D01*
X0047606Y0231086D01*
X0048847Y0232327D01*
X0049518Y0233948D01*
X0049518Y0235703D01*
X0048847Y0237324D01*
X0047606Y0238565D01*
X0048281Y0237890D02*
X0049600Y0237890D01*
X0049274Y0236291D02*
X0050782Y0236291D01*
X0050539Y0234693D02*
X0049518Y0234693D01*
X0049165Y0233094D02*
X0050892Y0233094D01*
X0052041Y0231496D02*
X0048016Y0231496D01*
X0042198Y0231496D02*
X0040142Y0231496D01*
X0040407Y0237890D02*
X0041934Y0237890D01*
X0046403Y0241087D02*
X0028063Y0241087D01*
X0025037Y0244284D02*
X0023544Y0244284D01*
X0023439Y0242685D02*
X0023154Y0242685D01*
X0016104Y0242685D02*
X0014504Y0242685D01*
X0014504Y0241087D02*
X0016104Y0241087D01*
X0016104Y0239488D02*
X0014504Y0239488D01*
X0014504Y0237890D02*
X0016104Y0237890D01*
X0027285Y0233094D02*
X0027496Y0233094D01*
X0027496Y0231496D02*
X0027285Y0231496D01*
X0030865Y0231496D02*
X0034324Y0231496D01*
X0033176Y0233094D02*
X0031887Y0233094D01*
X0032202Y0234693D02*
X0032822Y0234693D01*
X0033066Y0236291D02*
X0031973Y0236291D01*
X0031111Y0237890D02*
X0034060Y0237890D01*
X0028423Y0225102D02*
X0053595Y0225102D01*
X0055516Y0225102D02*
X0098425Y0225102D01*
X0098425Y0223503D02*
X0057277Y0223503D01*
X0057543Y0221905D02*
X0098425Y0221905D01*
X0098425Y0220306D02*
X0056821Y0220306D01*
X0055729Y0218708D02*
X0053795Y0218708D01*
X0052291Y0220306D02*
X0050944Y0220306D01*
X0047144Y0221905D02*
X0028897Y0221905D01*
X0028897Y0223503D02*
X0047594Y0223503D01*
X0054578Y0213912D02*
X0054748Y0213912D01*
X0054578Y0212314D02*
X0066829Y0212314D01*
X0066829Y0213912D02*
X0059088Y0213912D01*
X0059905Y0215511D02*
X0067554Y0215511D01*
X0066829Y0210715D02*
X0062006Y0210715D01*
X0062065Y0209274D02*
X0057902Y0209274D01*
X0057902Y0209274D01*
X0057902Y0212058D01*
X0057902Y0209274D01*
X0057902Y0209274D01*
X0057902Y0209274D01*
X0062065Y0209274D01*
X0062065Y0209117D02*
X0066829Y0209117D01*
X0070070Y0204321D02*
X0098425Y0204321D01*
X0098425Y0202723D02*
X0070629Y0202723D01*
X0070629Y0201124D02*
X0098425Y0201124D01*
X0098425Y0199526D02*
X0070629Y0199526D01*
X0070629Y0197927D02*
X0098425Y0197927D01*
X0098425Y0196329D02*
X0070629Y0196329D01*
X0070629Y0194730D02*
X0098425Y0194730D01*
X0098425Y0193132D02*
X0070629Y0193132D01*
X0070629Y0191533D02*
X0098425Y0191533D01*
X0098425Y0189935D02*
X0070629Y0189935D01*
X0070629Y0188336D02*
X0098425Y0188336D01*
X0098425Y0186738D02*
X0070629Y0186738D01*
X0070629Y0185139D02*
X0073194Y0185139D01*
X0076076Y0185139D02*
X0098425Y0185139D01*
X0098425Y0183540D02*
X0077438Y0183540D01*
X0077622Y0181942D02*
X0098425Y0181942D01*
X0098425Y0180343D02*
X0076701Y0180343D01*
X0072569Y0180343D02*
X0068661Y0180343D01*
X0068661Y0178745D02*
X0098425Y0178745D01*
X0098425Y0177146D02*
X0068661Y0177146D01*
X0068661Y0175548D02*
X0098425Y0175548D01*
X0098425Y0173949D02*
X0068661Y0173949D01*
X0068661Y0172351D02*
X0098425Y0172351D01*
X0098425Y0170752D02*
X0068661Y0170752D01*
X0068661Y0169154D02*
X0098425Y0169154D01*
X0098425Y0167555D02*
X0068661Y0167555D01*
X0068661Y0165957D02*
X0098425Y0165957D01*
X0098425Y0164358D02*
X0068661Y0164358D01*
X0068661Y0162760D02*
X0098425Y0162760D01*
X0098425Y0161161D02*
X0068661Y0161161D01*
X0068661Y0159563D02*
X0098425Y0159563D01*
X0098425Y0157964D02*
X0068661Y0157964D01*
X0068661Y0156366D02*
X0098425Y0156366D01*
X0098425Y0154767D02*
X0068661Y0154767D01*
X0068661Y0153169D02*
X0072572Y0153169D01*
X0076697Y0153169D02*
X0098425Y0153169D01*
X0098425Y0151570D02*
X0077622Y0151570D01*
X0077440Y0149972D02*
X0098425Y0149972D01*
X0098425Y0148373D02*
X0076084Y0148373D01*
X0073185Y0148373D02*
X0066692Y0148373D01*
X0066692Y0146775D02*
X0098425Y0146775D01*
X0098425Y0145176D02*
X0066692Y0145176D01*
X0066692Y0143578D02*
X0098425Y0143578D01*
X0098425Y0141979D02*
X0066692Y0141979D01*
X0066692Y0140381D02*
X0098425Y0140381D01*
X0098425Y0138782D02*
X0066692Y0138782D01*
X0066692Y0137184D02*
X0098425Y0137184D01*
X0098425Y0135585D02*
X0066692Y0135585D01*
X0068661Y0133987D02*
X0098425Y0133987D01*
X0098425Y0132388D02*
X0068661Y0132388D01*
X0068661Y0130790D02*
X0098425Y0130790D01*
X0098425Y0129191D02*
X0068661Y0129191D01*
X0068661Y0127593D02*
X0098425Y0127593D01*
X0098425Y0125994D02*
X0068661Y0125994D01*
X0068661Y0124396D02*
X0098425Y0124396D01*
X0098425Y0122797D02*
X0068661Y0122797D01*
X0077169Y0121199D02*
X0098425Y0121199D01*
X0098425Y0119600D02*
X0077622Y0119600D01*
X0077243Y0118002D02*
X0098425Y0118002D01*
X0098425Y0110009D02*
X0057156Y0110009D01*
X0053370Y0134516D02*
X0051402Y0135258D01*
X0047076Y0135258D01*
X0044826Y0151570D02*
X0033528Y0151570D01*
X0033528Y0153169D02*
X0038334Y0153169D01*
X0040986Y0153169D02*
X0041354Y0153169D01*
X0041354Y0154767D02*
X0040986Y0154767D01*
X0040986Y0156366D02*
X0041354Y0156366D01*
X0041354Y0157964D02*
X0040986Y0157964D01*
X0040986Y0159563D02*
X0041354Y0159563D01*
X0041354Y0161161D02*
X0040986Y0161161D01*
X0044006Y0153169D02*
X0054718Y0153169D01*
X0054718Y0154767D02*
X0049854Y0154767D01*
X0049854Y0156366D02*
X0054718Y0156366D01*
X0054718Y0157964D02*
X0049854Y0157964D01*
X0049854Y0159563D02*
X0054718Y0159563D01*
X0054718Y0161161D02*
X0049854Y0161161D01*
X0049854Y0162760D02*
X0054718Y0162760D01*
X0054718Y0164358D02*
X0049854Y0164358D01*
X0049854Y0165957D02*
X0054718Y0165957D01*
X0054718Y0167555D02*
X0049854Y0167555D01*
X0049854Y0169154D02*
X0054718Y0169154D01*
X0054718Y0170752D02*
X0049854Y0170752D01*
X0049044Y0176597D02*
X0049044Y0181518D01*
X0057902Y0210715D02*
X0057902Y0210715D01*
X0059678Y0217109D02*
X0098425Y0217109D01*
X0098425Y0215511D02*
X0077242Y0215511D01*
X0077622Y0213912D02*
X0098425Y0213912D01*
X0098425Y0212314D02*
X0077170Y0212314D01*
X0070629Y0210715D02*
X0098425Y0210715D01*
X0098425Y0209117D02*
X0070629Y0209117D01*
X0070629Y0207518D02*
X0098425Y0207518D01*
X0098425Y0205920D02*
X0070629Y0205920D01*
X0058108Y0218708D02*
X0098425Y0218708D01*
X0106062Y0213912D02*
X0111662Y0213912D01*
X0111017Y0212314D02*
X0106062Y0212314D01*
X0106062Y0210715D02*
X0106250Y0210715D01*
X0111853Y0202723D02*
X0114133Y0202723D01*
X0112852Y0201124D02*
X0110867Y0201124D01*
X0110787Y0199526D02*
X0112592Y0199526D01*
X0113100Y0197927D02*
X0110787Y0197927D01*
X0110787Y0196329D02*
X0119101Y0196329D01*
X0119101Y0194730D02*
X0110787Y0194730D01*
X0110787Y0193132D02*
X0119101Y0193132D01*
X0119101Y0191533D02*
X0110787Y0191533D01*
X0110787Y0189935D02*
X0119101Y0189935D01*
X0119101Y0188336D02*
X0110787Y0188336D01*
X0110787Y0186738D02*
X0119101Y0186738D01*
X0119624Y0185139D02*
X0110787Y0185139D01*
X0110812Y0180343D02*
X0108031Y0180343D01*
X0108031Y0178745D02*
X0108178Y0178745D01*
X0112033Y0178745D02*
X0112433Y0178745D01*
X0112433Y0180343D02*
X0112033Y0180343D01*
X0113654Y0180343D02*
X0121947Y0180343D01*
X0121947Y0178745D02*
X0116288Y0178745D01*
X0117323Y0177146D02*
X0121947Y0177146D01*
X0121947Y0175548D02*
X0117718Y0175548D01*
X0117632Y0173949D02*
X0121947Y0173949D01*
X0121947Y0172351D02*
X0117045Y0172351D01*
X0115714Y0170752D02*
X0121947Y0170752D01*
X0121947Y0169154D02*
X0116286Y0169154D01*
X0117676Y0167555D02*
X0121947Y0167555D01*
X0121947Y0165957D02*
X0118305Y0165957D01*
X0118305Y0164358D02*
X0121947Y0164358D01*
X0121947Y0162760D02*
X0117789Y0162760D01*
X0116557Y0161161D02*
X0121947Y0161161D01*
X0121947Y0159563D02*
X0114570Y0159563D01*
X0116476Y0157964D02*
X0121947Y0157964D01*
X0121947Y0156366D02*
X0117169Y0156366D01*
X0117305Y0154767D02*
X0121947Y0154767D01*
X0121947Y0153169D02*
X0116958Y0153169D01*
X0115966Y0151570D02*
X0121947Y0151570D01*
X0121947Y0149972D02*
X0114583Y0149972D01*
X0117067Y0148373D02*
X0121947Y0148373D01*
X0121947Y0146775D02*
X0118000Y0146775D01*
X0118305Y0145176D02*
X0121947Y0145176D01*
X0121947Y0143578D02*
X0118127Y0143578D01*
X0117375Y0141979D02*
X0121947Y0141979D01*
X0121105Y0140381D02*
X0115327Y0140381D01*
X0115658Y0138782D02*
X0120860Y0138782D01*
X0121634Y0137184D02*
X0116830Y0137184D01*
X0117305Y0135585D02*
X0135427Y0135585D01*
X0135427Y0133987D02*
X0117297Y0133987D01*
X0116635Y0132388D02*
X0121664Y0132388D01*
X0121664Y0130790D02*
X0115186Y0130790D01*
X0116249Y0129191D02*
X0121664Y0129191D01*
X0121664Y0127593D02*
X0117661Y0127593D01*
X0118305Y0125994D02*
X0121664Y0125994D01*
X0121664Y0124396D02*
X0118305Y0124396D01*
X0117804Y0122797D02*
X0121664Y0122797D01*
X0121664Y0121199D02*
X0116595Y0121199D01*
X0114480Y0119600D02*
X0121664Y0119600D01*
X0121664Y0118002D02*
X0116439Y0118002D01*
X0116973Y0113206D02*
X0117710Y0113206D01*
X0122110Y0113206D02*
X0139364Y0113206D01*
X0139364Y0114805D02*
X0122110Y0114805D01*
X0122110Y0116403D02*
X0139364Y0116403D01*
X0139364Y0118002D02*
X0133125Y0118002D01*
X0133125Y0119600D02*
X0139364Y0119600D01*
X0139364Y0121199D02*
X0133125Y0121199D01*
X0133125Y0122797D02*
X0139364Y0122797D01*
X0137627Y0125416D02*
X0127394Y0125416D01*
X0133125Y0129191D02*
X0135427Y0129191D01*
X0135427Y0130790D02*
X0133125Y0130790D01*
X0133125Y0132388D02*
X0135427Y0132388D01*
X0135427Y0137184D02*
X0126060Y0137184D01*
X0126835Y0138782D02*
X0135427Y0138782D01*
X0135427Y0140381D02*
X0126590Y0140381D01*
X0125747Y0141979D02*
X0135427Y0141979D01*
X0135427Y0143578D02*
X0125747Y0143578D01*
X0125747Y0145176D02*
X0135427Y0145176D01*
X0136189Y0146775D02*
X0125747Y0146775D01*
X0125747Y0148373D02*
X0127553Y0148373D01*
X0127553Y0149972D02*
X0125747Y0149972D01*
X0125747Y0151570D02*
X0127553Y0151570D01*
X0127553Y0153169D02*
X0125747Y0153169D01*
X0125747Y0154767D02*
X0127553Y0154767D01*
X0127553Y0156366D02*
X0125747Y0156366D01*
X0125747Y0157964D02*
X0127553Y0157964D01*
X0127553Y0159563D02*
X0125747Y0159563D01*
X0125747Y0161161D02*
X0127553Y0161161D01*
X0127553Y0162760D02*
X0125747Y0162760D01*
X0125747Y0164358D02*
X0127553Y0164358D01*
X0127553Y0165957D02*
X0125747Y0165957D01*
X0125747Y0167555D02*
X0127553Y0167555D01*
X0127553Y0169154D02*
X0125747Y0169154D01*
X0125747Y0170752D02*
X0127553Y0170752D01*
X0127553Y0172351D02*
X0125747Y0172351D01*
X0125747Y0173949D02*
X0127553Y0173949D01*
X0127561Y0175548D02*
X0125747Y0175548D01*
X0125747Y0177146D02*
X0132671Y0177146D01*
X0134871Y0174628D02*
X0134871Y0181518D01*
X0136941Y0186738D02*
X0143177Y0186738D01*
X0144320Y0185139D02*
X0144320Y0185139D01*
X0144320Y0183540D02*
X0144320Y0183540D01*
X0144320Y0181942D02*
X0144320Y0181942D01*
X0144320Y0180343D02*
X0144320Y0180343D01*
X0144320Y0178745D02*
X0144320Y0178745D01*
X0144482Y0177146D02*
X0143464Y0177146D01*
X0143464Y0175548D02*
X0144670Y0175548D01*
X0144930Y0173949D02*
X0146054Y0173949D01*
X0146528Y0172351D02*
X0153143Y0172351D01*
X0153143Y0173949D02*
X0148884Y0173949D01*
X0150268Y0175548D02*
X0153143Y0175548D01*
X0153143Y0177146D02*
X0150457Y0177146D01*
X0150619Y0178745D02*
X0150619Y0178745D01*
X0150619Y0180343D02*
X0150619Y0180343D01*
X0150619Y0181942D02*
X0150619Y0181942D01*
X0150619Y0183540D02*
X0150619Y0183540D01*
X0150619Y0185139D02*
X0150619Y0185139D01*
X0151230Y0186738D02*
X0147825Y0186738D01*
X0148805Y0188336D02*
X0149312Y0188336D01*
X0149055Y0189935D02*
X0148854Y0189935D01*
X0149113Y0191533D02*
X0147945Y0191533D01*
X0145501Y0189195D02*
X0136249Y0189195D01*
X0131721Y0184471D01*
X0131721Y0181518D01*
X0128572Y0181518D02*
X0128572Y0185680D01*
X0127350Y0185680D01*
X0126893Y0185558D01*
X0126482Y0185321D01*
X0126147Y0184986D01*
X0125910Y0184575D01*
X0125787Y0184117D01*
X0125787Y0181518D01*
X0125787Y0178919D01*
X0125910Y0178461D01*
X0126147Y0178051D01*
X0126482Y0177716D01*
X0126893Y0177479D01*
X0127350Y0177356D01*
X0128572Y0177356D01*
X0128572Y0181518D01*
X0125787Y0181518D01*
X0128572Y0181518D01*
X0128572Y0181518D01*
X0128572Y0181942D02*
X0128572Y0181942D01*
X0128572Y0183540D02*
X0128572Y0183540D01*
X0128572Y0185139D02*
X0128572Y0185139D01*
X0126301Y0185139D02*
X0126102Y0185139D01*
X0125787Y0183540D02*
X0125496Y0183540D01*
X0125747Y0181942D02*
X0125787Y0181942D01*
X0125747Y0180343D02*
X0125787Y0180343D01*
X0125747Y0178745D02*
X0125834Y0178745D01*
X0128572Y0178745D02*
X0128572Y0178745D01*
X0128572Y0180343D02*
X0128572Y0180343D01*
X0129753Y0174628D02*
X0134871Y0174628D01*
X0129753Y0174628D02*
X0129753Y0149038D01*
X0145501Y0149038D01*
X0147750Y0151570D02*
X0153143Y0151570D01*
X0153143Y0149972D02*
X0148774Y0149972D01*
X0148882Y0148373D02*
X0153143Y0148373D01*
X0155343Y0145101D02*
X0158887Y0145101D01*
X0158887Y0125416D01*
X0151795Y0125416D01*
X0151395Y0119600D02*
X0152195Y0119600D01*
X0152195Y0118002D02*
X0151395Y0118002D01*
X0151395Y0114805D02*
X0152195Y0114805D01*
X0152195Y0113206D02*
X0151395Y0113206D01*
X0153375Y0109117D02*
X0141564Y0109117D01*
X0139364Y0111607D02*
X0122110Y0111607D01*
X0112406Y0094024D02*
X0112005Y0094024D01*
X0112005Y0092425D02*
X0112406Y0092425D01*
X0112406Y0090827D02*
X0112005Y0090827D01*
X0133477Y0068448D02*
X0145320Y0068448D01*
X0144329Y0070046D02*
X0134468Y0070046D01*
X0134702Y0071645D02*
X0144094Y0071645D01*
X0144466Y0073243D02*
X0134331Y0073243D01*
X0138498Y0076440D02*
X0140299Y0076440D01*
X0139844Y0082834D02*
X0138953Y0082834D01*
X0146827Y0082834D02*
X0149687Y0082834D01*
X0148801Y0081236D02*
X0147712Y0081236D01*
X0147904Y0079637D02*
X0148609Y0079637D01*
X0148989Y0078039D02*
X0147524Y0078039D01*
X0153178Y0079865D02*
X0153375Y0109117D01*
X0157995Y0118002D02*
X0164008Y0118002D01*
X0163286Y0119600D02*
X0157763Y0119600D01*
X0151795Y0134516D02*
X0149827Y0135258D01*
X0145501Y0135258D01*
X0137627Y0145101D02*
X0137627Y0125416D01*
X0143764Y0119600D02*
X0145827Y0119600D01*
X0145595Y0118002D02*
X0143764Y0118002D01*
X0137627Y0145101D02*
X0155343Y0145101D01*
X0155343Y0180534D01*
X0153044Y0178051D02*
X0153044Y0178052D01*
X0153403Y0183540D02*
X0153767Y0183540D01*
X0153089Y0185139D02*
X0152890Y0185139D01*
X0147469Y0181518D02*
X0147469Y0176597D01*
X0148279Y0170752D02*
X0153143Y0170752D01*
X0153143Y0169154D02*
X0148279Y0169154D01*
X0148279Y0167555D02*
X0153143Y0167555D01*
X0153143Y0165957D02*
X0148279Y0165957D01*
X0148279Y0164358D02*
X0153143Y0164358D01*
X0153143Y0162760D02*
X0148279Y0162760D01*
X0148279Y0161161D02*
X0153143Y0161161D01*
X0153143Y0159563D02*
X0148279Y0159563D01*
X0148279Y0157964D02*
X0153143Y0157964D01*
X0153143Y0156366D02*
X0148279Y0156366D01*
X0148279Y0154767D02*
X0153143Y0154767D01*
X0153143Y0153169D02*
X0142431Y0153169D01*
X0143252Y0151570D02*
X0131953Y0151570D01*
X0131953Y0153169D02*
X0136759Y0153169D01*
X0139411Y0153169D02*
X0139780Y0153169D01*
X0139780Y0154767D02*
X0139411Y0154767D01*
X0139411Y0156366D02*
X0139780Y0156366D01*
X0139780Y0157964D02*
X0139411Y0157964D01*
X0139411Y0159563D02*
X0139780Y0159563D01*
X0139780Y0161161D02*
X0139411Y0161161D01*
X0130846Y0186738D02*
X0126625Y0186738D01*
X0129969Y0188336D02*
X0132378Y0188336D01*
X0133910Y0189935D02*
X0130772Y0189935D01*
X0133899Y0191533D02*
X0143057Y0191533D01*
X0126742Y0197927D02*
X0126625Y0197927D01*
X0122863Y0199825D02*
X0115973Y0199825D01*
X0117813Y0202723D02*
X0118701Y0202723D01*
X0112433Y0177146D02*
X0112033Y0177146D01*
X0112033Y0175548D02*
X0112433Y0175548D01*
X0149369Y0220306D02*
X0150716Y0220306D01*
X0152220Y0218708D02*
X0154154Y0218708D01*
X0140624Y0231496D02*
X0138567Y0231496D01*
X0164661Y0237890D02*
X0166261Y0237890D01*
X0166261Y0239488D02*
X0164661Y0239488D01*
X0164661Y0241087D02*
X0166261Y0241087D01*
X0166261Y0242685D02*
X0164661Y0242685D01*
X0164661Y0244284D02*
X0166261Y0244284D01*
X0166261Y0245882D02*
X0195829Y0245882D01*
X0196258Y0244284D02*
X0173701Y0244284D01*
X0173312Y0242685D02*
X0196686Y0242685D01*
X0196819Y0241087D02*
X0172533Y0241087D01*
X0171232Y0239488D02*
X0196850Y0239488D01*
X0196850Y0237890D02*
X0168863Y0237890D01*
X0173550Y0247481D02*
X0195037Y0247481D01*
X0194114Y0249079D02*
X0172990Y0249079D01*
X0171981Y0250678D02*
X0192767Y0250678D01*
X0191169Y0252276D02*
X0170302Y0252276D01*
X0155441Y0089228D02*
X0196850Y0089228D01*
X0196850Y0087630D02*
X0155430Y0087630D01*
X0155419Y0086031D02*
X0196850Y0086031D01*
X0196850Y0084433D02*
X0155409Y0084433D01*
X0156669Y0082834D02*
X0196850Y0082834D01*
X0196850Y0081236D02*
X0157555Y0081236D01*
X0157746Y0079637D02*
X0196850Y0079637D01*
X0196850Y0078039D02*
X0167827Y0078039D01*
X0169462Y0076440D02*
X0196803Y0076440D01*
X0196623Y0074842D02*
X0170428Y0074842D01*
X0170965Y0073243D02*
X0196195Y0073243D01*
X0163820Y0074842D02*
X0162220Y0074842D01*
X0162220Y0076440D02*
X0163820Y0076440D01*
X0163820Y0078039D02*
X0162220Y0078039D01*
X0158213Y0078039D02*
X0157367Y0078039D01*
X0156579Y0076440D02*
X0156214Y0076440D01*
X0155008Y0070046D02*
X0152578Y0070046D01*
X0151587Y0068448D02*
X0155475Y0068448D01*
X0162220Y0068448D02*
X0163820Y0068448D01*
X0163820Y0070046D02*
X0162220Y0070046D01*
X0162220Y0066849D02*
X0163820Y0066849D01*
X0163820Y0065251D02*
X0162220Y0065251D01*
X0065395Y0065251D02*
X0063795Y0065251D01*
X0063795Y0066849D02*
X0065395Y0066849D01*
X0065395Y0068448D02*
X0063795Y0068448D01*
X0063795Y0070046D02*
X0065395Y0070046D01*
X0065395Y0074842D02*
X0063795Y0074842D01*
X0063795Y0076440D02*
X0065395Y0076440D01*
X0065395Y0078039D02*
X0063795Y0078039D01*
X0059788Y0078039D02*
X0058941Y0078039D01*
X0058154Y0076440D02*
X0057789Y0076440D01*
X0020276Y0202723D02*
X0019388Y0202723D01*
X0012592Y0212314D02*
X0007637Y0212314D01*
X0007637Y0213912D02*
X0013237Y0213912D01*
X0007825Y0210715D02*
X0007637Y0210715D01*
D25*
X0017548Y0199825D03*
X0035265Y0208093D03*
X0047076Y0199825D03*
X0047076Y0189195D03*
X0056918Y0180534D03*
X0047076Y0149038D03*
X0060461Y0125416D03*
X0115973Y0199825D03*
X0133690Y0208093D03*
X0145501Y0199825D03*
X0145501Y0189195D03*
X0155343Y0180534D03*
X0145501Y0149038D03*
X0158887Y0125416D03*
X0105934Y0227975D03*
X0007509Y0227975D03*
D26*
X0047076Y0141164D03*
X0145501Y0141164D03*
M02*
