G75*
%MOIN*%
%OFA0B0*%
%FSLAX25Y25*%
%IPPOS*%
%LPD*%
%AMOC8*
5,1,8,0,0,1.08239X$1,22.5*
%
%ADD10R,0.09200X0.05200*%
%ADD11R,0.09061X0.14573*%
%ADD12R,0.07800X0.07800*%
%ADD13C,0.07800*%
%ADD14R,0.02369X0.05124*%
%ADD15R,0.05124X0.02369*%
%ADD16C,0.06422*%
%ADD17C,0.13455*%
%ADD18C,0.06737*%
%ADD19C,0.13061*%
%ADD20C,0.05518*%
%ADD21R,0.03156X0.16542*%
%ADD22R,0.04337X0.16542*%
%ADD23R,0.00600X0.44400*%
%ADD24R,0.00600X0.01800*%
%ADD25R,0.00600X0.11400*%
%ADD26R,0.00600X0.03000*%
%ADD27R,0.00600X0.05400*%
%ADD28R,0.00600X0.01200*%
%ADD29R,0.00600X0.04200*%
%ADD30R,0.00600X0.00600*%
%ADD31R,0.00600X0.04800*%
%ADD32R,0.00600X0.12000*%
%ADD33R,0.00600X0.14400*%
%ADD34R,0.00600X0.09600*%
%ADD35R,0.00600X0.09000*%
%ADD36R,0.00600X0.10800*%
%ADD37R,0.00039X0.00197*%
%ADD38R,0.00039X0.00315*%
%ADD39R,0.00039X0.00394*%
%ADD40R,0.00039X0.00512*%
%ADD41R,0.00039X0.00591*%
%ADD42R,0.00039X0.00709*%
%ADD43R,0.00039X0.00787*%
%ADD44R,0.00039X0.00866*%
%ADD45R,0.00039X0.00984*%
%ADD46R,0.00039X0.01063*%
%ADD47R,0.00039X0.01181*%
%ADD48R,0.00039X0.01260*%
%ADD49R,0.00039X0.01378*%
%ADD50R,0.00039X0.01457*%
%ADD51R,0.00039X0.01575*%
%ADD52R,0.00039X0.01654*%
%ADD53R,0.00039X0.01772*%
%ADD54R,0.00039X0.01850*%
%ADD55R,0.00039X0.01929*%
%ADD56R,0.00039X0.02047*%
%ADD57R,0.00039X0.02126*%
%ADD58R,0.00039X0.02244*%
%ADD59R,0.00039X0.02323*%
%ADD60R,0.00039X0.02441*%
%ADD61R,0.00039X0.02520*%
%ADD62R,0.00039X0.02638*%
%ADD63R,0.00039X0.02717*%
%ADD64R,0.00039X0.00079*%
%ADD65R,0.00039X0.02835*%
%ADD66R,0.00039X0.00236*%
%ADD67R,0.00039X0.02913*%
%ADD68R,0.00039X0.02992*%
%ADD69R,0.00039X0.03110*%
%ADD70R,0.00039X0.03189*%
%ADD71R,0.00039X0.03307*%
%ADD72R,0.00039X0.03386*%
%ADD73R,0.00039X0.03504*%
%ADD74R,0.00039X0.00906*%
%ADD75R,0.00039X0.03583*%
%ADD76R,0.00039X0.03701*%
%ADD77R,0.00039X0.01024*%
%ADD78R,0.00039X0.03780*%
%ADD79R,0.00039X0.01142*%
%ADD80R,0.00039X0.03898*%
%ADD81R,0.00039X0.01220*%
%ADD82R,0.00039X0.03976*%
%ADD83R,0.00039X0.01339*%
%ADD84R,0.00039X0.04094*%
%ADD85R,0.00039X0.05669*%
%ADD86R,0.00039X0.05748*%
%ADD87R,0.00039X0.05787*%
%ADD88R,0.00039X0.05866*%
%ADD89R,0.00039X0.05906*%
%ADD90R,0.00039X0.05984*%
%ADD91R,0.00039X0.06024*%
%ADD92R,0.00039X0.06063*%
%ADD93R,0.00039X0.06142*%
%ADD94R,0.00039X0.06181*%
%ADD95R,0.00039X0.06260*%
%ADD96R,0.00039X0.06299*%
%ADD97R,0.00039X0.06339*%
%ADD98R,0.00039X0.06417*%
%ADD99R,0.00039X0.06496*%
%ADD100R,0.00039X0.06457*%
%ADD101R,0.00039X0.06378*%
%ADD102R,0.00039X0.06220*%
%ADD103R,0.00039X0.06102*%
%ADD104R,0.00039X0.05945*%
%ADD105R,0.00039X0.06535*%
%ADD106R,0.00039X0.06575*%
%ADD107R,0.00039X0.06614*%
%ADD108R,0.00039X0.06693*%
%ADD109R,0.00039X0.06732*%
%ADD110R,0.00039X0.06772*%
%ADD111R,0.00039X0.06811*%
%ADD112R,0.00039X0.06850*%
%ADD113R,0.00039X0.06890*%
%ADD114R,0.00039X0.06929*%
%ADD115R,0.00039X0.06969*%
%ADD116R,0.00039X0.07008*%
%ADD117R,0.00039X0.06654*%
%ADD118R,0.00039X0.07126*%
%ADD119R,0.00039X0.07283*%
%ADD120R,0.00039X0.07480*%
%ADD121R,0.00039X0.07677*%
%ADD122R,0.00039X0.07835*%
%ADD123R,0.00039X0.08031*%
%ADD124R,0.00039X0.08228*%
%ADD125R,0.00039X0.08386*%
%ADD126R,0.00039X0.08583*%
%ADD127R,0.00039X0.08780*%
%ADD128R,0.00039X0.08740*%
%ADD129R,0.00039X0.08701*%
%ADD130R,0.00039X0.08661*%
%ADD131R,0.00039X0.08622*%
%ADD132R,0.00039X0.08543*%
%ADD133R,0.00039X0.08504*%
%ADD134R,0.00039X0.08465*%
%ADD135R,0.00039X0.08425*%
%ADD136R,0.00039X0.08819*%
%ADD137R,0.00039X0.08268*%
%ADD138R,0.00039X0.08071*%
%ADD139R,0.00039X0.07913*%
%ADD140R,0.00039X0.07717*%
%ADD141R,0.00039X0.07559*%
%ADD142R,0.00039X0.07323*%
%ADD143R,0.00039X0.07165*%
%ADD144R,0.00039X0.07087*%
%ADD145R,0.00039X0.07402*%
%ADD146R,0.00039X0.16260*%
%ADD147R,0.00039X0.16181*%
%ADD148R,0.00039X0.16102*%
%ADD149R,0.00039X0.16024*%
%ADD150R,0.00039X0.15945*%
%ADD151R,0.00039X0.15866*%
%ADD152R,0.00039X0.15787*%
%ADD153R,0.00039X0.15709*%
%ADD154R,0.00039X0.15630*%
%ADD155R,0.00039X0.15551*%
%ADD156R,0.00039X0.15472*%
%ADD157R,0.00039X0.15394*%
%ADD158R,0.00039X0.15315*%
%ADD159R,0.00039X0.15236*%
%ADD160R,0.00039X0.16339*%
%ADD161R,0.00039X0.16417*%
%ADD162R,0.00039X0.16496*%
%ADD163R,0.00039X0.16575*%
%ADD164R,0.00039X0.16654*%
%ADD165R,0.00039X0.16732*%
%ADD166R,0.00039X0.16811*%
%ADD167R,0.00039X0.16890*%
%ADD168R,0.00039X0.16969*%
%ADD169R,0.00039X0.17047*%
%ADD170R,0.00039X0.17126*%
%ADD171R,0.00039X0.17205*%
%ADD172R,0.00039X0.17283*%
%ADD173R,0.00039X0.17362*%
%ADD174R,0.00039X0.17441*%
%ADD175R,0.00039X0.17520*%
%ADD176R,0.00039X0.17598*%
%ADD177R,0.00039X0.17677*%
%ADD178R,0.00039X0.17756*%
%ADD179R,0.00039X0.17835*%
%ADD180R,0.00039X0.17913*%
%ADD181R,0.00039X0.17992*%
%ADD182R,0.00039X0.18071*%
%ADD183R,0.00039X0.18150*%
%ADD184R,0.00039X0.18228*%
%ADD185R,0.00039X0.18307*%
%ADD186R,0.00039X0.18386*%
%ADD187R,0.00039X0.18465*%
%ADD188R,0.00039X0.18543*%
%ADD189R,0.00039X0.18622*%
%ADD190R,0.00039X0.18701*%
%ADD191R,0.00039X0.04370*%
%ADD192R,0.00039X0.04291*%
%ADD193R,0.00039X0.04173*%
%ADD194R,0.00039X0.07992*%
%ADD195R,0.00039X0.07598*%
%ADD196R,0.00039X0.07441*%
%ADD197R,0.00039X0.07205*%
%ADD198R,0.00039X0.03622*%
%ADD199R,0.00039X0.07047*%
%ADD200R,0.00039X0.03425*%
%ADD201R,0.00039X0.03228*%
%ADD202R,0.00039X0.03031*%
%ADD203R,0.00039X0.05709*%
%ADD204R,0.00039X0.05512*%
%ADD205R,0.00039X0.05315*%
%ADD206R,0.00039X0.05157*%
%ADD207R,0.00039X0.02559*%
%ADD208R,0.00039X0.04921*%
%ADD209R,0.00039X0.04764*%
%ADD210R,0.00039X0.02362*%
%ADD211R,0.00039X0.04606*%
%ADD212R,0.00039X0.04528*%
%ADD213R,0.00039X0.02165*%
%ADD214R,0.00039X0.04449*%
%ADD215R,0.00039X0.04409*%
%ADD216R,0.00039X0.01969*%
%ADD217R,0.00039X0.01299*%
%ADD218R,0.00039X0.01102*%
%ADD219R,0.00039X0.04213*%
%ADD220R,0.00039X0.04134*%
%ADD221R,0.00039X0.04055*%
%ADD222R,0.00039X0.03819*%
%ADD223R,0.00039X0.03740*%
%ADD224R,0.00039X0.03661*%
%ADD225R,0.00039X0.03346*%
%ADD226R,0.00039X0.03268*%
D10*
X0053370Y0116316D03*
X0053370Y0125416D03*
X0053370Y0134516D03*
D11*
X0028969Y0125416D03*
D12*
X0013780Y0095022D03*
D13*
X0014780Y0105022D03*
X0013780Y0115022D03*
X0014780Y0125022D03*
X0013780Y0135022D03*
X0014780Y0145022D03*
X0013780Y0155022D03*
X0014780Y0165022D03*
X0013808Y0175022D03*
D14*
X0030146Y0181518D03*
X0033296Y0181518D03*
X0036446Y0181518D03*
X0039595Y0181518D03*
X0042745Y0181518D03*
X0045894Y0181518D03*
X0049044Y0181518D03*
X0052194Y0181518D03*
X0052194Y0214983D03*
X0049044Y0214983D03*
X0045894Y0214983D03*
X0042745Y0214983D03*
X0039595Y0214983D03*
X0036446Y0214983D03*
X0033296Y0214983D03*
X0029950Y0214983D03*
D15*
X0024438Y0209274D03*
X0024438Y0206124D03*
X0024438Y0202975D03*
X0024438Y0199825D03*
X0024438Y0196676D03*
X0024438Y0193526D03*
X0024438Y0190376D03*
X0024438Y0187227D03*
X0057902Y0187227D03*
X0057902Y0190376D03*
X0057902Y0193526D03*
X0057902Y0196676D03*
X0057902Y0199825D03*
X0057902Y0202975D03*
X0057902Y0206124D03*
X0057902Y0209274D03*
D16*
X0054950Y0234825D03*
X0045107Y0234825D03*
X0037233Y0234825D03*
X0027391Y0234825D03*
D17*
X0015304Y0245494D03*
X0067036Y0245494D03*
D18*
X0054753Y0079865D03*
X0044910Y0079865D03*
X0037036Y0079865D03*
X0027194Y0079865D03*
D19*
X0017351Y0071479D03*
X0064595Y0071479D03*
D20*
X0050028Y0071479D03*
X0031918Y0071479D03*
D21*
X0035265Y0162817D03*
X0047076Y0162817D03*
D22*
X0041170Y0162817D03*
D23*
X0066592Y0095810D03*
X0067192Y0095810D03*
X0067792Y0095810D03*
X0095392Y0095810D03*
X0095992Y0095810D03*
X0096592Y0095810D03*
D24*
X0094792Y0096110D03*
X0094192Y0096110D03*
X0093592Y0096110D03*
X0092992Y0096110D03*
X0092392Y0096110D03*
X0091792Y0096110D03*
X0071392Y0096110D03*
X0070792Y0096110D03*
X0070192Y0096110D03*
X0069592Y0096110D03*
X0068992Y0096110D03*
X0068392Y0096110D03*
X0068392Y0114110D03*
X0068992Y0114110D03*
X0069592Y0114110D03*
X0070192Y0114110D03*
X0070792Y0114110D03*
X0071392Y0114110D03*
D25*
X0070792Y0105110D03*
X0080392Y0084110D03*
X0082792Y0084110D03*
X0092392Y0105110D03*
D26*
X0092392Y0087710D03*
X0092392Y0077510D03*
X0070792Y0077510D03*
X0070792Y0087710D03*
D27*
X0071392Y0101510D03*
X0071392Y0108710D03*
X0073792Y0108710D03*
X0073792Y0101510D03*
D28*
X0073792Y0089210D03*
X0073792Y0086210D03*
X0071392Y0086210D03*
X0071392Y0089210D03*
X0080392Y0099410D03*
X0082792Y0099410D03*
X0089392Y0089210D03*
X0091792Y0089210D03*
X0091792Y0086210D03*
X0089392Y0086210D03*
X0082792Y0076010D03*
X0080392Y0076010D03*
X0089392Y0110810D03*
X0091792Y0110810D03*
D29*
X0088192Y0109310D03*
X0087592Y0109310D03*
X0086992Y0109310D03*
X0086392Y0109310D03*
X0085792Y0109310D03*
X0085192Y0109310D03*
X0084592Y0109310D03*
X0083992Y0109310D03*
X0079192Y0100910D03*
X0078592Y0100910D03*
X0077992Y0100910D03*
X0077392Y0100910D03*
X0076792Y0100910D03*
X0076192Y0100910D03*
X0075592Y0100910D03*
X0074992Y0100910D03*
X0074992Y0087710D03*
X0074392Y0087710D03*
X0075592Y0087710D03*
X0076192Y0087710D03*
X0076792Y0087710D03*
X0077392Y0087710D03*
X0077992Y0087710D03*
X0078592Y0087710D03*
X0079192Y0087710D03*
X0079192Y0077510D03*
X0078592Y0077510D03*
X0077992Y0077510D03*
X0077392Y0077510D03*
X0076792Y0077510D03*
X0076192Y0077510D03*
X0075592Y0077510D03*
X0074992Y0077510D03*
X0074392Y0077510D03*
X0073792Y0077510D03*
X0073192Y0077510D03*
X0072592Y0077510D03*
X0071992Y0077510D03*
X0071392Y0077510D03*
X0083992Y0077510D03*
X0084592Y0077510D03*
X0085192Y0077510D03*
X0085792Y0077510D03*
X0086392Y0077510D03*
X0086992Y0077510D03*
X0087592Y0077510D03*
X0088192Y0077510D03*
X0088792Y0077510D03*
X0089392Y0077510D03*
X0089992Y0077510D03*
X0090592Y0077510D03*
X0091192Y0077510D03*
X0091792Y0077510D03*
X0088792Y0087710D03*
X0088192Y0087710D03*
X0087592Y0087710D03*
X0086992Y0087710D03*
X0086392Y0087710D03*
X0085792Y0087710D03*
X0085192Y0087710D03*
X0084592Y0087710D03*
X0083992Y0087710D03*
D30*
X0082192Y0099110D03*
X0081592Y0099110D03*
X0080992Y0099110D03*
X0073192Y0089510D03*
X0072592Y0089510D03*
X0071992Y0089510D03*
X0071992Y0085910D03*
X0072592Y0085910D03*
X0073192Y0085910D03*
X0071992Y0095510D03*
X0071992Y0096710D03*
X0071992Y0113510D03*
X0071992Y0114710D03*
X0080992Y0075710D03*
X0081592Y0075710D03*
X0082192Y0075710D03*
X0089992Y0085910D03*
X0090592Y0085910D03*
X0091192Y0085910D03*
X0091192Y0089510D03*
X0090592Y0089510D03*
X0089992Y0089510D03*
X0091192Y0095510D03*
X0091192Y0096710D03*
X0091192Y0111110D03*
X0090592Y0111110D03*
X0089992Y0111110D03*
D31*
X0073192Y0109010D03*
X0072592Y0109010D03*
X0071992Y0109010D03*
X0071992Y0101210D03*
X0072592Y0101210D03*
X0073192Y0101210D03*
D32*
X0074392Y0104810D03*
X0079792Y0104810D03*
X0083392Y0105410D03*
X0088792Y0105410D03*
D33*
X0083392Y0082610D03*
X0079792Y0082610D03*
D34*
X0089392Y0103610D03*
X0091792Y0103610D03*
X0082792Y0106610D03*
X0080392Y0106610D03*
D35*
X0080992Y0106910D03*
X0081592Y0106910D03*
X0082192Y0106910D03*
X0089992Y0103310D03*
X0090592Y0103310D03*
X0091192Y0103310D03*
D36*
X0082192Y0084410D03*
X0081592Y0084410D03*
X0080992Y0084410D03*
D37*
X0074635Y0226754D03*
X0074635Y0240928D03*
D38*
X0074674Y0240908D03*
X0075737Y0237325D03*
X0075737Y0230357D03*
X0074674Y0226774D03*
X0093217Y0226774D03*
X0093217Y0240908D03*
D39*
X0093178Y0240908D03*
X0093178Y0226774D03*
X0075776Y0230317D03*
X0074713Y0226774D03*
X0075776Y0237365D03*
X0074713Y0240908D03*
D40*
X0074753Y0240888D03*
X0075816Y0237384D03*
X0075816Y0230298D03*
X0074753Y0226794D03*
X0093139Y0226794D03*
X0093139Y0240888D03*
D41*
X0093099Y0240888D03*
X0093099Y0226794D03*
X0075855Y0230258D03*
X0074792Y0226794D03*
X0075855Y0237424D03*
X0074792Y0240888D03*
D42*
X0074831Y0240869D03*
X0075894Y0237443D03*
X0075894Y0230239D03*
X0074831Y0226813D03*
X0093060Y0226813D03*
X0093060Y0240869D03*
D43*
X0093020Y0240869D03*
X0093020Y0226813D03*
X0075934Y0230199D03*
X0074871Y0226813D03*
X0075934Y0237483D03*
X0074871Y0240869D03*
D44*
X0074910Y0240869D03*
X0074910Y0226813D03*
D45*
X0074950Y0226833D03*
X0076013Y0230140D03*
X0076013Y0237542D03*
X0074950Y0240849D03*
X0092942Y0240849D03*
X0092942Y0226833D03*
D46*
X0074989Y0226833D03*
X0074989Y0240849D03*
D47*
X0075028Y0240829D03*
X0075028Y0226853D03*
X0092863Y0226853D03*
X0092863Y0240829D03*
D48*
X0075068Y0240829D03*
X0075068Y0226853D03*
D49*
X0075107Y0226872D03*
X0075107Y0240809D03*
X0092784Y0240809D03*
X0092784Y0226872D03*
D50*
X0092745Y0226872D03*
X0092745Y0240809D03*
X0076209Y0237699D03*
X0075146Y0240809D03*
X0076209Y0229983D03*
X0075146Y0226872D03*
D51*
X0075186Y0226892D03*
X0075186Y0240790D03*
X0092706Y0240790D03*
X0092706Y0226892D03*
D52*
X0092666Y0226892D03*
X0092666Y0240790D03*
X0075225Y0240790D03*
X0075225Y0226892D03*
D53*
X0075265Y0226912D03*
X0075265Y0240770D03*
X0092627Y0240770D03*
X0092627Y0226912D03*
D54*
X0092587Y0226912D03*
X0092587Y0240770D03*
X0075304Y0240770D03*
X0075304Y0226912D03*
D55*
X0075343Y0226912D03*
X0075343Y0240770D03*
D56*
X0075383Y0240750D03*
X0075383Y0226931D03*
X0092509Y0226931D03*
X0092509Y0240750D03*
D57*
X0075422Y0240750D03*
X0075422Y0226931D03*
D58*
X0075461Y0226951D03*
X0075461Y0240731D03*
X0092430Y0240731D03*
X0092430Y0226951D03*
D59*
X0075501Y0226951D03*
X0075501Y0240731D03*
D60*
X0075540Y0240711D03*
X0075540Y0226971D03*
X0092351Y0226971D03*
X0092351Y0240711D03*
D61*
X0075580Y0240711D03*
X0075580Y0226971D03*
D62*
X0075619Y0226991D03*
X0075619Y0240691D03*
X0092272Y0240691D03*
X0092272Y0226991D03*
D63*
X0092233Y0226991D03*
X0092233Y0240691D03*
X0075658Y0240691D03*
X0075658Y0226991D03*
D64*
X0075658Y0230396D03*
X0075658Y0237286D03*
D65*
X0075698Y0240672D03*
X0075698Y0227010D03*
X0092194Y0227010D03*
X0092194Y0240672D03*
D66*
X0093257Y0240908D03*
X0093257Y0226774D03*
X0075698Y0230357D03*
X0075698Y0237325D03*
D67*
X0075737Y0240672D03*
X0075737Y0227010D03*
X0092154Y0227010D03*
X0092154Y0240672D03*
D68*
X0075776Y0240672D03*
X0075776Y0227010D03*
D69*
X0075816Y0227030D03*
X0075816Y0240652D03*
X0092076Y0240652D03*
X0092076Y0227030D03*
D70*
X0095540Y0233841D03*
X0095580Y0233841D03*
X0075855Y0240652D03*
X0075855Y0227030D03*
D71*
X0075894Y0227050D03*
X0075894Y0240632D03*
X0091997Y0240632D03*
X0091997Y0227050D03*
D72*
X0075934Y0227050D03*
X0075934Y0240632D03*
D73*
X0075973Y0240613D03*
X0075973Y0227069D03*
X0091918Y0227069D03*
X0094831Y0233841D03*
X0094871Y0233841D03*
X0094910Y0233841D03*
X0094950Y0233841D03*
X0094989Y0233841D03*
X0091918Y0240613D03*
D74*
X0092981Y0240849D03*
X0092981Y0226833D03*
X0075973Y0230180D03*
X0075973Y0237502D03*
D75*
X0076013Y0240613D03*
X0076013Y0227069D03*
X0094595Y0233841D03*
X0094635Y0233841D03*
X0094674Y0233841D03*
X0094713Y0233841D03*
X0094753Y0233841D03*
X0094792Y0233841D03*
D76*
X0091839Y0240593D03*
X0091839Y0227089D03*
X0076052Y0227089D03*
X0076052Y0240593D03*
D77*
X0076052Y0237561D03*
X0076052Y0230120D03*
D78*
X0076091Y0227089D03*
X0076091Y0240593D03*
X0091800Y0240593D03*
X0094162Y0233821D03*
X0091800Y0227089D03*
D79*
X0076091Y0230101D03*
X0076091Y0237581D03*
D80*
X0076131Y0240573D03*
X0076131Y0227109D03*
X0091761Y0227109D03*
X0093769Y0233841D03*
X0093808Y0233841D03*
X0093847Y0233841D03*
X0093887Y0233841D03*
X0093926Y0233841D03*
X0091761Y0240573D03*
D81*
X0076131Y0237620D03*
X0076131Y0230061D03*
D82*
X0076170Y0227109D03*
X0076170Y0240573D03*
X0091721Y0240573D03*
X0093532Y0233841D03*
X0093572Y0233841D03*
X0093611Y0233841D03*
X0093650Y0233841D03*
X0093690Y0233841D03*
X0093729Y0233841D03*
X0091721Y0227109D03*
D83*
X0076170Y0230042D03*
X0076170Y0237640D03*
D84*
X0076209Y0240554D03*
X0076209Y0227128D03*
X0091682Y0227128D03*
X0091682Y0240554D03*
D85*
X0076249Y0239806D03*
X0076249Y0227876D03*
D86*
X0076288Y0227876D03*
X0076288Y0239806D03*
D87*
X0076328Y0239825D03*
X0076328Y0227857D03*
D88*
X0076367Y0227857D03*
X0079202Y0228998D03*
X0079241Y0229038D03*
X0079280Y0229038D03*
X0079320Y0229077D03*
X0079359Y0229077D03*
X0079359Y0238605D03*
X0079320Y0238605D03*
X0079280Y0238644D03*
X0079241Y0238644D03*
X0079202Y0238683D03*
X0076367Y0239825D03*
X0092115Y0233841D03*
D89*
X0079477Y0238585D03*
X0079438Y0238585D03*
X0079398Y0238585D03*
X0079162Y0238703D03*
X0079123Y0238703D03*
X0079083Y0238743D03*
X0076406Y0239845D03*
X0079398Y0229097D03*
X0079438Y0229097D03*
X0079477Y0229097D03*
X0079162Y0228979D03*
X0079123Y0228979D03*
X0079083Y0228939D03*
X0076406Y0227837D03*
D90*
X0076446Y0227837D03*
X0078808Y0228782D03*
X0078847Y0228821D03*
X0078887Y0228821D03*
X0078926Y0228861D03*
X0079517Y0229097D03*
X0079556Y0229097D03*
X0079556Y0238585D03*
X0079517Y0238585D03*
X0078926Y0238821D03*
X0078887Y0238861D03*
X0078847Y0238861D03*
X0078808Y0238900D03*
X0076446Y0239845D03*
D91*
X0076485Y0239865D03*
X0078611Y0238998D03*
X0078690Y0238959D03*
X0078729Y0238920D03*
X0078769Y0238920D03*
X0078769Y0228762D03*
X0078729Y0228762D03*
X0078690Y0228723D03*
X0078611Y0228683D03*
X0076485Y0227817D03*
D92*
X0076524Y0227798D03*
X0078493Y0228624D03*
X0078532Y0228624D03*
X0078572Y0228664D03*
X0078650Y0228703D03*
X0079595Y0229097D03*
X0079635Y0229097D03*
X0079674Y0229097D03*
X0079674Y0238585D03*
X0079635Y0238585D03*
X0079595Y0238585D03*
X0078650Y0238979D03*
X0078572Y0239018D03*
X0078532Y0239057D03*
X0078493Y0239057D03*
X0076524Y0239884D03*
D93*
X0076564Y0239884D03*
X0078217Y0239215D03*
X0078296Y0239176D03*
X0078375Y0239136D03*
X0079713Y0238585D03*
X0079753Y0238585D03*
X0079753Y0229097D03*
X0079713Y0229097D03*
X0078375Y0228546D03*
X0078296Y0228506D03*
X0078217Y0228467D03*
X0076564Y0227798D03*
D94*
X0076603Y0227778D03*
X0078060Y0228369D03*
X0078099Y0228408D03*
X0078139Y0228408D03*
X0078178Y0228447D03*
X0078257Y0228487D03*
X0078257Y0239195D03*
X0078178Y0239235D03*
X0078139Y0239274D03*
X0078099Y0239274D03*
X0078060Y0239313D03*
X0076603Y0239904D03*
D95*
X0076643Y0239904D03*
X0077745Y0239471D03*
X0077824Y0239431D03*
X0077902Y0239392D03*
X0079871Y0238565D03*
X0079871Y0229117D03*
X0077902Y0228290D03*
X0077824Y0228250D03*
X0077745Y0228211D03*
X0076643Y0227778D03*
X0086170Y0228369D03*
X0086209Y0228408D03*
X0086249Y0228447D03*
X0086288Y0228487D03*
X0086288Y0239195D03*
X0086249Y0239235D03*
X0086209Y0239274D03*
X0086170Y0239313D03*
X0092036Y0233841D03*
D96*
X0086131Y0239372D03*
X0081761Y0239372D03*
X0081721Y0239333D03*
X0081682Y0239294D03*
X0081643Y0239254D03*
X0079950Y0238585D03*
X0079910Y0238585D03*
X0077784Y0239451D03*
X0077706Y0239491D03*
X0077666Y0239530D03*
X0076682Y0239924D03*
X0079910Y0229097D03*
X0079950Y0229097D03*
X0081643Y0228428D03*
X0081682Y0228388D03*
X0081721Y0228349D03*
X0081761Y0228309D03*
X0077784Y0228231D03*
X0077706Y0228191D03*
X0077666Y0228152D03*
X0076682Y0227758D03*
X0086131Y0228309D03*
D97*
X0086328Y0228526D03*
X0086328Y0239156D03*
X0081603Y0239235D03*
X0077627Y0239550D03*
X0077587Y0239550D03*
X0077548Y0239589D03*
X0077469Y0239628D03*
X0076721Y0239943D03*
X0077587Y0228132D03*
X0077627Y0228132D03*
X0077548Y0228093D03*
X0077469Y0228054D03*
X0076721Y0227739D03*
X0081603Y0228447D03*
D98*
X0081485Y0228526D03*
X0081446Y0228565D03*
X0080068Y0229117D03*
X0077312Y0227975D03*
X0077272Y0227935D03*
X0077233Y0227935D03*
X0077194Y0227896D03*
X0076800Y0227739D03*
X0076761Y0227739D03*
X0080068Y0238565D03*
X0081446Y0239117D03*
X0081485Y0239156D03*
X0077312Y0239707D03*
X0077272Y0239746D03*
X0077233Y0239746D03*
X0077194Y0239786D03*
X0076800Y0239943D03*
X0076761Y0239943D03*
X0086446Y0239077D03*
X0086485Y0239038D03*
X0086485Y0228644D03*
X0086446Y0228605D03*
D99*
X0086524Y0228683D03*
X0086564Y0228723D03*
X0086091Y0228211D03*
X0086564Y0238959D03*
X0086524Y0238998D03*
X0086091Y0239471D03*
X0081406Y0239077D03*
X0077036Y0239865D03*
X0076997Y0239904D03*
X0076957Y0239904D03*
X0076879Y0239943D03*
X0076839Y0239943D03*
X0077036Y0227817D03*
X0076997Y0227778D03*
X0076957Y0227778D03*
X0076879Y0227739D03*
X0076839Y0227739D03*
X0081406Y0228605D03*
X0091997Y0233841D03*
D100*
X0080146Y0238585D03*
X0080107Y0238585D03*
X0077154Y0239806D03*
X0077115Y0239806D03*
X0077076Y0239845D03*
X0076918Y0239924D03*
X0080107Y0229097D03*
X0080146Y0229097D03*
X0077154Y0227876D03*
X0077115Y0227876D03*
X0077076Y0227837D03*
X0076918Y0227758D03*
D101*
X0077351Y0227994D03*
X0077391Y0227994D03*
X0077430Y0228034D03*
X0077509Y0228073D03*
X0079989Y0229097D03*
X0080028Y0229097D03*
X0081524Y0228506D03*
X0081564Y0228467D03*
X0081800Y0228231D03*
X0086367Y0228546D03*
X0086406Y0228585D03*
X0086406Y0239097D03*
X0086367Y0239136D03*
X0081800Y0239451D03*
X0081564Y0239215D03*
X0081524Y0239176D03*
X0080028Y0238585D03*
X0079989Y0238585D03*
X0077509Y0239609D03*
X0077430Y0239648D03*
X0077391Y0239687D03*
X0077351Y0239687D03*
D102*
X0077863Y0239412D03*
X0077942Y0239372D03*
X0077981Y0239333D03*
X0078020Y0239333D03*
X0079792Y0238585D03*
X0079831Y0238585D03*
X0079831Y0229097D03*
X0079792Y0229097D03*
X0078020Y0228349D03*
X0077981Y0228349D03*
X0077942Y0228309D03*
X0077863Y0228270D03*
D103*
X0078335Y0228526D03*
X0078414Y0228565D03*
X0078454Y0228605D03*
X0078454Y0239077D03*
X0078414Y0239117D03*
X0078335Y0239156D03*
X0092076Y0233841D03*
D104*
X0079044Y0238762D03*
X0079005Y0238802D03*
X0078965Y0238802D03*
X0079044Y0228920D03*
X0079005Y0228880D03*
X0078965Y0228880D03*
D105*
X0080186Y0229097D03*
X0080225Y0229097D03*
X0081328Y0228664D03*
X0081367Y0228624D03*
X0080225Y0238585D03*
X0080186Y0238585D03*
X0081328Y0239018D03*
X0081367Y0239057D03*
X0086603Y0238939D03*
X0086603Y0228743D03*
D106*
X0081839Y0228093D03*
X0080265Y0229117D03*
X0080265Y0238565D03*
X0081839Y0239589D03*
D107*
X0081288Y0238979D03*
X0081249Y0238939D03*
X0080343Y0238585D03*
X0080304Y0238585D03*
X0080304Y0229097D03*
X0080343Y0229097D03*
X0081249Y0228743D03*
X0081288Y0228703D03*
X0086643Y0228782D03*
X0086643Y0238900D03*
D108*
X0086721Y0238821D03*
X0086721Y0228861D03*
X0080422Y0229097D03*
X0080383Y0229097D03*
X0080383Y0238585D03*
X0080422Y0238585D03*
D109*
X0080461Y0238565D03*
X0081131Y0238841D03*
X0081170Y0238880D03*
X0081879Y0239707D03*
X0080461Y0229117D03*
X0081131Y0228841D03*
X0081170Y0228802D03*
X0081879Y0227975D03*
X0086761Y0228920D03*
X0086761Y0238762D03*
D110*
X0081091Y0238821D03*
X0080501Y0238585D03*
X0080501Y0229097D03*
X0081091Y0228861D03*
D111*
X0081052Y0228920D03*
X0080540Y0229117D03*
X0080540Y0238565D03*
X0081052Y0238762D03*
X0086013Y0239707D03*
X0086800Y0238723D03*
X0086800Y0228959D03*
X0086013Y0227975D03*
D112*
X0086839Y0229018D03*
X0086839Y0238664D03*
X0080619Y0238585D03*
X0080580Y0238585D03*
X0080580Y0229097D03*
X0080619Y0229097D03*
D113*
X0080658Y0229117D03*
X0081013Y0228959D03*
X0080658Y0238565D03*
X0081013Y0238723D03*
X0091918Y0233841D03*
D114*
X0086879Y0238624D03*
X0086879Y0229057D03*
X0081918Y0227876D03*
X0080973Y0228979D03*
X0080737Y0229097D03*
X0080698Y0229097D03*
X0080698Y0238585D03*
X0080737Y0238585D03*
X0080973Y0238703D03*
X0081918Y0239806D03*
D115*
X0080934Y0238644D03*
X0080855Y0238605D03*
X0080816Y0238605D03*
X0080776Y0238605D03*
X0080776Y0229077D03*
X0080816Y0229077D03*
X0080855Y0229077D03*
X0080934Y0229038D03*
D116*
X0080894Y0229057D03*
X0080894Y0238624D03*
X0085973Y0239845D03*
X0086918Y0238585D03*
X0086918Y0229097D03*
X0085973Y0227837D03*
D117*
X0086052Y0228093D03*
X0086682Y0228841D03*
X0086682Y0238841D03*
X0086052Y0239589D03*
X0081209Y0238920D03*
X0081209Y0228762D03*
X0091957Y0233841D03*
D118*
X0081957Y0239943D03*
X0081957Y0227739D03*
D119*
X0081997Y0227620D03*
X0081997Y0240061D03*
X0087036Y0238369D03*
X0087036Y0229313D03*
D120*
X0082036Y0227483D03*
X0082036Y0240199D03*
D121*
X0082076Y0240298D03*
X0082076Y0227384D03*
D122*
X0082115Y0227266D03*
X0082115Y0240416D03*
X0087154Y0238054D03*
X0087154Y0229628D03*
X0091721Y0233841D03*
D123*
X0082154Y0240554D03*
X0082154Y0227128D03*
D124*
X0082194Y0227030D03*
X0082194Y0240652D03*
X0091643Y0233841D03*
D125*
X0091603Y0233841D03*
X0082233Y0240770D03*
X0082233Y0226912D03*
D126*
X0082272Y0226774D03*
X0082981Y0226459D03*
X0083020Y0226459D03*
X0083060Y0226459D03*
X0084831Y0226459D03*
X0084871Y0226459D03*
X0084910Y0226459D03*
X0082272Y0240908D03*
X0082981Y0241223D03*
X0083020Y0241223D03*
X0083060Y0241223D03*
X0084831Y0241223D03*
X0084871Y0241223D03*
X0084910Y0241223D03*
D127*
X0085343Y0241124D03*
X0085383Y0241124D03*
X0085580Y0241006D03*
X0082548Y0241124D03*
X0082509Y0241124D03*
X0082469Y0241124D03*
X0082430Y0241085D03*
X0082391Y0241085D03*
X0082351Y0241046D03*
X0082312Y0241006D03*
X0082312Y0226676D03*
X0082351Y0226636D03*
X0082391Y0226597D03*
X0082430Y0226597D03*
X0082469Y0226557D03*
X0082509Y0226557D03*
X0082548Y0226557D03*
X0085343Y0226557D03*
X0085383Y0226557D03*
X0085580Y0226676D03*
D128*
X0085304Y0226538D03*
X0085265Y0226538D03*
X0082627Y0226538D03*
X0082587Y0226538D03*
X0082587Y0241144D03*
X0082627Y0241144D03*
X0085265Y0241144D03*
X0085304Y0241144D03*
D129*
X0085225Y0241164D03*
X0085186Y0241164D03*
X0082706Y0241164D03*
X0082666Y0241164D03*
X0082666Y0226518D03*
X0082706Y0226518D03*
X0085186Y0226518D03*
X0085225Y0226518D03*
D130*
X0085146Y0226498D03*
X0085107Y0226498D03*
X0085068Y0226498D03*
X0085619Y0226774D03*
X0082824Y0226498D03*
X0082784Y0226498D03*
X0082745Y0226498D03*
X0082745Y0241183D03*
X0082784Y0241183D03*
X0082824Y0241183D03*
X0085068Y0241183D03*
X0085107Y0241183D03*
X0085146Y0241183D03*
X0085619Y0240908D03*
D131*
X0085028Y0241203D03*
X0084989Y0241203D03*
X0084950Y0241203D03*
X0082942Y0241203D03*
X0082902Y0241203D03*
X0082863Y0241203D03*
X0082863Y0226479D03*
X0082902Y0226479D03*
X0082942Y0226479D03*
X0084950Y0226479D03*
X0084989Y0226479D03*
X0085028Y0226479D03*
X0091564Y0233841D03*
D132*
X0084792Y0241243D03*
X0084753Y0241243D03*
X0084713Y0241243D03*
X0084674Y0241243D03*
X0083217Y0241243D03*
X0083178Y0241243D03*
X0083139Y0241243D03*
X0083099Y0241243D03*
X0083099Y0226439D03*
X0083139Y0226439D03*
X0083178Y0226439D03*
X0083217Y0226439D03*
X0084674Y0226439D03*
X0084713Y0226439D03*
X0084753Y0226439D03*
X0084792Y0226439D03*
D133*
X0084635Y0226420D03*
X0084595Y0226420D03*
X0084556Y0226420D03*
X0084517Y0226420D03*
X0084477Y0226420D03*
X0083414Y0226420D03*
X0083375Y0226420D03*
X0083335Y0226420D03*
X0083296Y0226420D03*
X0083257Y0226420D03*
X0083257Y0241262D03*
X0083296Y0241262D03*
X0083335Y0241262D03*
X0083375Y0241262D03*
X0083414Y0241262D03*
X0084477Y0241262D03*
X0084517Y0241262D03*
X0084556Y0241262D03*
X0084595Y0241262D03*
X0084635Y0241262D03*
D134*
X0084438Y0241282D03*
X0084398Y0241282D03*
X0084359Y0241282D03*
X0084320Y0241282D03*
X0084280Y0241282D03*
X0084241Y0241282D03*
X0084202Y0241282D03*
X0084162Y0241282D03*
X0084123Y0241282D03*
X0084083Y0241282D03*
X0083808Y0241282D03*
X0083769Y0241282D03*
X0083729Y0241282D03*
X0083690Y0241282D03*
X0083650Y0241282D03*
X0083611Y0241282D03*
X0083572Y0241282D03*
X0083532Y0241282D03*
X0083493Y0241282D03*
X0083454Y0241282D03*
X0085658Y0240809D03*
X0085658Y0226872D03*
X0084438Y0226400D03*
X0084398Y0226400D03*
X0084359Y0226400D03*
X0084320Y0226400D03*
X0084280Y0226400D03*
X0084241Y0226400D03*
X0084202Y0226400D03*
X0084162Y0226400D03*
X0084123Y0226400D03*
X0084083Y0226400D03*
X0083808Y0226400D03*
X0083769Y0226400D03*
X0083729Y0226400D03*
X0083690Y0226400D03*
X0083650Y0226400D03*
X0083611Y0226400D03*
X0083572Y0226400D03*
X0083532Y0226400D03*
X0083493Y0226400D03*
X0083454Y0226400D03*
D135*
X0083847Y0226380D03*
X0083887Y0226380D03*
X0083926Y0226380D03*
X0083965Y0226380D03*
X0084005Y0226380D03*
X0084044Y0226380D03*
X0084044Y0241302D03*
X0084005Y0241302D03*
X0083965Y0241302D03*
X0083926Y0241302D03*
X0083887Y0241302D03*
X0083847Y0241302D03*
D136*
X0085422Y0241105D03*
X0085461Y0241105D03*
X0085501Y0241065D03*
X0085540Y0241065D03*
X0085540Y0226617D03*
X0085501Y0226617D03*
X0085461Y0226577D03*
X0085422Y0226577D03*
D137*
X0085698Y0227010D03*
X0085698Y0240672D03*
D138*
X0085737Y0240573D03*
X0085737Y0227109D03*
D139*
X0085776Y0227227D03*
X0085776Y0240455D03*
D140*
X0085816Y0240317D03*
X0085816Y0227365D03*
D141*
X0085855Y0227483D03*
X0087115Y0229491D03*
X0087115Y0238191D03*
X0085855Y0240199D03*
D142*
X0085894Y0240081D03*
X0085894Y0227601D03*
D143*
X0085934Y0227719D03*
X0086997Y0229215D03*
X0086997Y0238467D03*
X0085934Y0239963D03*
D144*
X0086957Y0238506D03*
X0086957Y0229176D03*
D145*
X0087076Y0229372D03*
X0087076Y0238309D03*
D146*
X0087194Y0233841D03*
X0089202Y0233841D03*
D147*
X0089162Y0233841D03*
X0087272Y0233841D03*
X0087233Y0233841D03*
D148*
X0087312Y0233841D03*
X0087351Y0233841D03*
X0089083Y0233841D03*
X0089123Y0233841D03*
D149*
X0089044Y0233841D03*
X0087469Y0233841D03*
X0087430Y0233841D03*
X0087391Y0233841D03*
D150*
X0087509Y0233841D03*
X0087548Y0233841D03*
X0088965Y0233841D03*
X0089005Y0233841D03*
D151*
X0088926Y0233841D03*
X0087627Y0233841D03*
X0087587Y0233841D03*
D152*
X0087666Y0233841D03*
X0087706Y0233841D03*
X0087745Y0233841D03*
X0088847Y0233841D03*
X0088887Y0233841D03*
D153*
X0088808Y0233841D03*
X0087824Y0233841D03*
X0087784Y0233841D03*
D154*
X0087863Y0233841D03*
X0087902Y0233841D03*
X0088729Y0233841D03*
X0088769Y0233841D03*
D155*
X0088690Y0233841D03*
X0088020Y0233841D03*
X0087981Y0233841D03*
X0087942Y0233841D03*
D156*
X0088060Y0233841D03*
X0088099Y0233841D03*
X0088611Y0233841D03*
X0088650Y0233841D03*
D157*
X0088572Y0233841D03*
X0088178Y0233841D03*
X0088139Y0233841D03*
D158*
X0088217Y0233841D03*
X0088257Y0233841D03*
X0088296Y0233841D03*
X0088493Y0233841D03*
X0088532Y0233841D03*
D159*
X0088454Y0233841D03*
X0088414Y0233841D03*
X0088375Y0233841D03*
X0088335Y0233841D03*
D160*
X0089241Y0233841D03*
X0089280Y0233841D03*
D161*
X0089320Y0233841D03*
D162*
X0089359Y0233841D03*
X0089398Y0233841D03*
D163*
X0089438Y0233841D03*
D164*
X0089477Y0233841D03*
X0089517Y0233841D03*
D165*
X0089556Y0233841D03*
D166*
X0089595Y0233841D03*
X0089635Y0233841D03*
D167*
X0089674Y0233841D03*
D168*
X0089713Y0233841D03*
X0089753Y0233841D03*
D169*
X0089792Y0233841D03*
D170*
X0089831Y0233841D03*
D171*
X0089871Y0233841D03*
X0089910Y0233841D03*
D172*
X0089950Y0233841D03*
D173*
X0089989Y0233841D03*
X0090028Y0233841D03*
D174*
X0090068Y0233841D03*
D175*
X0090107Y0233841D03*
X0090146Y0233841D03*
D176*
X0090186Y0233841D03*
D177*
X0090225Y0233841D03*
X0090265Y0233841D03*
D178*
X0090304Y0233841D03*
D179*
X0090343Y0233841D03*
X0090383Y0233841D03*
X0091524Y0233841D03*
D180*
X0091485Y0233841D03*
X0090422Y0233841D03*
D181*
X0090461Y0233841D03*
X0090501Y0233841D03*
X0091446Y0233841D03*
D182*
X0091406Y0233841D03*
X0090540Y0233841D03*
D183*
X0090580Y0233841D03*
X0091367Y0233841D03*
D184*
X0091328Y0233841D03*
X0090658Y0233841D03*
X0090619Y0233841D03*
D185*
X0090698Y0233841D03*
X0091288Y0233841D03*
D186*
X0091249Y0233841D03*
X0090776Y0233841D03*
X0090737Y0233841D03*
D187*
X0090816Y0233841D03*
X0091209Y0233841D03*
D188*
X0091170Y0233841D03*
X0090894Y0233841D03*
X0090855Y0233841D03*
D189*
X0090934Y0233841D03*
X0090973Y0233841D03*
X0091013Y0233841D03*
X0091091Y0233841D03*
X0091131Y0233841D03*
D190*
X0091052Y0233841D03*
D191*
X0092548Y0233841D03*
X0092587Y0233841D03*
X0092627Y0233841D03*
X0092666Y0233841D03*
X0091564Y0240534D03*
X0091564Y0227148D03*
D192*
X0091603Y0227148D03*
X0092706Y0233841D03*
X0092745Y0233841D03*
X0092784Y0233841D03*
X0092824Y0233841D03*
X0092863Y0233841D03*
X0091603Y0240534D03*
D193*
X0091643Y0240554D03*
X0091643Y0227128D03*
D194*
X0091682Y0233841D03*
D195*
X0091761Y0233841D03*
D196*
X0091800Y0233841D03*
D197*
X0091839Y0233841D03*
D198*
X0091879Y0240593D03*
X0091879Y0227089D03*
D199*
X0091879Y0233841D03*
D200*
X0091957Y0240613D03*
X0095028Y0233841D03*
X0095068Y0233841D03*
X0095107Y0233841D03*
X0095146Y0233841D03*
X0095186Y0233841D03*
X0091957Y0227069D03*
D201*
X0092036Y0227050D03*
X0092036Y0240632D03*
D202*
X0092115Y0240652D03*
X0092115Y0227030D03*
D203*
X0092154Y0233841D03*
D204*
X0092194Y0233821D03*
D205*
X0092233Y0233841D03*
D206*
X0092272Y0233841D03*
D207*
X0092312Y0240691D03*
X0092312Y0226991D03*
D208*
X0092312Y0233841D03*
D209*
X0092351Y0233841D03*
D210*
X0092391Y0240711D03*
X0092391Y0226971D03*
D211*
X0092391Y0233841D03*
D212*
X0092430Y0233841D03*
D213*
X0092469Y0240731D03*
X0092469Y0226951D03*
D214*
X0092469Y0233841D03*
D215*
X0092509Y0233821D03*
D216*
X0092548Y0240750D03*
X0092548Y0226931D03*
D217*
X0092824Y0226872D03*
X0092824Y0240809D03*
D218*
X0092902Y0240829D03*
X0092902Y0226853D03*
D219*
X0092902Y0233841D03*
X0092942Y0233841D03*
X0092981Y0233841D03*
X0093020Y0233841D03*
X0093060Y0233841D03*
X0093099Y0233841D03*
D220*
X0093139Y0233841D03*
X0093178Y0233841D03*
X0093217Y0233841D03*
X0093257Y0233841D03*
X0093296Y0233841D03*
D221*
X0093335Y0233841D03*
X0093375Y0233841D03*
X0093414Y0233841D03*
X0093454Y0233841D03*
X0093493Y0233841D03*
D222*
X0093965Y0233841D03*
X0094005Y0233841D03*
X0094044Y0233841D03*
X0094083Y0233841D03*
X0094123Y0233841D03*
D223*
X0094202Y0233841D03*
X0094241Y0233841D03*
X0094280Y0233841D03*
X0094320Y0233841D03*
X0094359Y0233841D03*
D224*
X0094398Y0233841D03*
X0094438Y0233841D03*
X0094477Y0233841D03*
X0094517Y0233841D03*
X0094556Y0233841D03*
D225*
X0095225Y0233841D03*
X0095265Y0233841D03*
X0095304Y0233841D03*
X0095343Y0233841D03*
X0095383Y0233841D03*
X0095422Y0233841D03*
D226*
X0095461Y0233841D03*
X0095501Y0233841D03*
M02*
